%TF.GenerationSoftware,KiCad,Pcbnew,8.0.5*%
%TF.CreationDate,2024-10-31T02:19:14+01:00*%
%TF.ProjectId,trinket,7472696e-6b65-4742-9e6b-696361645f70,rev?*%
%TF.SameCoordinates,Original*%
%TF.FileFunction,Copper,L1,Top*%
%TF.FilePolarity,Positive*%
%FSLAX46Y46*%
G04 Gerber Fmt 4.6, Leading zero omitted, Abs format (unit mm)*
G04 Created by KiCad (PCBNEW 8.0.5) date 2024-10-31 02:19:14*
%MOMM*%
%LPD*%
G01*
G04 APERTURE LIST*
G04 Aperture macros list*
%AMRoundRect*
0 Rectangle with rounded corners*
0 $1 Rounding radius*
0 $2 $3 $4 $5 $6 $7 $8 $9 X,Y pos of 4 corners*
0 Add a 4 corners polygon primitive as box body*
4,1,4,$2,$3,$4,$5,$6,$7,$8,$9,$2,$3,0*
0 Add four circle primitives for the rounded corners*
1,1,$1+$1,$2,$3*
1,1,$1+$1,$4,$5*
1,1,$1+$1,$6,$7*
1,1,$1+$1,$8,$9*
0 Add four rect primitives between the rounded corners*
20,1,$1+$1,$2,$3,$4,$5,0*
20,1,$1+$1,$4,$5,$6,$7,0*
20,1,$1+$1,$6,$7,$8,$9,0*
20,1,$1+$1,$8,$9,$2,$3,0*%
G04 Aperture macros list end*
%TA.AperFunction,ComponentPad*%
%ADD10R,1.700000X1.700000*%
%TD*%
%TA.AperFunction,ComponentPad*%
%ADD11O,1.700000X1.700000*%
%TD*%
%TA.AperFunction,SMDPad,CuDef*%
%ADD12RoundRect,0.250000X1.000000X-0.375000X1.000000X0.375000X-1.000000X0.375000X-1.000000X-0.375000X0*%
%TD*%
%TA.AperFunction,SMDPad,CuDef*%
%ADD13R,1.500000X2.000000*%
%TD*%
%TA.AperFunction,SMDPad,CuDef*%
%ADD14RoundRect,0.250000X0.475000X-0.337500X0.475000X0.337500X-0.475000X0.337500X-0.475000X-0.337500X0*%
%TD*%
%TA.AperFunction,SMDPad,CuDef*%
%ADD15RoundRect,0.250000X-0.450000X0.350000X-0.450000X-0.350000X0.450000X-0.350000X0.450000X0.350000X0*%
%TD*%
%TA.AperFunction,ComponentPad*%
%ADD16C,4.400000*%
%TD*%
%TA.AperFunction,SMDPad,CuDef*%
%ADD17RoundRect,0.250000X-0.350000X-0.450000X0.350000X-0.450000X0.350000X0.450000X-0.350000X0.450000X0*%
%TD*%
%TA.AperFunction,SMDPad,CuDef*%
%ADD18RoundRect,0.100000X-0.100000X0.217500X-0.100000X-0.217500X0.100000X-0.217500X0.100000X0.217500X0*%
%TD*%
%TA.AperFunction,SMDPad,CuDef*%
%ADD19RoundRect,0.250000X0.350000X0.450000X-0.350000X0.450000X-0.350000X-0.450000X0.350000X-0.450000X0*%
%TD*%
%TA.AperFunction,SMDPad,CuDef*%
%ADD20RoundRect,0.162500X0.162500X-0.447500X0.162500X0.447500X-0.162500X0.447500X-0.162500X-0.447500X0*%
%TD*%
%TA.AperFunction,SMDPad,CuDef*%
%ADD21RoundRect,0.162500X-0.162500X0.617500X-0.162500X-0.617500X0.162500X-0.617500X0.162500X0.617500X0*%
%TD*%
%TA.AperFunction,ViaPad*%
%ADD22C,0.600000*%
%TD*%
%TA.AperFunction,Conductor*%
%ADD23C,0.500000*%
%TD*%
%TA.AperFunction,Conductor*%
%ADD24C,0.300000*%
%TD*%
G04 APERTURE END LIST*
D10*
%TO.P,J1,1,Pin_1*%
%TO.N,GND*%
X108700000Y-59500000D03*
D11*
%TO.P,J1,2,Pin_2*%
%TO.N,+3V3*%
X111240000Y-59500000D03*
%TO.P,J1,3,Pin_3*%
%TO.N,OLED_SCL*%
X113780000Y-59500000D03*
%TO.P,J1,4,Pin_4*%
%TO.N,OLED_SDA*%
X116320000Y-59500000D03*
%TD*%
D12*
%TO.P,SW1,1,A*%
%TO.N,unconnected-(SW1-A-Pad1)*%
X139250000Y-71900000D03*
%TO.P,SW1,2,B*%
%TO.N,Net-(SW1-B)*%
X139250000Y-69400000D03*
%TO.P,SW1,3,C*%
%TO.N,VSYS*%
X139250000Y-66900000D03*
%TD*%
D10*
%TO.P,J8,1,GND*%
%TO.N,Net-(J8-GND)*%
X135000000Y-62080000D03*
D11*
%TO.P,J8,2,RX*%
%TO.N,Net-(J8-RX)*%
X135000000Y-59540000D03*
%TO.P,J8,3,TX*%
%TO.N,Net-(J8-TX)*%
X135000000Y-57000000D03*
%TD*%
D13*
%TO.P,SW4,1,1*%
%TO.N,BTRIGHT*%
X127000000Y-125300000D03*
X127000000Y-111000000D03*
%TO.P,SW4,2,2*%
%TO.N,GND*%
X132000000Y-125300000D03*
X132000000Y-111000000D03*
%TD*%
D14*
%TO.P,C2,1*%
%TO.N,Net-(SW1-B)*%
X95000000Y-83037500D03*
%TO.P,C2,2*%
%TO.N,GND*%
X95000000Y-80962500D03*
%TD*%
D13*
%TO.P,SW2,1,1*%
%TO.N,BTLEFT*%
X94000000Y-125300000D03*
X94000000Y-111000000D03*
%TO.P,SW2,2,2*%
%TO.N,GND*%
X99000000Y-125300000D03*
X99000000Y-111000000D03*
%TD*%
D10*
%TO.P,J9,1,B-*%
%TO.N,GND*%
X111000000Y-132540000D03*
D11*
%TO.P,J9,2,B+*%
%TO.N,VBAT+*%
X111000000Y-130000000D03*
%TD*%
D15*
%TO.P,R1,1*%
%TO.N,Net-(U2-PROG)*%
X93000000Y-71000000D03*
%TO.P,R1,2*%
%TO.N,GND*%
X93000000Y-73000000D03*
%TD*%
D16*
%TO.P,J3,1,Pin_1*%
%TO.N,unconnected-(J3-Pin_1-Pad1)*%
X85000000Y-55000000D03*
%TD*%
D17*
%TO.P,C3,1*%
%TO.N,VBAT+*%
X88000000Y-63000000D03*
%TO.P,C3,2*%
%TO.N,GND*%
X90000000Y-63000000D03*
%TD*%
D16*
%TO.P,J4,1,Pin_1*%
%TO.N,unconnected-(J4-Pin_1-Pad1)*%
X140000000Y-55000000D03*
%TD*%
%TO.P,J6,1,Pin_1*%
%TO.N,unconnected-(J6-Pin_1-Pad1)*%
X140000000Y-135000000D03*
%TD*%
D18*
%TO.P,D1,1,K*%
%TO.N,Net-(D1-K)*%
X87000000Y-72092500D03*
%TO.P,D1,2,A*%
%TO.N,Net-(D1-A)*%
X87000000Y-72907500D03*
%TD*%
D16*
%TO.P,J5,1,Pin_1*%
%TO.N,unconnected-(J5-Pin_1-Pad1)*%
X85000000Y-135000000D03*
%TD*%
D19*
%TO.P,R2,1*%
%TO.N,VUSB*%
X90000000Y-76000000D03*
%TO.P,R2,2*%
%TO.N,Net-(D1-A)*%
X88000000Y-76000000D03*
%TD*%
D20*
%TO.P,Q1,1*%
%TO.N,VUSB*%
X88050000Y-83620000D03*
%TO.P,Q1,2*%
%TO.N,Net-(SW1-B)*%
X89950000Y-83620000D03*
%TO.P,Q1,3*%
%TO.N,VBAT+*%
X89000000Y-81000000D03*
%TD*%
D21*
%TO.P,U2,1,STAT*%
%TO.N,Net-(D1-K)*%
X89950000Y-66650000D03*
%TO.P,U2,2,VSS*%
%TO.N,GND*%
X89000000Y-66650000D03*
%TO.P,U2,3,VBAT*%
%TO.N,VBAT+*%
X88050000Y-66650000D03*
%TO.P,U2,4,VDD*%
%TO.N,VUSB*%
X88050000Y-69350000D03*
%TO.P,U2,5,PROG*%
%TO.N,Net-(U2-PROG)*%
X89950000Y-69350000D03*
%TD*%
D10*
%TO.P,J2,1,Pin_1*%
%TO.N,GND*%
X96000000Y-63800000D03*
D11*
%TO.P,J2,2,Pin_2*%
%TO.N,+3V3*%
X96000000Y-61260000D03*
%TO.P,J2,3,Pin_3*%
%TO.N,OLED_SCL*%
X96000000Y-58720000D03*
%TO.P,J2,4,Pin_4*%
%TO.N,OLED_SDA*%
X96000000Y-56180000D03*
%TD*%
D13*
%TO.P,SW3,1,1*%
%TO.N,BTCENTER*%
X111450000Y-125300000D03*
X111450000Y-111000000D03*
%TO.P,SW3,2,2*%
%TO.N,GND*%
X116450000Y-125300000D03*
X116450000Y-111000000D03*
%TD*%
D11*
%TO.P,U1,1,GPIO0*%
%TO.N,Net-(J8-TX)*%
X121780000Y-51900000D03*
%TO.P,U1,2,GPIO1*%
%TO.N,Net-(J8-RX)*%
X121780000Y-54440000D03*
D10*
%TO.P,U1,3,GND*%
%TO.N,Net-(J8-GND)*%
X121780000Y-56980000D03*
D11*
%TO.P,U1,4,GPIO2*%
%TO.N,OLED_SDA*%
X121780000Y-59520000D03*
%TO.P,U1,5,GPIO3*%
%TO.N,OLED_SCL*%
X121780000Y-62060000D03*
%TO.P,U1,6,GPIO4*%
%TO.N,unconnected-(U1-GPIO4-Pad6)*%
X121780000Y-64600000D03*
%TO.P,U1,7,GPIO5*%
%TO.N,unconnected-(U1-GPIO5-Pad7)*%
X121780000Y-67140000D03*
D10*
%TO.P,U1,8,GND*%
%TO.N,GND*%
X121780000Y-69680000D03*
D11*
%TO.P,U1,9,GPIO6*%
%TO.N,unconnected-(U1-GPIO6-Pad9)*%
X121780000Y-72220000D03*
%TO.P,U1,10,GPIO7*%
%TO.N,unconnected-(U1-GPIO7-Pad10)*%
X121780000Y-74760000D03*
%TO.P,U1,11,GPIO8*%
%TO.N,unconnected-(U1-GPIO8-Pad11)*%
X121780000Y-77300000D03*
%TO.P,U1,12,GPIO9*%
%TO.N,unconnected-(U1-GPIO9-Pad12)*%
X121780000Y-79840000D03*
D10*
%TO.P,U1,13,GND*%
%TO.N,GND*%
X121780000Y-82380000D03*
D11*
%TO.P,U1,14,GPIO10*%
%TO.N,unconnected-(U1-GPIO10-Pad14)*%
X121780000Y-84920000D03*
%TO.P,U1,15,GPIO11*%
%TO.N,unconnected-(U1-GPIO11-Pad15)*%
X121780000Y-87460000D03*
%TO.P,U1,16,GPIO12*%
%TO.N,unconnected-(U1-GPIO12-Pad16)*%
X121780000Y-90000000D03*
%TO.P,U1,17,GPIO13*%
%TO.N,unconnected-(U1-GPIO13-Pad17)*%
X121780000Y-92540000D03*
D10*
%TO.P,U1,18,GND*%
%TO.N,GND*%
X121780000Y-95080000D03*
D11*
%TO.P,U1,19,GPIO14*%
%TO.N,unconnected-(U1-GPIO14-Pad19)*%
X121780000Y-97620000D03*
%TO.P,U1,20,GPIO15*%
%TO.N,unconnected-(U1-GPIO15-Pad20)*%
X121780000Y-100160000D03*
%TO.P,U1,21,GPIO16*%
%TO.N,BTLEFT*%
X104000000Y-100160000D03*
%TO.P,U1,22,GPIO17*%
%TO.N,BTCENTER*%
X104000000Y-97620000D03*
D10*
%TO.P,U1,23,GND*%
%TO.N,GND*%
X104000000Y-95080000D03*
D11*
%TO.P,U1,24,GPIO18*%
%TO.N,BTRIGHT*%
X104000000Y-92540000D03*
%TO.P,U1,25,GPIO19*%
%TO.N,unconnected-(U1-GPIO19-Pad25)*%
X104000000Y-90000000D03*
%TO.P,U1,26,GPIO20*%
%TO.N,unconnected-(U1-GPIO20-Pad26)*%
X104000000Y-87460000D03*
%TO.P,U1,27,GPIO21*%
%TO.N,unconnected-(U1-GPIO21-Pad27)*%
X104000000Y-84920000D03*
D10*
%TO.P,U1,28,GND*%
%TO.N,GND*%
X104000000Y-82380000D03*
D11*
%TO.P,U1,29,GPIO22*%
%TO.N,unconnected-(U1-GPIO22-Pad29)*%
X104000000Y-79840000D03*
%TO.P,U1,30,RUN*%
%TO.N,unconnected-(U1-RUN-Pad30)*%
X104000000Y-77300000D03*
%TO.P,U1,31,GPIO26_ADC0*%
%TO.N,unconnected-(U1-GPIO26_ADC0-Pad31)*%
X104000000Y-74760000D03*
%TO.P,U1,32,GPIO27_ADC1*%
%TO.N,unconnected-(U1-GPIO27_ADC1-Pad32)*%
X104000000Y-72220000D03*
D10*
%TO.P,U1,33,AGND*%
%TO.N,unconnected-(U1-AGND-Pad33)*%
X104000000Y-69680000D03*
D11*
%TO.P,U1,34,GPIO28_ADC2*%
%TO.N,unconnected-(U1-GPIO28_ADC2-Pad34)*%
X104000000Y-67140000D03*
%TO.P,U1,35,ADC_VREF*%
%TO.N,unconnected-(U1-ADC_VREF-Pad35)*%
X104000000Y-64600000D03*
%TO.P,U1,36,3V3*%
%TO.N,+3V3*%
X104000000Y-62060000D03*
%TO.P,U1,37,3V3_EN*%
%TO.N,unconnected-(U1-3V3_EN-Pad37)*%
X104000000Y-59520000D03*
D10*
%TO.P,U1,38,GND*%
%TO.N,GND*%
X104000000Y-56980000D03*
D11*
%TO.P,U1,39,VSYS*%
%TO.N,VSYS*%
X104000000Y-54440000D03*
%TO.P,U1,40,VBUS*%
%TO.N,VUSB*%
X104000000Y-51900000D03*
%TD*%
D22*
%TO.N,VBAT+*%
X87500000Y-79500000D03*
%TO.N,VSYS*%
X141000000Y-67000000D03*
%TD*%
D23*
%TO.N,VBAT+*%
X88050000Y-64000000D02*
X88000000Y-63950000D01*
X88050000Y-66650000D02*
X88050000Y-64000000D01*
X88000000Y-63950000D02*
X88000000Y-63000000D01*
X89000000Y-81000000D02*
X86000000Y-78000000D01*
X86000000Y-78000000D02*
X86000000Y-66700000D01*
X88050000Y-64650000D02*
X88050000Y-64000000D01*
X86000000Y-66700000D02*
X88050000Y-64650000D01*
%TO.N,VUSB*%
X89420708Y-82060000D02*
X90000000Y-81480708D01*
X83000000Y-78000000D02*
X87060000Y-82060000D01*
X87060000Y-82630000D02*
X88050000Y-83620000D01*
X104000000Y-51760000D02*
X93240000Y-51760000D01*
X90000000Y-76000000D02*
X88000000Y-74000000D01*
X90000000Y-81480708D02*
X90000000Y-76000000D01*
X93240000Y-51760000D02*
X83000000Y-62000000D01*
X87060000Y-82060000D02*
X87060000Y-82630000D01*
X88000000Y-74000000D02*
X88000000Y-69400000D01*
X87060000Y-82060000D02*
X89420708Y-82060000D01*
X88000000Y-69400000D02*
X88050000Y-69350000D01*
X83000000Y-62000000D02*
X83000000Y-78000000D01*
%TO.N,Net-(U2-PROG)*%
X90000000Y-69400000D02*
X90000000Y-70000000D01*
X91000000Y-71000000D02*
X93000000Y-71000000D01*
X89950000Y-69350000D02*
X90000000Y-69400000D01*
X90000000Y-70000000D02*
X91000000Y-71000000D01*
%TO.N,VSYS*%
X139350000Y-67000000D02*
X139250000Y-66900000D01*
X141000000Y-67000000D02*
X139350000Y-67000000D01*
%TO.N,Net-(SW1-B)*%
X95000000Y-83037500D02*
X95000000Y-85000000D01*
X129000000Y-138000000D02*
X141000000Y-126000000D01*
X89950000Y-83620000D02*
X90532500Y-83037500D01*
X90532500Y-83037500D02*
X95000000Y-83037500D01*
X93000000Y-138000000D02*
X129000000Y-138000000D01*
X95000000Y-85000000D02*
X83000000Y-97000000D01*
X83000000Y-128000000D02*
X93000000Y-138000000D01*
X141000000Y-71150000D02*
X139250000Y-69400000D01*
X141000000Y-126000000D02*
X141000000Y-71150000D01*
X83000000Y-97000000D02*
X83000000Y-128000000D01*
%TO.N,BTLEFT*%
X95000000Y-110000000D02*
X95000000Y-109020000D01*
X95000000Y-109020000D02*
X104000000Y-100020000D01*
X94000000Y-111000000D02*
X94000000Y-125300000D01*
X94000000Y-111000000D02*
X95000000Y-110000000D01*
%TO.N,BTCENTER*%
X104480000Y-97480000D02*
X104000000Y-97480000D01*
X111450000Y-125550000D02*
X109000000Y-128000000D01*
X91000000Y-117028680D02*
X91000000Y-110480000D01*
X91000000Y-110480000D02*
X104000000Y-97480000D01*
X109000000Y-128000000D02*
X94050000Y-128000000D01*
X111450000Y-111000000D02*
X111450000Y-125300000D01*
X94050000Y-128000000D02*
X92800000Y-126750000D01*
X111450000Y-125300000D02*
X111450000Y-125550000D01*
X90500000Y-124000000D02*
X90500000Y-117528680D01*
X92800000Y-126300000D02*
X90500000Y-124000000D01*
X92800000Y-126750000D02*
X92800000Y-126300000D01*
X90500000Y-117528680D02*
X91000000Y-117028680D01*
%TO.N,BTRIGHT*%
X100000000Y-93000000D02*
X101000000Y-93000000D01*
X121000000Y-134000000D02*
X97000000Y-134000000D01*
X101600000Y-92400000D02*
X104000000Y-92400000D01*
X127000000Y-128000000D02*
X121000000Y-134000000D01*
X101000000Y-93000000D02*
X101600000Y-92400000D01*
X127000000Y-125300000D02*
X127000000Y-128000000D01*
X88000000Y-105000000D02*
X100000000Y-93000000D01*
X88000000Y-125000000D02*
X88000000Y-105000000D01*
X127000000Y-111000000D02*
X127000000Y-125300000D01*
X97000000Y-134000000D02*
X88000000Y-125000000D01*
%TO.N,GND*%
X89000000Y-65500000D02*
X90000000Y-64500000D01*
X90000000Y-64500000D02*
X90000000Y-63000000D01*
X89000000Y-66650000D02*
X89000000Y-65500000D01*
D24*
%TO.N,Net-(D1-A)*%
X87000000Y-75000000D02*
X87000000Y-72907500D01*
X88000000Y-76000000D02*
X87000000Y-75000000D01*
%TO.N,Net-(D1-K)*%
X87000000Y-72092500D02*
X87000000Y-68749292D01*
X87000000Y-68749292D02*
X87869292Y-67880000D01*
X89620000Y-67880000D02*
X89950000Y-67550000D01*
X87869292Y-67880000D02*
X89620000Y-67880000D01*
X89950000Y-67550000D02*
X89950000Y-66650000D01*
%TD*%
%TA.AperFunction,Conductor*%
%TO.N,GND*%
G36*
X103317929Y-50520185D02*
G01*
X103363684Y-50572989D01*
X103373628Y-50642147D01*
X103344603Y-50705703D01*
X103322013Y-50726075D01*
X103128600Y-50861503D01*
X103078990Y-50911114D01*
X103016921Y-50973182D01*
X102955601Y-51006666D01*
X102929242Y-51009500D01*
X93166080Y-51009500D01*
X93021092Y-51038340D01*
X93021086Y-51038342D01*
X92884508Y-51094914D01*
X92884496Y-51094921D01*
X92835269Y-51127813D01*
X92761588Y-51177044D01*
X92761580Y-51177050D01*
X87640103Y-56298527D01*
X87578780Y-56332012D01*
X87509088Y-56327028D01*
X87453155Y-56285156D01*
X87428738Y-56219692D01*
X87439345Y-56159958D01*
X87529627Y-55959361D01*
X87626821Y-55647453D01*
X87685710Y-55326104D01*
X87705436Y-55000000D01*
X87685710Y-54673896D01*
X87626821Y-54352547D01*
X87529627Y-54040639D01*
X87395545Y-53742721D01*
X87226530Y-53463137D01*
X87226528Y-53463134D01*
X87226526Y-53463131D01*
X87025045Y-53205960D01*
X86794039Y-52974954D01*
X86536868Y-52773473D01*
X86529306Y-52768901D01*
X86257279Y-52604455D01*
X85959361Y-52470373D01*
X85959354Y-52470370D01*
X85959342Y-52470366D01*
X85647452Y-52373178D01*
X85326099Y-52314289D01*
X85000000Y-52294564D01*
X84673900Y-52314289D01*
X84352547Y-52373178D01*
X84040657Y-52470366D01*
X84040641Y-52470372D01*
X84040639Y-52470373D01*
X83945184Y-52513334D01*
X83742725Y-52604453D01*
X83742723Y-52604454D01*
X83463131Y-52773473D01*
X83205960Y-52974954D01*
X82974954Y-53205960D01*
X82773473Y-53463131D01*
X82604454Y-53742723D01*
X82604453Y-53742725D01*
X82470372Y-54040642D01*
X82470366Y-54040657D01*
X82373178Y-54352547D01*
X82314289Y-54673900D01*
X82294564Y-55000000D01*
X82314289Y-55326099D01*
X82373178Y-55647452D01*
X82470366Y-55959342D01*
X82470370Y-55959354D01*
X82470373Y-55959361D01*
X82604455Y-56257279D01*
X82643683Y-56322169D01*
X82773473Y-56536868D01*
X82974954Y-56794039D01*
X83205960Y-57025045D01*
X83463131Y-57226526D01*
X83463134Y-57226528D01*
X83463137Y-57226530D01*
X83742721Y-57395545D01*
X84040639Y-57529627D01*
X84040652Y-57529631D01*
X84040657Y-57529633D01*
X84352547Y-57626821D01*
X84673896Y-57685710D01*
X85000000Y-57705436D01*
X85326104Y-57685710D01*
X85647453Y-57626821D01*
X85959361Y-57529627D01*
X86159958Y-57439345D01*
X86229167Y-57429783D01*
X86292562Y-57459156D01*
X86330013Y-57518141D01*
X86329629Y-57588010D01*
X86298527Y-57640103D01*
X82417049Y-61521581D01*
X82377114Y-61581348D01*
X82377115Y-61581349D01*
X82334914Y-61644508D01*
X82278343Y-61781082D01*
X82278340Y-61781092D01*
X82249500Y-61926079D01*
X82249500Y-61926082D01*
X82249500Y-78073918D01*
X82249500Y-78073920D01*
X82249499Y-78073920D01*
X82278340Y-78218907D01*
X82278343Y-78218917D01*
X82334914Y-78355492D01*
X82367812Y-78404727D01*
X82367813Y-78404730D01*
X82417046Y-78478414D01*
X82417052Y-78478421D01*
X86273181Y-82334549D01*
X86306666Y-82395872D01*
X86309500Y-82422230D01*
X86309500Y-82703918D01*
X86309500Y-82703920D01*
X86309499Y-82703920D01*
X86338340Y-82848907D01*
X86338343Y-82848917D01*
X86394914Y-82985492D01*
X86427812Y-83034727D01*
X86427813Y-83034730D01*
X86477046Y-83108414D01*
X86477052Y-83108421D01*
X87188181Y-83819549D01*
X87221666Y-83880872D01*
X87224500Y-83907229D01*
X87224500Y-84121098D01*
X87230568Y-84187882D01*
X87230571Y-84187893D01*
X87278467Y-84341598D01*
X87278468Y-84341600D01*
X87278469Y-84341602D01*
X87361764Y-84479388D01*
X87361766Y-84479391D01*
X87475608Y-84593233D01*
X87475610Y-84593234D01*
X87475612Y-84593236D01*
X87613398Y-84676531D01*
X87767113Y-84724430D01*
X87833909Y-84730500D01*
X88266090Y-84730499D01*
X88266098Y-84730499D01*
X88332882Y-84724431D01*
X88332885Y-84724430D01*
X88332887Y-84724430D01*
X88486602Y-84676531D01*
X88624388Y-84593236D01*
X88738236Y-84479388D01*
X88821531Y-84341602D01*
X88869430Y-84187887D01*
X88875500Y-84121091D01*
X88875499Y-83118910D01*
X88875499Y-83118909D01*
X88875499Y-83118901D01*
X88869431Y-83052117D01*
X88869428Y-83052106D01*
X88844277Y-82971390D01*
X88843126Y-82901530D01*
X88879927Y-82842137D01*
X88942995Y-82812070D01*
X88962662Y-82810500D01*
X89037339Y-82810500D01*
X89104378Y-82830185D01*
X89150133Y-82882989D01*
X89160077Y-82952147D01*
X89155724Y-82971390D01*
X89130570Y-83052111D01*
X89124500Y-83118911D01*
X89124500Y-84121098D01*
X89130568Y-84187882D01*
X89130571Y-84187893D01*
X89178467Y-84341598D01*
X89178468Y-84341600D01*
X89178469Y-84341602D01*
X89261764Y-84479388D01*
X89261766Y-84479391D01*
X89375608Y-84593233D01*
X89375610Y-84593234D01*
X89375612Y-84593236D01*
X89513398Y-84676531D01*
X89667113Y-84724430D01*
X89733909Y-84730500D01*
X90166090Y-84730499D01*
X90166098Y-84730499D01*
X90232882Y-84724431D01*
X90232885Y-84724430D01*
X90232887Y-84724430D01*
X90386602Y-84676531D01*
X90524388Y-84593236D01*
X90638236Y-84479388D01*
X90721531Y-84341602D01*
X90769430Y-84187887D01*
X90775500Y-84121091D01*
X90775499Y-83912000D01*
X90795183Y-83844961D01*
X90847987Y-83799206D01*
X90899499Y-83788000D01*
X93828752Y-83788000D01*
X93895791Y-83807685D01*
X93926531Y-83838997D01*
X93927807Y-83837989D01*
X93932288Y-83843656D01*
X94056344Y-83967712D01*
X94190597Y-84050519D01*
X94237321Y-84102465D01*
X94249500Y-84156057D01*
X94249500Y-84637769D01*
X94229815Y-84704808D01*
X94213181Y-84725450D01*
X82417052Y-96521578D01*
X82417046Y-96521585D01*
X82377010Y-96581504D01*
X82377011Y-96581505D01*
X82334913Y-96644508D01*
X82278343Y-96781082D01*
X82278340Y-96781092D01*
X82249500Y-96926079D01*
X82249500Y-96926082D01*
X82249500Y-128073918D01*
X82249500Y-128073920D01*
X82249499Y-128073920D01*
X82278340Y-128218907D01*
X82278343Y-128218917D01*
X82334914Y-128355492D01*
X82367812Y-128404727D01*
X82367813Y-128404730D01*
X82417046Y-128478414D01*
X82417052Y-128478421D01*
X86298529Y-132359897D01*
X86332014Y-132421220D01*
X86327030Y-132490912D01*
X86285158Y-132546845D01*
X86219694Y-132571262D01*
X86159957Y-132560654D01*
X85959361Y-132470373D01*
X85959354Y-132470370D01*
X85959342Y-132470366D01*
X85647452Y-132373178D01*
X85326099Y-132314289D01*
X85000000Y-132294564D01*
X84673900Y-132314289D01*
X84352547Y-132373178D01*
X84040657Y-132470366D01*
X84040641Y-132470372D01*
X84040639Y-132470373D01*
X83870725Y-132546845D01*
X83742725Y-132604453D01*
X83742723Y-132604454D01*
X83463131Y-132773473D01*
X83205960Y-132974954D01*
X82974954Y-133205960D01*
X82773473Y-133463131D01*
X82604454Y-133742723D01*
X82604453Y-133742725D01*
X82470372Y-134040642D01*
X82470366Y-134040657D01*
X82373178Y-134352547D01*
X82314289Y-134673900D01*
X82294564Y-135000000D01*
X82314289Y-135326099D01*
X82373178Y-135647452D01*
X82470366Y-135959342D01*
X82470370Y-135959354D01*
X82470373Y-135959361D01*
X82604455Y-136257279D01*
X82659925Y-136349037D01*
X82773473Y-136536868D01*
X82974954Y-136794039D01*
X83205960Y-137025045D01*
X83463131Y-137226526D01*
X83463134Y-137226528D01*
X83463137Y-137226530D01*
X83742721Y-137395545D01*
X84040639Y-137529627D01*
X84040652Y-137529631D01*
X84040657Y-137529633D01*
X84352547Y-137626821D01*
X84673896Y-137685710D01*
X85000000Y-137705436D01*
X85326104Y-137685710D01*
X85647453Y-137626821D01*
X85959361Y-137529627D01*
X86257279Y-137395545D01*
X86536863Y-137226530D01*
X86794036Y-137025048D01*
X87025048Y-136794036D01*
X87226530Y-136536863D01*
X87395545Y-136257279D01*
X87529627Y-135959361D01*
X87626821Y-135647453D01*
X87685710Y-135326104D01*
X87705436Y-135000000D01*
X87685710Y-134673896D01*
X87626821Y-134352547D01*
X87529627Y-134040639D01*
X87439344Y-133840039D01*
X87429782Y-133770830D01*
X87459156Y-133707435D01*
X87518140Y-133669984D01*
X87588009Y-133670368D01*
X87640102Y-133701470D01*
X92417049Y-138478416D01*
X92521584Y-138582951D01*
X92521587Y-138582953D01*
X92521588Y-138582954D01*
X92644503Y-138665083D01*
X92644506Y-138665085D01*
X92701079Y-138688518D01*
X92701080Y-138688518D01*
X92781088Y-138721659D01*
X92885065Y-138742341D01*
X92905573Y-138746420D01*
X92926081Y-138750500D01*
X92926082Y-138750500D01*
X129073920Y-138750500D01*
X129171462Y-138731096D01*
X129218913Y-138721658D01*
X129355495Y-138665084D01*
X129404729Y-138632186D01*
X129478416Y-138582952D01*
X133061368Y-135000000D01*
X137294564Y-135000000D01*
X137314289Y-135326099D01*
X137373178Y-135647452D01*
X137470366Y-135959342D01*
X137470370Y-135959354D01*
X137470373Y-135959361D01*
X137604455Y-136257279D01*
X137659925Y-136349037D01*
X137773473Y-136536868D01*
X137974954Y-136794039D01*
X138205960Y-137025045D01*
X138463131Y-137226526D01*
X138463134Y-137226528D01*
X138463137Y-137226530D01*
X138742721Y-137395545D01*
X139040639Y-137529627D01*
X139040652Y-137529631D01*
X139040657Y-137529633D01*
X139352547Y-137626821D01*
X139673896Y-137685710D01*
X140000000Y-137705436D01*
X140326104Y-137685710D01*
X140647453Y-137626821D01*
X140959361Y-137529627D01*
X141257279Y-137395545D01*
X141536863Y-137226530D01*
X141794036Y-137025048D01*
X142025048Y-136794036D01*
X142226530Y-136536863D01*
X142395545Y-136257279D01*
X142529627Y-135959361D01*
X142626821Y-135647453D01*
X142685710Y-135326104D01*
X142705436Y-135000000D01*
X142685710Y-134673896D01*
X142626821Y-134352547D01*
X142529627Y-134040639D01*
X142395545Y-133742721D01*
X142226530Y-133463137D01*
X142226528Y-133463134D01*
X142226526Y-133463131D01*
X142025045Y-133205960D01*
X141794039Y-132974954D01*
X141536868Y-132773473D01*
X141469906Y-132732993D01*
X141257279Y-132604455D01*
X140959361Y-132470373D01*
X140959354Y-132470370D01*
X140959342Y-132470366D01*
X140647452Y-132373178D01*
X140326099Y-132314289D01*
X140000000Y-132294564D01*
X139673900Y-132314289D01*
X139352547Y-132373178D01*
X139040657Y-132470366D01*
X139040641Y-132470372D01*
X139040639Y-132470373D01*
X138870725Y-132546845D01*
X138742725Y-132604453D01*
X138742723Y-132604454D01*
X138463131Y-132773473D01*
X138205960Y-132974954D01*
X137974954Y-133205960D01*
X137773473Y-133463131D01*
X137604454Y-133742723D01*
X137604453Y-133742725D01*
X137470372Y-134040642D01*
X137470366Y-134040657D01*
X137373178Y-134352547D01*
X137314289Y-134673900D01*
X137294564Y-135000000D01*
X133061368Y-135000000D01*
X141582952Y-126478416D01*
X141630417Y-126407379D01*
X141639019Y-126394505D01*
X141645534Y-126384753D01*
X141665084Y-126355495D01*
X141688518Y-126298920D01*
X141721659Y-126218912D01*
X141750500Y-126073917D01*
X141750500Y-125926082D01*
X141750500Y-73615689D01*
X141770185Y-73548650D01*
X141822989Y-73502895D01*
X141892147Y-73492951D01*
X141898682Y-73494070D01*
X141918103Y-73497933D01*
X141931006Y-73500500D01*
X141931007Y-73500500D01*
X142068995Y-73500500D01*
X142160041Y-73482389D01*
X142204328Y-73473580D01*
X142331811Y-73420775D01*
X142446542Y-73344114D01*
X142544114Y-73246542D01*
X142620775Y-73131811D01*
X142673580Y-73004328D01*
X142700500Y-72868993D01*
X142700500Y-72731007D01*
X142700500Y-72731004D01*
X142673581Y-72595677D01*
X142673580Y-72595676D01*
X142673580Y-72595672D01*
X142632834Y-72497302D01*
X142620778Y-72468195D01*
X142620771Y-72468182D01*
X142544114Y-72353458D01*
X142544111Y-72353454D01*
X142446545Y-72255888D01*
X142446541Y-72255885D01*
X142331817Y-72179228D01*
X142331804Y-72179221D01*
X142204332Y-72126421D01*
X142204322Y-72126418D01*
X142068995Y-72099500D01*
X142068993Y-72099500D01*
X141931007Y-72099500D01*
X141898690Y-72105928D01*
X141829099Y-72099699D01*
X141773922Y-72056836D01*
X141750678Y-71990946D01*
X141750500Y-71984310D01*
X141750500Y-71076079D01*
X141724644Y-70946097D01*
X141721659Y-70931088D01*
X141667410Y-70800123D01*
X141665766Y-70795526D01*
X141658733Y-70785001D01*
X141632186Y-70745270D01*
X141597819Y-70693834D01*
X141582956Y-70671589D01*
X141582952Y-70671584D01*
X141006540Y-70095172D01*
X140973055Y-70033849D01*
X140976514Y-69968488D01*
X140989999Y-69927797D01*
X141000500Y-69825009D01*
X141000499Y-68974992D01*
X140989999Y-68872203D01*
X140934814Y-68705666D01*
X140842712Y-68556344D01*
X140718656Y-68432288D01*
X140569334Y-68340186D01*
X140402797Y-68285001D01*
X140402795Y-68285000D01*
X140300010Y-68274500D01*
X138199998Y-68274500D01*
X138199981Y-68274501D01*
X138097203Y-68285000D01*
X138097200Y-68285001D01*
X137930668Y-68340185D01*
X137930663Y-68340187D01*
X137781342Y-68432289D01*
X137657289Y-68556342D01*
X137565187Y-68705663D01*
X137565185Y-68705668D01*
X137539853Y-68782116D01*
X137510001Y-68872203D01*
X137510001Y-68872204D01*
X137510000Y-68872204D01*
X137499500Y-68974983D01*
X137499500Y-69825001D01*
X137499501Y-69825019D01*
X137510000Y-69927796D01*
X137510001Y-69927799D01*
X137540918Y-70021098D01*
X137565186Y-70094334D01*
X137657288Y-70243656D01*
X137781344Y-70367712D01*
X137930666Y-70459814D01*
X138097203Y-70514999D01*
X138199991Y-70525500D01*
X139262769Y-70525499D01*
X139329808Y-70545183D01*
X139350450Y-70561818D01*
X139351451Y-70562819D01*
X139384936Y-70624142D01*
X139379952Y-70693834D01*
X139338080Y-70749767D01*
X139272616Y-70774184D01*
X139263770Y-70774500D01*
X138199998Y-70774500D01*
X138199981Y-70774501D01*
X138097203Y-70785000D01*
X138097200Y-70785001D01*
X137930668Y-70840185D01*
X137930663Y-70840187D01*
X137781342Y-70932289D01*
X137657289Y-71056342D01*
X137565187Y-71205663D01*
X137565185Y-71205668D01*
X137537349Y-71289670D01*
X137510001Y-71372203D01*
X137510001Y-71372204D01*
X137510000Y-71372204D01*
X137499500Y-71474983D01*
X137499500Y-72325001D01*
X137499501Y-72325019D01*
X137510000Y-72427796D01*
X137510001Y-72427799D01*
X137533035Y-72497309D01*
X137565186Y-72594334D01*
X137657288Y-72743656D01*
X137781344Y-72867712D01*
X137930666Y-72959814D01*
X138097203Y-73014999D01*
X138199991Y-73025500D01*
X140125500Y-73025499D01*
X140192539Y-73045184D01*
X140238294Y-73097987D01*
X140249500Y-73149499D01*
X140249500Y-125637770D01*
X140229815Y-125704809D01*
X140213181Y-125725451D01*
X128725451Y-137213181D01*
X128664128Y-137246666D01*
X128637770Y-137249500D01*
X93362229Y-137249500D01*
X93295190Y-137229815D01*
X93274548Y-137213181D01*
X83786819Y-127725451D01*
X83753334Y-127664128D01*
X83750500Y-127637770D01*
X83750500Y-97362230D01*
X83770185Y-97295191D01*
X83786819Y-97274549D01*
X95582950Y-85478418D01*
X95582952Y-85478416D01*
X95646263Y-85383663D01*
X95646269Y-85383655D01*
X95652592Y-85374189D01*
X95665084Y-85355495D01*
X95688518Y-85298920D01*
X95721659Y-85218912D01*
X95750500Y-85073917D01*
X95750500Y-84926082D01*
X95750500Y-84156057D01*
X95770185Y-84089018D01*
X95809401Y-84050520D01*
X95943656Y-83967712D01*
X96067712Y-83843656D01*
X96159814Y-83694334D01*
X96214999Y-83527797D01*
X96225500Y-83425009D01*
X96225499Y-82649992D01*
X96214999Y-82547203D01*
X96159814Y-82380666D01*
X96067712Y-82231344D01*
X95943656Y-82107288D01*
X95940342Y-82105243D01*
X95938546Y-82103248D01*
X95937989Y-82102807D01*
X95938064Y-82102711D01*
X95893618Y-82053297D01*
X95882397Y-81984334D01*
X95910240Y-81920252D01*
X95940348Y-81894165D01*
X95943342Y-81892318D01*
X96067315Y-81768345D01*
X96159356Y-81619124D01*
X96159358Y-81619119D01*
X96214505Y-81452697D01*
X96214506Y-81452690D01*
X96224999Y-81349986D01*
X96225000Y-81349973D01*
X96225000Y-81212500D01*
X93775001Y-81212500D01*
X93775001Y-81349986D01*
X93785494Y-81452697D01*
X93840641Y-81619119D01*
X93840643Y-81619124D01*
X93932684Y-81768345D01*
X94056655Y-81892316D01*
X94056659Y-81892319D01*
X94059656Y-81894168D01*
X94061279Y-81895972D01*
X94062323Y-81896798D01*
X94062181Y-81896976D01*
X94106381Y-81946116D01*
X94117602Y-82015079D01*
X94089759Y-82079161D01*
X94059661Y-82105241D01*
X94056349Y-82107283D01*
X94056343Y-82107288D01*
X93932288Y-82231343D01*
X93927807Y-82237011D01*
X93925984Y-82235569D01*
X93882335Y-82274825D01*
X93828752Y-82287000D01*
X90554438Y-82287000D01*
X90487399Y-82267315D01*
X90441644Y-82214511D01*
X90431700Y-82145353D01*
X90460725Y-82081797D01*
X90466757Y-82075319D01*
X90582947Y-81959128D01*
X90582950Y-81959125D01*
X90582952Y-81959123D01*
X90626355Y-81894165D01*
X90649592Y-81859389D01*
X90655796Y-81850101D01*
X90665084Y-81836203D01*
X90712530Y-81721659D01*
X90721659Y-81699620D01*
X90750500Y-81554625D01*
X90750500Y-81406790D01*
X90750500Y-80575013D01*
X93775000Y-80575013D01*
X93775000Y-80712500D01*
X94750000Y-80712500D01*
X95250000Y-80712500D01*
X96224999Y-80712500D01*
X96224999Y-80575028D01*
X96224998Y-80575013D01*
X96214505Y-80472302D01*
X96159358Y-80305880D01*
X96159356Y-80305875D01*
X96067315Y-80156654D01*
X95943345Y-80032684D01*
X95794124Y-79940643D01*
X95794119Y-79940641D01*
X95627697Y-79885494D01*
X95627690Y-79885493D01*
X95524986Y-79875000D01*
X95250000Y-79875000D01*
X95250000Y-80712500D01*
X94750000Y-80712500D01*
X94750000Y-79875000D01*
X94475029Y-79875000D01*
X94475012Y-79875001D01*
X94372302Y-79885494D01*
X94205880Y-79940641D01*
X94205875Y-79940643D01*
X94056654Y-80032684D01*
X93932684Y-80156654D01*
X93840643Y-80305875D01*
X93840641Y-80305880D01*
X93785494Y-80472302D01*
X93785493Y-80472309D01*
X93775000Y-80575013D01*
X90750500Y-80575013D01*
X90750500Y-77153957D01*
X90770185Y-77086918D01*
X90809407Y-77048416D01*
X90818656Y-77042712D01*
X90942712Y-76918656D01*
X91034814Y-76769334D01*
X91089999Y-76602797D01*
X91100500Y-76500009D01*
X91100499Y-75499992D01*
X91094149Y-75437834D01*
X91089999Y-75397203D01*
X91089998Y-75397200D01*
X91034814Y-75230666D01*
X90942712Y-75081344D01*
X90818656Y-74957288D01*
X90669334Y-74865186D01*
X90502797Y-74810001D01*
X90502795Y-74810000D01*
X90400016Y-74799500D01*
X90400009Y-74799500D01*
X89912230Y-74799500D01*
X89845191Y-74779815D01*
X89824549Y-74763181D01*
X88786819Y-73725451D01*
X88753334Y-73664128D01*
X88750500Y-73637770D01*
X88750500Y-73399986D01*
X91800001Y-73399986D01*
X91810494Y-73502697D01*
X91865641Y-73669119D01*
X91865643Y-73669124D01*
X91957684Y-73818345D01*
X92081654Y-73942315D01*
X92230875Y-74034356D01*
X92230880Y-74034358D01*
X92397302Y-74089505D01*
X92397309Y-74089506D01*
X92500019Y-74099999D01*
X92749999Y-74099999D01*
X93250000Y-74099999D01*
X93499972Y-74099999D01*
X93499986Y-74099998D01*
X93602697Y-74089505D01*
X93769119Y-74034358D01*
X93769124Y-74034356D01*
X93918345Y-73942315D01*
X94042315Y-73818345D01*
X94134356Y-73669124D01*
X94134358Y-73669119D01*
X94189505Y-73502697D01*
X94189506Y-73502690D01*
X94199999Y-73399986D01*
X94200000Y-73399973D01*
X94200000Y-73250000D01*
X93250000Y-73250000D01*
X93250000Y-74099999D01*
X92749999Y-74099999D01*
X92750000Y-74099998D01*
X92750000Y-73250000D01*
X91800001Y-73250000D01*
X91800001Y-73399986D01*
X88750500Y-73399986D01*
X88750500Y-70393667D01*
X88768384Y-70329516D01*
X88821531Y-70241602D01*
X88869430Y-70087887D01*
X88875500Y-70021091D01*
X88875499Y-68678910D01*
X88875498Y-68678901D01*
X88874301Y-68665723D01*
X88887837Y-68597177D01*
X88936283Y-68546831D01*
X88997792Y-68530500D01*
X89002208Y-68530500D01*
X89069247Y-68550185D01*
X89115002Y-68602989D01*
X89125698Y-68665721D01*
X89124500Y-68678909D01*
X89124500Y-68678910D01*
X89124500Y-68678915D01*
X89124500Y-70021098D01*
X89130568Y-70087882D01*
X89130571Y-70087893D01*
X89178467Y-70241598D01*
X89178468Y-70241600D01*
X89178469Y-70241602D01*
X89254706Y-70367712D01*
X89261766Y-70379391D01*
X89375608Y-70493233D01*
X89375610Y-70493234D01*
X89375612Y-70493236D01*
X89489060Y-70561818D01*
X89504980Y-70571442D01*
X89528511Y-70589878D01*
X90417049Y-71478416D01*
X90521584Y-71582951D01*
X90521587Y-71582953D01*
X90521588Y-71582954D01*
X90644503Y-71665083D01*
X90644506Y-71665085D01*
X90701079Y-71688518D01*
X90701080Y-71688518D01*
X90781088Y-71721659D01*
X90897241Y-71744763D01*
X90916468Y-71748587D01*
X90926081Y-71750500D01*
X90926082Y-71750500D01*
X90926083Y-71750500D01*
X91073918Y-71750500D01*
X91846042Y-71750500D01*
X91913081Y-71770185D01*
X91951580Y-71809402D01*
X91957287Y-71818655D01*
X92051304Y-71912672D01*
X92084789Y-71973995D01*
X92079805Y-72043687D01*
X92051305Y-72088034D01*
X91957682Y-72181657D01*
X91865643Y-72330875D01*
X91865641Y-72330880D01*
X91810494Y-72497302D01*
X91810493Y-72497309D01*
X91800000Y-72600013D01*
X91800000Y-72750000D01*
X94199999Y-72750000D01*
X94199999Y-72600028D01*
X94199998Y-72600013D01*
X94189505Y-72497302D01*
X94134358Y-72330880D01*
X94134356Y-72330875D01*
X94042315Y-72181654D01*
X93948695Y-72088034D01*
X93915210Y-72026711D01*
X93920194Y-71957019D01*
X93948691Y-71912676D01*
X94042712Y-71818656D01*
X94134814Y-71669334D01*
X94189999Y-71502797D01*
X94200500Y-71400009D01*
X94200499Y-70599992D01*
X94198239Y-70577872D01*
X94189999Y-70497203D01*
X94189998Y-70497200D01*
X94177609Y-70459812D01*
X94134814Y-70330666D01*
X94042712Y-70181344D01*
X93918656Y-70057288D01*
X93814666Y-69993147D01*
X93769336Y-69965187D01*
X93769331Y-69965185D01*
X93767862Y-69964698D01*
X93602797Y-69910001D01*
X93602795Y-69910000D01*
X93500010Y-69899500D01*
X92499998Y-69899500D01*
X92499980Y-69899501D01*
X92397203Y-69910000D01*
X92397200Y-69910001D01*
X92230668Y-69965185D01*
X92230663Y-69965187D01*
X92081342Y-70057289D01*
X91957287Y-70181344D01*
X91951580Y-70190598D01*
X91899632Y-70237322D01*
X91846042Y-70249500D01*
X91362229Y-70249500D01*
X91295190Y-70229815D01*
X91274548Y-70213181D01*
X90811818Y-69750451D01*
X90778333Y-69689128D01*
X90775499Y-69662770D01*
X90775499Y-68678901D01*
X90769431Y-68612117D01*
X90769428Y-68612106D01*
X90721532Y-68458401D01*
X90721531Y-68458400D01*
X90721531Y-68458398D01*
X90638236Y-68320612D01*
X90638234Y-68320610D01*
X90638233Y-68320608D01*
X90524391Y-68206766D01*
X90504347Y-68194649D01*
X90465878Y-68171393D01*
X90418692Y-68119867D01*
X90406854Y-68051007D01*
X90434123Y-67986679D01*
X90442342Y-67977603D01*
X90455276Y-67964670D01*
X90526465Y-67858127D01*
X90564380Y-67766590D01*
X90591259Y-67726364D01*
X90591835Y-67725788D01*
X90638236Y-67679388D01*
X90721531Y-67541602D01*
X90769430Y-67387887D01*
X90775500Y-67321091D01*
X90775499Y-65978910D01*
X90775499Y-65978909D01*
X90775499Y-65978901D01*
X90769431Y-65912117D01*
X90769428Y-65912106D01*
X90721532Y-65758401D01*
X90721531Y-65758400D01*
X90721531Y-65758398D01*
X90638236Y-65620612D01*
X90638234Y-65620610D01*
X90638233Y-65620608D01*
X90524391Y-65506766D01*
X90386602Y-65423469D01*
X90232887Y-65375570D01*
X90232885Y-65375569D01*
X90232883Y-65375569D01*
X90186117Y-65371319D01*
X90166091Y-65369500D01*
X90166088Y-65369500D01*
X89733901Y-65369500D01*
X89667117Y-65375568D01*
X89667114Y-65375569D01*
X89511048Y-65424201D01*
X89441188Y-65425351D01*
X89437268Y-65424201D01*
X89282794Y-65376066D01*
X89250000Y-65373085D01*
X89250000Y-65605503D01*
X89232117Y-65669652D01*
X89178470Y-65758395D01*
X89178469Y-65758397D01*
X89178469Y-65758398D01*
X89173451Y-65774501D01*
X89130569Y-65912116D01*
X89126686Y-65954855D01*
X89124500Y-65978909D01*
X89124500Y-66544114D01*
X89124501Y-66776000D01*
X89104817Y-66843039D01*
X89052013Y-66888794D01*
X89000501Y-66900000D01*
X88999500Y-66900000D01*
X88932461Y-66880315D01*
X88886706Y-66827511D01*
X88875500Y-66776000D01*
X88875499Y-65978901D01*
X88869431Y-65912117D01*
X88869428Y-65912106D01*
X88821532Y-65758400D01*
X88821528Y-65758392D01*
X88818382Y-65753187D01*
X88800500Y-65689040D01*
X88800500Y-64112230D01*
X88820185Y-64045191D01*
X88836813Y-64024554D01*
X88912675Y-63948692D01*
X88973994Y-63915210D01*
X89043686Y-63920194D01*
X89088034Y-63948695D01*
X89181654Y-64042315D01*
X89330875Y-64134356D01*
X89330880Y-64134358D01*
X89497302Y-64189505D01*
X89497309Y-64189506D01*
X89600019Y-64199999D01*
X89749999Y-64199999D01*
X90250000Y-64199999D01*
X90399972Y-64199999D01*
X90399986Y-64199998D01*
X90502697Y-64189505D01*
X90669119Y-64134358D01*
X90669124Y-64134356D01*
X90818345Y-64042315D01*
X90942315Y-63918345D01*
X91034356Y-63769124D01*
X91034358Y-63769119D01*
X91089505Y-63602697D01*
X91089506Y-63602690D01*
X91099999Y-63499986D01*
X91100000Y-63499973D01*
X91100000Y-63250000D01*
X90250000Y-63250000D01*
X90250000Y-64199999D01*
X89749999Y-64199999D01*
X89750000Y-64199998D01*
X89750000Y-62750000D01*
X90250000Y-62750000D01*
X91099999Y-62750000D01*
X91099999Y-62500028D01*
X91099998Y-62500013D01*
X91089505Y-62397302D01*
X91034358Y-62230880D01*
X91034356Y-62230875D01*
X90942315Y-62081654D01*
X90818345Y-61957684D01*
X90669124Y-61865643D01*
X90669119Y-61865641D01*
X90502697Y-61810494D01*
X90502690Y-61810493D01*
X90399986Y-61800000D01*
X90250000Y-61800000D01*
X90250000Y-62750000D01*
X89750000Y-62750000D01*
X89750000Y-61800000D01*
X89600027Y-61800000D01*
X89600012Y-61800001D01*
X89497302Y-61810494D01*
X89330880Y-61865641D01*
X89330875Y-61865643D01*
X89181657Y-61957682D01*
X89088034Y-62051305D01*
X89026710Y-62084789D01*
X88957019Y-62079805D01*
X88912672Y-62051304D01*
X88818657Y-61957289D01*
X88818656Y-61957288D01*
X88669334Y-61865186D01*
X88502797Y-61810001D01*
X88502795Y-61810000D01*
X88400010Y-61799500D01*
X87599998Y-61799500D01*
X87599980Y-61799501D01*
X87497203Y-61810000D01*
X87497200Y-61810001D01*
X87330668Y-61865185D01*
X87330663Y-61865187D01*
X87181342Y-61957289D01*
X87057289Y-62081342D01*
X86965187Y-62230663D01*
X86965185Y-62230668D01*
X86948186Y-62281968D01*
X86910001Y-62397203D01*
X86910001Y-62397204D01*
X86910000Y-62397204D01*
X86899500Y-62499983D01*
X86899500Y-63500001D01*
X86899501Y-63500019D01*
X86910000Y-63602796D01*
X86910001Y-63602799D01*
X86951687Y-63728597D01*
X86965186Y-63769334D01*
X87057096Y-63918345D01*
X87057289Y-63918657D01*
X87181343Y-64042711D01*
X87181347Y-64042714D01*
X87217312Y-64064898D01*
X87264037Y-64116846D01*
X87273832Y-64146243D01*
X87278340Y-64168909D01*
X87278342Y-64168915D01*
X87290061Y-64197206D01*
X87299500Y-64244658D01*
X87299500Y-64287769D01*
X87279815Y-64354808D01*
X87263181Y-64375450D01*
X85417050Y-66221580D01*
X85417044Y-66221588D01*
X85367812Y-66295268D01*
X85367813Y-66295269D01*
X85334921Y-66344496D01*
X85334914Y-66344508D01*
X85278342Y-66481086D01*
X85278340Y-66481092D01*
X85249500Y-66626079D01*
X85249500Y-66626082D01*
X85249500Y-78073918D01*
X85249500Y-78073920D01*
X85249499Y-78073920D01*
X85278340Y-78218907D01*
X85278343Y-78218917D01*
X85334914Y-78355492D01*
X85367812Y-78404727D01*
X85367813Y-78404730D01*
X85417046Y-78478414D01*
X85417052Y-78478421D01*
X86746692Y-79808060D01*
X86769356Y-79844123D01*
X86771186Y-79843242D01*
X86774208Y-79849516D01*
X86774210Y-79849519D01*
X86774211Y-79849522D01*
X86870184Y-80002262D01*
X86997738Y-80129816D01*
X87150478Y-80225789D01*
X87150483Y-80225792D01*
X87156753Y-80228812D01*
X87155870Y-80230643D01*
X87191940Y-80253308D01*
X87651132Y-80712500D01*
X88036452Y-81097819D01*
X88069937Y-81159142D01*
X88064953Y-81228833D01*
X88023081Y-81284767D01*
X87957617Y-81309184D01*
X87948771Y-81309500D01*
X87422230Y-81309500D01*
X87355191Y-81289815D01*
X87334549Y-81273181D01*
X83786819Y-77725451D01*
X83753334Y-77664128D01*
X83750500Y-77637770D01*
X83750500Y-62362230D01*
X83770185Y-62295191D01*
X83786819Y-62274549D01*
X89881369Y-56179999D01*
X94644341Y-56179999D01*
X94644341Y-56180000D01*
X94664936Y-56415403D01*
X94664938Y-56415413D01*
X94726094Y-56643655D01*
X94726096Y-56643659D01*
X94726097Y-56643663D01*
X94782489Y-56764596D01*
X94825965Y-56857830D01*
X94825967Y-56857834D01*
X94961501Y-57051395D01*
X94961506Y-57051402D01*
X95128597Y-57218493D01*
X95128603Y-57218498D01*
X95314158Y-57348425D01*
X95357783Y-57403002D01*
X95364977Y-57472500D01*
X95333454Y-57534855D01*
X95314158Y-57551575D01*
X95128597Y-57681505D01*
X94961505Y-57848597D01*
X94825965Y-58042169D01*
X94825964Y-58042171D01*
X94726098Y-58256335D01*
X94726094Y-58256344D01*
X94664938Y-58484586D01*
X94664936Y-58484596D01*
X94644341Y-58719999D01*
X94644341Y-58720000D01*
X94664936Y-58955403D01*
X94664938Y-58955413D01*
X94726094Y-59183655D01*
X94726096Y-59183659D01*
X94726097Y-59183663D01*
X94825965Y-59397830D01*
X94825967Y-59397834D01*
X94961501Y-59591395D01*
X94961506Y-59591402D01*
X95128597Y-59758493D01*
X95128603Y-59758498D01*
X95314158Y-59888425D01*
X95357783Y-59943002D01*
X95364977Y-60012500D01*
X95333454Y-60074855D01*
X95314158Y-60091575D01*
X95128597Y-60221505D01*
X94961505Y-60388597D01*
X94825965Y-60582169D01*
X94825964Y-60582171D01*
X94726098Y-60796335D01*
X94726094Y-60796344D01*
X94664938Y-61024586D01*
X94664936Y-61024596D01*
X94644341Y-61259999D01*
X94644341Y-61260000D01*
X94664936Y-61495403D01*
X94664938Y-61495413D01*
X94726094Y-61723655D01*
X94726096Y-61723659D01*
X94726097Y-61723663D01*
X94792091Y-61865187D01*
X94825965Y-61937830D01*
X94825967Y-61937834D01*
X94905420Y-62051304D01*
X94961501Y-62131396D01*
X94961506Y-62131402D01*
X95083818Y-62253714D01*
X95117303Y-62315037D01*
X95112319Y-62384729D01*
X95070447Y-62440662D01*
X95039471Y-62457577D01*
X94907912Y-62506646D01*
X94907906Y-62506649D01*
X94792812Y-62592809D01*
X94792809Y-62592812D01*
X94706649Y-62707906D01*
X94706645Y-62707913D01*
X94656403Y-62842620D01*
X94656401Y-62842627D01*
X94650000Y-62902155D01*
X94650000Y-63550000D01*
X95566988Y-63550000D01*
X95534075Y-63607007D01*
X95500000Y-63734174D01*
X95500000Y-63865826D01*
X95534075Y-63992993D01*
X95566988Y-64050000D01*
X94650000Y-64050000D01*
X94650000Y-64697844D01*
X94656401Y-64757372D01*
X94656403Y-64757379D01*
X94706645Y-64892086D01*
X94706649Y-64892093D01*
X94792809Y-65007187D01*
X94792812Y-65007190D01*
X94907906Y-65093350D01*
X94907913Y-65093354D01*
X95042620Y-65143596D01*
X95042627Y-65143598D01*
X95102155Y-65149999D01*
X95102172Y-65150000D01*
X95750000Y-65150000D01*
X95750000Y-64233012D01*
X95807007Y-64265925D01*
X95934174Y-64300000D01*
X96065826Y-64300000D01*
X96192993Y-64265925D01*
X96250000Y-64233012D01*
X96250000Y-65150000D01*
X96897828Y-65150000D01*
X96897844Y-65149999D01*
X96957372Y-65143598D01*
X96957379Y-65143596D01*
X97092086Y-65093354D01*
X97092093Y-65093350D01*
X97207187Y-65007190D01*
X97207190Y-65007187D01*
X97293350Y-64892093D01*
X97293354Y-64892086D01*
X97343596Y-64757379D01*
X97343598Y-64757372D01*
X97349999Y-64697844D01*
X97350000Y-64697827D01*
X97350000Y-64050000D01*
X96433012Y-64050000D01*
X96465925Y-63992993D01*
X96500000Y-63865826D01*
X96500000Y-63734174D01*
X96465925Y-63607007D01*
X96433012Y-63550000D01*
X97350000Y-63550000D01*
X97350000Y-62902172D01*
X97349999Y-62902155D01*
X97343598Y-62842627D01*
X97343596Y-62842620D01*
X97293354Y-62707913D01*
X97293350Y-62707906D01*
X97207190Y-62592812D01*
X97207187Y-62592809D01*
X97092093Y-62506649D01*
X97092088Y-62506646D01*
X96960528Y-62457577D01*
X96904595Y-62415705D01*
X96880178Y-62350241D01*
X96895030Y-62281968D01*
X96916175Y-62253720D01*
X97038495Y-62131401D01*
X97174035Y-61937830D01*
X97273903Y-61723663D01*
X97335063Y-61495408D01*
X97355659Y-61260000D01*
X97335063Y-61024592D01*
X97284798Y-60836998D01*
X97273905Y-60796344D01*
X97273904Y-60796343D01*
X97273903Y-60796337D01*
X97174035Y-60582171D01*
X97143452Y-60538493D01*
X97038494Y-60388597D01*
X96871402Y-60221506D01*
X96871396Y-60221501D01*
X96685842Y-60091575D01*
X96642217Y-60036998D01*
X96635023Y-59967500D01*
X96666546Y-59905145D01*
X96685842Y-59888425D01*
X96708026Y-59872891D01*
X96871401Y-59758495D01*
X97038495Y-59591401D01*
X97174035Y-59397830D01*
X97273903Y-59183663D01*
X97335063Y-58955408D01*
X97355659Y-58720000D01*
X97335063Y-58484592D01*
X97273903Y-58256337D01*
X97174035Y-58042171D01*
X97171464Y-58038498D01*
X97038494Y-57848597D01*
X96871402Y-57681506D01*
X96871396Y-57681501D01*
X96685842Y-57551575D01*
X96642217Y-57496998D01*
X96635023Y-57427500D01*
X96666546Y-57365145D01*
X96685842Y-57348425D01*
X96764787Y-57293147D01*
X96871401Y-57218495D01*
X97038495Y-57051401D01*
X97174035Y-56857830D01*
X97273903Y-56643663D01*
X97335063Y-56415408D01*
X97355659Y-56180000D01*
X97335063Y-55944592D01*
X97288626Y-55771285D01*
X97273905Y-55716344D01*
X97273904Y-55716343D01*
X97273903Y-55716337D01*
X97174035Y-55502171D01*
X97126101Y-55433713D01*
X97038494Y-55308597D01*
X96871402Y-55141506D01*
X96871395Y-55141501D01*
X96677834Y-55005967D01*
X96677830Y-55005965D01*
X96665038Y-55000000D01*
X96463663Y-54906097D01*
X96463659Y-54906096D01*
X96463655Y-54906094D01*
X96235413Y-54844938D01*
X96235403Y-54844936D01*
X96000001Y-54824341D01*
X95999999Y-54824341D01*
X95764596Y-54844936D01*
X95764586Y-54844938D01*
X95536344Y-54906094D01*
X95536335Y-54906098D01*
X95322171Y-55005964D01*
X95322169Y-55005965D01*
X95128597Y-55141505D01*
X94961505Y-55308597D01*
X94825965Y-55502169D01*
X94825964Y-55502171D01*
X94726098Y-55716335D01*
X94726094Y-55716344D01*
X94664938Y-55944586D01*
X94664936Y-55944596D01*
X94644341Y-56179999D01*
X89881369Y-56179999D01*
X93514549Y-52546819D01*
X93575872Y-52513334D01*
X93602230Y-52510500D01*
X102715572Y-52510500D01*
X102782611Y-52530185D01*
X102821167Y-52574346D01*
X102823257Y-52573140D01*
X102825965Y-52577831D01*
X102961501Y-52771395D01*
X102961506Y-52771402D01*
X103128597Y-52938493D01*
X103128603Y-52938498D01*
X103314158Y-53068425D01*
X103357783Y-53123002D01*
X103364977Y-53192500D01*
X103333454Y-53254855D01*
X103314158Y-53271575D01*
X103128597Y-53401505D01*
X102961505Y-53568597D01*
X102825965Y-53762169D01*
X102825964Y-53762171D01*
X102726098Y-53976335D01*
X102726094Y-53976344D01*
X102664938Y-54204586D01*
X102664936Y-54204596D01*
X102644341Y-54439999D01*
X102644341Y-54440000D01*
X102664936Y-54675403D01*
X102664938Y-54675413D01*
X102726094Y-54903655D01*
X102726096Y-54903659D01*
X102726097Y-54903663D01*
X102825965Y-55117830D01*
X102825967Y-55117834D01*
X102934281Y-55272521D01*
X102961501Y-55311396D01*
X102961506Y-55311402D01*
X103083818Y-55433714D01*
X103117303Y-55495037D01*
X103112319Y-55564729D01*
X103070447Y-55620662D01*
X103039471Y-55637577D01*
X102907912Y-55686646D01*
X102907906Y-55686649D01*
X102792812Y-55772809D01*
X102792809Y-55772812D01*
X102706649Y-55887906D01*
X102706645Y-55887913D01*
X102656403Y-56022620D01*
X102656401Y-56022627D01*
X102650000Y-56082155D01*
X102650000Y-56730000D01*
X103555440Y-56730000D01*
X103524755Y-56783147D01*
X103490000Y-56912857D01*
X103490000Y-57047143D01*
X103524755Y-57176853D01*
X103555440Y-57230000D01*
X102650000Y-57230000D01*
X102650000Y-57877844D01*
X102656401Y-57937372D01*
X102656403Y-57937379D01*
X102706645Y-58072086D01*
X102706649Y-58072093D01*
X102792809Y-58187187D01*
X102792812Y-58187190D01*
X102907906Y-58273350D01*
X102907913Y-58273354D01*
X103039470Y-58322421D01*
X103095403Y-58364292D01*
X103119821Y-58429756D01*
X103104970Y-58498029D01*
X103083819Y-58526284D01*
X102961503Y-58648600D01*
X102825965Y-58842169D01*
X102825964Y-58842171D01*
X102726098Y-59056335D01*
X102726094Y-59056344D01*
X102664938Y-59284586D01*
X102664936Y-59284596D01*
X102644341Y-59519999D01*
X102644341Y-59520000D01*
X102664936Y-59755403D01*
X102664938Y-59755413D01*
X102726094Y-59983655D01*
X102726096Y-59983659D01*
X102726097Y-59983663D01*
X102796678Y-60135023D01*
X102825965Y-60197830D01*
X102825967Y-60197834D01*
X102961501Y-60391395D01*
X102961506Y-60391402D01*
X103128597Y-60558493D01*
X103128603Y-60558498D01*
X103314158Y-60688425D01*
X103357783Y-60743002D01*
X103364977Y-60812500D01*
X103333454Y-60874855D01*
X103314158Y-60891575D01*
X103128597Y-61021505D01*
X102961505Y-61188597D01*
X102825965Y-61382169D01*
X102825964Y-61382171D01*
X102726098Y-61596335D01*
X102726094Y-61596344D01*
X102664938Y-61824586D01*
X102664936Y-61824596D01*
X102644341Y-62059999D01*
X102644341Y-62060000D01*
X102664936Y-62295403D01*
X102664938Y-62295413D01*
X102726094Y-62523655D01*
X102726096Y-62523659D01*
X102726097Y-62523663D01*
X102825965Y-62737830D01*
X102825967Y-62737834D01*
X102961501Y-62931395D01*
X102961506Y-62931402D01*
X103128597Y-63098493D01*
X103128603Y-63098498D01*
X103314158Y-63228425D01*
X103357783Y-63283002D01*
X103364977Y-63352500D01*
X103333454Y-63414855D01*
X103314158Y-63431575D01*
X103128597Y-63561505D01*
X102961505Y-63728597D01*
X102825965Y-63922169D01*
X102825964Y-63922171D01*
X102726098Y-64136335D01*
X102726094Y-64136344D01*
X102664938Y-64364586D01*
X102664936Y-64364596D01*
X102644341Y-64599999D01*
X102644341Y-64600000D01*
X102664936Y-64835403D01*
X102664938Y-64835413D01*
X102726094Y-65063655D01*
X102726096Y-65063659D01*
X102726097Y-65063663D01*
X102766357Y-65150000D01*
X102825965Y-65277830D01*
X102825967Y-65277834D01*
X102961501Y-65471395D01*
X102961506Y-65471402D01*
X103128597Y-65638493D01*
X103128603Y-65638498D01*
X103314158Y-65768425D01*
X103357783Y-65823002D01*
X103364977Y-65892500D01*
X103333454Y-65954855D01*
X103314158Y-65971575D01*
X103128597Y-66101505D01*
X102961505Y-66268597D01*
X102825965Y-66462169D01*
X102825964Y-66462171D01*
X102726098Y-66676335D01*
X102726094Y-66676344D01*
X102664938Y-66904586D01*
X102664936Y-66904596D01*
X102644341Y-67139999D01*
X102644341Y-67140000D01*
X102664936Y-67375403D01*
X102664938Y-67375413D01*
X102726094Y-67603655D01*
X102726096Y-67603659D01*
X102726097Y-67603663D01*
X102808441Y-67780249D01*
X102825965Y-67817830D01*
X102825967Y-67817834D01*
X102925382Y-67959812D01*
X102961501Y-68011396D01*
X102961506Y-68011402D01*
X103083430Y-68133326D01*
X103116915Y-68194649D01*
X103111931Y-68264341D01*
X103070059Y-68320274D01*
X103039083Y-68337189D01*
X102907669Y-68386203D01*
X102907664Y-68386206D01*
X102792455Y-68472452D01*
X102792452Y-68472455D01*
X102706206Y-68587664D01*
X102706202Y-68587671D01*
X102655908Y-68722517D01*
X102649501Y-68782116D01*
X102649501Y-68782123D01*
X102649500Y-68782135D01*
X102649500Y-70577870D01*
X102649501Y-70577876D01*
X102655908Y-70637483D01*
X102706202Y-70772328D01*
X102706206Y-70772335D01*
X102792452Y-70887544D01*
X102792455Y-70887547D01*
X102907664Y-70973793D01*
X102907671Y-70973797D01*
X103039081Y-71022810D01*
X103095015Y-71064681D01*
X103119432Y-71130145D01*
X103104580Y-71198418D01*
X103083430Y-71226673D01*
X102961503Y-71348600D01*
X102825965Y-71542169D01*
X102825964Y-71542171D01*
X102726098Y-71756335D01*
X102726094Y-71756344D01*
X102664938Y-71984586D01*
X102664936Y-71984596D01*
X102644341Y-72219999D01*
X102644341Y-72220000D01*
X102664936Y-72455403D01*
X102664938Y-72455413D01*
X102726094Y-72683655D01*
X102726096Y-72683659D01*
X102726097Y-72683663D01*
X102754073Y-72743657D01*
X102825965Y-72897830D01*
X102825967Y-72897834D01*
X102961501Y-73091395D01*
X102961506Y-73091402D01*
X103128597Y-73258493D01*
X103128603Y-73258498D01*
X103314158Y-73388425D01*
X103357783Y-73443002D01*
X103364977Y-73512500D01*
X103333454Y-73574855D01*
X103314158Y-73591575D01*
X103128597Y-73721505D01*
X102961505Y-73888597D01*
X102825965Y-74082169D01*
X102825964Y-74082171D01*
X102726098Y-74296335D01*
X102726094Y-74296344D01*
X102664938Y-74524586D01*
X102664936Y-74524596D01*
X102644341Y-74759999D01*
X102644341Y-74760000D01*
X102664936Y-74995403D01*
X102664938Y-74995413D01*
X102726094Y-75223655D01*
X102726096Y-75223659D01*
X102726097Y-75223663D01*
X102807019Y-75397200D01*
X102825965Y-75437830D01*
X102825967Y-75437834D01*
X102961501Y-75631395D01*
X102961506Y-75631402D01*
X103128597Y-75798493D01*
X103128603Y-75798498D01*
X103314158Y-75928425D01*
X103357783Y-75983002D01*
X103364977Y-76052500D01*
X103333454Y-76114855D01*
X103314158Y-76131575D01*
X103128597Y-76261505D01*
X102961505Y-76428597D01*
X102825965Y-76622169D01*
X102825964Y-76622171D01*
X102726098Y-76836335D01*
X102726094Y-76836344D01*
X102664938Y-77064586D01*
X102664936Y-77064596D01*
X102644341Y-77299999D01*
X102644341Y-77300000D01*
X102664936Y-77535403D01*
X102664938Y-77535413D01*
X102726094Y-77763655D01*
X102726096Y-77763659D01*
X102726097Y-77763663D01*
X102825965Y-77977830D01*
X102825967Y-77977834D01*
X102961501Y-78171395D01*
X102961506Y-78171402D01*
X103128597Y-78338493D01*
X103128603Y-78338498D01*
X103314158Y-78468425D01*
X103357783Y-78523002D01*
X103364977Y-78592500D01*
X103333454Y-78654855D01*
X103314158Y-78671575D01*
X103128597Y-78801505D01*
X102961505Y-78968597D01*
X102825965Y-79162169D01*
X102825964Y-79162171D01*
X102726098Y-79376335D01*
X102726094Y-79376344D01*
X102664938Y-79604586D01*
X102664936Y-79604596D01*
X102644341Y-79839999D01*
X102644341Y-79840000D01*
X102664936Y-80075403D01*
X102664938Y-80075413D01*
X102726094Y-80303655D01*
X102726096Y-80303659D01*
X102726097Y-80303663D01*
X102727131Y-80305880D01*
X102825965Y-80517830D01*
X102825967Y-80517834D01*
X102934281Y-80672521D01*
X102961501Y-80711396D01*
X102961506Y-80711402D01*
X103083818Y-80833714D01*
X103117303Y-80895037D01*
X103112319Y-80964729D01*
X103070447Y-81020662D01*
X103039471Y-81037577D01*
X102907912Y-81086646D01*
X102907906Y-81086649D01*
X102792812Y-81172809D01*
X102792809Y-81172812D01*
X102706649Y-81287906D01*
X102706645Y-81287913D01*
X102656403Y-81422620D01*
X102656401Y-81422627D01*
X102650000Y-81482155D01*
X102650000Y-82130000D01*
X103555440Y-82130000D01*
X103524755Y-82183147D01*
X103490000Y-82312857D01*
X103490000Y-82447143D01*
X103524755Y-82576853D01*
X103555440Y-82630000D01*
X102650000Y-82630000D01*
X102650000Y-83277844D01*
X102656401Y-83337372D01*
X102656403Y-83337379D01*
X102706645Y-83472086D01*
X102706649Y-83472093D01*
X102792809Y-83587187D01*
X102792812Y-83587190D01*
X102907906Y-83673350D01*
X102907913Y-83673354D01*
X103039470Y-83722421D01*
X103095403Y-83764292D01*
X103119821Y-83829756D01*
X103104970Y-83898029D01*
X103083819Y-83926284D01*
X102961503Y-84048600D01*
X102825965Y-84242169D01*
X102825964Y-84242171D01*
X102726098Y-84456335D01*
X102726094Y-84456344D01*
X102664938Y-84684586D01*
X102664936Y-84684596D01*
X102644341Y-84919999D01*
X102644341Y-84920000D01*
X102664936Y-85155403D01*
X102664938Y-85155413D01*
X102726094Y-85383655D01*
X102726097Y-85383662D01*
X102825965Y-85597830D01*
X102825967Y-85597834D01*
X102961501Y-85791395D01*
X102961506Y-85791402D01*
X103128597Y-85958493D01*
X103128603Y-85958498D01*
X103314158Y-86088425D01*
X103357783Y-86143002D01*
X103364977Y-86212500D01*
X103333454Y-86274855D01*
X103314158Y-86291575D01*
X103128597Y-86421505D01*
X102961505Y-86588597D01*
X102825965Y-86782169D01*
X102825964Y-86782171D01*
X102726098Y-86996335D01*
X102726094Y-86996344D01*
X102664938Y-87224586D01*
X102664936Y-87224596D01*
X102644341Y-87459999D01*
X102644341Y-87460000D01*
X102664936Y-87695403D01*
X102664938Y-87695413D01*
X102726094Y-87923655D01*
X102726096Y-87923659D01*
X102726097Y-87923663D01*
X102825965Y-88137830D01*
X102825967Y-88137834D01*
X102961501Y-88331395D01*
X102961506Y-88331402D01*
X103128597Y-88498493D01*
X103128603Y-88498498D01*
X103314158Y-88628425D01*
X103357783Y-88683002D01*
X103364977Y-88752500D01*
X103333454Y-88814855D01*
X103314158Y-88831575D01*
X103128597Y-88961505D01*
X102961505Y-89128597D01*
X102825965Y-89322169D01*
X102825964Y-89322171D01*
X102726098Y-89536335D01*
X102726094Y-89536344D01*
X102664938Y-89764586D01*
X102664936Y-89764596D01*
X102644341Y-89999999D01*
X102644341Y-90000000D01*
X102664936Y-90235403D01*
X102664938Y-90235413D01*
X102726094Y-90463655D01*
X102726096Y-90463659D01*
X102726097Y-90463663D01*
X102825965Y-90677830D01*
X102825967Y-90677834D01*
X102961501Y-90871395D01*
X102961506Y-90871402D01*
X103128597Y-91038493D01*
X103128603Y-91038498D01*
X103314158Y-91168425D01*
X103357783Y-91223002D01*
X103364977Y-91292500D01*
X103333454Y-91354855D01*
X103314158Y-91371575D01*
X103128600Y-91501503D01*
X103072762Y-91557342D01*
X103016921Y-91613182D01*
X102955601Y-91646666D01*
X102929242Y-91649500D01*
X101526080Y-91649500D01*
X101381092Y-91678340D01*
X101381082Y-91678343D01*
X101244511Y-91734912D01*
X101244498Y-91734919D01*
X101121584Y-91817048D01*
X101121580Y-91817051D01*
X100725451Y-92213181D01*
X100664128Y-92246666D01*
X100637770Y-92249500D01*
X99926076Y-92249500D01*
X99897242Y-92255234D01*
X99897243Y-92255235D01*
X99781093Y-92278339D01*
X99781083Y-92278342D01*
X99701081Y-92311479D01*
X99701082Y-92311480D01*
X99644502Y-92334917D01*
X99595269Y-92367813D01*
X99521588Y-92417044D01*
X99521580Y-92417050D01*
X87417050Y-104521580D01*
X87417044Y-104521588D01*
X87367812Y-104595268D01*
X87367813Y-104595269D01*
X87334921Y-104644496D01*
X87334914Y-104644508D01*
X87278342Y-104781086D01*
X87278340Y-104781092D01*
X87249500Y-104926079D01*
X87249500Y-104926082D01*
X87249500Y-125073918D01*
X87249500Y-125073920D01*
X87249499Y-125073920D01*
X87278340Y-125218907D01*
X87278343Y-125218917D01*
X87334913Y-125355490D01*
X87334914Y-125355491D01*
X87334916Y-125355495D01*
X87347225Y-125373916D01*
X87347226Y-125373918D01*
X87417051Y-125478420D01*
X87417052Y-125478421D01*
X96521584Y-134582952D01*
X96521586Y-134582954D01*
X96551058Y-134602645D01*
X96595270Y-134632186D01*
X96644505Y-134665084D01*
X96644506Y-134665084D01*
X96644507Y-134665085D01*
X96644509Y-134665086D01*
X96781082Y-134721656D01*
X96781087Y-134721658D01*
X96781091Y-134721658D01*
X96781092Y-134721659D01*
X96926079Y-134750500D01*
X96926082Y-134750500D01*
X121073920Y-134750500D01*
X121171462Y-134731096D01*
X121218913Y-134721658D01*
X121355495Y-134665084D01*
X121404729Y-134632186D01*
X121404734Y-134632183D01*
X121429071Y-134615921D01*
X121478416Y-134582952D01*
X127582951Y-128478416D01*
X127665084Y-128355495D01*
X127721658Y-128218913D01*
X127750500Y-128073918D01*
X127750500Y-127926083D01*
X127750500Y-127926082D01*
X127750500Y-126916975D01*
X127770185Y-126849937D01*
X127822989Y-126804182D01*
X127850135Y-126796736D01*
X127849932Y-126795876D01*
X127857479Y-126794092D01*
X127857481Y-126794091D01*
X127857483Y-126794091D01*
X127992331Y-126743796D01*
X128107546Y-126657546D01*
X128193796Y-126542331D01*
X128244091Y-126407483D01*
X128250500Y-126347873D01*
X128250500Y-126347844D01*
X130750000Y-126347844D01*
X130756401Y-126407372D01*
X130756403Y-126407379D01*
X130806645Y-126542086D01*
X130806649Y-126542093D01*
X130892809Y-126657187D01*
X130892812Y-126657190D01*
X131007906Y-126743350D01*
X131007913Y-126743354D01*
X131142620Y-126793596D01*
X131142627Y-126793598D01*
X131202155Y-126799999D01*
X131202172Y-126800000D01*
X131750000Y-126800000D01*
X132250000Y-126800000D01*
X132797828Y-126800000D01*
X132797844Y-126799999D01*
X132857372Y-126793598D01*
X132857379Y-126793596D01*
X132992086Y-126743354D01*
X132992093Y-126743350D01*
X133107187Y-126657190D01*
X133107190Y-126657187D01*
X133193350Y-126542093D01*
X133193354Y-126542086D01*
X133243596Y-126407379D01*
X133243598Y-126407372D01*
X133249999Y-126347844D01*
X133250000Y-126347827D01*
X133250000Y-125550000D01*
X132250000Y-125550000D01*
X132250000Y-126800000D01*
X131750000Y-126800000D01*
X131750000Y-125550000D01*
X130750000Y-125550000D01*
X130750000Y-126347844D01*
X128250500Y-126347844D01*
X128250499Y-124252155D01*
X130750000Y-124252155D01*
X130750000Y-125050000D01*
X131750000Y-125050000D01*
X132250000Y-125050000D01*
X133250000Y-125050000D01*
X133250000Y-124252172D01*
X133249999Y-124252155D01*
X133243598Y-124192627D01*
X133243596Y-124192620D01*
X133193354Y-124057913D01*
X133193350Y-124057906D01*
X133107190Y-123942812D01*
X133107187Y-123942809D01*
X132992093Y-123856649D01*
X132992086Y-123856645D01*
X132857379Y-123806403D01*
X132857372Y-123806401D01*
X132797844Y-123800000D01*
X132250000Y-123800000D01*
X132250000Y-125050000D01*
X131750000Y-125050000D01*
X131750000Y-123800000D01*
X131202155Y-123800000D01*
X131142627Y-123806401D01*
X131142620Y-123806403D01*
X131007913Y-123856645D01*
X131007906Y-123856649D01*
X130892812Y-123942809D01*
X130892809Y-123942812D01*
X130806649Y-124057906D01*
X130806645Y-124057913D01*
X130756403Y-124192620D01*
X130756401Y-124192627D01*
X130750000Y-124252155D01*
X128250499Y-124252155D01*
X128250499Y-124252128D01*
X128244091Y-124192517D01*
X128199856Y-124073918D01*
X128193797Y-124057671D01*
X128193793Y-124057664D01*
X128107547Y-123942455D01*
X128107544Y-123942452D01*
X127992335Y-123856206D01*
X127992328Y-123856202D01*
X127857482Y-123805908D01*
X127849938Y-123804126D01*
X127850474Y-123801853D01*
X127796688Y-123779571D01*
X127756843Y-123722177D01*
X127750500Y-123683024D01*
X127750500Y-118051577D01*
X132749500Y-118051577D01*
X132749500Y-118248422D01*
X132780290Y-118442826D01*
X132841117Y-118630029D01*
X132930476Y-118805405D01*
X133046172Y-118964646D01*
X133185354Y-119103828D01*
X133344595Y-119219524D01*
X133426262Y-119261135D01*
X133519970Y-119308882D01*
X133519972Y-119308882D01*
X133519975Y-119308884D01*
X133620317Y-119341487D01*
X133707173Y-119369709D01*
X133901578Y-119400500D01*
X133901583Y-119400500D01*
X134098422Y-119400500D01*
X134292826Y-119369709D01*
X134480025Y-119308884D01*
X134655405Y-119219524D01*
X134814646Y-119103828D01*
X134953828Y-118964646D01*
X135069524Y-118805405D01*
X135158884Y-118630025D01*
X135219709Y-118442826D01*
X135250500Y-118248422D01*
X135250500Y-118051577D01*
X135219709Y-117857173D01*
X135158882Y-117669970D01*
X135069523Y-117494594D01*
X135040581Y-117454759D01*
X134953828Y-117335354D01*
X134814646Y-117196172D01*
X134655405Y-117080476D01*
X134480029Y-116991117D01*
X134292826Y-116930290D01*
X134098422Y-116899500D01*
X134098417Y-116899500D01*
X133901583Y-116899500D01*
X133901578Y-116899500D01*
X133707173Y-116930290D01*
X133519970Y-116991117D01*
X133344594Y-117080476D01*
X133253741Y-117146485D01*
X133185354Y-117196172D01*
X133185352Y-117196174D01*
X133185351Y-117196174D01*
X133046174Y-117335351D01*
X133046174Y-117335352D01*
X133046172Y-117335354D01*
X133027773Y-117360678D01*
X132930476Y-117494594D01*
X132841117Y-117669970D01*
X132780290Y-117857173D01*
X132749500Y-118051577D01*
X127750500Y-118051577D01*
X127750500Y-112616976D01*
X127770185Y-112549937D01*
X127822989Y-112504182D01*
X127850135Y-112496736D01*
X127849932Y-112495876D01*
X127857479Y-112494092D01*
X127857481Y-112494091D01*
X127857483Y-112494091D01*
X127992331Y-112443796D01*
X128107546Y-112357546D01*
X128193796Y-112242331D01*
X128244091Y-112107483D01*
X128250500Y-112047873D01*
X128250500Y-112047844D01*
X130750000Y-112047844D01*
X130756401Y-112107372D01*
X130756403Y-112107379D01*
X130806645Y-112242086D01*
X130806649Y-112242093D01*
X130892809Y-112357187D01*
X130892812Y-112357190D01*
X131007906Y-112443350D01*
X131007913Y-112443354D01*
X131142620Y-112493596D01*
X131142627Y-112493598D01*
X131202155Y-112499999D01*
X131202172Y-112500000D01*
X131750000Y-112500000D01*
X132250000Y-112500000D01*
X132797828Y-112500000D01*
X132797844Y-112499999D01*
X132857372Y-112493598D01*
X132857379Y-112493596D01*
X132992086Y-112443354D01*
X132992093Y-112443350D01*
X133107187Y-112357190D01*
X133107190Y-112357187D01*
X133193350Y-112242093D01*
X133193354Y-112242086D01*
X133243596Y-112107379D01*
X133243598Y-112107372D01*
X133249999Y-112047844D01*
X133250000Y-112047827D01*
X133250000Y-111250000D01*
X132250000Y-111250000D01*
X132250000Y-112500000D01*
X131750000Y-112500000D01*
X131750000Y-111250000D01*
X130750000Y-111250000D01*
X130750000Y-112047844D01*
X128250500Y-112047844D01*
X128250499Y-109952155D01*
X130750000Y-109952155D01*
X130750000Y-110750000D01*
X131750000Y-110750000D01*
X132250000Y-110750000D01*
X133250000Y-110750000D01*
X133250000Y-109952172D01*
X133249999Y-109952155D01*
X133243598Y-109892627D01*
X133243596Y-109892620D01*
X133193354Y-109757913D01*
X133193350Y-109757906D01*
X133107190Y-109642812D01*
X133107187Y-109642809D01*
X132992093Y-109556649D01*
X132992086Y-109556645D01*
X132857379Y-109506403D01*
X132857372Y-109506401D01*
X132797844Y-109500000D01*
X132250000Y-109500000D01*
X132250000Y-110750000D01*
X131750000Y-110750000D01*
X131750000Y-109500000D01*
X131202155Y-109500000D01*
X131142627Y-109506401D01*
X131142620Y-109506403D01*
X131007913Y-109556645D01*
X131007906Y-109556649D01*
X130892812Y-109642809D01*
X130892809Y-109642812D01*
X130806649Y-109757906D01*
X130806645Y-109757913D01*
X130756403Y-109892620D01*
X130756401Y-109892627D01*
X130750000Y-109952155D01*
X128250499Y-109952155D01*
X128250499Y-109952128D01*
X128244091Y-109892517D01*
X128193884Y-109757906D01*
X128193797Y-109757671D01*
X128193793Y-109757664D01*
X128107547Y-109642455D01*
X128107544Y-109642452D01*
X127992335Y-109556206D01*
X127992328Y-109556202D01*
X127857482Y-109505908D01*
X127857483Y-109505908D01*
X127797883Y-109499501D01*
X127797881Y-109499500D01*
X127797873Y-109499500D01*
X127797864Y-109499500D01*
X126202129Y-109499500D01*
X126202123Y-109499501D01*
X126142516Y-109505908D01*
X126007671Y-109556202D01*
X126007664Y-109556206D01*
X125892455Y-109642452D01*
X125892452Y-109642455D01*
X125806206Y-109757664D01*
X125806202Y-109757671D01*
X125755908Y-109892517D01*
X125752300Y-109926082D01*
X125749501Y-109952123D01*
X125749500Y-109952135D01*
X125749500Y-112047870D01*
X125749501Y-112047876D01*
X125755908Y-112107483D01*
X125806202Y-112242328D01*
X125806206Y-112242335D01*
X125892452Y-112357544D01*
X125892455Y-112357547D01*
X126007664Y-112443793D01*
X126007671Y-112443797D01*
X126142517Y-112494091D01*
X126150062Y-112495874D01*
X126149523Y-112498151D01*
X126203287Y-112520408D01*
X126243147Y-112577793D01*
X126249500Y-112616975D01*
X126249500Y-117360678D01*
X126229815Y-117427717D01*
X126177011Y-117473472D01*
X126107853Y-117483416D01*
X126044297Y-117454391D01*
X126025182Y-117433564D01*
X125972227Y-117360678D01*
X125953828Y-117335354D01*
X125814646Y-117196172D01*
X125655405Y-117080476D01*
X125480029Y-116991117D01*
X125292826Y-116930290D01*
X125098422Y-116899500D01*
X125098417Y-116899500D01*
X124901583Y-116899500D01*
X124901578Y-116899500D01*
X124707173Y-116930290D01*
X124519970Y-116991117D01*
X124344594Y-117080476D01*
X124253741Y-117146485D01*
X124185354Y-117196172D01*
X124185352Y-117196174D01*
X124185351Y-117196174D01*
X124046174Y-117335351D01*
X124046174Y-117335352D01*
X124046172Y-117335354D01*
X124027773Y-117360678D01*
X123930476Y-117494594D01*
X123841117Y-117669970D01*
X123780290Y-117857173D01*
X123749500Y-118051577D01*
X123749500Y-118248422D01*
X123780290Y-118442826D01*
X123841117Y-118630029D01*
X123930476Y-118805405D01*
X124046172Y-118964646D01*
X124185354Y-119103828D01*
X124344595Y-119219524D01*
X124426262Y-119261135D01*
X124519970Y-119308882D01*
X124519972Y-119308882D01*
X124519975Y-119308884D01*
X124620317Y-119341487D01*
X124707173Y-119369709D01*
X124901578Y-119400500D01*
X124901583Y-119400500D01*
X125098422Y-119400500D01*
X125292826Y-119369709D01*
X125480025Y-119308884D01*
X125655405Y-119219524D01*
X125814646Y-119103828D01*
X125953828Y-118964646D01*
X126025183Y-118866433D01*
X126080512Y-118823770D01*
X126150125Y-118817791D01*
X126211920Y-118850397D01*
X126246278Y-118911236D01*
X126249500Y-118939321D01*
X126249500Y-123683023D01*
X126229815Y-123750062D01*
X126177011Y-123795817D01*
X126149865Y-123803266D01*
X126150068Y-123804124D01*
X126142520Y-123805907D01*
X126007671Y-123856202D01*
X126007664Y-123856206D01*
X125892455Y-123942452D01*
X125892452Y-123942455D01*
X125806206Y-124057664D01*
X125806202Y-124057671D01*
X125755908Y-124192517D01*
X125749501Y-124252116D01*
X125749501Y-124252123D01*
X125749500Y-124252135D01*
X125749500Y-126347870D01*
X125749501Y-126347876D01*
X125755908Y-126407483D01*
X125806202Y-126542328D01*
X125806206Y-126542335D01*
X125892452Y-126657544D01*
X125892455Y-126657547D01*
X126007664Y-126743793D01*
X126007671Y-126743797D01*
X126142517Y-126794091D01*
X126150062Y-126795874D01*
X126149523Y-126798151D01*
X126203287Y-126820408D01*
X126243147Y-126877793D01*
X126249500Y-126916975D01*
X126249500Y-127637770D01*
X126229815Y-127704809D01*
X126213181Y-127725451D01*
X120725451Y-133213181D01*
X120664128Y-133246666D01*
X120637770Y-133249500D01*
X112474000Y-133249500D01*
X112406961Y-133229815D01*
X112361206Y-133177011D01*
X112350000Y-133125500D01*
X112350000Y-132790000D01*
X111433012Y-132790000D01*
X111465925Y-132732993D01*
X111500000Y-132605826D01*
X111500000Y-132474174D01*
X111465925Y-132347007D01*
X111433012Y-132290000D01*
X112350000Y-132290000D01*
X112350000Y-131642172D01*
X112349999Y-131642155D01*
X112343598Y-131582627D01*
X112343596Y-131582620D01*
X112293354Y-131447913D01*
X112293350Y-131447906D01*
X112207190Y-131332812D01*
X112207187Y-131332809D01*
X112092093Y-131246649D01*
X112092088Y-131246646D01*
X111960528Y-131197577D01*
X111904595Y-131155705D01*
X111880178Y-131090241D01*
X111895030Y-131021968D01*
X111916175Y-130993720D01*
X112038495Y-130871401D01*
X112174035Y-130677830D01*
X112273903Y-130463663D01*
X112335063Y-130235408D01*
X112355659Y-130000000D01*
X112335063Y-129764592D01*
X112273903Y-129536337D01*
X112174035Y-129322171D01*
X112038495Y-129128599D01*
X112038494Y-129128597D01*
X111871402Y-128961506D01*
X111871395Y-128961501D01*
X111677834Y-128825967D01*
X111677830Y-128825965D01*
X111677828Y-128825964D01*
X111463663Y-128726097D01*
X111463659Y-128726096D01*
X111463655Y-128726094D01*
X111235413Y-128664938D01*
X111235403Y-128664936D01*
X111000001Y-128644341D01*
X110999999Y-128644341D01*
X110764596Y-128664936D01*
X110764586Y-128664938D01*
X110536344Y-128726094D01*
X110536335Y-128726098D01*
X110322171Y-128825964D01*
X110322169Y-128825965D01*
X110128597Y-128961505D01*
X109961505Y-129128597D01*
X109825965Y-129322169D01*
X109825964Y-129322171D01*
X109726098Y-129536335D01*
X109726094Y-129536344D01*
X109664938Y-129764586D01*
X109664936Y-129764596D01*
X109644341Y-129999999D01*
X109644341Y-130000000D01*
X109664936Y-130235403D01*
X109664938Y-130235413D01*
X109726094Y-130463655D01*
X109726096Y-130463659D01*
X109726097Y-130463663D01*
X109825965Y-130677830D01*
X109825967Y-130677834D01*
X109934281Y-130832521D01*
X109961501Y-130871396D01*
X109961506Y-130871402D01*
X110083818Y-130993714D01*
X110117303Y-131055037D01*
X110112319Y-131124729D01*
X110070447Y-131180662D01*
X110039471Y-131197577D01*
X109907912Y-131246646D01*
X109907906Y-131246649D01*
X109792812Y-131332809D01*
X109792809Y-131332812D01*
X109706649Y-131447906D01*
X109706645Y-131447913D01*
X109656403Y-131582620D01*
X109656401Y-131582627D01*
X109650000Y-131642155D01*
X109650000Y-132290000D01*
X110566988Y-132290000D01*
X110534075Y-132347007D01*
X110500000Y-132474174D01*
X110500000Y-132605826D01*
X110534075Y-132732993D01*
X110566988Y-132790000D01*
X109650000Y-132790000D01*
X109650000Y-133125500D01*
X109630315Y-133192539D01*
X109577511Y-133238294D01*
X109526000Y-133249500D01*
X97362230Y-133249500D01*
X97295191Y-133229815D01*
X97274549Y-133213181D01*
X88786819Y-124725451D01*
X88753334Y-124664128D01*
X88750500Y-124637770D01*
X88750500Y-105362230D01*
X88770185Y-105295191D01*
X88786819Y-105274549D01*
X100274549Y-93786819D01*
X100335872Y-93753334D01*
X100362230Y-93750500D01*
X101073920Y-93750500D01*
X101171462Y-93731096D01*
X101218913Y-93721658D01*
X101355495Y-93665084D01*
X101404729Y-93632186D01*
X101478416Y-93582952D01*
X101874548Y-93186818D01*
X101935871Y-93153334D01*
X101962229Y-93150500D01*
X102715572Y-93150500D01*
X102782611Y-93170185D01*
X102821167Y-93214346D01*
X102823257Y-93213140D01*
X102825965Y-93217831D01*
X102931242Y-93368182D01*
X102961501Y-93411396D01*
X102961506Y-93411402D01*
X103083818Y-93533714D01*
X103117303Y-93595037D01*
X103112319Y-93664729D01*
X103070447Y-93720662D01*
X103039471Y-93737577D01*
X102907912Y-93786646D01*
X102907906Y-93786649D01*
X102792812Y-93872809D01*
X102792809Y-93872812D01*
X102706649Y-93987906D01*
X102706645Y-93987913D01*
X102656403Y-94122620D01*
X102656401Y-94122627D01*
X102650000Y-94182155D01*
X102650000Y-94830000D01*
X103555440Y-94830000D01*
X103524755Y-94883147D01*
X103490000Y-95012857D01*
X103490000Y-95147143D01*
X103524755Y-95276853D01*
X103555440Y-95330000D01*
X102650000Y-95330000D01*
X102650000Y-95977844D01*
X102656401Y-96037372D01*
X102656403Y-96037379D01*
X102706645Y-96172086D01*
X102706649Y-96172093D01*
X102792809Y-96287187D01*
X102792812Y-96287190D01*
X102907906Y-96373350D01*
X102907913Y-96373354D01*
X103039470Y-96422421D01*
X103095403Y-96464292D01*
X103119821Y-96529756D01*
X103104970Y-96598029D01*
X103083819Y-96626284D01*
X102961503Y-96748600D01*
X102825965Y-96942169D01*
X102825964Y-96942171D01*
X102726098Y-97156335D01*
X102726094Y-97156344D01*
X102664938Y-97384586D01*
X102664936Y-97384597D01*
X102644341Y-97620000D01*
X102651714Y-97704276D01*
X102637947Y-97772776D01*
X102615867Y-97802764D01*
X90417047Y-110001584D01*
X90417043Y-110001589D01*
X90368719Y-110073915D01*
X90368718Y-110073917D01*
X90363062Y-110082382D01*
X90334916Y-110124504D01*
X90334912Y-110124511D01*
X90278343Y-110261082D01*
X90278340Y-110261092D01*
X90249500Y-110406079D01*
X90249500Y-116666449D01*
X90229815Y-116733488D01*
X90213181Y-116754130D01*
X89917050Y-117050260D01*
X89917044Y-117050268D01*
X89867812Y-117123948D01*
X89867813Y-117123949D01*
X89834921Y-117173176D01*
X89834914Y-117173188D01*
X89778342Y-117309766D01*
X89778340Y-117309772D01*
X89749500Y-117454759D01*
X89749500Y-117454762D01*
X89749500Y-124073918D01*
X89749500Y-124073920D01*
X89749499Y-124073920D01*
X89778340Y-124218907D01*
X89778343Y-124218917D01*
X89834914Y-124355492D01*
X89867812Y-124404727D01*
X89867813Y-124404730D01*
X89917046Y-124478414D01*
X89917052Y-124478421D01*
X92013181Y-126574548D01*
X92046666Y-126635871D01*
X92049500Y-126662229D01*
X92049500Y-126823918D01*
X92049500Y-126823920D01*
X92049499Y-126823920D01*
X92078340Y-126968907D01*
X92078343Y-126968917D01*
X92134914Y-127105492D01*
X92167812Y-127154727D01*
X92167813Y-127154730D01*
X92217046Y-127228414D01*
X92217052Y-127228421D01*
X93571584Y-128582952D01*
X93571586Y-128582954D01*
X93601058Y-128602645D01*
X93645270Y-128632186D01*
X93694505Y-128665084D01*
X93694506Y-128665084D01*
X93694507Y-128665085D01*
X93694509Y-128665086D01*
X93831082Y-128721656D01*
X93831087Y-128721658D01*
X93831091Y-128721658D01*
X93831092Y-128721659D01*
X93976079Y-128750500D01*
X93976082Y-128750500D01*
X109073920Y-128750500D01*
X109196612Y-128726094D01*
X109218913Y-128721658D01*
X109355495Y-128665084D01*
X109404729Y-128632186D01*
X109404734Y-128632183D01*
X109429071Y-128615921D01*
X109478416Y-128582952D01*
X111224548Y-126836817D01*
X111285871Y-126803333D01*
X111312229Y-126800499D01*
X112247871Y-126800499D01*
X112247872Y-126800499D01*
X112307483Y-126794091D01*
X112442331Y-126743796D01*
X112557546Y-126657546D01*
X112643796Y-126542331D01*
X112694091Y-126407483D01*
X112700500Y-126347873D01*
X112700500Y-126347844D01*
X115200000Y-126347844D01*
X115206401Y-126407372D01*
X115206403Y-126407379D01*
X115256645Y-126542086D01*
X115256649Y-126542093D01*
X115342809Y-126657187D01*
X115342812Y-126657190D01*
X115457906Y-126743350D01*
X115457913Y-126743354D01*
X115592620Y-126793596D01*
X115592627Y-126793598D01*
X115652155Y-126799999D01*
X115652172Y-126800000D01*
X116200000Y-126800000D01*
X116700000Y-126800000D01*
X117247828Y-126800000D01*
X117247844Y-126799999D01*
X117307372Y-126793598D01*
X117307379Y-126793596D01*
X117442086Y-126743354D01*
X117442093Y-126743350D01*
X117557187Y-126657190D01*
X117557190Y-126657187D01*
X117643350Y-126542093D01*
X117643354Y-126542086D01*
X117693596Y-126407379D01*
X117693598Y-126407372D01*
X117699999Y-126347844D01*
X117700000Y-126347827D01*
X117700000Y-125550000D01*
X116700000Y-125550000D01*
X116700000Y-126800000D01*
X116200000Y-126800000D01*
X116200000Y-125550000D01*
X115200000Y-125550000D01*
X115200000Y-126347844D01*
X112700500Y-126347844D01*
X112700499Y-124252155D01*
X115200000Y-124252155D01*
X115200000Y-125050000D01*
X116200000Y-125050000D01*
X116700000Y-125050000D01*
X117700000Y-125050000D01*
X117700000Y-124252172D01*
X117699999Y-124252155D01*
X117693598Y-124192627D01*
X117693596Y-124192620D01*
X117643354Y-124057913D01*
X117643350Y-124057906D01*
X117557190Y-123942812D01*
X117557187Y-123942809D01*
X117442093Y-123856649D01*
X117442086Y-123856645D01*
X117307379Y-123806403D01*
X117307372Y-123806401D01*
X117247844Y-123800000D01*
X116700000Y-123800000D01*
X116700000Y-125050000D01*
X116200000Y-125050000D01*
X116200000Y-123800000D01*
X115652155Y-123800000D01*
X115592627Y-123806401D01*
X115592620Y-123806403D01*
X115457913Y-123856645D01*
X115457906Y-123856649D01*
X115342812Y-123942809D01*
X115342809Y-123942812D01*
X115256649Y-124057906D01*
X115256645Y-124057913D01*
X115206403Y-124192620D01*
X115206401Y-124192627D01*
X115200000Y-124252155D01*
X112700499Y-124252155D01*
X112700499Y-124252128D01*
X112694091Y-124192517D01*
X112649856Y-124073918D01*
X112643797Y-124057671D01*
X112643793Y-124057664D01*
X112557547Y-123942455D01*
X112557544Y-123942452D01*
X112442335Y-123856206D01*
X112442328Y-123856202D01*
X112307482Y-123805908D01*
X112299938Y-123804126D01*
X112300474Y-123801853D01*
X112246688Y-123779571D01*
X112206843Y-123722177D01*
X112200500Y-123683024D01*
X112200500Y-118051577D01*
X117199500Y-118051577D01*
X117199500Y-118248422D01*
X117230290Y-118442826D01*
X117291117Y-118630029D01*
X117380476Y-118805405D01*
X117496172Y-118964646D01*
X117635354Y-119103828D01*
X117794595Y-119219524D01*
X117876262Y-119261135D01*
X117969970Y-119308882D01*
X117969972Y-119308882D01*
X117969975Y-119308884D01*
X118070317Y-119341487D01*
X118157173Y-119369709D01*
X118351578Y-119400500D01*
X118351583Y-119400500D01*
X118548422Y-119400500D01*
X118742826Y-119369709D01*
X118930025Y-119308884D01*
X119105405Y-119219524D01*
X119264646Y-119103828D01*
X119403828Y-118964646D01*
X119519524Y-118805405D01*
X119608884Y-118630025D01*
X119669709Y-118442826D01*
X119700500Y-118248422D01*
X119700500Y-118051577D01*
X119669709Y-117857173D01*
X119608882Y-117669970D01*
X119519523Y-117494594D01*
X119490581Y-117454759D01*
X119403828Y-117335354D01*
X119264646Y-117196172D01*
X119105405Y-117080476D01*
X118930029Y-116991117D01*
X118742826Y-116930290D01*
X118548422Y-116899500D01*
X118548417Y-116899500D01*
X118351583Y-116899500D01*
X118351578Y-116899500D01*
X118157173Y-116930290D01*
X117969970Y-116991117D01*
X117794594Y-117080476D01*
X117703741Y-117146485D01*
X117635354Y-117196172D01*
X117635352Y-117196174D01*
X117635351Y-117196174D01*
X117496174Y-117335351D01*
X117496174Y-117335352D01*
X117496172Y-117335354D01*
X117477773Y-117360678D01*
X117380476Y-117494594D01*
X117291117Y-117669970D01*
X117230290Y-117857173D01*
X117199500Y-118051577D01*
X112200500Y-118051577D01*
X112200500Y-112616976D01*
X112220185Y-112549937D01*
X112272989Y-112504182D01*
X112300135Y-112496736D01*
X112299932Y-112495876D01*
X112307479Y-112494092D01*
X112307481Y-112494091D01*
X112307483Y-112494091D01*
X112442331Y-112443796D01*
X112557546Y-112357546D01*
X112643796Y-112242331D01*
X112694091Y-112107483D01*
X112700500Y-112047873D01*
X112700500Y-112047844D01*
X115200000Y-112047844D01*
X115206401Y-112107372D01*
X115206403Y-112107379D01*
X115256645Y-112242086D01*
X115256649Y-112242093D01*
X115342809Y-112357187D01*
X115342812Y-112357190D01*
X115457906Y-112443350D01*
X115457913Y-112443354D01*
X115592620Y-112493596D01*
X115592627Y-112493598D01*
X115652155Y-112499999D01*
X115652172Y-112500000D01*
X116200000Y-112500000D01*
X116700000Y-112500000D01*
X117247828Y-112500000D01*
X117247844Y-112499999D01*
X117307372Y-112493598D01*
X117307379Y-112493596D01*
X117442086Y-112443354D01*
X117442093Y-112443350D01*
X117557187Y-112357190D01*
X117557190Y-112357187D01*
X117643350Y-112242093D01*
X117643354Y-112242086D01*
X117693596Y-112107379D01*
X117693598Y-112107372D01*
X117699999Y-112047844D01*
X117700000Y-112047827D01*
X117700000Y-111250000D01*
X116700000Y-111250000D01*
X116700000Y-112500000D01*
X116200000Y-112500000D01*
X116200000Y-111250000D01*
X115200000Y-111250000D01*
X115200000Y-112047844D01*
X112700500Y-112047844D01*
X112700499Y-109952155D01*
X115200000Y-109952155D01*
X115200000Y-110750000D01*
X116200000Y-110750000D01*
X116700000Y-110750000D01*
X117700000Y-110750000D01*
X117700000Y-109952172D01*
X117699999Y-109952155D01*
X117693598Y-109892627D01*
X117693596Y-109892620D01*
X117643354Y-109757913D01*
X117643350Y-109757906D01*
X117557190Y-109642812D01*
X117557187Y-109642809D01*
X117442093Y-109556649D01*
X117442086Y-109556645D01*
X117307379Y-109506403D01*
X117307372Y-109506401D01*
X117247844Y-109500000D01*
X116700000Y-109500000D01*
X116700000Y-110750000D01*
X116200000Y-110750000D01*
X116200000Y-109500000D01*
X115652155Y-109500000D01*
X115592627Y-109506401D01*
X115592620Y-109506403D01*
X115457913Y-109556645D01*
X115457906Y-109556649D01*
X115342812Y-109642809D01*
X115342809Y-109642812D01*
X115256649Y-109757906D01*
X115256645Y-109757913D01*
X115206403Y-109892620D01*
X115206401Y-109892627D01*
X115200000Y-109952155D01*
X112700499Y-109952155D01*
X112700499Y-109952128D01*
X112694091Y-109892517D01*
X112643884Y-109757906D01*
X112643797Y-109757671D01*
X112643793Y-109757664D01*
X112557547Y-109642455D01*
X112557544Y-109642452D01*
X112442335Y-109556206D01*
X112442328Y-109556202D01*
X112307482Y-109505908D01*
X112307483Y-109505908D01*
X112247883Y-109499501D01*
X112247881Y-109499500D01*
X112247873Y-109499500D01*
X112247864Y-109499500D01*
X110652129Y-109499500D01*
X110652123Y-109499501D01*
X110592516Y-109505908D01*
X110457671Y-109556202D01*
X110457664Y-109556206D01*
X110342455Y-109642452D01*
X110342452Y-109642455D01*
X110256206Y-109757664D01*
X110256202Y-109757671D01*
X110205908Y-109892517D01*
X110202300Y-109926082D01*
X110199501Y-109952123D01*
X110199500Y-109952135D01*
X110199500Y-112047870D01*
X110199501Y-112047876D01*
X110205908Y-112107483D01*
X110256202Y-112242328D01*
X110256206Y-112242335D01*
X110342452Y-112357544D01*
X110342455Y-112357547D01*
X110457664Y-112443793D01*
X110457671Y-112443797D01*
X110592517Y-112494091D01*
X110600062Y-112495874D01*
X110599523Y-112498151D01*
X110653287Y-112520408D01*
X110693147Y-112577793D01*
X110699500Y-112616975D01*
X110699500Y-117360678D01*
X110679815Y-117427717D01*
X110627011Y-117473472D01*
X110557853Y-117483416D01*
X110494297Y-117454391D01*
X110475182Y-117433564D01*
X110422227Y-117360678D01*
X110403828Y-117335354D01*
X110264646Y-117196172D01*
X110105405Y-117080476D01*
X109930029Y-116991117D01*
X109742826Y-116930290D01*
X109548422Y-116899500D01*
X109548417Y-116899500D01*
X109351583Y-116899500D01*
X109351578Y-116899500D01*
X109157173Y-116930290D01*
X108969970Y-116991117D01*
X108794594Y-117080476D01*
X108703741Y-117146485D01*
X108635354Y-117196172D01*
X108635352Y-117196174D01*
X108635351Y-117196174D01*
X108496174Y-117335351D01*
X108496174Y-117335352D01*
X108496172Y-117335354D01*
X108477773Y-117360678D01*
X108380476Y-117494594D01*
X108291117Y-117669970D01*
X108230290Y-117857173D01*
X108199500Y-118051577D01*
X108199500Y-118248422D01*
X108230290Y-118442826D01*
X108291117Y-118630029D01*
X108380476Y-118805405D01*
X108496172Y-118964646D01*
X108635354Y-119103828D01*
X108794595Y-119219524D01*
X108876262Y-119261135D01*
X108969970Y-119308882D01*
X108969972Y-119308882D01*
X108969975Y-119308884D01*
X109070317Y-119341487D01*
X109157173Y-119369709D01*
X109351578Y-119400500D01*
X109351583Y-119400500D01*
X109548422Y-119400500D01*
X109742826Y-119369709D01*
X109930025Y-119308884D01*
X110105405Y-119219524D01*
X110264646Y-119103828D01*
X110403828Y-118964646D01*
X110475183Y-118866433D01*
X110530512Y-118823770D01*
X110600125Y-118817791D01*
X110661920Y-118850397D01*
X110696278Y-118911236D01*
X110699500Y-118939321D01*
X110699500Y-123683023D01*
X110679815Y-123750062D01*
X110627011Y-123795817D01*
X110599865Y-123803266D01*
X110600068Y-123804124D01*
X110592520Y-123805907D01*
X110457671Y-123856202D01*
X110457664Y-123856206D01*
X110342455Y-123942452D01*
X110342452Y-123942455D01*
X110256206Y-124057664D01*
X110256202Y-124057671D01*
X110205908Y-124192517D01*
X110199501Y-124252116D01*
X110199501Y-124252123D01*
X110199500Y-124252135D01*
X110199500Y-125687769D01*
X110179815Y-125754808D01*
X110163181Y-125775450D01*
X108725451Y-127213181D01*
X108664128Y-127246666D01*
X108637770Y-127249500D01*
X94412230Y-127249500D01*
X94345191Y-127229815D01*
X94324549Y-127213181D01*
X94123548Y-127012180D01*
X94090063Y-126950857D01*
X94095047Y-126881165D01*
X94136919Y-126825232D01*
X94202383Y-126800815D01*
X94211229Y-126800499D01*
X94797871Y-126800499D01*
X94797872Y-126800499D01*
X94857483Y-126794091D01*
X94992331Y-126743796D01*
X95107546Y-126657546D01*
X95193796Y-126542331D01*
X95244091Y-126407483D01*
X95250500Y-126347873D01*
X95250500Y-126347844D01*
X97750000Y-126347844D01*
X97756401Y-126407372D01*
X97756403Y-126407379D01*
X97806645Y-126542086D01*
X97806649Y-126542093D01*
X97892809Y-126657187D01*
X97892812Y-126657190D01*
X98007906Y-126743350D01*
X98007913Y-126743354D01*
X98142620Y-126793596D01*
X98142627Y-126793598D01*
X98202155Y-126799999D01*
X98202172Y-126800000D01*
X98750000Y-126800000D01*
X99250000Y-126800000D01*
X99797828Y-126800000D01*
X99797844Y-126799999D01*
X99857372Y-126793598D01*
X99857379Y-126793596D01*
X99992086Y-126743354D01*
X99992093Y-126743350D01*
X100107187Y-126657190D01*
X100107190Y-126657187D01*
X100193350Y-126542093D01*
X100193354Y-126542086D01*
X100243596Y-126407379D01*
X100243598Y-126407372D01*
X100249999Y-126347844D01*
X100250000Y-126347827D01*
X100250000Y-125550000D01*
X99250000Y-125550000D01*
X99250000Y-126800000D01*
X98750000Y-126800000D01*
X98750000Y-125550000D01*
X97750000Y-125550000D01*
X97750000Y-126347844D01*
X95250500Y-126347844D01*
X95250499Y-124252155D01*
X97750000Y-124252155D01*
X97750000Y-125050000D01*
X98750000Y-125050000D01*
X99250000Y-125050000D01*
X100250000Y-125050000D01*
X100250000Y-124252172D01*
X100249999Y-124252155D01*
X100243598Y-124192627D01*
X100243596Y-124192620D01*
X100193354Y-124057913D01*
X100193350Y-124057906D01*
X100107190Y-123942812D01*
X100107187Y-123942809D01*
X99992093Y-123856649D01*
X99992086Y-123856645D01*
X99857379Y-123806403D01*
X99857372Y-123806401D01*
X99797844Y-123800000D01*
X99250000Y-123800000D01*
X99250000Y-125050000D01*
X98750000Y-125050000D01*
X98750000Y-123800000D01*
X98202155Y-123800000D01*
X98142627Y-123806401D01*
X98142620Y-123806403D01*
X98007913Y-123856645D01*
X98007906Y-123856649D01*
X97892812Y-123942809D01*
X97892809Y-123942812D01*
X97806649Y-124057906D01*
X97806645Y-124057913D01*
X97756403Y-124192620D01*
X97756401Y-124192627D01*
X97750000Y-124252155D01*
X95250499Y-124252155D01*
X95250499Y-124252128D01*
X95244091Y-124192517D01*
X95199856Y-124073918D01*
X95193797Y-124057671D01*
X95193793Y-124057664D01*
X95107547Y-123942455D01*
X95107544Y-123942452D01*
X94992335Y-123856206D01*
X94992328Y-123856202D01*
X94857482Y-123805908D01*
X94849938Y-123804126D01*
X94850474Y-123801853D01*
X94796688Y-123779571D01*
X94756843Y-123722177D01*
X94750500Y-123683024D01*
X94750500Y-118051577D01*
X99749500Y-118051577D01*
X99749500Y-118248422D01*
X99780290Y-118442826D01*
X99841117Y-118630029D01*
X99930476Y-118805405D01*
X100046172Y-118964646D01*
X100185354Y-119103828D01*
X100344595Y-119219524D01*
X100426262Y-119261135D01*
X100519970Y-119308882D01*
X100519972Y-119308882D01*
X100519975Y-119308884D01*
X100620317Y-119341487D01*
X100707173Y-119369709D01*
X100901578Y-119400500D01*
X100901583Y-119400500D01*
X101098422Y-119400500D01*
X101292826Y-119369709D01*
X101480025Y-119308884D01*
X101655405Y-119219524D01*
X101814646Y-119103828D01*
X101953828Y-118964646D01*
X102069524Y-118805405D01*
X102158884Y-118630025D01*
X102219709Y-118442826D01*
X102250500Y-118248422D01*
X102250500Y-118051577D01*
X102219709Y-117857173D01*
X102158882Y-117669970D01*
X102069523Y-117494594D01*
X102040581Y-117454759D01*
X101953828Y-117335354D01*
X101814646Y-117196172D01*
X101655405Y-117080476D01*
X101480029Y-116991117D01*
X101292826Y-116930290D01*
X101098422Y-116899500D01*
X101098417Y-116899500D01*
X100901583Y-116899500D01*
X100901578Y-116899500D01*
X100707173Y-116930290D01*
X100519970Y-116991117D01*
X100344594Y-117080476D01*
X100253741Y-117146485D01*
X100185354Y-117196172D01*
X100185352Y-117196174D01*
X100185351Y-117196174D01*
X100046174Y-117335351D01*
X100046174Y-117335352D01*
X100046172Y-117335354D01*
X100027773Y-117360678D01*
X99930476Y-117494594D01*
X99841117Y-117669970D01*
X99780290Y-117857173D01*
X99749500Y-118051577D01*
X94750500Y-118051577D01*
X94750500Y-112616976D01*
X94770185Y-112549937D01*
X94822989Y-112504182D01*
X94850135Y-112496736D01*
X94849932Y-112495876D01*
X94857479Y-112494092D01*
X94857481Y-112494091D01*
X94857483Y-112494091D01*
X94992331Y-112443796D01*
X95107546Y-112357546D01*
X95193796Y-112242331D01*
X95244091Y-112107483D01*
X95250500Y-112047873D01*
X95250500Y-112047844D01*
X97750000Y-112047844D01*
X97756401Y-112107372D01*
X97756403Y-112107379D01*
X97806645Y-112242086D01*
X97806649Y-112242093D01*
X97892809Y-112357187D01*
X97892812Y-112357190D01*
X98007906Y-112443350D01*
X98007913Y-112443354D01*
X98142620Y-112493596D01*
X98142627Y-112493598D01*
X98202155Y-112499999D01*
X98202172Y-112500000D01*
X98750000Y-112500000D01*
X99250000Y-112500000D01*
X99797828Y-112500000D01*
X99797844Y-112499999D01*
X99857372Y-112493598D01*
X99857379Y-112493596D01*
X99992086Y-112443354D01*
X99992093Y-112443350D01*
X100107187Y-112357190D01*
X100107190Y-112357187D01*
X100193350Y-112242093D01*
X100193354Y-112242086D01*
X100243596Y-112107379D01*
X100243598Y-112107372D01*
X100249999Y-112047844D01*
X100250000Y-112047827D01*
X100250000Y-111250000D01*
X99250000Y-111250000D01*
X99250000Y-112500000D01*
X98750000Y-112500000D01*
X98750000Y-111250000D01*
X97750000Y-111250000D01*
X97750000Y-112047844D01*
X95250500Y-112047844D01*
X95250499Y-110862228D01*
X95270184Y-110795190D01*
X95286813Y-110774552D01*
X95582952Y-110478415D01*
X95631283Y-110406082D01*
X95665084Y-110355495D01*
X95704189Y-110261087D01*
X95721659Y-110218912D01*
X95750500Y-110073917D01*
X95750500Y-109952155D01*
X97750000Y-109952155D01*
X97750000Y-110750000D01*
X98750000Y-110750000D01*
X99250000Y-110750000D01*
X100250000Y-110750000D01*
X100250000Y-109952172D01*
X100249999Y-109952155D01*
X100243598Y-109892627D01*
X100243596Y-109892620D01*
X100193354Y-109757913D01*
X100193350Y-109757906D01*
X100107190Y-109642812D01*
X100107187Y-109642809D01*
X99992093Y-109556649D01*
X99992086Y-109556645D01*
X99857379Y-109506403D01*
X99857372Y-109506401D01*
X99797844Y-109500000D01*
X99250000Y-109500000D01*
X99250000Y-110750000D01*
X98750000Y-110750000D01*
X98750000Y-109500000D01*
X98202155Y-109500000D01*
X98142627Y-109506401D01*
X98142620Y-109506403D01*
X98007913Y-109556645D01*
X98007906Y-109556649D01*
X97892812Y-109642809D01*
X97892809Y-109642812D01*
X97806649Y-109757906D01*
X97806645Y-109757913D01*
X97756403Y-109892620D01*
X97756401Y-109892627D01*
X97750000Y-109952155D01*
X95750500Y-109952155D01*
X95750500Y-109926082D01*
X95750500Y-109382229D01*
X95770185Y-109315190D01*
X95786814Y-109294553D01*
X103573359Y-101508007D01*
X103634680Y-101474524D01*
X103693131Y-101475914D01*
X103764592Y-101495063D01*
X103952918Y-101511539D01*
X103999999Y-101515659D01*
X104000000Y-101515659D01*
X104000001Y-101515659D01*
X104039234Y-101512226D01*
X104235408Y-101495063D01*
X104463663Y-101433903D01*
X104677830Y-101334035D01*
X104871401Y-101198495D01*
X105038495Y-101031401D01*
X105174035Y-100837830D01*
X105273903Y-100623663D01*
X105335063Y-100395408D01*
X105355659Y-100160000D01*
X105335063Y-99924592D01*
X105273903Y-99696337D01*
X105174035Y-99482171D01*
X105038495Y-99288599D01*
X105038494Y-99288597D01*
X104871402Y-99121506D01*
X104871396Y-99121501D01*
X104685842Y-98991575D01*
X104642217Y-98936998D01*
X104635023Y-98867500D01*
X104666546Y-98805145D01*
X104685842Y-98788425D01*
X104708026Y-98772891D01*
X104871401Y-98658495D01*
X105038495Y-98491401D01*
X105174035Y-98297830D01*
X105273903Y-98083663D01*
X105335063Y-97855408D01*
X105355659Y-97620000D01*
X105335063Y-97384592D01*
X105273903Y-97156337D01*
X105174035Y-96942171D01*
X105162769Y-96926082D01*
X105038496Y-96748600D01*
X105038495Y-96748599D01*
X104916179Y-96626283D01*
X104882696Y-96564963D01*
X104887680Y-96495271D01*
X104929551Y-96439337D01*
X104960529Y-96422422D01*
X105092086Y-96373354D01*
X105092093Y-96373350D01*
X105207187Y-96287190D01*
X105207190Y-96287187D01*
X105293350Y-96172093D01*
X105293354Y-96172086D01*
X105343596Y-96037379D01*
X105343598Y-96037372D01*
X105349999Y-95977844D01*
X105350000Y-95977827D01*
X105350000Y-95330000D01*
X104444560Y-95330000D01*
X104475245Y-95276853D01*
X104510000Y-95147143D01*
X104510000Y-95012857D01*
X104475245Y-94883147D01*
X104444560Y-94830000D01*
X105350000Y-94830000D01*
X105350000Y-94182172D01*
X105349999Y-94182155D01*
X105343598Y-94122627D01*
X105343596Y-94122620D01*
X105293354Y-93987913D01*
X105293350Y-93987906D01*
X105207190Y-93872812D01*
X105207187Y-93872809D01*
X105092093Y-93786649D01*
X105092088Y-93786646D01*
X104960528Y-93737577D01*
X104904595Y-93695705D01*
X104880178Y-93630241D01*
X104895030Y-93561968D01*
X104916175Y-93533720D01*
X105038495Y-93411401D01*
X105174035Y-93217830D01*
X105273903Y-93003663D01*
X105335063Y-92775408D01*
X105355659Y-92540000D01*
X105335063Y-92304592D01*
X105273903Y-92076337D01*
X105174035Y-91862171D01*
X105142441Y-91817049D01*
X105038494Y-91668597D01*
X104871402Y-91501506D01*
X104871396Y-91501501D01*
X104685842Y-91371575D01*
X104642217Y-91316998D01*
X104635023Y-91247500D01*
X104666546Y-91185145D01*
X104685842Y-91168425D01*
X104708026Y-91152891D01*
X104871401Y-91038495D01*
X105038495Y-90871401D01*
X105174035Y-90677830D01*
X105273903Y-90463663D01*
X105335063Y-90235408D01*
X105355659Y-90000000D01*
X105335063Y-89764592D01*
X105273903Y-89536337D01*
X105174035Y-89322171D01*
X105038495Y-89128599D01*
X105038494Y-89128597D01*
X104871402Y-88961506D01*
X104871396Y-88961501D01*
X104685842Y-88831575D01*
X104642217Y-88776998D01*
X104635023Y-88707500D01*
X104666546Y-88645145D01*
X104685842Y-88628425D01*
X104708026Y-88612891D01*
X104871401Y-88498495D01*
X105038495Y-88331401D01*
X105174035Y-88137830D01*
X105273903Y-87923663D01*
X105335063Y-87695408D01*
X105355659Y-87460000D01*
X105335063Y-87224592D01*
X105273903Y-86996337D01*
X105174035Y-86782171D01*
X105038495Y-86588599D01*
X105038494Y-86588597D01*
X104871402Y-86421506D01*
X104871396Y-86421501D01*
X104685842Y-86291575D01*
X104642217Y-86236998D01*
X104635023Y-86167500D01*
X104666546Y-86105145D01*
X104685842Y-86088425D01*
X104708026Y-86072891D01*
X104871401Y-85958495D01*
X105038495Y-85791401D01*
X105174035Y-85597830D01*
X105273903Y-85383663D01*
X105335063Y-85155408D01*
X105355659Y-84920000D01*
X105335063Y-84684592D01*
X105273903Y-84456337D01*
X105174035Y-84242171D01*
X105136029Y-84187893D01*
X105038496Y-84048600D01*
X105038495Y-84048599D01*
X104916179Y-83926283D01*
X104882696Y-83864963D01*
X104887680Y-83795271D01*
X104929551Y-83739337D01*
X104960529Y-83722422D01*
X105092086Y-83673354D01*
X105092093Y-83673350D01*
X105207187Y-83587190D01*
X105207190Y-83587187D01*
X105293350Y-83472093D01*
X105293354Y-83472086D01*
X105343596Y-83337379D01*
X105343598Y-83337372D01*
X105349999Y-83277844D01*
X105350000Y-83277827D01*
X105350000Y-82630000D01*
X104444560Y-82630000D01*
X104475245Y-82576853D01*
X104510000Y-82447143D01*
X104510000Y-82312857D01*
X104475245Y-82183147D01*
X104444560Y-82130000D01*
X105350000Y-82130000D01*
X105350000Y-81482172D01*
X105349999Y-81482155D01*
X105343598Y-81422627D01*
X105343596Y-81422620D01*
X105293354Y-81287913D01*
X105293350Y-81287906D01*
X105207190Y-81172812D01*
X105207187Y-81172809D01*
X105092093Y-81086649D01*
X105092088Y-81086646D01*
X104960528Y-81037577D01*
X104904595Y-80995705D01*
X104880178Y-80930241D01*
X104895030Y-80861968D01*
X104916175Y-80833720D01*
X105038495Y-80711401D01*
X105174035Y-80517830D01*
X105273903Y-80303663D01*
X105335063Y-80075408D01*
X105355659Y-79840000D01*
X105354615Y-79828073D01*
X105335063Y-79604596D01*
X105335063Y-79604592D01*
X105273903Y-79376337D01*
X105174035Y-79162171D01*
X105170242Y-79156753D01*
X105038494Y-78968597D01*
X104871402Y-78801506D01*
X104871396Y-78801501D01*
X104685842Y-78671575D01*
X104642217Y-78616998D01*
X104635023Y-78547500D01*
X104666546Y-78485145D01*
X104685842Y-78468425D01*
X104708026Y-78452891D01*
X104871401Y-78338495D01*
X105038495Y-78171401D01*
X105174035Y-77977830D01*
X105273903Y-77763663D01*
X105335063Y-77535408D01*
X105355659Y-77300000D01*
X105335063Y-77064592D01*
X105273903Y-76836337D01*
X105174035Y-76622171D01*
X105160470Y-76602797D01*
X105038494Y-76428597D01*
X104871402Y-76261506D01*
X104871396Y-76261501D01*
X104685842Y-76131575D01*
X104642217Y-76076998D01*
X104635023Y-76007500D01*
X104666546Y-75945145D01*
X104685842Y-75928425D01*
X104708026Y-75912891D01*
X104871401Y-75798495D01*
X105038495Y-75631401D01*
X105174035Y-75437830D01*
X105273903Y-75223663D01*
X105335063Y-74995408D01*
X105355659Y-74760000D01*
X105335063Y-74524592D01*
X105273903Y-74296337D01*
X105174035Y-74082171D01*
X105140557Y-74034358D01*
X105038494Y-73888597D01*
X104871402Y-73721506D01*
X104871396Y-73721501D01*
X104685842Y-73591575D01*
X104642217Y-73536998D01*
X104635023Y-73467500D01*
X104666546Y-73405145D01*
X104685842Y-73388425D01*
X104708026Y-73372891D01*
X104871401Y-73258495D01*
X105038495Y-73091401D01*
X105174035Y-72897830D01*
X105273903Y-72683663D01*
X105335063Y-72455408D01*
X105355659Y-72220000D01*
X105335063Y-71984592D01*
X105273903Y-71756337D01*
X105174035Y-71542171D01*
X105146465Y-71502797D01*
X105038496Y-71348600D01*
X105038495Y-71348599D01*
X104916567Y-71226671D01*
X104883084Y-71165351D01*
X104888068Y-71095659D01*
X104929939Y-71039725D01*
X104960915Y-71022810D01*
X105092331Y-70973796D01*
X105207546Y-70887546D01*
X105293796Y-70772331D01*
X105344091Y-70637483D01*
X105350500Y-70577873D01*
X105350499Y-68782128D01*
X105344091Y-68722517D01*
X105327826Y-68678909D01*
X105293797Y-68587671D01*
X105293793Y-68587664D01*
X105207547Y-68472455D01*
X105207544Y-68472452D01*
X105092335Y-68386206D01*
X105092328Y-68386202D01*
X104960917Y-68337189D01*
X104904983Y-68295318D01*
X104880566Y-68229853D01*
X104895418Y-68161580D01*
X104916563Y-68133332D01*
X105038495Y-68011401D01*
X105174035Y-67817830D01*
X105273903Y-67603663D01*
X105335063Y-67375408D01*
X105355659Y-67140000D01*
X105335063Y-66904592D01*
X105284667Y-66716510D01*
X105273905Y-66676344D01*
X105273904Y-66676343D01*
X105273903Y-66676337D01*
X105174035Y-66462171D01*
X105091639Y-66344496D01*
X105038494Y-66268597D01*
X104871402Y-66101506D01*
X104871396Y-66101501D01*
X104685842Y-65971575D01*
X104642217Y-65916998D01*
X104635023Y-65847500D01*
X104666546Y-65785145D01*
X104685842Y-65768425D01*
X104828985Y-65668195D01*
X104871401Y-65638495D01*
X105038495Y-65471401D01*
X105174035Y-65277830D01*
X105273903Y-65063663D01*
X105335063Y-64835408D01*
X105355659Y-64600000D01*
X105335063Y-64364592D01*
X105273903Y-64136337D01*
X105174035Y-63922171D01*
X105171575Y-63918657D01*
X105038494Y-63728597D01*
X104871402Y-63561506D01*
X104871396Y-63561501D01*
X104685842Y-63431575D01*
X104642217Y-63376998D01*
X104635023Y-63307500D01*
X104666546Y-63245145D01*
X104685842Y-63228425D01*
X104708026Y-63212891D01*
X104871401Y-63098495D01*
X105038495Y-62931401D01*
X105174035Y-62737830D01*
X105273903Y-62523663D01*
X105335063Y-62295408D01*
X105355659Y-62060000D01*
X105335063Y-61824592D01*
X105273903Y-61596337D01*
X105174035Y-61382171D01*
X105088491Y-61260000D01*
X105038494Y-61188597D01*
X104871402Y-61021506D01*
X104871396Y-61021501D01*
X104685842Y-60891575D01*
X104642217Y-60836998D01*
X104635023Y-60767500D01*
X104666546Y-60705145D01*
X104685842Y-60688425D01*
X104769491Y-60629853D01*
X104871401Y-60558495D01*
X105038495Y-60391401D01*
X105174035Y-60197830D01*
X105273903Y-59983663D01*
X105335063Y-59755408D01*
X105355659Y-59520000D01*
X105335063Y-59284592D01*
X105273903Y-59056337D01*
X105174035Y-58842171D01*
X105167931Y-58833454D01*
X105038496Y-58648600D01*
X104992051Y-58602155D01*
X107350000Y-58602155D01*
X107350000Y-59250000D01*
X108266988Y-59250000D01*
X108234075Y-59307007D01*
X108200000Y-59434174D01*
X108200000Y-59565826D01*
X108234075Y-59692993D01*
X108266988Y-59750000D01*
X107350000Y-59750000D01*
X107350000Y-60397844D01*
X107356401Y-60457372D01*
X107356403Y-60457379D01*
X107406645Y-60592086D01*
X107406649Y-60592093D01*
X107492809Y-60707187D01*
X107492812Y-60707190D01*
X107607906Y-60793350D01*
X107607913Y-60793354D01*
X107742620Y-60843596D01*
X107742627Y-60843598D01*
X107802155Y-60849999D01*
X107802172Y-60850000D01*
X108450000Y-60850000D01*
X108450000Y-59933012D01*
X108507007Y-59965925D01*
X108634174Y-60000000D01*
X108765826Y-60000000D01*
X108892993Y-59965925D01*
X108950000Y-59933012D01*
X108950000Y-60850000D01*
X109597828Y-60850000D01*
X109597844Y-60849999D01*
X109657372Y-60843598D01*
X109657379Y-60843596D01*
X109792086Y-60793354D01*
X109792093Y-60793350D01*
X109907187Y-60707190D01*
X109907190Y-60707187D01*
X109993350Y-60592093D01*
X109993354Y-60592086D01*
X110042422Y-60460529D01*
X110084293Y-60404595D01*
X110149757Y-60380178D01*
X110218030Y-60395030D01*
X110246285Y-60416181D01*
X110368599Y-60538495D01*
X110401568Y-60561580D01*
X110562165Y-60674032D01*
X110562167Y-60674033D01*
X110562170Y-60674035D01*
X110776337Y-60773903D01*
X110776343Y-60773904D01*
X110776344Y-60773905D01*
X110822253Y-60786206D01*
X111004592Y-60835063D01*
X111175319Y-60850000D01*
X111239999Y-60855659D01*
X111240000Y-60855659D01*
X111240001Y-60855659D01*
X111304681Y-60850000D01*
X111475408Y-60835063D01*
X111703663Y-60773903D01*
X111917830Y-60674035D01*
X112111401Y-60538495D01*
X112278495Y-60371401D01*
X112408425Y-60185842D01*
X112463002Y-60142217D01*
X112532500Y-60135023D01*
X112594855Y-60166546D01*
X112611575Y-60185842D01*
X112741500Y-60371395D01*
X112741505Y-60371401D01*
X112908599Y-60538495D01*
X112941568Y-60561580D01*
X113102165Y-60674032D01*
X113102167Y-60674033D01*
X113102170Y-60674035D01*
X113316337Y-60773903D01*
X113316343Y-60773904D01*
X113316344Y-60773905D01*
X113362253Y-60786206D01*
X113544592Y-60835063D01*
X113715319Y-60850000D01*
X113779999Y-60855659D01*
X113780000Y-60855659D01*
X113780001Y-60855659D01*
X113844681Y-60850000D01*
X114015408Y-60835063D01*
X114243663Y-60773903D01*
X114457830Y-60674035D01*
X114651401Y-60538495D01*
X114818495Y-60371401D01*
X114948425Y-60185842D01*
X115003002Y-60142217D01*
X115072500Y-60135023D01*
X115134855Y-60166546D01*
X115151575Y-60185842D01*
X115281500Y-60371395D01*
X115281505Y-60371401D01*
X115448599Y-60538495D01*
X115481568Y-60561580D01*
X115642165Y-60674032D01*
X115642167Y-60674033D01*
X115642170Y-60674035D01*
X115856337Y-60773903D01*
X115856343Y-60773904D01*
X115856344Y-60773905D01*
X115902253Y-60786206D01*
X116084592Y-60835063D01*
X116255319Y-60850000D01*
X116319999Y-60855659D01*
X116320000Y-60855659D01*
X116320001Y-60855659D01*
X116384681Y-60850000D01*
X116555408Y-60835063D01*
X116783663Y-60773903D01*
X116997830Y-60674035D01*
X117191401Y-60538495D01*
X117358495Y-60371401D01*
X117494035Y-60177830D01*
X117593903Y-59963663D01*
X117655063Y-59735408D01*
X117675659Y-59500000D01*
X117655063Y-59264592D01*
X117593903Y-59036337D01*
X117494035Y-58822171D01*
X117488425Y-58814158D01*
X117358494Y-58628597D01*
X117191402Y-58461506D01*
X117191395Y-58461501D01*
X116997834Y-58325967D01*
X116997830Y-58325965D01*
X116926064Y-58292500D01*
X116783663Y-58226097D01*
X116783659Y-58226096D01*
X116783655Y-58226094D01*
X116555413Y-58164938D01*
X116555403Y-58164936D01*
X116320001Y-58144341D01*
X116319999Y-58144341D01*
X116084596Y-58164936D01*
X116084586Y-58164938D01*
X115856344Y-58226094D01*
X115856335Y-58226098D01*
X115642171Y-58325964D01*
X115642169Y-58325965D01*
X115448597Y-58461505D01*
X115281505Y-58628597D01*
X115151575Y-58814158D01*
X115096998Y-58857783D01*
X115027500Y-58864977D01*
X114965145Y-58833454D01*
X114948425Y-58814158D01*
X114818494Y-58628597D01*
X114651402Y-58461506D01*
X114651395Y-58461501D01*
X114457834Y-58325967D01*
X114457830Y-58325965D01*
X114386064Y-58292500D01*
X114243663Y-58226097D01*
X114243659Y-58226096D01*
X114243655Y-58226094D01*
X114015413Y-58164938D01*
X114015403Y-58164936D01*
X113780001Y-58144341D01*
X113779999Y-58144341D01*
X113544596Y-58164936D01*
X113544586Y-58164938D01*
X113316344Y-58226094D01*
X113316335Y-58226098D01*
X113102171Y-58325964D01*
X113102169Y-58325965D01*
X112908597Y-58461505D01*
X112741505Y-58628597D01*
X112611575Y-58814158D01*
X112556998Y-58857783D01*
X112487500Y-58864977D01*
X112425145Y-58833454D01*
X112408425Y-58814158D01*
X112278494Y-58628597D01*
X112111402Y-58461506D01*
X112111395Y-58461501D01*
X111917834Y-58325967D01*
X111917830Y-58325965D01*
X111846064Y-58292500D01*
X111703663Y-58226097D01*
X111703659Y-58226096D01*
X111703655Y-58226094D01*
X111475413Y-58164938D01*
X111475403Y-58164936D01*
X111240001Y-58144341D01*
X111239999Y-58144341D01*
X111004596Y-58164936D01*
X111004586Y-58164938D01*
X110776344Y-58226094D01*
X110776335Y-58226098D01*
X110562171Y-58325964D01*
X110562169Y-58325965D01*
X110368600Y-58461503D01*
X110246284Y-58583819D01*
X110184961Y-58617303D01*
X110115269Y-58612319D01*
X110059336Y-58570447D01*
X110042421Y-58539470D01*
X109993354Y-58407913D01*
X109993350Y-58407906D01*
X109907190Y-58292812D01*
X109907187Y-58292809D01*
X109792093Y-58206649D01*
X109792086Y-58206645D01*
X109657379Y-58156403D01*
X109657372Y-58156401D01*
X109597844Y-58150000D01*
X108950000Y-58150000D01*
X108950000Y-59066988D01*
X108892993Y-59034075D01*
X108765826Y-59000000D01*
X108634174Y-59000000D01*
X108507007Y-59034075D01*
X108450000Y-59066988D01*
X108450000Y-58150000D01*
X107802155Y-58150000D01*
X107742627Y-58156401D01*
X107742620Y-58156403D01*
X107607913Y-58206645D01*
X107607906Y-58206649D01*
X107492812Y-58292809D01*
X107492809Y-58292812D01*
X107406649Y-58407906D01*
X107406645Y-58407913D01*
X107356403Y-58542620D01*
X107356401Y-58542627D01*
X107350000Y-58602155D01*
X104992051Y-58602155D01*
X104916179Y-58526283D01*
X104882696Y-58464963D01*
X104887680Y-58395271D01*
X104929551Y-58339337D01*
X104960529Y-58322422D01*
X105092086Y-58273354D01*
X105092093Y-58273350D01*
X105207187Y-58187190D01*
X105207190Y-58187187D01*
X105293350Y-58072093D01*
X105293354Y-58072086D01*
X105343596Y-57937379D01*
X105343598Y-57937372D01*
X105349999Y-57877844D01*
X105350000Y-57877827D01*
X105350000Y-57230000D01*
X104444560Y-57230000D01*
X104475245Y-57176853D01*
X104510000Y-57047143D01*
X104510000Y-56912857D01*
X104475245Y-56783147D01*
X104444560Y-56730000D01*
X105350000Y-56730000D01*
X105350000Y-56082172D01*
X105349999Y-56082155D01*
X105343598Y-56022627D01*
X105343596Y-56022620D01*
X105293354Y-55887913D01*
X105293350Y-55887906D01*
X105207190Y-55772812D01*
X105207187Y-55772809D01*
X105092093Y-55686649D01*
X105092088Y-55686646D01*
X104960528Y-55637577D01*
X104904595Y-55595705D01*
X104880178Y-55530241D01*
X104895030Y-55461968D01*
X104916175Y-55433720D01*
X105038495Y-55311401D01*
X105174035Y-55117830D01*
X105273903Y-54903663D01*
X105335063Y-54675408D01*
X105355659Y-54440000D01*
X105335063Y-54204592D01*
X105279431Y-53996967D01*
X105273905Y-53976344D01*
X105273904Y-53976343D01*
X105273903Y-53976337D01*
X105174035Y-53762171D01*
X105160418Y-53742723D01*
X105038494Y-53568597D01*
X104871402Y-53401506D01*
X104871396Y-53401501D01*
X104685842Y-53271575D01*
X104642217Y-53216998D01*
X104635023Y-53147500D01*
X104666546Y-53085145D01*
X104685842Y-53068425D01*
X104708026Y-53052891D01*
X104871401Y-52938495D01*
X105038495Y-52771401D01*
X105174035Y-52577830D01*
X105273903Y-52363663D01*
X105335063Y-52135408D01*
X105355659Y-51900000D01*
X105335063Y-51664592D01*
X105273903Y-51436337D01*
X105174035Y-51222171D01*
X105084931Y-51094916D01*
X105038494Y-51028597D01*
X104871402Y-50861506D01*
X104871396Y-50861501D01*
X104677987Y-50726075D01*
X104634362Y-50671498D01*
X104627168Y-50602000D01*
X104658691Y-50539645D01*
X104718921Y-50504231D01*
X104749110Y-50500500D01*
X121030890Y-50500500D01*
X121097929Y-50520185D01*
X121143684Y-50572989D01*
X121153628Y-50642147D01*
X121124603Y-50705703D01*
X121102013Y-50726075D01*
X120908597Y-50861505D01*
X120741505Y-51028597D01*
X120605965Y-51222169D01*
X120605964Y-51222171D01*
X120506098Y-51436335D01*
X120506094Y-51436344D01*
X120444938Y-51664586D01*
X120444936Y-51664596D01*
X120424341Y-51899999D01*
X120424341Y-51900000D01*
X120444936Y-52135403D01*
X120444938Y-52135413D01*
X120506094Y-52363655D01*
X120506096Y-52363659D01*
X120506097Y-52363663D01*
X120575890Y-52513334D01*
X120605965Y-52577830D01*
X120605967Y-52577834D01*
X120741501Y-52771395D01*
X120741506Y-52771402D01*
X120908597Y-52938493D01*
X120908603Y-52938498D01*
X121094158Y-53068425D01*
X121137783Y-53123002D01*
X121144977Y-53192500D01*
X121113454Y-53254855D01*
X121094158Y-53271575D01*
X120908597Y-53401505D01*
X120741505Y-53568597D01*
X120605965Y-53762169D01*
X120605964Y-53762171D01*
X120506098Y-53976335D01*
X120506094Y-53976344D01*
X120444938Y-54204586D01*
X120444936Y-54204596D01*
X120424341Y-54439999D01*
X120424341Y-54440000D01*
X120444936Y-54675403D01*
X120444938Y-54675413D01*
X120506094Y-54903655D01*
X120506096Y-54903659D01*
X120506097Y-54903663D01*
X120605965Y-55117830D01*
X120605967Y-55117834D01*
X120714281Y-55272521D01*
X120741501Y-55311396D01*
X120741506Y-55311402D01*
X120863430Y-55433326D01*
X120896915Y-55494649D01*
X120891931Y-55564341D01*
X120850059Y-55620274D01*
X120819083Y-55637189D01*
X120687669Y-55686203D01*
X120687664Y-55686206D01*
X120572455Y-55772452D01*
X120572452Y-55772455D01*
X120486206Y-55887664D01*
X120486202Y-55887671D01*
X120435908Y-56022517D01*
X120429501Y-56082116D01*
X120429501Y-56082123D01*
X120429500Y-56082135D01*
X120429500Y-57877870D01*
X120429501Y-57877876D01*
X120435908Y-57937483D01*
X120486202Y-58072328D01*
X120486206Y-58072335D01*
X120572452Y-58187544D01*
X120572455Y-58187547D01*
X120687664Y-58273793D01*
X120687671Y-58273797D01*
X120819081Y-58322810D01*
X120875015Y-58364681D01*
X120899432Y-58430145D01*
X120884580Y-58498418D01*
X120863430Y-58526673D01*
X120741503Y-58648600D01*
X120605965Y-58842169D01*
X120605964Y-58842171D01*
X120506098Y-59056335D01*
X120506094Y-59056344D01*
X120444938Y-59284586D01*
X120444936Y-59284596D01*
X120424341Y-59519999D01*
X120424341Y-59520000D01*
X120444936Y-59755403D01*
X120444938Y-59755413D01*
X120506094Y-59983655D01*
X120506096Y-59983659D01*
X120506097Y-59983663D01*
X120576678Y-60135023D01*
X120605965Y-60197830D01*
X120605967Y-60197834D01*
X120741501Y-60391395D01*
X120741506Y-60391402D01*
X120908597Y-60558493D01*
X120908603Y-60558498D01*
X121094158Y-60688425D01*
X121137783Y-60743002D01*
X121144977Y-60812500D01*
X121113454Y-60874855D01*
X121094158Y-60891575D01*
X120908597Y-61021505D01*
X120741505Y-61188597D01*
X120605965Y-61382169D01*
X120605964Y-61382171D01*
X120506098Y-61596335D01*
X120506094Y-61596344D01*
X120444938Y-61824586D01*
X120444936Y-61824596D01*
X120424341Y-62059999D01*
X120424341Y-62060000D01*
X120444936Y-62295403D01*
X120444938Y-62295413D01*
X120506094Y-62523655D01*
X120506096Y-62523659D01*
X120506097Y-62523663D01*
X120605965Y-62737830D01*
X120605967Y-62737834D01*
X120741501Y-62931395D01*
X120741506Y-62931402D01*
X120908597Y-63098493D01*
X120908603Y-63098498D01*
X121094158Y-63228425D01*
X121137783Y-63283002D01*
X121144977Y-63352500D01*
X121113454Y-63414855D01*
X121094158Y-63431575D01*
X120908597Y-63561505D01*
X120741505Y-63728597D01*
X120605965Y-63922169D01*
X120605964Y-63922171D01*
X120506098Y-64136335D01*
X120506094Y-64136344D01*
X120444938Y-64364586D01*
X120444936Y-64364596D01*
X120424341Y-64599999D01*
X120424341Y-64600000D01*
X120444936Y-64835403D01*
X120444938Y-64835413D01*
X120506094Y-65063655D01*
X120506096Y-65063659D01*
X120506097Y-65063663D01*
X120546357Y-65150000D01*
X120605965Y-65277830D01*
X120605967Y-65277834D01*
X120741501Y-65471395D01*
X120741506Y-65471402D01*
X120908597Y-65638493D01*
X120908603Y-65638498D01*
X121094158Y-65768425D01*
X121137783Y-65823002D01*
X121144977Y-65892500D01*
X121113454Y-65954855D01*
X121094158Y-65971575D01*
X120908597Y-66101505D01*
X120741505Y-66268597D01*
X120605965Y-66462169D01*
X120605964Y-66462171D01*
X120506098Y-66676335D01*
X120506094Y-66676344D01*
X120444938Y-66904586D01*
X120444936Y-66904596D01*
X120424341Y-67139999D01*
X120424341Y-67140000D01*
X120444936Y-67375403D01*
X120444938Y-67375413D01*
X120506094Y-67603655D01*
X120506096Y-67603659D01*
X120506097Y-67603663D01*
X120588441Y-67780249D01*
X120605965Y-67817830D01*
X120605967Y-67817834D01*
X120705382Y-67959812D01*
X120741501Y-68011396D01*
X120741506Y-68011402D01*
X120863818Y-68133714D01*
X120897303Y-68195037D01*
X120892319Y-68264729D01*
X120850447Y-68320662D01*
X120819471Y-68337577D01*
X120687912Y-68386646D01*
X120687906Y-68386649D01*
X120572812Y-68472809D01*
X120572809Y-68472812D01*
X120486649Y-68587906D01*
X120486645Y-68587913D01*
X120436403Y-68722620D01*
X120436401Y-68722627D01*
X120430000Y-68782155D01*
X120430000Y-69430000D01*
X121335440Y-69430000D01*
X121304755Y-69483147D01*
X121270000Y-69612857D01*
X121270000Y-69747143D01*
X121304755Y-69876853D01*
X121335440Y-69930000D01*
X120430000Y-69930000D01*
X120430000Y-70577844D01*
X120436401Y-70637372D01*
X120436403Y-70637379D01*
X120486645Y-70772086D01*
X120486649Y-70772093D01*
X120572809Y-70887187D01*
X120572812Y-70887190D01*
X120687906Y-70973350D01*
X120687913Y-70973354D01*
X120819470Y-71022421D01*
X120875403Y-71064292D01*
X120899821Y-71129756D01*
X120884970Y-71198029D01*
X120863819Y-71226284D01*
X120741503Y-71348600D01*
X120605965Y-71542169D01*
X120605964Y-71542171D01*
X120506098Y-71756335D01*
X120506094Y-71756344D01*
X120444938Y-71984586D01*
X120444936Y-71984596D01*
X120424341Y-72219999D01*
X120424341Y-72220000D01*
X120444936Y-72455403D01*
X120444938Y-72455413D01*
X120506094Y-72683655D01*
X120506096Y-72683659D01*
X120506097Y-72683663D01*
X120534073Y-72743657D01*
X120605965Y-72897830D01*
X120605967Y-72897834D01*
X120741501Y-73091395D01*
X120741506Y-73091402D01*
X120908597Y-73258493D01*
X120908603Y-73258498D01*
X121094158Y-73388425D01*
X121137783Y-73443002D01*
X121144977Y-73512500D01*
X121113454Y-73574855D01*
X121094158Y-73591575D01*
X120908597Y-73721505D01*
X120741505Y-73888597D01*
X120605965Y-74082169D01*
X120605964Y-74082171D01*
X120506098Y-74296335D01*
X120506094Y-74296344D01*
X120444938Y-74524586D01*
X120444936Y-74524596D01*
X120424341Y-74759999D01*
X120424341Y-74760000D01*
X120444936Y-74995403D01*
X120444938Y-74995413D01*
X120506094Y-75223655D01*
X120506096Y-75223659D01*
X120506097Y-75223663D01*
X120587019Y-75397200D01*
X120605965Y-75437830D01*
X120605967Y-75437834D01*
X120741501Y-75631395D01*
X120741506Y-75631402D01*
X120908597Y-75798493D01*
X120908603Y-75798498D01*
X121094158Y-75928425D01*
X121137783Y-75983002D01*
X121144977Y-76052500D01*
X121113454Y-76114855D01*
X121094158Y-76131575D01*
X120908597Y-76261505D01*
X120741505Y-76428597D01*
X120605965Y-76622169D01*
X120605964Y-76622171D01*
X120506098Y-76836335D01*
X120506094Y-76836344D01*
X120444938Y-77064586D01*
X120444936Y-77064596D01*
X120424341Y-77299999D01*
X120424341Y-77300000D01*
X120444936Y-77535403D01*
X120444938Y-77535413D01*
X120506094Y-77763655D01*
X120506096Y-77763659D01*
X120506097Y-77763663D01*
X120605965Y-77977830D01*
X120605967Y-77977834D01*
X120741501Y-78171395D01*
X120741506Y-78171402D01*
X120908597Y-78338493D01*
X120908603Y-78338498D01*
X121094158Y-78468425D01*
X121137783Y-78523002D01*
X121144977Y-78592500D01*
X121113454Y-78654855D01*
X121094158Y-78671575D01*
X120908597Y-78801505D01*
X120741505Y-78968597D01*
X120605965Y-79162169D01*
X120605964Y-79162171D01*
X120506098Y-79376335D01*
X120506094Y-79376344D01*
X120444938Y-79604586D01*
X120444936Y-79604596D01*
X120424341Y-79839999D01*
X120424341Y-79840000D01*
X120444936Y-80075403D01*
X120444938Y-80075413D01*
X120506094Y-80303655D01*
X120506096Y-80303659D01*
X120506097Y-80303663D01*
X120507131Y-80305880D01*
X120605965Y-80517830D01*
X120605967Y-80517834D01*
X120714281Y-80672521D01*
X120741501Y-80711396D01*
X120741506Y-80711402D01*
X120863818Y-80833714D01*
X120897303Y-80895037D01*
X120892319Y-80964729D01*
X120850447Y-81020662D01*
X120819471Y-81037577D01*
X120687912Y-81086646D01*
X120687906Y-81086649D01*
X120572812Y-81172809D01*
X120572809Y-81172812D01*
X120486649Y-81287906D01*
X120486645Y-81287913D01*
X120436403Y-81422620D01*
X120436401Y-81422627D01*
X120430000Y-81482155D01*
X120430000Y-82130000D01*
X121335440Y-82130000D01*
X121304755Y-82183147D01*
X121270000Y-82312857D01*
X121270000Y-82447143D01*
X121304755Y-82576853D01*
X121335440Y-82630000D01*
X120430000Y-82630000D01*
X120430000Y-83277844D01*
X120436401Y-83337372D01*
X120436403Y-83337379D01*
X120486645Y-83472086D01*
X120486649Y-83472093D01*
X120572809Y-83587187D01*
X120572812Y-83587190D01*
X120687906Y-83673350D01*
X120687913Y-83673354D01*
X120819470Y-83722421D01*
X120875403Y-83764292D01*
X120899821Y-83829756D01*
X120884970Y-83898029D01*
X120863819Y-83926284D01*
X120741503Y-84048600D01*
X120605965Y-84242169D01*
X120605964Y-84242171D01*
X120506098Y-84456335D01*
X120506094Y-84456344D01*
X120444938Y-84684586D01*
X120444936Y-84684596D01*
X120424341Y-84919999D01*
X120424341Y-84920000D01*
X120444936Y-85155403D01*
X120444938Y-85155413D01*
X120506094Y-85383655D01*
X120506097Y-85383662D01*
X120605965Y-85597830D01*
X120605967Y-85597834D01*
X120741501Y-85791395D01*
X120741506Y-85791402D01*
X120908597Y-85958493D01*
X120908603Y-85958498D01*
X121094158Y-86088425D01*
X121137783Y-86143002D01*
X121144977Y-86212500D01*
X121113454Y-86274855D01*
X121094158Y-86291575D01*
X120908597Y-86421505D01*
X120741505Y-86588597D01*
X120605965Y-86782169D01*
X120605964Y-86782171D01*
X120506098Y-86996335D01*
X120506094Y-86996344D01*
X120444938Y-87224586D01*
X120444936Y-87224596D01*
X120424341Y-87459999D01*
X120424341Y-87460000D01*
X120444936Y-87695403D01*
X120444938Y-87695413D01*
X120506094Y-87923655D01*
X120506096Y-87923659D01*
X120506097Y-87923663D01*
X120605965Y-88137830D01*
X120605967Y-88137834D01*
X120741501Y-88331395D01*
X120741506Y-88331402D01*
X120908597Y-88498493D01*
X120908603Y-88498498D01*
X121094158Y-88628425D01*
X121137783Y-88683002D01*
X121144977Y-88752500D01*
X121113454Y-88814855D01*
X121094158Y-88831575D01*
X120908597Y-88961505D01*
X120741505Y-89128597D01*
X120605965Y-89322169D01*
X120605964Y-89322171D01*
X120506098Y-89536335D01*
X120506094Y-89536344D01*
X120444938Y-89764586D01*
X120444936Y-89764596D01*
X120424341Y-89999999D01*
X120424341Y-90000000D01*
X120444936Y-90235403D01*
X120444938Y-90235413D01*
X120506094Y-90463655D01*
X120506096Y-90463659D01*
X120506097Y-90463663D01*
X120605965Y-90677830D01*
X120605967Y-90677834D01*
X120741501Y-90871395D01*
X120741506Y-90871402D01*
X120908597Y-91038493D01*
X120908603Y-91038498D01*
X121094158Y-91168425D01*
X121137783Y-91223002D01*
X121144977Y-91292500D01*
X121113454Y-91354855D01*
X121094158Y-91371575D01*
X120908597Y-91501505D01*
X120741505Y-91668597D01*
X120605965Y-91862169D01*
X120605964Y-91862171D01*
X120506098Y-92076335D01*
X120506094Y-92076344D01*
X120444938Y-92304586D01*
X120444936Y-92304596D01*
X120424341Y-92539999D01*
X120424341Y-92540000D01*
X120444936Y-92775403D01*
X120444938Y-92775413D01*
X120506094Y-93003655D01*
X120506096Y-93003659D01*
X120506097Y-93003663D01*
X120575890Y-93153334D01*
X120605965Y-93217830D01*
X120605967Y-93217834D01*
X120714281Y-93372521D01*
X120741501Y-93411396D01*
X120741506Y-93411402D01*
X120863818Y-93533714D01*
X120897303Y-93595037D01*
X120892319Y-93664729D01*
X120850447Y-93720662D01*
X120819471Y-93737577D01*
X120687912Y-93786646D01*
X120687906Y-93786649D01*
X120572812Y-93872809D01*
X120572809Y-93872812D01*
X120486649Y-93987906D01*
X120486645Y-93987913D01*
X120436403Y-94122620D01*
X120436401Y-94122627D01*
X120430000Y-94182155D01*
X120430000Y-94830000D01*
X121335440Y-94830000D01*
X121304755Y-94883147D01*
X121270000Y-95012857D01*
X121270000Y-95147143D01*
X121304755Y-95276853D01*
X121335440Y-95330000D01*
X120430000Y-95330000D01*
X120430000Y-95977844D01*
X120436401Y-96037372D01*
X120436403Y-96037379D01*
X120486645Y-96172086D01*
X120486649Y-96172093D01*
X120572809Y-96287187D01*
X120572812Y-96287190D01*
X120687906Y-96373350D01*
X120687913Y-96373354D01*
X120819470Y-96422421D01*
X120875403Y-96464292D01*
X120899821Y-96529756D01*
X120884970Y-96598029D01*
X120863819Y-96626284D01*
X120741503Y-96748600D01*
X120605965Y-96942169D01*
X120605964Y-96942171D01*
X120506098Y-97156335D01*
X120506094Y-97156344D01*
X120444938Y-97384586D01*
X120444936Y-97384596D01*
X120424341Y-97619999D01*
X120424341Y-97620000D01*
X120444936Y-97855403D01*
X120444938Y-97855413D01*
X120506094Y-98083655D01*
X120506096Y-98083659D01*
X120506097Y-98083663D01*
X120605965Y-98297830D01*
X120605967Y-98297834D01*
X120741501Y-98491395D01*
X120741506Y-98491402D01*
X120908597Y-98658493D01*
X120908603Y-98658498D01*
X121094158Y-98788425D01*
X121137783Y-98843002D01*
X121144977Y-98912500D01*
X121113454Y-98974855D01*
X121094158Y-98991575D01*
X120908597Y-99121505D01*
X120741505Y-99288597D01*
X120605965Y-99482169D01*
X120605964Y-99482171D01*
X120506098Y-99696335D01*
X120506094Y-99696344D01*
X120444938Y-99924586D01*
X120444936Y-99924596D01*
X120424341Y-100159999D01*
X120424341Y-100160000D01*
X120444936Y-100395403D01*
X120444938Y-100395413D01*
X120506094Y-100623655D01*
X120506096Y-100623659D01*
X120506097Y-100623663D01*
X120605965Y-100837830D01*
X120605967Y-100837834D01*
X120714281Y-100992521D01*
X120741505Y-101031401D01*
X120908599Y-101198495D01*
X121005384Y-101266265D01*
X121102165Y-101334032D01*
X121102167Y-101334033D01*
X121102170Y-101334035D01*
X121316337Y-101433903D01*
X121544592Y-101495063D01*
X121732918Y-101511539D01*
X121779999Y-101515659D01*
X121780000Y-101515659D01*
X121780001Y-101515659D01*
X121819234Y-101512226D01*
X122015408Y-101495063D01*
X122243663Y-101433903D01*
X122457830Y-101334035D01*
X122651401Y-101198495D01*
X122818495Y-101031401D01*
X122954035Y-100837830D01*
X123053903Y-100623663D01*
X123115063Y-100395408D01*
X123135659Y-100160000D01*
X123115063Y-99924592D01*
X123053903Y-99696337D01*
X122954035Y-99482171D01*
X122818495Y-99288599D01*
X122818494Y-99288597D01*
X122651402Y-99121506D01*
X122651396Y-99121501D01*
X122465842Y-98991575D01*
X122422217Y-98936998D01*
X122415023Y-98867500D01*
X122446546Y-98805145D01*
X122465842Y-98788425D01*
X122488026Y-98772891D01*
X122651401Y-98658495D01*
X122818495Y-98491401D01*
X122954035Y-98297830D01*
X123053903Y-98083663D01*
X123115063Y-97855408D01*
X123135659Y-97620000D01*
X123115063Y-97384592D01*
X123053903Y-97156337D01*
X122954035Y-96942171D01*
X122942769Y-96926082D01*
X122818496Y-96748600D01*
X122818495Y-96748599D01*
X122696179Y-96626283D01*
X122662696Y-96564963D01*
X122667680Y-96495271D01*
X122709551Y-96439337D01*
X122740529Y-96422422D01*
X122872086Y-96373354D01*
X122872093Y-96373350D01*
X122987187Y-96287190D01*
X122987190Y-96287187D01*
X123073350Y-96172093D01*
X123073354Y-96172086D01*
X123123596Y-96037379D01*
X123123598Y-96037372D01*
X123129999Y-95977844D01*
X123130000Y-95977827D01*
X123130000Y-95330000D01*
X122224560Y-95330000D01*
X122255245Y-95276853D01*
X122290000Y-95147143D01*
X122290000Y-95012857D01*
X122255245Y-94883147D01*
X122224560Y-94830000D01*
X123130000Y-94830000D01*
X123130000Y-94182172D01*
X123129999Y-94182155D01*
X123123598Y-94122627D01*
X123123596Y-94122620D01*
X123073354Y-93987913D01*
X123073350Y-93987906D01*
X122987190Y-93872812D01*
X122987187Y-93872809D01*
X122872093Y-93786649D01*
X122872088Y-93786646D01*
X122740528Y-93737577D01*
X122684595Y-93695705D01*
X122660178Y-93630241D01*
X122675030Y-93561968D01*
X122696175Y-93533720D01*
X122818495Y-93411401D01*
X122954035Y-93217830D01*
X123053903Y-93003663D01*
X123115063Y-92775408D01*
X123135659Y-92540000D01*
X123115063Y-92304592D01*
X123053903Y-92076337D01*
X122954035Y-91862171D01*
X122922441Y-91817049D01*
X122818494Y-91668597D01*
X122651402Y-91501506D01*
X122651396Y-91501501D01*
X122465842Y-91371575D01*
X122422217Y-91316998D01*
X122415023Y-91247500D01*
X122446546Y-91185145D01*
X122465842Y-91168425D01*
X122488026Y-91152891D01*
X122651401Y-91038495D01*
X122818495Y-90871401D01*
X122954035Y-90677830D01*
X123053903Y-90463663D01*
X123115063Y-90235408D01*
X123135659Y-90000000D01*
X123115063Y-89764592D01*
X123053903Y-89536337D01*
X122954035Y-89322171D01*
X122818495Y-89128599D01*
X122818494Y-89128597D01*
X122651402Y-88961506D01*
X122651396Y-88961501D01*
X122465842Y-88831575D01*
X122422217Y-88776998D01*
X122415023Y-88707500D01*
X122446546Y-88645145D01*
X122465842Y-88628425D01*
X122488026Y-88612891D01*
X122651401Y-88498495D01*
X122818495Y-88331401D01*
X122954035Y-88137830D01*
X123053903Y-87923663D01*
X123115063Y-87695408D01*
X123135659Y-87460000D01*
X123115063Y-87224592D01*
X123053903Y-86996337D01*
X122954035Y-86782171D01*
X122818495Y-86588599D01*
X122818494Y-86588597D01*
X122651402Y-86421506D01*
X122651396Y-86421501D01*
X122465842Y-86291575D01*
X122422217Y-86236998D01*
X122415023Y-86167500D01*
X122446546Y-86105145D01*
X122465842Y-86088425D01*
X122488026Y-86072891D01*
X122651401Y-85958495D01*
X122818495Y-85791401D01*
X122954035Y-85597830D01*
X123053903Y-85383663D01*
X123115063Y-85155408D01*
X123135659Y-84920000D01*
X123115063Y-84684592D01*
X123053903Y-84456337D01*
X122954035Y-84242171D01*
X122916029Y-84187893D01*
X122818496Y-84048600D01*
X122818495Y-84048599D01*
X122696179Y-83926283D01*
X122662696Y-83864963D01*
X122667680Y-83795271D01*
X122709551Y-83739337D01*
X122740529Y-83722422D01*
X122872086Y-83673354D01*
X122872093Y-83673350D01*
X122987187Y-83587190D01*
X122987190Y-83587187D01*
X123073350Y-83472093D01*
X123073354Y-83472086D01*
X123123596Y-83337379D01*
X123123598Y-83337372D01*
X123129999Y-83277844D01*
X123130000Y-83277827D01*
X123130000Y-82630000D01*
X122224560Y-82630000D01*
X122255245Y-82576853D01*
X122290000Y-82447143D01*
X122290000Y-82312857D01*
X122255245Y-82183147D01*
X122224560Y-82130000D01*
X123130000Y-82130000D01*
X123130000Y-81482172D01*
X123129999Y-81482155D01*
X123123598Y-81422627D01*
X123123596Y-81422620D01*
X123073354Y-81287913D01*
X123073350Y-81287906D01*
X122987190Y-81172812D01*
X122987187Y-81172809D01*
X122872093Y-81086649D01*
X122872088Y-81086646D01*
X122740528Y-81037577D01*
X122684595Y-80995705D01*
X122660178Y-80930241D01*
X122675030Y-80861968D01*
X122696175Y-80833720D01*
X122818495Y-80711401D01*
X122954035Y-80517830D01*
X123053903Y-80303663D01*
X123115063Y-80075408D01*
X123135659Y-79840000D01*
X123134615Y-79828073D01*
X123115063Y-79604596D01*
X123115063Y-79604592D01*
X123053903Y-79376337D01*
X122954035Y-79162171D01*
X122950242Y-79156753D01*
X122818494Y-78968597D01*
X122651402Y-78801506D01*
X122651396Y-78801501D01*
X122465842Y-78671575D01*
X122422217Y-78616998D01*
X122415023Y-78547500D01*
X122446546Y-78485145D01*
X122465842Y-78468425D01*
X122488026Y-78452891D01*
X122651401Y-78338495D01*
X122818495Y-78171401D01*
X122954035Y-77977830D01*
X123053903Y-77763663D01*
X123115063Y-77535408D01*
X123135659Y-77300000D01*
X123115063Y-77064592D01*
X123053903Y-76836337D01*
X122954035Y-76622171D01*
X122940470Y-76602797D01*
X122818494Y-76428597D01*
X122651402Y-76261506D01*
X122651396Y-76261501D01*
X122465842Y-76131575D01*
X122422217Y-76076998D01*
X122415023Y-76007500D01*
X122446546Y-75945145D01*
X122465842Y-75928425D01*
X122488026Y-75912891D01*
X122651401Y-75798495D01*
X122818495Y-75631401D01*
X122954035Y-75437830D01*
X123053903Y-75223663D01*
X123115063Y-74995408D01*
X123135659Y-74760000D01*
X123115063Y-74524592D01*
X123053903Y-74296337D01*
X122954035Y-74082171D01*
X122920557Y-74034358D01*
X122818494Y-73888597D01*
X122651402Y-73721506D01*
X122651396Y-73721501D01*
X122465842Y-73591575D01*
X122422217Y-73536998D01*
X122415023Y-73467500D01*
X122446546Y-73405145D01*
X122465842Y-73388425D01*
X122488026Y-73372891D01*
X122651401Y-73258495D01*
X122818495Y-73091401D01*
X122954035Y-72897830D01*
X123053903Y-72683663D01*
X123115063Y-72455408D01*
X123135659Y-72220000D01*
X123115063Y-71984592D01*
X123053903Y-71756337D01*
X122954035Y-71542171D01*
X122926465Y-71502797D01*
X122818496Y-71348600D01*
X122818495Y-71348599D01*
X122696179Y-71226283D01*
X122662696Y-71164963D01*
X122667680Y-71095271D01*
X122709551Y-71039337D01*
X122740529Y-71022422D01*
X122872086Y-70973354D01*
X122872093Y-70973350D01*
X122987187Y-70887190D01*
X122987190Y-70887187D01*
X123073350Y-70772093D01*
X123073354Y-70772086D01*
X123123596Y-70637379D01*
X123123598Y-70637372D01*
X123129999Y-70577844D01*
X123130000Y-70577827D01*
X123130000Y-69930000D01*
X122224560Y-69930000D01*
X122255245Y-69876853D01*
X122290000Y-69747143D01*
X122290000Y-69612857D01*
X122255245Y-69483147D01*
X122224560Y-69430000D01*
X123130000Y-69430000D01*
X123130000Y-68782172D01*
X123129999Y-68782155D01*
X123123598Y-68722627D01*
X123123596Y-68722620D01*
X123073354Y-68587913D01*
X123073350Y-68587906D01*
X122987190Y-68472812D01*
X122987187Y-68472809D01*
X122872093Y-68386649D01*
X122872088Y-68386646D01*
X122740528Y-68337577D01*
X122684595Y-68295705D01*
X122660178Y-68230241D01*
X122675030Y-68161968D01*
X122696175Y-68133720D01*
X122818495Y-68011401D01*
X122954035Y-67817830D01*
X123053903Y-67603663D01*
X123115063Y-67375408D01*
X123135659Y-67140000D01*
X123115063Y-66904592D01*
X123064667Y-66716510D01*
X123053905Y-66676344D01*
X123053904Y-66676343D01*
X123053903Y-66676337D01*
X122960009Y-66474983D01*
X137499500Y-66474983D01*
X137499500Y-67325001D01*
X137499501Y-67325019D01*
X137510000Y-67427796D01*
X137510001Y-67427799D01*
X137565185Y-67594331D01*
X137565186Y-67594334D01*
X137657288Y-67743656D01*
X137781344Y-67867712D01*
X137930666Y-67959814D01*
X138097203Y-68014999D01*
X138199991Y-68025500D01*
X140300008Y-68025499D01*
X140402797Y-68014999D01*
X140569334Y-67959814D01*
X140718656Y-67867712D01*
X140760773Y-67825594D01*
X140822094Y-67792108D01*
X140862336Y-67790054D01*
X140955684Y-67800571D01*
X140999998Y-67805565D01*
X141000000Y-67805565D01*
X141000004Y-67805565D01*
X141179249Y-67785369D01*
X141179252Y-67785368D01*
X141179255Y-67785368D01*
X141349522Y-67725789D01*
X141502262Y-67629816D01*
X141629816Y-67502262D01*
X141725789Y-67349522D01*
X141785368Y-67179255D01*
X141798554Y-67062229D01*
X141805565Y-67000003D01*
X141805565Y-66999997D01*
X141787167Y-66836712D01*
X141799221Y-66767890D01*
X141846570Y-66716510D01*
X141914181Y-66698886D01*
X141924921Y-66700110D01*
X141924942Y-66699903D01*
X141931005Y-66700500D01*
X141931007Y-66700500D01*
X142068995Y-66700500D01*
X142160041Y-66682389D01*
X142204328Y-66673580D01*
X142331811Y-66620775D01*
X142446542Y-66544114D01*
X142544114Y-66446542D01*
X142620775Y-66331811D01*
X142673580Y-66204328D01*
X142700500Y-66068993D01*
X142700500Y-65931007D01*
X142700500Y-65931004D01*
X142673581Y-65795677D01*
X142673580Y-65795676D01*
X142673580Y-65795672D01*
X142658142Y-65758401D01*
X142620778Y-65668195D01*
X142620771Y-65668182D01*
X142544114Y-65553458D01*
X142544111Y-65553454D01*
X142446545Y-65455888D01*
X142446541Y-65455885D01*
X142331817Y-65379228D01*
X142331804Y-65379221D01*
X142204332Y-65326421D01*
X142204322Y-65326418D01*
X142068995Y-65299500D01*
X142068993Y-65299500D01*
X141931007Y-65299500D01*
X141931005Y-65299500D01*
X141795677Y-65326418D01*
X141795667Y-65326421D01*
X141668195Y-65379221D01*
X141668182Y-65379228D01*
X141553458Y-65455885D01*
X141553454Y-65455888D01*
X141455888Y-65553454D01*
X141455885Y-65553458D01*
X141379228Y-65668182D01*
X141379221Y-65668195D01*
X141326421Y-65795667D01*
X141326418Y-65795677D01*
X141299500Y-65931004D01*
X141299500Y-66068995D01*
X141300097Y-66075058D01*
X141297914Y-66075272D01*
X141292546Y-66135049D01*
X141249666Y-66190213D01*
X141183769Y-66213436D01*
X141163288Y-66212832D01*
X141000004Y-66194435D01*
X140997093Y-66194435D01*
X140995280Y-66193902D01*
X140993081Y-66193655D01*
X140993124Y-66193269D01*
X140930054Y-66174750D01*
X140891554Y-66135531D01*
X140891257Y-66135049D01*
X140842712Y-66056344D01*
X140718656Y-65932288D01*
X140625888Y-65875069D01*
X140569336Y-65840187D01*
X140569331Y-65840185D01*
X140517476Y-65823002D01*
X140402797Y-65785001D01*
X140402795Y-65785000D01*
X140300010Y-65774500D01*
X138199998Y-65774500D01*
X138199981Y-65774501D01*
X138097203Y-65785000D01*
X138097200Y-65785001D01*
X137930668Y-65840185D01*
X137930663Y-65840187D01*
X137781342Y-65932289D01*
X137657289Y-66056342D01*
X137565187Y-66205663D01*
X137565185Y-66205668D01*
X137559911Y-66221584D01*
X137510001Y-66372203D01*
X137510001Y-66372204D01*
X137510000Y-66372204D01*
X137499500Y-66474983D01*
X122960009Y-66474983D01*
X122954035Y-66462171D01*
X122871639Y-66344496D01*
X122818494Y-66268597D01*
X122651402Y-66101506D01*
X122651396Y-66101501D01*
X122465842Y-65971575D01*
X122422217Y-65916998D01*
X122415023Y-65847500D01*
X122446546Y-65785145D01*
X122465842Y-65768425D01*
X122608985Y-65668195D01*
X122651401Y-65638495D01*
X122818495Y-65471401D01*
X122954035Y-65277830D01*
X123053903Y-65063663D01*
X123115063Y-64835408D01*
X123135659Y-64600000D01*
X123115063Y-64364592D01*
X123053903Y-64136337D01*
X122954035Y-63922171D01*
X122951575Y-63918657D01*
X122818494Y-63728597D01*
X122651402Y-63561506D01*
X122651396Y-63561501D01*
X122465842Y-63431575D01*
X122422217Y-63376998D01*
X122415023Y-63307500D01*
X122446546Y-63245145D01*
X122465842Y-63228425D01*
X122488026Y-63212891D01*
X122651401Y-63098495D01*
X122818495Y-62931401D01*
X122954035Y-62737830D01*
X123053903Y-62523663D01*
X123115063Y-62295408D01*
X123135659Y-62060000D01*
X123115063Y-61824592D01*
X123053903Y-61596337D01*
X122954035Y-61382171D01*
X122868491Y-61260000D01*
X122818494Y-61188597D01*
X122651402Y-61021506D01*
X122651396Y-61021501D01*
X122465842Y-60891575D01*
X122422217Y-60836998D01*
X122415023Y-60767500D01*
X122446546Y-60705145D01*
X122465842Y-60688425D01*
X122549491Y-60629853D01*
X122651401Y-60558495D01*
X122818495Y-60391401D01*
X122954035Y-60197830D01*
X123053903Y-59983663D01*
X123115063Y-59755408D01*
X123135659Y-59520000D01*
X123115063Y-59284592D01*
X123053903Y-59056337D01*
X122954035Y-58842171D01*
X122947931Y-58833454D01*
X122818496Y-58648600D01*
X122772051Y-58602155D01*
X122696567Y-58526671D01*
X122663084Y-58465351D01*
X122668068Y-58395659D01*
X122709939Y-58339725D01*
X122740915Y-58322810D01*
X122872331Y-58273796D01*
X122987546Y-58187546D01*
X123073796Y-58072331D01*
X123124091Y-57937483D01*
X123130500Y-57877873D01*
X123130500Y-56999999D01*
X133644341Y-56999999D01*
X133644341Y-57000000D01*
X133664936Y-57235403D01*
X133664938Y-57235413D01*
X133726094Y-57463655D01*
X133726096Y-57463659D01*
X133726097Y-57463663D01*
X133764475Y-57545965D01*
X133825965Y-57677830D01*
X133825967Y-57677834D01*
X133934281Y-57832521D01*
X133945537Y-57848597D01*
X133961501Y-57871395D01*
X133961506Y-57871402D01*
X134128597Y-58038493D01*
X134128603Y-58038498D01*
X134314158Y-58168425D01*
X134357783Y-58223002D01*
X134364977Y-58292500D01*
X134333454Y-58354855D01*
X134314158Y-58371575D01*
X134128597Y-58501505D01*
X133961505Y-58668597D01*
X133825965Y-58862169D01*
X133825964Y-58862171D01*
X133726098Y-59076335D01*
X133726094Y-59076344D01*
X133664938Y-59304586D01*
X133664936Y-59304596D01*
X133644341Y-59539999D01*
X133644341Y-59540000D01*
X133664936Y-59775403D01*
X133664938Y-59775413D01*
X133726094Y-60003655D01*
X133726096Y-60003659D01*
X133726097Y-60003663D01*
X133790706Y-60142217D01*
X133825965Y-60217830D01*
X133825967Y-60217834D01*
X133933492Y-60371395D01*
X133961501Y-60411396D01*
X133961506Y-60411402D01*
X134083430Y-60533326D01*
X134116915Y-60594649D01*
X134111931Y-60664341D01*
X134070059Y-60720274D01*
X134039083Y-60737189D01*
X133907669Y-60786203D01*
X133907664Y-60786206D01*
X133792455Y-60872452D01*
X133792452Y-60872455D01*
X133706206Y-60987664D01*
X133706202Y-60987671D01*
X133655908Y-61122517D01*
X133649501Y-61182116D01*
X133649501Y-61182123D01*
X133649500Y-61182135D01*
X133649500Y-62977870D01*
X133649501Y-62977876D01*
X133655908Y-63037483D01*
X133706202Y-63172328D01*
X133706206Y-63172335D01*
X133792452Y-63287544D01*
X133792455Y-63287547D01*
X133907664Y-63373793D01*
X133907671Y-63373797D01*
X134042517Y-63424091D01*
X134042516Y-63424091D01*
X134049444Y-63424835D01*
X134102127Y-63430500D01*
X135897872Y-63430499D01*
X135957483Y-63424091D01*
X136092331Y-63373796D01*
X136207546Y-63287546D01*
X136293796Y-63172331D01*
X136344091Y-63037483D01*
X136350500Y-62977873D01*
X136350499Y-61182128D01*
X136344091Y-61122517D01*
X136307567Y-61024592D01*
X136293797Y-60987671D01*
X136293793Y-60987664D01*
X136207547Y-60872455D01*
X136207544Y-60872452D01*
X136092335Y-60786206D01*
X136092328Y-60786202D01*
X135960917Y-60737189D01*
X135904983Y-60695318D01*
X135880566Y-60629853D01*
X135895418Y-60561580D01*
X135916563Y-60533332D01*
X136038495Y-60411401D01*
X136174035Y-60217830D01*
X136273903Y-60003663D01*
X136335063Y-59775408D01*
X136355659Y-59540000D01*
X136335063Y-59304592D01*
X136273903Y-59076337D01*
X136174035Y-58862171D01*
X136153928Y-58833454D01*
X136038494Y-58668597D01*
X135871402Y-58501506D01*
X135871396Y-58501501D01*
X135685842Y-58371575D01*
X135642217Y-58316998D01*
X135635023Y-58247500D01*
X135666546Y-58185145D01*
X135685842Y-58168425D01*
X135708026Y-58152891D01*
X135871401Y-58038495D01*
X136038495Y-57871401D01*
X136174035Y-57677830D01*
X136273903Y-57463663D01*
X136335063Y-57235408D01*
X136355659Y-57000000D01*
X136335063Y-56764592D01*
X136273903Y-56536337D01*
X136174035Y-56322171D01*
X136157480Y-56298527D01*
X136038494Y-56128597D01*
X135871402Y-55961506D01*
X135871395Y-55961501D01*
X135677834Y-55825967D01*
X135677830Y-55825965D01*
X135677828Y-55825964D01*
X135463663Y-55726097D01*
X135463659Y-55726096D01*
X135463655Y-55726094D01*
X135235413Y-55664938D01*
X135235403Y-55664936D01*
X135000001Y-55644341D01*
X134999999Y-55644341D01*
X134764596Y-55664936D01*
X134764586Y-55664938D01*
X134536344Y-55726094D01*
X134536335Y-55726098D01*
X134322171Y-55825964D01*
X134322169Y-55825965D01*
X134128597Y-55961505D01*
X133961505Y-56128597D01*
X133825965Y-56322169D01*
X133825964Y-56322171D01*
X133726098Y-56536335D01*
X133726094Y-56536344D01*
X133664938Y-56764586D01*
X133664936Y-56764596D01*
X133644341Y-56999999D01*
X123130500Y-56999999D01*
X123130499Y-56082128D01*
X123124091Y-56022517D01*
X123101335Y-55961506D01*
X123073797Y-55887671D01*
X123073793Y-55887664D01*
X122987547Y-55772455D01*
X122987544Y-55772452D01*
X122872335Y-55686206D01*
X122872328Y-55686202D01*
X122740917Y-55637189D01*
X122684983Y-55595318D01*
X122660566Y-55529853D01*
X122675418Y-55461580D01*
X122696563Y-55433332D01*
X122818495Y-55311401D01*
X122954035Y-55117830D01*
X123008980Y-55000000D01*
X137294564Y-55000000D01*
X137314289Y-55326099D01*
X137373178Y-55647452D01*
X137470366Y-55959342D01*
X137470370Y-55959354D01*
X137470373Y-55959361D01*
X137604455Y-56257279D01*
X137643683Y-56322169D01*
X137773473Y-56536868D01*
X137974954Y-56794039D01*
X138205960Y-57025045D01*
X138463131Y-57226526D01*
X138463134Y-57226528D01*
X138463137Y-57226530D01*
X138742721Y-57395545D01*
X139040639Y-57529627D01*
X139040652Y-57529631D01*
X139040657Y-57529633D01*
X139352547Y-57626821D01*
X139673896Y-57685710D01*
X140000000Y-57705436D01*
X140326104Y-57685710D01*
X140647453Y-57626821D01*
X140959361Y-57529627D01*
X141257279Y-57395545D01*
X141536863Y-57226530D01*
X141794036Y-57025048D01*
X142025048Y-56794036D01*
X142226530Y-56536863D01*
X142395545Y-56257279D01*
X142529627Y-55959361D01*
X142626821Y-55647453D01*
X142685710Y-55326104D01*
X142705436Y-55000000D01*
X142685710Y-54673896D01*
X142626821Y-54352547D01*
X142529627Y-54040639D01*
X142395545Y-53742721D01*
X142226530Y-53463137D01*
X142226528Y-53463134D01*
X142226526Y-53463131D01*
X142025045Y-53205960D01*
X141794039Y-52974954D01*
X141536868Y-52773473D01*
X141529306Y-52768901D01*
X141257279Y-52604455D01*
X140959361Y-52470373D01*
X140959354Y-52470370D01*
X140959342Y-52470366D01*
X140647452Y-52373178D01*
X140326099Y-52314289D01*
X140000000Y-52294564D01*
X139673900Y-52314289D01*
X139352547Y-52373178D01*
X139040657Y-52470366D01*
X139040641Y-52470372D01*
X139040639Y-52470373D01*
X138945184Y-52513334D01*
X138742725Y-52604453D01*
X138742723Y-52604454D01*
X138463131Y-52773473D01*
X138205960Y-52974954D01*
X137974954Y-53205960D01*
X137773473Y-53463131D01*
X137604454Y-53742723D01*
X137604453Y-53742725D01*
X137470372Y-54040642D01*
X137470366Y-54040657D01*
X137373178Y-54352547D01*
X137314289Y-54673900D01*
X137294564Y-55000000D01*
X123008980Y-55000000D01*
X123053903Y-54903663D01*
X123115063Y-54675408D01*
X123135659Y-54440000D01*
X123115063Y-54204592D01*
X123059431Y-53996967D01*
X123053905Y-53976344D01*
X123053904Y-53976343D01*
X123053903Y-53976337D01*
X122954035Y-53762171D01*
X122940418Y-53742723D01*
X122818494Y-53568597D01*
X122651402Y-53401506D01*
X122651396Y-53401501D01*
X122465842Y-53271575D01*
X122422217Y-53216998D01*
X122415023Y-53147500D01*
X122446546Y-53085145D01*
X122465842Y-53068425D01*
X122488026Y-53052891D01*
X122651401Y-52938495D01*
X122818495Y-52771401D01*
X122954035Y-52577830D01*
X123053903Y-52363663D01*
X123115063Y-52135408D01*
X123135659Y-51900000D01*
X123115063Y-51664592D01*
X123053903Y-51436337D01*
X122954035Y-51222171D01*
X122864931Y-51094916D01*
X122818494Y-51028597D01*
X122651402Y-50861506D01*
X122651396Y-50861501D01*
X122457987Y-50726075D01*
X122414362Y-50671498D01*
X122407168Y-50602000D01*
X122438691Y-50539645D01*
X122498921Y-50504231D01*
X122529110Y-50500500D01*
X140934108Y-50500500D01*
X140996949Y-50500500D01*
X141003032Y-50500648D01*
X141336929Y-50517052D01*
X141349037Y-50518245D01*
X141362116Y-50520185D01*
X141676699Y-50566849D01*
X141688617Y-50569219D01*
X142009951Y-50649709D01*
X142021588Y-50653240D01*
X142072616Y-50671498D01*
X142333467Y-50764832D01*
X142344688Y-50769479D01*
X142644163Y-50911120D01*
X142654871Y-50916844D01*
X142857578Y-51038342D01*
X142938988Y-51087137D01*
X142949103Y-51093895D01*
X143122060Y-51222169D01*
X143215170Y-51291224D01*
X143224576Y-51298944D01*
X143470013Y-51521395D01*
X143478604Y-51529986D01*
X143665755Y-51736475D01*
X143701055Y-51775423D01*
X143708775Y-51784829D01*
X143906102Y-52050893D01*
X143912862Y-52061011D01*
X144064671Y-52314290D01*
X144083148Y-52345116D01*
X144088883Y-52355844D01*
X144206466Y-52604453D01*
X144230514Y-52655297D01*
X144235170Y-52666540D01*
X144346759Y-52978411D01*
X144350292Y-52990055D01*
X144430777Y-53311369D01*
X144433151Y-53323305D01*
X144481754Y-53650962D01*
X144482947Y-53663071D01*
X144499351Y-53996966D01*
X144499500Y-54003051D01*
X144499500Y-135996948D01*
X144499351Y-136003033D01*
X144482947Y-136336928D01*
X144481754Y-136349037D01*
X144433151Y-136676694D01*
X144430777Y-136688630D01*
X144350292Y-137009944D01*
X144346759Y-137021588D01*
X144235170Y-137333459D01*
X144230514Y-137344702D01*
X144088885Y-137644151D01*
X144083148Y-137654883D01*
X143912862Y-137938988D01*
X143906102Y-137949106D01*
X143708775Y-138215170D01*
X143701055Y-138224576D01*
X143478611Y-138470006D01*
X143470006Y-138478611D01*
X143224576Y-138701055D01*
X143215170Y-138708775D01*
X142949106Y-138906102D01*
X142938988Y-138912862D01*
X142654883Y-139083148D01*
X142644151Y-139088885D01*
X142344702Y-139230514D01*
X142333459Y-139235170D01*
X142021588Y-139346759D01*
X142009944Y-139350292D01*
X141688630Y-139430777D01*
X141676694Y-139433151D01*
X141349037Y-139481754D01*
X141336928Y-139482947D01*
X141021989Y-139498419D01*
X141003031Y-139499351D01*
X140996949Y-139499500D01*
X84003051Y-139499500D01*
X83996968Y-139499351D01*
X83976900Y-139498365D01*
X83663071Y-139482947D01*
X83650962Y-139481754D01*
X83323305Y-139433151D01*
X83311369Y-139430777D01*
X82990055Y-139350292D01*
X82978411Y-139346759D01*
X82666540Y-139235170D01*
X82655301Y-139230515D01*
X82355844Y-139088883D01*
X82345121Y-139083150D01*
X82061011Y-138912862D01*
X82050893Y-138906102D01*
X81784829Y-138708775D01*
X81775423Y-138701055D01*
X81699439Y-138632187D01*
X81529986Y-138478604D01*
X81521395Y-138470013D01*
X81298944Y-138224576D01*
X81291224Y-138215170D01*
X81093897Y-137949106D01*
X81087137Y-137938988D01*
X80916844Y-137654871D01*
X80911120Y-137644163D01*
X80769479Y-137344688D01*
X80764829Y-137333459D01*
X80653240Y-137021588D01*
X80649707Y-137009944D01*
X80595625Y-136794036D01*
X80569219Y-136688617D01*
X80566848Y-136676694D01*
X80518245Y-136349037D01*
X80517052Y-136336927D01*
X80500649Y-136003032D01*
X80500500Y-135996948D01*
X80500500Y-54003051D01*
X80500649Y-53996967D01*
X80517052Y-53663072D01*
X80518245Y-53650962D01*
X80546107Y-53463131D01*
X80566849Y-53323296D01*
X80569218Y-53311385D01*
X80649710Y-52990043D01*
X80653240Y-52978411D01*
X80727309Y-52771402D01*
X80764835Y-52666525D01*
X80769476Y-52655318D01*
X80911124Y-52355828D01*
X80916840Y-52345136D01*
X81087145Y-52060998D01*
X81093888Y-52050905D01*
X81291232Y-51784818D01*
X81298935Y-51775433D01*
X81521405Y-51529975D01*
X81529975Y-51521405D01*
X81775433Y-51298935D01*
X81784818Y-51291232D01*
X82050905Y-51093888D01*
X82060998Y-51087145D01*
X82345136Y-50916840D01*
X82355828Y-50911124D01*
X82655318Y-50769476D01*
X82666525Y-50764835D01*
X82978412Y-50653239D01*
X82990043Y-50649710D01*
X83311385Y-50569218D01*
X83323296Y-50566849D01*
X83650962Y-50518244D01*
X83663068Y-50517052D01*
X83996967Y-50500648D01*
X84003051Y-50500500D01*
X84065892Y-50500500D01*
X103250890Y-50500500D01*
X103317929Y-50520185D01*
G37*
%TD.AperFunction*%
%TD*%
%TA.AperFunction,NonConductor*%
G36*
X87143834Y-66720047D02*
G01*
X87199767Y-66761919D01*
X87224184Y-66827383D01*
X87224500Y-66836229D01*
X87224500Y-67321098D01*
X87230568Y-67387882D01*
X87230571Y-67387893D01*
X87258371Y-67477107D01*
X87259523Y-67546967D01*
X87227667Y-67601678D01*
X86962181Y-67867164D01*
X86900858Y-67900649D01*
X86831166Y-67895665D01*
X86775233Y-67853793D01*
X86750816Y-67788329D01*
X86750500Y-67779483D01*
X86750500Y-67062229D01*
X86770185Y-66995190D01*
X86786815Y-66974552D01*
X87012819Y-66748547D01*
X87074142Y-66715063D01*
X87143834Y-66720047D01*
G37*
%TD.AperFunction*%
%TA.AperFunction,NonConductor*%
G36*
X86955703Y-76764797D02*
G01*
X86980037Y-76793412D01*
X87006512Y-76836335D01*
X87055380Y-76915564D01*
X87057288Y-76918656D01*
X87181344Y-77042712D01*
X87330666Y-77134814D01*
X87497203Y-77189999D01*
X87599991Y-77200500D01*
X88400008Y-77200499D01*
X88400016Y-77200498D01*
X88400019Y-77200498D01*
X88456302Y-77194748D01*
X88502797Y-77189999D01*
X88669334Y-77134814D01*
X88818656Y-77042712D01*
X88912319Y-76949049D01*
X88973642Y-76915564D01*
X89043334Y-76920548D01*
X89087681Y-76949049D01*
X89181344Y-77042712D01*
X89190591Y-77048416D01*
X89237318Y-77100360D01*
X89249500Y-77153957D01*
X89249500Y-79765500D01*
X89229815Y-79832539D01*
X89177011Y-79878294D01*
X89125500Y-79889500D01*
X89002229Y-79889500D01*
X88935190Y-79869815D01*
X88914548Y-79853181D01*
X88253308Y-79191940D01*
X88230643Y-79155870D01*
X88228812Y-79156753D01*
X88225792Y-79150483D01*
X88129815Y-78997737D01*
X88002262Y-78870184D01*
X87849522Y-78774211D01*
X87849519Y-78774210D01*
X87849516Y-78774208D01*
X87843242Y-78771186D01*
X87844123Y-78769356D01*
X87808060Y-78746692D01*
X86786819Y-77725451D01*
X86753334Y-77664128D01*
X86750500Y-77637770D01*
X86750500Y-76858510D01*
X86770185Y-76791471D01*
X86822989Y-76745716D01*
X86892147Y-76735772D01*
X86955703Y-76764797D01*
G37*
%TD.AperFunction*%
%TA.AperFunction,NonConductor*%
G36*
X102566166Y-100077713D02*
G01*
X102622099Y-100119585D01*
X102646360Y-100183088D01*
X102651713Y-100244276D01*
X102637946Y-100312776D01*
X102615866Y-100342764D01*
X94417050Y-108541580D01*
X94417044Y-108541588D01*
X94367812Y-108615268D01*
X94367813Y-108615269D01*
X94334921Y-108664496D01*
X94334914Y-108664508D01*
X94278342Y-108801086D01*
X94278340Y-108801092D01*
X94249500Y-108946079D01*
X94249500Y-109375500D01*
X94229815Y-109442539D01*
X94177011Y-109488294D01*
X94125500Y-109499500D01*
X93341228Y-109499500D01*
X93274189Y-109479815D01*
X93228434Y-109427011D01*
X93218490Y-109357853D01*
X93247515Y-109294297D01*
X93253533Y-109287833D01*
X102435153Y-100106212D01*
X102496474Y-100072729D01*
X102566166Y-100077713D01*
G37*
%TD.AperFunction*%
%TA.AperFunction,NonConductor*%
G36*
X92668833Y-109975046D02*
G01*
X92724767Y-110016918D01*
X92749184Y-110082382D01*
X92749500Y-110091228D01*
X92749500Y-112047870D01*
X92749501Y-112047876D01*
X92755908Y-112107483D01*
X92806202Y-112242328D01*
X92806206Y-112242335D01*
X92892452Y-112357544D01*
X92892455Y-112357547D01*
X93007664Y-112443793D01*
X93007671Y-112443797D01*
X93142517Y-112494091D01*
X93150062Y-112495874D01*
X93149523Y-112498151D01*
X93203287Y-112520408D01*
X93243147Y-112577793D01*
X93249500Y-112616975D01*
X93249500Y-117360678D01*
X93229815Y-117427717D01*
X93177011Y-117473472D01*
X93107853Y-117483416D01*
X93044297Y-117454391D01*
X93025182Y-117433564D01*
X92972227Y-117360678D01*
X92953828Y-117335354D01*
X92814646Y-117196172D01*
X92655405Y-117080476D01*
X92480029Y-116991117D01*
X92292826Y-116930290D01*
X92098422Y-116899500D01*
X92098417Y-116899500D01*
X91901583Y-116899500D01*
X91901579Y-116899500D01*
X91893893Y-116900717D01*
X91824600Y-116891760D01*
X91771150Y-116846761D01*
X91750513Y-116780009D01*
X91750500Y-116778243D01*
X91750500Y-110842229D01*
X91770185Y-110775190D01*
X91786819Y-110754548D01*
X92135288Y-110406079D01*
X92537821Y-110003545D01*
X92599142Y-109970062D01*
X92668833Y-109975046D01*
G37*
%TD.AperFunction*%
%TA.AperFunction,NonConductor*%
G36*
X93211920Y-118850397D02*
G01*
X93246278Y-118911236D01*
X93249500Y-118939321D01*
X93249500Y-123683023D01*
X93229815Y-123750062D01*
X93177011Y-123795817D01*
X93149865Y-123803266D01*
X93150068Y-123804124D01*
X93142520Y-123805907D01*
X93007671Y-123856202D01*
X93007664Y-123856206D01*
X92892455Y-123942452D01*
X92892452Y-123942455D01*
X92806206Y-124057664D01*
X92806202Y-124057671D01*
X92755908Y-124192517D01*
X92749501Y-124252116D01*
X92749501Y-124252123D01*
X92749500Y-124252135D01*
X92749500Y-124888770D01*
X92729815Y-124955809D01*
X92677011Y-125001564D01*
X92607853Y-125011508D01*
X92544297Y-124982483D01*
X92537819Y-124976451D01*
X91286819Y-123725451D01*
X91253334Y-123664128D01*
X91250500Y-123637770D01*
X91250500Y-119373929D01*
X91270185Y-119306890D01*
X91322989Y-119261135D01*
X91392147Y-119251191D01*
X91430795Y-119263445D01*
X91519966Y-119308880D01*
X91519964Y-119308880D01*
X91519972Y-119308882D01*
X91519975Y-119308884D01*
X91626153Y-119343383D01*
X91707173Y-119369709D01*
X91901578Y-119400500D01*
X91901583Y-119400500D01*
X92098422Y-119400500D01*
X92292826Y-119369709D01*
X92480025Y-119308884D01*
X92655405Y-119219524D01*
X92814646Y-119103828D01*
X92953828Y-118964646D01*
X93025183Y-118866433D01*
X93080512Y-118823770D01*
X93150125Y-118817791D01*
X93211920Y-118850397D01*
G37*
%TD.AperFunction*%
M02*
