%TF.GenerationSoftware,KiCad,Pcbnew,8.0.5*%
%TF.CreationDate,2024-10-31T02:19:14+01:00*%
%TF.ProjectId,trinket,7472696e-6b65-4742-9e6b-696361645f70,rev?*%
%TF.SameCoordinates,Original*%
%TF.FileFunction,Legend,Top*%
%TF.FilePolarity,Positive*%
%FSLAX46Y46*%
G04 Gerber Fmt 4.6, Leading zero omitted, Abs format (unit mm)*
G04 Created by KiCad (PCBNEW 8.0.5) date 2024-10-31 02:19:14*
%MOMM*%
%LPD*%
G01*
G04 APERTURE LIST*
%ADD10C,0.200000*%
%ADD11C,0.300000*%
%ADD12C,0.150000*%
%ADD13C,0.100000*%
%ADD14C,0.120000*%
G04 APERTURE END LIST*
D10*
X142091742Y-102582707D02*
X142020314Y-102654136D01*
X142020314Y-102654136D02*
X141948885Y-102796993D01*
X141948885Y-102796993D02*
X141948885Y-102939850D01*
X141948885Y-102939850D02*
X142020314Y-103082707D01*
X142020314Y-103082707D02*
X142091742Y-103154136D01*
X142091742Y-103154136D02*
X142234600Y-103225564D01*
X142234600Y-103225564D02*
X142377457Y-103225564D01*
X142377457Y-103225564D02*
X142520314Y-103154136D01*
X142520314Y-103154136D02*
X142591742Y-103082707D01*
X142591742Y-103082707D02*
X142663171Y-102939850D01*
X142663171Y-102939850D02*
X142663171Y-102796993D01*
X142663171Y-102796993D02*
X142591742Y-102654136D01*
X142591742Y-102654136D02*
X142520314Y-102582707D01*
X141948885Y-102582707D02*
X142520314Y-102582707D01*
X142520314Y-102582707D02*
X142591742Y-102511279D01*
X142591742Y-102511279D02*
X142591742Y-102439850D01*
X142591742Y-102439850D02*
X142520314Y-102296993D01*
X142520314Y-102296993D02*
X142377457Y-102225564D01*
X142377457Y-102225564D02*
X142020314Y-102225564D01*
X142020314Y-102225564D02*
X141806028Y-102368422D01*
X141806028Y-102368422D02*
X141663171Y-102582707D01*
X141663171Y-102582707D02*
X141591742Y-102868422D01*
X141591742Y-102868422D02*
X141663171Y-103154136D01*
X141663171Y-103154136D02*
X141806028Y-103368422D01*
X141806028Y-103368422D02*
X142020314Y-103511279D01*
X142020314Y-103511279D02*
X142306028Y-103582707D01*
X142306028Y-103582707D02*
X142591742Y-103511279D01*
X142591742Y-103511279D02*
X142806028Y-103368422D01*
X142806028Y-103368422D02*
X142948885Y-103154136D01*
X142948885Y-103154136D02*
X143020314Y-102868422D01*
X143020314Y-102868422D02*
X142948885Y-102582707D01*
X142948885Y-102582707D02*
X142806028Y-102368422D01*
X142806028Y-100939851D02*
X141306028Y-100939851D01*
X142734600Y-100939851D02*
X142806028Y-101082708D01*
X142806028Y-101082708D02*
X142806028Y-101368422D01*
X142806028Y-101368422D02*
X142734600Y-101511279D01*
X142734600Y-101511279D02*
X142663171Y-101582708D01*
X142663171Y-101582708D02*
X142520314Y-101654136D01*
X142520314Y-101654136D02*
X142091742Y-101654136D01*
X142091742Y-101654136D02*
X141948885Y-101582708D01*
X141948885Y-101582708D02*
X141877457Y-101511279D01*
X141877457Y-101511279D02*
X141806028Y-101368422D01*
X141806028Y-101368422D02*
X141806028Y-101082708D01*
X141806028Y-101082708D02*
X141877457Y-100939851D01*
X142806028Y-99582708D02*
X142020314Y-99582708D01*
X142020314Y-99582708D02*
X141877457Y-99654136D01*
X141877457Y-99654136D02*
X141806028Y-99796993D01*
X141806028Y-99796993D02*
X141806028Y-100082708D01*
X141806028Y-100082708D02*
X141877457Y-100225565D01*
X142734600Y-99582708D02*
X142806028Y-99725565D01*
X142806028Y-99725565D02*
X142806028Y-100082708D01*
X142806028Y-100082708D02*
X142734600Y-100225565D01*
X142734600Y-100225565D02*
X142591742Y-100296993D01*
X142591742Y-100296993D02*
X142448885Y-100296993D01*
X142448885Y-100296993D02*
X142306028Y-100225565D01*
X142306028Y-100225565D02*
X142234600Y-100082708D01*
X142234600Y-100082708D02*
X142234600Y-99725565D01*
X142234600Y-99725565D02*
X142163171Y-99582708D01*
X141806028Y-99011279D02*
X141806028Y-98225565D01*
X141806028Y-98225565D02*
X142806028Y-99011279D01*
X142806028Y-99011279D02*
X142806028Y-98225565D01*
X141806028Y-97011279D02*
X143020314Y-97011279D01*
X143020314Y-97011279D02*
X143163171Y-97082707D01*
X143163171Y-97082707D02*
X143234600Y-97154136D01*
X143234600Y-97154136D02*
X143306028Y-97296993D01*
X143306028Y-97296993D02*
X143306028Y-97511279D01*
X143306028Y-97511279D02*
X143234600Y-97654136D01*
X142734600Y-97011279D02*
X142806028Y-97154136D01*
X142806028Y-97154136D02*
X142806028Y-97439850D01*
X142806028Y-97439850D02*
X142734600Y-97582707D01*
X142734600Y-97582707D02*
X142663171Y-97654136D01*
X142663171Y-97654136D02*
X142520314Y-97725564D01*
X142520314Y-97725564D02*
X142091742Y-97725564D01*
X142091742Y-97725564D02*
X141948885Y-97654136D01*
X141948885Y-97654136D02*
X141877457Y-97582707D01*
X141877457Y-97582707D02*
X141806028Y-97439850D01*
X141806028Y-97439850D02*
X141806028Y-97154136D01*
X141806028Y-97154136D02*
X141877457Y-97011279D01*
X141806028Y-95654136D02*
X142806028Y-95654136D01*
X141806028Y-96296993D02*
X142591742Y-96296993D01*
X142591742Y-96296993D02*
X142734600Y-96225564D01*
X142734600Y-96225564D02*
X142806028Y-96082707D01*
X142806028Y-96082707D02*
X142806028Y-95868421D01*
X142806028Y-95868421D02*
X142734600Y-95725564D01*
X142734600Y-95725564D02*
X142663171Y-95654136D01*
X141806028Y-94939850D02*
X143306028Y-94939850D01*
X141877457Y-94939850D02*
X141806028Y-94796993D01*
X141806028Y-94796993D02*
X141806028Y-94511278D01*
X141806028Y-94511278D02*
X141877457Y-94368421D01*
X141877457Y-94368421D02*
X141948885Y-94296993D01*
X141948885Y-94296993D02*
X142091742Y-94225564D01*
X142091742Y-94225564D02*
X142520314Y-94225564D01*
X142520314Y-94225564D02*
X142663171Y-94296993D01*
X142663171Y-94296993D02*
X142734600Y-94368421D01*
X142734600Y-94368421D02*
X142806028Y-94511278D01*
X142806028Y-94511278D02*
X142806028Y-94796993D01*
X142806028Y-94796993D02*
X142734600Y-94939850D01*
X141806028Y-93796992D02*
X141806028Y-93225564D01*
X141306028Y-93582707D02*
X142591742Y-93582707D01*
X142591742Y-93582707D02*
X142734600Y-93511278D01*
X142734600Y-93511278D02*
X142806028Y-93368421D01*
X142806028Y-93368421D02*
X142806028Y-93225564D01*
X142806028Y-92082707D02*
X142020314Y-92082707D01*
X142020314Y-92082707D02*
X141877457Y-92154135D01*
X141877457Y-92154135D02*
X141806028Y-92296992D01*
X141806028Y-92296992D02*
X141806028Y-92582707D01*
X141806028Y-92582707D02*
X141877457Y-92725564D01*
X142734600Y-92082707D02*
X142806028Y-92225564D01*
X142806028Y-92225564D02*
X142806028Y-92582707D01*
X142806028Y-92582707D02*
X142734600Y-92725564D01*
X142734600Y-92725564D02*
X142591742Y-92796992D01*
X142591742Y-92796992D02*
X142448885Y-92796992D01*
X142448885Y-92796992D02*
X142306028Y-92725564D01*
X142306028Y-92725564D02*
X142234600Y-92582707D01*
X142234600Y-92582707D02*
X142234600Y-92225564D01*
X142234600Y-92225564D02*
X142163171Y-92082707D01*
X141306028Y-123725564D02*
X141306028Y-122868422D01*
X142806028Y-123296993D02*
X141306028Y-123296993D01*
X142806028Y-121725565D02*
X142020314Y-121725565D01*
X142020314Y-121725565D02*
X141877457Y-121796993D01*
X141877457Y-121796993D02*
X141806028Y-121939850D01*
X141806028Y-121939850D02*
X141806028Y-122225565D01*
X141806028Y-122225565D02*
X141877457Y-122368422D01*
X142734600Y-121725565D02*
X142806028Y-121868422D01*
X142806028Y-121868422D02*
X142806028Y-122225565D01*
X142806028Y-122225565D02*
X142734600Y-122368422D01*
X142734600Y-122368422D02*
X142591742Y-122439850D01*
X142591742Y-122439850D02*
X142448885Y-122439850D01*
X142448885Y-122439850D02*
X142306028Y-122368422D01*
X142306028Y-122368422D02*
X142234600Y-122225565D01*
X142234600Y-122225565D02*
X142234600Y-121868422D01*
X142234600Y-121868422D02*
X142163171Y-121725565D01*
X142806028Y-120796993D02*
X142734600Y-120939850D01*
X142734600Y-120939850D02*
X142591742Y-121011279D01*
X142591742Y-121011279D02*
X141306028Y-121011279D01*
X142806028Y-120225565D02*
X141806028Y-120225565D01*
X141306028Y-120225565D02*
X141377457Y-120296993D01*
X141377457Y-120296993D02*
X141448885Y-120225565D01*
X141448885Y-120225565D02*
X141377457Y-120154136D01*
X141377457Y-120154136D02*
X141306028Y-120225565D01*
X141306028Y-120225565D02*
X141448885Y-120225565D01*
X142734600Y-119582707D02*
X142806028Y-119439850D01*
X142806028Y-119439850D02*
X142806028Y-119154136D01*
X142806028Y-119154136D02*
X142734600Y-119011279D01*
X142734600Y-119011279D02*
X142591742Y-118939850D01*
X142591742Y-118939850D02*
X142520314Y-118939850D01*
X142520314Y-118939850D02*
X142377457Y-119011279D01*
X142377457Y-119011279D02*
X142306028Y-119154136D01*
X142306028Y-119154136D02*
X142306028Y-119368422D01*
X142306028Y-119368422D02*
X142234600Y-119511279D01*
X142234600Y-119511279D02*
X142091742Y-119582707D01*
X142091742Y-119582707D02*
X142020314Y-119582707D01*
X142020314Y-119582707D02*
X141877457Y-119511279D01*
X141877457Y-119511279D02*
X141806028Y-119368422D01*
X141806028Y-119368422D02*
X141806028Y-119154136D01*
X141806028Y-119154136D02*
X141877457Y-119011279D01*
X142806028Y-118296993D02*
X141806028Y-118296993D01*
X141948885Y-118296993D02*
X141877457Y-118225564D01*
X141877457Y-118225564D02*
X141806028Y-118082707D01*
X141806028Y-118082707D02*
X141806028Y-117868421D01*
X141806028Y-117868421D02*
X141877457Y-117725564D01*
X141877457Y-117725564D02*
X142020314Y-117654136D01*
X142020314Y-117654136D02*
X142806028Y-117654136D01*
X142020314Y-117654136D02*
X141877457Y-117582707D01*
X141877457Y-117582707D02*
X141806028Y-117439850D01*
X141806028Y-117439850D02*
X141806028Y-117225564D01*
X141806028Y-117225564D02*
X141877457Y-117082707D01*
X141877457Y-117082707D02*
X142020314Y-117011278D01*
X142020314Y-117011278D02*
X142806028Y-117011278D01*
X142806028Y-115654136D02*
X142020314Y-115654136D01*
X142020314Y-115654136D02*
X141877457Y-115725564D01*
X141877457Y-115725564D02*
X141806028Y-115868421D01*
X141806028Y-115868421D02*
X141806028Y-116154136D01*
X141806028Y-116154136D02*
X141877457Y-116296993D01*
X142734600Y-115654136D02*
X142806028Y-115796993D01*
X142806028Y-115796993D02*
X142806028Y-116154136D01*
X142806028Y-116154136D02*
X142734600Y-116296993D01*
X142734600Y-116296993D02*
X142591742Y-116368421D01*
X142591742Y-116368421D02*
X142448885Y-116368421D01*
X142448885Y-116368421D02*
X142306028Y-116296993D01*
X142306028Y-116296993D02*
X142234600Y-116154136D01*
X142234600Y-116154136D02*
X142234600Y-115796993D01*
X142234600Y-115796993D02*
X142163171Y-115654136D01*
X141806028Y-114939850D02*
X142806028Y-114939850D01*
X141948885Y-114939850D02*
X141877457Y-114868421D01*
X141877457Y-114868421D02*
X141806028Y-114725564D01*
X141806028Y-114725564D02*
X141806028Y-114511278D01*
X141806028Y-114511278D02*
X141877457Y-114368421D01*
X141877457Y-114368421D02*
X142020314Y-114296993D01*
X142020314Y-114296993D02*
X142806028Y-114296993D01*
X142806028Y-111582707D02*
X142091742Y-112082707D01*
X142806028Y-112439850D02*
X141306028Y-112439850D01*
X141306028Y-112439850D02*
X141306028Y-111868421D01*
X141306028Y-111868421D02*
X141377457Y-111725564D01*
X141377457Y-111725564D02*
X141448885Y-111654135D01*
X141448885Y-111654135D02*
X141591742Y-111582707D01*
X141591742Y-111582707D02*
X141806028Y-111582707D01*
X141806028Y-111582707D02*
X141948885Y-111654135D01*
X141948885Y-111654135D02*
X142020314Y-111725564D01*
X142020314Y-111725564D02*
X142091742Y-111868421D01*
X142091742Y-111868421D02*
X142091742Y-112439850D01*
X142734600Y-110368421D02*
X142806028Y-110511278D01*
X142806028Y-110511278D02*
X142806028Y-110796993D01*
X142806028Y-110796993D02*
X142734600Y-110939850D01*
X142734600Y-110939850D02*
X142591742Y-111011278D01*
X142591742Y-111011278D02*
X142020314Y-111011278D01*
X142020314Y-111011278D02*
X141877457Y-110939850D01*
X141877457Y-110939850D02*
X141806028Y-110796993D01*
X141806028Y-110796993D02*
X141806028Y-110511278D01*
X141806028Y-110511278D02*
X141877457Y-110368421D01*
X141877457Y-110368421D02*
X142020314Y-110296993D01*
X142020314Y-110296993D02*
X142163171Y-110296993D01*
X142163171Y-110296993D02*
X142306028Y-111011278D01*
X141806028Y-109796993D02*
X142806028Y-109439850D01*
X142806028Y-109439850D02*
X141806028Y-109082707D01*
X142806028Y-106582707D02*
X142806028Y-107439850D01*
X142806028Y-107011279D02*
X141306028Y-107011279D01*
X141306028Y-107011279D02*
X141520314Y-107154136D01*
X141520314Y-107154136D02*
X141663171Y-107296993D01*
X141663171Y-107296993D02*
X141734600Y-107439850D01*
D11*
G36*
X99839148Y-136051479D02*
G01*
X99839148Y-135560551D01*
X98784752Y-135560551D01*
X98251325Y-135560551D01*
X98251325Y-138490732D01*
X98784752Y-138490732D01*
X98784752Y-137364528D01*
X99461060Y-137364528D01*
X99461060Y-136873600D01*
X98784752Y-136873600D01*
X98784752Y-136051479D01*
X99839148Y-136051479D01*
G37*
G36*
X100960956Y-136399525D02*
G01*
X100804628Y-136422906D01*
X100659950Y-136487117D01*
X100544136Y-136583256D01*
X100498604Y-136647187D01*
X100414340Y-136420774D01*
X100006943Y-136420774D01*
X100006943Y-138479009D01*
X100498604Y-138479009D01*
X100498604Y-137117599D01*
X100521220Y-136965941D01*
X100632617Y-136859063D01*
X100712561Y-136848688D01*
X100855872Y-136892980D01*
X100921495Y-137032712D01*
X100927250Y-137117599D01*
X100927250Y-137412156D01*
X101418911Y-137327892D01*
X101438633Y-137151679D01*
X101439988Y-136982525D01*
X101421165Y-136825495D01*
X101366499Y-136653975D01*
X101273935Y-136519211D01*
X101139933Y-136431095D01*
X100960956Y-136399525D01*
G37*
G36*
X101984577Y-136150397D02*
G01*
X102135032Y-136119376D01*
X102242521Y-136015487D01*
X102269609Y-135890279D01*
X102229735Y-135742526D01*
X102110757Y-135650353D01*
X101984577Y-135629427D01*
X101832395Y-135660648D01*
X101722368Y-135764929D01*
X101694417Y-135890279D01*
X101735522Y-136037831D01*
X101857090Y-136129613D01*
X101984577Y-136150397D01*
G37*
G36*
X101736182Y-136428101D02*
G01*
X101736182Y-138486336D01*
X102227843Y-138486336D01*
X102227843Y-136428101D01*
X101736182Y-136428101D01*
G37*
G36*
X104150523Y-138496594D02*
G01*
X103742393Y-138496594D01*
X103658862Y-138185917D01*
X103635548Y-138223576D01*
X103545236Y-138339663D01*
X103422875Y-138439522D01*
X103276402Y-138500234D01*
X103125436Y-138517843D01*
X103044887Y-138512248D01*
X102898469Y-138468309D01*
X102776379Y-138382543D01*
X102684327Y-138257151D01*
X102628021Y-138094337D01*
X102612526Y-137931660D01*
X102612526Y-137267076D01*
X102612526Y-137130055D01*
X103104187Y-137130055D01*
X103104187Y-137650293D01*
X103104187Y-137786580D01*
X103131094Y-137930258D01*
X103236485Y-138038791D01*
X103381158Y-138067948D01*
X103514724Y-138044013D01*
X103625888Y-137942750D01*
X103658862Y-137786580D01*
X103658862Y-137130055D01*
X103631938Y-136986697D01*
X103526356Y-136878015D01*
X103381158Y-136848688D01*
X103248086Y-136872770D01*
X103137138Y-136974210D01*
X103104187Y-137130055D01*
X102612526Y-137130055D01*
X102612526Y-136985708D01*
X102618183Y-136885238D01*
X102651349Y-136737084D01*
X102726241Y-136592706D01*
X102834026Y-136486851D01*
X102968994Y-136421724D01*
X103125436Y-136399525D01*
X103170903Y-136400991D01*
X103315491Y-136428405D01*
X103455575Y-136499310D01*
X103572510Y-136608280D01*
X103658862Y-136731451D01*
X103658862Y-135370774D01*
X104150523Y-135370774D01*
X104150523Y-138496594D01*
G37*
G36*
X105528556Y-136433653D02*
G01*
X105676522Y-136458315D01*
X105834092Y-136522211D01*
X105958980Y-136632727D01*
X106033735Y-136761817D01*
X106084792Y-136932935D01*
X106106788Y-137092113D01*
X106114235Y-137280265D01*
X106114235Y-138496594D01*
X105706838Y-138496594D01*
X105623307Y-138227683D01*
X105545111Y-138342263D01*
X105416777Y-138443823D01*
X105271233Y-138500671D01*
X105122854Y-138517843D01*
X105066406Y-138515648D01*
X104902302Y-138481195D01*
X104754891Y-138400955D01*
X104652995Y-138295409D01*
X104577154Y-138151536D01*
X104539659Y-138006847D01*
X104526413Y-137834207D01*
X105018073Y-137834207D01*
X105043513Y-137955428D01*
X105169010Y-138050783D01*
X105320690Y-138067948D01*
X105446747Y-138057124D01*
X105584408Y-137977383D01*
X105623307Y-137834207D01*
X105597868Y-137712449D01*
X105472371Y-137616396D01*
X105320690Y-137599002D01*
X105181671Y-137612968D01*
X105056973Y-137690367D01*
X105018073Y-137834207D01*
X104526413Y-137834207D01*
X104539659Y-137661326D01*
X104589922Y-137484435D01*
X104671500Y-137348323D01*
X104801472Y-137234615D01*
X104955710Y-137170173D01*
X105122854Y-137149839D01*
X105251167Y-137158692D01*
X105400113Y-137197795D01*
X105532869Y-137278527D01*
X105623307Y-137397501D01*
X105623307Y-137280265D01*
X105614525Y-137139777D01*
X105562949Y-136993218D01*
X105440603Y-136900562D01*
X105278925Y-136876531D01*
X104728646Y-136876531D01*
X104812177Y-136426636D01*
X105362456Y-136426636D01*
X105528556Y-136433653D01*
G37*
G36*
X107578960Y-136432498D02*
G01*
X107578960Y-137675205D01*
X107562851Y-137835272D01*
X107489368Y-137970932D01*
X107342711Y-138035134D01*
X107260223Y-138040837D01*
X107109223Y-138018019D01*
X106993303Y-137925250D01*
X106946907Y-137780620D01*
X106940753Y-137675205D01*
X106940753Y-136411249D01*
X106449092Y-136411249D01*
X106449092Y-137822484D01*
X106461432Y-137998077D01*
X106499727Y-138152307D01*
X106582632Y-138304344D01*
X106708969Y-138414728D01*
X106849809Y-138470609D01*
X107025017Y-138490000D01*
X107172261Y-138476135D01*
X107319299Y-138432389D01*
X107457682Y-138355532D01*
X107578960Y-138242337D01*
X107578960Y-138490000D01*
X107567087Y-138646609D01*
X107509005Y-138784733D01*
X107377099Y-138867770D01*
X107234577Y-138884940D01*
X106558269Y-138884940D01*
X106642533Y-139334103D01*
X107318841Y-139334103D01*
X107472950Y-139327135D01*
X107648715Y-139293203D01*
X107800802Y-139221527D01*
X107923930Y-139101692D01*
X107998031Y-138964150D01*
X108047512Y-138783789D01*
X108066839Y-138617210D01*
X108070621Y-138490000D01*
X108070621Y-136432498D01*
X107578960Y-136432498D01*
G37*
G36*
X111633879Y-135550293D02*
G01*
X110810293Y-136998897D01*
X109986706Y-135550293D01*
X109453279Y-135550293D01*
X109453279Y-138490000D01*
X109986706Y-138490000D01*
X109986706Y-136642058D01*
X110810293Y-138028381D01*
X111633879Y-136642058D01*
X111633879Y-138490000D01*
X112167306Y-138490000D01*
X112167306Y-135550293D01*
X111633879Y-135550293D01*
G37*
G36*
X113503574Y-136433653D02*
G01*
X113651539Y-136458315D01*
X113809110Y-136522211D01*
X113933997Y-136632727D01*
X114008753Y-136761817D01*
X114059809Y-136932935D01*
X114081805Y-137092113D01*
X114089253Y-137280265D01*
X114089253Y-138496594D01*
X113681856Y-138496594D01*
X113598325Y-138227683D01*
X113520129Y-138342263D01*
X113391795Y-138443823D01*
X113246250Y-138500671D01*
X113097871Y-138517843D01*
X113041424Y-138515648D01*
X112877320Y-138481195D01*
X112729908Y-138400955D01*
X112628012Y-138295409D01*
X112552172Y-138151536D01*
X112514676Y-138006847D01*
X112501430Y-137834207D01*
X112993091Y-137834207D01*
X113018530Y-137955428D01*
X113144027Y-138050783D01*
X113295708Y-138067948D01*
X113421765Y-138057124D01*
X113559425Y-137977383D01*
X113598325Y-137834207D01*
X113572885Y-137712449D01*
X113447388Y-137616396D01*
X113295708Y-137599002D01*
X113156688Y-137612968D01*
X113031990Y-137690367D01*
X112993091Y-137834207D01*
X112501430Y-137834207D01*
X112514676Y-137661326D01*
X112564940Y-137484435D01*
X112646517Y-137348323D01*
X112776489Y-137234615D01*
X112930727Y-137170173D01*
X113097871Y-137149839D01*
X113226185Y-137158692D01*
X113375130Y-137197795D01*
X113507887Y-137278527D01*
X113598325Y-137397501D01*
X113598325Y-137280265D01*
X113589543Y-137139777D01*
X113537966Y-136993218D01*
X113415621Y-136900562D01*
X113253942Y-136876531D01*
X112703663Y-136876531D01*
X112787194Y-136426636D01*
X113337473Y-136426636D01*
X113503574Y-136433653D01*
G37*
G36*
X116109385Y-136437627D02*
G01*
X115559839Y-136437627D01*
X115080635Y-137243628D01*
X114874738Y-137243628D01*
X114874738Y-135386894D01*
X114383077Y-135386894D01*
X114383077Y-138495129D01*
X114874738Y-138495129D01*
X114874738Y-137692791D01*
X115085031Y-137692791D01*
X115559839Y-138495129D01*
X116109385Y-138495129D01*
X115463119Y-137466378D01*
X116109385Y-136437627D01*
G37*
G36*
X117125561Y-136402241D02*
G01*
X117278873Y-136424182D01*
X117422495Y-136468598D01*
X117582183Y-136556575D01*
X117712391Y-136681633D01*
X117789978Y-136809109D01*
X117839522Y-136961572D01*
X117856943Y-137139581D01*
X117856943Y-137295652D01*
X117856943Y-137568960D01*
X116727076Y-137568960D01*
X116727076Y-137781451D01*
X116728031Y-137811837D01*
X116771974Y-137955718D01*
X116895546Y-138046367D01*
X117046545Y-138067948D01*
X117082607Y-138067025D01*
X117234014Y-138032360D01*
X117337445Y-137927715D01*
X117365282Y-137781451D01*
X117365282Y-137768262D01*
X117856943Y-137855457D01*
X117855822Y-137895328D01*
X117829988Y-138042939D01*
X117754435Y-138200325D01*
X117638250Y-138326926D01*
X117489398Y-138422055D01*
X117352150Y-138475036D01*
X117203173Y-138507083D01*
X117046545Y-138517843D01*
X116967522Y-138515124D01*
X116814150Y-138493123D01*
X116670425Y-138448479D01*
X116510575Y-138359812D01*
X116380199Y-138233410D01*
X116302494Y-138104241D01*
X116252867Y-137949415D01*
X116235415Y-137768262D01*
X116235415Y-137139581D01*
X116236016Y-137127124D01*
X116727076Y-137127124D01*
X116727076Y-137223845D01*
X117365282Y-137223845D01*
X117365282Y-137127124D01*
X117365048Y-137112272D01*
X117320648Y-136957971D01*
X117197430Y-136869731D01*
X117046545Y-136848688D01*
X116880510Y-136875128D01*
X116758632Y-136980099D01*
X116727076Y-137127124D01*
X116236016Y-137127124D01*
X116239863Y-137047348D01*
X116273915Y-136882182D01*
X116338092Y-136742282D01*
X116454440Y-136602088D01*
X116603461Y-136499409D01*
X116740826Y-136443546D01*
X116889886Y-136410437D01*
X117046545Y-136399525D01*
X117125561Y-136402241D01*
G37*
G36*
X119144347Y-136399525D02*
G01*
X118988019Y-136422906D01*
X118843342Y-136487117D01*
X118727528Y-136583256D01*
X118681995Y-136647187D01*
X118597732Y-136420774D01*
X118190334Y-136420774D01*
X118190334Y-138479009D01*
X118681995Y-138479009D01*
X118681995Y-137117599D01*
X118704611Y-136965941D01*
X118816008Y-136859063D01*
X118895952Y-136848688D01*
X119039264Y-136892980D01*
X119104887Y-137032712D01*
X119110642Y-137117599D01*
X119110642Y-137412156D01*
X119602302Y-137327892D01*
X119622024Y-137151679D01*
X119623380Y-136982525D01*
X119604556Y-136825495D01*
X119549891Y-136653975D01*
X119457326Y-136519211D01*
X119323325Y-136431095D01*
X119144347Y-136399525D01*
G37*
G36*
X119878541Y-137872309D02*
G01*
X119896718Y-138031110D01*
X119965823Y-138195751D01*
X120078282Y-138324445D01*
X120225321Y-138418988D01*
X120398171Y-138481172D01*
X120549141Y-138508829D01*
X120706524Y-138517843D01*
X120860633Y-138509267D01*
X121036398Y-138473835D01*
X121188486Y-138409930D01*
X121311613Y-138316462D01*
X121400498Y-138192340D01*
X121449858Y-138036474D01*
X121458304Y-137927264D01*
X121443018Y-137774640D01*
X121386871Y-137623086D01*
X121293779Y-137501729D01*
X121168292Y-137406048D01*
X121014960Y-137331523D01*
X120929274Y-137300781D01*
X120773786Y-137253091D01*
X120617845Y-137203303D01*
X120485822Y-137139298D01*
X120411967Y-137006957D01*
X120488170Y-136879928D01*
X120643510Y-136848688D01*
X120798366Y-136876818D01*
X120901687Y-136985157D01*
X120924877Y-137130055D01*
X121416538Y-137045059D01*
X121401605Y-136894673D01*
X121343808Y-136734393D01*
X121247495Y-136605095D01*
X121117982Y-136506997D01*
X120960586Y-136440317D01*
X120780624Y-136405274D01*
X120664026Y-136399525D01*
X120510295Y-136408992D01*
X120335848Y-136447586D01*
X120185641Y-136516151D01*
X120064555Y-136614936D01*
X119977471Y-136744194D01*
X119929268Y-136904176D01*
X119921039Y-137015017D01*
X119936519Y-137162638D01*
X119995958Y-137313525D01*
X120103685Y-137442046D01*
X120237419Y-137534895D01*
X120379937Y-137600371D01*
X120411967Y-137612191D01*
X120572536Y-137662807D01*
X120716914Y-137705223D01*
X120868806Y-137764497D01*
X120965888Y-137887176D01*
X120966643Y-137902351D01*
X120888351Y-138031647D01*
X120738788Y-138067304D01*
X120710188Y-138067948D01*
X120555799Y-138051690D01*
X120425747Y-137978651D01*
X120371883Y-137831109D01*
X120370202Y-137786580D01*
X119878541Y-137872309D01*
G37*
G36*
X124186985Y-137418018D02*
G01*
X124186985Y-137577752D01*
X124173956Y-137729832D01*
X124115926Y-137879982D01*
X124002264Y-137977970D01*
X123849757Y-138017122D01*
X123762735Y-138021053D01*
X123614204Y-138008031D01*
X123473385Y-137949222D01*
X123375869Y-137823875D01*
X123338959Y-137673844D01*
X123334089Y-137577752D01*
X123334089Y-136471332D01*
X123347407Y-136319205D01*
X123406539Y-136168871D01*
X123521815Y-136070614D01*
X123675525Y-136031262D01*
X123762735Y-136027299D01*
X123910727Y-136040411D01*
X124050093Y-136099462D01*
X124146052Y-136225068D01*
X124182223Y-136375223D01*
X124186985Y-136471332D01*
X124186985Y-136631067D01*
X124720411Y-136546803D01*
X124720411Y-136463272D01*
X124709887Y-136274645D01*
X124679187Y-136111289D01*
X124629619Y-135971739D01*
X124536437Y-135820164D01*
X124415136Y-135704824D01*
X124268815Y-135622239D01*
X124100575Y-135568933D01*
X123913516Y-135541427D01*
X123762735Y-135535638D01*
X123611846Y-135541427D01*
X123424355Y-135568933D01*
X123255453Y-135622239D01*
X123108342Y-135704824D01*
X122986224Y-135820164D01*
X122892303Y-135971739D01*
X122842292Y-136111289D01*
X122811295Y-136274645D01*
X122800662Y-136463272D01*
X122800662Y-137585812D01*
X122811295Y-137774422D01*
X122842292Y-137937728D01*
X122892303Y-138077205D01*
X122986224Y-138228656D01*
X123108342Y-138343860D01*
X123255453Y-138426313D01*
X123424355Y-138479509D01*
X123611846Y-138506943D01*
X123762735Y-138512714D01*
X123913516Y-138506943D01*
X124100575Y-138479509D01*
X124268815Y-138426313D01*
X124415136Y-138343860D01*
X124536437Y-138228656D01*
X124629619Y-138077205D01*
X124679187Y-137937728D01*
X124709887Y-137774422D01*
X124720411Y-137585812D01*
X124720411Y-137502281D01*
X124186985Y-137418018D01*
G37*
G36*
X125054535Y-135382498D02*
G01*
X125054535Y-138490000D01*
X125546196Y-138490000D01*
X125546196Y-135382498D01*
X125054535Y-135382498D01*
G37*
G36*
X127095917Y-136438360D02*
G01*
X127095917Y-137703049D01*
X127079809Y-137862692D01*
X127006326Y-137998104D01*
X126859668Y-138062246D01*
X126777180Y-138067948D01*
X126626181Y-138045142D01*
X126510260Y-137952492D01*
X126463865Y-137808171D01*
X126457711Y-137703049D01*
X126457711Y-136438360D01*
X125966050Y-136438360D01*
X125966050Y-137849595D01*
X125978390Y-138025236D01*
X126016684Y-138179588D01*
X126099590Y-138331822D01*
X126225926Y-138442401D01*
X126366767Y-138498404D01*
X126541974Y-138517843D01*
X126689218Y-138503876D01*
X126836256Y-138459958D01*
X126974639Y-138383067D01*
X127095917Y-138270181D01*
X127180181Y-138496594D01*
X127587578Y-138496594D01*
X127587578Y-136438360D01*
X127095917Y-136438360D01*
G37*
G36*
X128412630Y-136731451D02*
G01*
X128435945Y-136693793D01*
X128526256Y-136577706D01*
X128648617Y-136477846D01*
X128795090Y-136417134D01*
X128946057Y-136399525D01*
X129026605Y-136405121D01*
X129173024Y-136449059D01*
X129295114Y-136534825D01*
X129387166Y-136660217D01*
X129443471Y-136823031D01*
X129458967Y-136985708D01*
X129458967Y-137650293D01*
X129458967Y-137931660D01*
X129453309Y-138032130D01*
X129420144Y-138180284D01*
X129345251Y-138324663D01*
X129237467Y-138430517D01*
X129102499Y-138495645D01*
X128946057Y-138517843D01*
X128900589Y-138516378D01*
X128756001Y-138488963D01*
X128615917Y-138418058D01*
X128498982Y-138309088D01*
X128412630Y-138185917D01*
X128328367Y-138496594D01*
X127920969Y-138496594D01*
X127920969Y-137130055D01*
X128412630Y-137130055D01*
X128412630Y-137786580D01*
X128439538Y-137930258D01*
X128544929Y-138038791D01*
X128689602Y-138067948D01*
X128823168Y-138044013D01*
X128934332Y-137942750D01*
X128967306Y-137786580D01*
X128967306Y-137130055D01*
X128940382Y-136986697D01*
X128834800Y-136878015D01*
X128689602Y-136848688D01*
X128556530Y-136872770D01*
X128445582Y-136974210D01*
X128412630Y-137130055D01*
X127920969Y-137130055D01*
X127920969Y-135370774D01*
X128412630Y-135370774D01*
X128412630Y-136731451D01*
G37*
D12*
X105824819Y-59833333D02*
X106539104Y-59833333D01*
X106539104Y-59833333D02*
X106681961Y-59880952D01*
X106681961Y-59880952D02*
X106777200Y-59976190D01*
X106777200Y-59976190D02*
X106824819Y-60119047D01*
X106824819Y-60119047D02*
X106824819Y-60214285D01*
X106824819Y-58833333D02*
X106824819Y-59404761D01*
X106824819Y-59119047D02*
X105824819Y-59119047D01*
X105824819Y-59119047D02*
X105967676Y-59214285D01*
X105967676Y-59214285D02*
X106062914Y-59309523D01*
X106062914Y-59309523D02*
X106110533Y-59404761D01*
X137607200Y-70733332D02*
X137654819Y-70590475D01*
X137654819Y-70590475D02*
X137654819Y-70352380D01*
X137654819Y-70352380D02*
X137607200Y-70257142D01*
X137607200Y-70257142D02*
X137559580Y-70209523D01*
X137559580Y-70209523D02*
X137464342Y-70161904D01*
X137464342Y-70161904D02*
X137369104Y-70161904D01*
X137369104Y-70161904D02*
X137273866Y-70209523D01*
X137273866Y-70209523D02*
X137226247Y-70257142D01*
X137226247Y-70257142D02*
X137178628Y-70352380D01*
X137178628Y-70352380D02*
X137131009Y-70542856D01*
X137131009Y-70542856D02*
X137083390Y-70638094D01*
X137083390Y-70638094D02*
X137035771Y-70685713D01*
X137035771Y-70685713D02*
X136940533Y-70733332D01*
X136940533Y-70733332D02*
X136845295Y-70733332D01*
X136845295Y-70733332D02*
X136750057Y-70685713D01*
X136750057Y-70685713D02*
X136702438Y-70638094D01*
X136702438Y-70638094D02*
X136654819Y-70542856D01*
X136654819Y-70542856D02*
X136654819Y-70304761D01*
X136654819Y-70304761D02*
X136702438Y-70161904D01*
X136654819Y-69828570D02*
X137654819Y-69590475D01*
X137654819Y-69590475D02*
X136940533Y-69399999D01*
X136940533Y-69399999D02*
X137654819Y-69209523D01*
X137654819Y-69209523D02*
X136654819Y-68971428D01*
X137654819Y-68066666D02*
X137654819Y-68638094D01*
X137654819Y-68352380D02*
X136654819Y-68352380D01*
X136654819Y-68352380D02*
X136797676Y-68447618D01*
X136797676Y-68447618D02*
X136892914Y-68542856D01*
X136892914Y-68542856D02*
X136940533Y-68638094D01*
X134666666Y-63864819D02*
X134666666Y-64579104D01*
X134666666Y-64579104D02*
X134619047Y-64721961D01*
X134619047Y-64721961D02*
X134523809Y-64817200D01*
X134523809Y-64817200D02*
X134380952Y-64864819D01*
X134380952Y-64864819D02*
X134285714Y-64864819D01*
X135285714Y-64293390D02*
X135190476Y-64245771D01*
X135190476Y-64245771D02*
X135142857Y-64198152D01*
X135142857Y-64198152D02*
X135095238Y-64102914D01*
X135095238Y-64102914D02*
X135095238Y-64055295D01*
X135095238Y-64055295D02*
X135142857Y-63960057D01*
X135142857Y-63960057D02*
X135190476Y-63912438D01*
X135190476Y-63912438D02*
X135285714Y-63864819D01*
X135285714Y-63864819D02*
X135476190Y-63864819D01*
X135476190Y-63864819D02*
X135571428Y-63912438D01*
X135571428Y-63912438D02*
X135619047Y-63960057D01*
X135619047Y-63960057D02*
X135666666Y-64055295D01*
X135666666Y-64055295D02*
X135666666Y-64102914D01*
X135666666Y-64102914D02*
X135619047Y-64198152D01*
X135619047Y-64198152D02*
X135571428Y-64245771D01*
X135571428Y-64245771D02*
X135476190Y-64293390D01*
X135476190Y-64293390D02*
X135285714Y-64293390D01*
X135285714Y-64293390D02*
X135190476Y-64341009D01*
X135190476Y-64341009D02*
X135142857Y-64388628D01*
X135142857Y-64388628D02*
X135095238Y-64483866D01*
X135095238Y-64483866D02*
X135095238Y-64674342D01*
X135095238Y-64674342D02*
X135142857Y-64769580D01*
X135142857Y-64769580D02*
X135190476Y-64817200D01*
X135190476Y-64817200D02*
X135285714Y-64864819D01*
X135285714Y-64864819D02*
X135476190Y-64864819D01*
X135476190Y-64864819D02*
X135571428Y-64817200D01*
X135571428Y-64817200D02*
X135619047Y-64769580D01*
X135619047Y-64769580D02*
X135666666Y-64674342D01*
X135666666Y-64674342D02*
X135666666Y-64483866D01*
X135666666Y-64483866D02*
X135619047Y-64388628D01*
X135619047Y-64388628D02*
X135571428Y-64341009D01*
X135571428Y-64341009D02*
X135476190Y-64293390D01*
D13*
X137765022Y-59089341D02*
X138098355Y-59565532D01*
X138336450Y-59089341D02*
X138336450Y-60089341D01*
X138336450Y-60089341D02*
X137955498Y-60089341D01*
X137955498Y-60089341D02*
X137860260Y-60041722D01*
X137860260Y-60041722D02*
X137812641Y-59994103D01*
X137812641Y-59994103D02*
X137765022Y-59898865D01*
X137765022Y-59898865D02*
X137765022Y-59756008D01*
X137765022Y-59756008D02*
X137812641Y-59660770D01*
X137812641Y-59660770D02*
X137860260Y-59613151D01*
X137860260Y-59613151D02*
X137955498Y-59565532D01*
X137955498Y-59565532D02*
X138336450Y-59565532D01*
X137431688Y-60089341D02*
X136765022Y-59089341D01*
X136765022Y-60089341D02*
X137431688Y-59089341D01*
X138877776Y-62549508D02*
X138973014Y-62597127D01*
X138973014Y-62597127D02*
X139115871Y-62597127D01*
X139115871Y-62597127D02*
X139258728Y-62549508D01*
X139258728Y-62549508D02*
X139353966Y-62454270D01*
X139353966Y-62454270D02*
X139401585Y-62359032D01*
X139401585Y-62359032D02*
X139449204Y-62168556D01*
X139449204Y-62168556D02*
X139449204Y-62025699D01*
X139449204Y-62025699D02*
X139401585Y-61835223D01*
X139401585Y-61835223D02*
X139353966Y-61739985D01*
X139353966Y-61739985D02*
X139258728Y-61644747D01*
X139258728Y-61644747D02*
X139115871Y-61597127D01*
X139115871Y-61597127D02*
X139020633Y-61597127D01*
X139020633Y-61597127D02*
X138877776Y-61644747D01*
X138877776Y-61644747D02*
X138830157Y-61692366D01*
X138830157Y-61692366D02*
X138830157Y-62025699D01*
X138830157Y-62025699D02*
X139020633Y-62025699D01*
X138401585Y-61597127D02*
X138401585Y-62597127D01*
X138401585Y-62597127D02*
X137830157Y-61597127D01*
X137830157Y-61597127D02*
X137830157Y-62597127D01*
X137353966Y-61597127D02*
X137353966Y-62597127D01*
X137353966Y-62597127D02*
X137115871Y-62597127D01*
X137115871Y-62597127D02*
X136973014Y-62549508D01*
X136973014Y-62549508D02*
X136877776Y-62454270D01*
X136877776Y-62454270D02*
X136830157Y-62359032D01*
X136830157Y-62359032D02*
X136782538Y-62168556D01*
X136782538Y-62168556D02*
X136782538Y-62025699D01*
X136782538Y-62025699D02*
X136830157Y-61835223D01*
X136830157Y-61835223D02*
X136877776Y-61739985D01*
X136877776Y-61739985D02*
X136973014Y-61644747D01*
X136973014Y-61644747D02*
X137115871Y-61597127D01*
X137115871Y-61597127D02*
X137353966Y-61597127D01*
X138250100Y-57217521D02*
X137678672Y-57217521D01*
X137964386Y-56217521D02*
X137964386Y-57217521D01*
X137440576Y-57217521D02*
X136773910Y-56217521D01*
X136773910Y-57217521D02*
X137440576Y-56217521D01*
D12*
X122607200Y-119483332D02*
X122654819Y-119340475D01*
X122654819Y-119340475D02*
X122654819Y-119102380D01*
X122654819Y-119102380D02*
X122607200Y-119007142D01*
X122607200Y-119007142D02*
X122559580Y-118959523D01*
X122559580Y-118959523D02*
X122464342Y-118911904D01*
X122464342Y-118911904D02*
X122369104Y-118911904D01*
X122369104Y-118911904D02*
X122273866Y-118959523D01*
X122273866Y-118959523D02*
X122226247Y-119007142D01*
X122226247Y-119007142D02*
X122178628Y-119102380D01*
X122178628Y-119102380D02*
X122131009Y-119292856D01*
X122131009Y-119292856D02*
X122083390Y-119388094D01*
X122083390Y-119388094D02*
X122035771Y-119435713D01*
X122035771Y-119435713D02*
X121940533Y-119483332D01*
X121940533Y-119483332D02*
X121845295Y-119483332D01*
X121845295Y-119483332D02*
X121750057Y-119435713D01*
X121750057Y-119435713D02*
X121702438Y-119388094D01*
X121702438Y-119388094D02*
X121654819Y-119292856D01*
X121654819Y-119292856D02*
X121654819Y-119054761D01*
X121654819Y-119054761D02*
X121702438Y-118911904D01*
X121654819Y-118578570D02*
X122654819Y-118340475D01*
X122654819Y-118340475D02*
X121940533Y-118149999D01*
X121940533Y-118149999D02*
X122654819Y-117959523D01*
X122654819Y-117959523D02*
X121654819Y-117721428D01*
X121988152Y-116911904D02*
X122654819Y-116911904D01*
X121607200Y-117149999D02*
X122321485Y-117388094D01*
X122321485Y-117388094D02*
X122321485Y-116769047D01*
X93679580Y-82166666D02*
X93727200Y-82214285D01*
X93727200Y-82214285D02*
X93774819Y-82357142D01*
X93774819Y-82357142D02*
X93774819Y-82452380D01*
X93774819Y-82452380D02*
X93727200Y-82595237D01*
X93727200Y-82595237D02*
X93631961Y-82690475D01*
X93631961Y-82690475D02*
X93536723Y-82738094D01*
X93536723Y-82738094D02*
X93346247Y-82785713D01*
X93346247Y-82785713D02*
X93203390Y-82785713D01*
X93203390Y-82785713D02*
X93012914Y-82738094D01*
X93012914Y-82738094D02*
X92917676Y-82690475D01*
X92917676Y-82690475D02*
X92822438Y-82595237D01*
X92822438Y-82595237D02*
X92774819Y-82452380D01*
X92774819Y-82452380D02*
X92774819Y-82357142D01*
X92774819Y-82357142D02*
X92822438Y-82214285D01*
X92822438Y-82214285D02*
X92870057Y-82166666D01*
X92870057Y-81785713D02*
X92822438Y-81738094D01*
X92822438Y-81738094D02*
X92774819Y-81642856D01*
X92774819Y-81642856D02*
X92774819Y-81404761D01*
X92774819Y-81404761D02*
X92822438Y-81309523D01*
X92822438Y-81309523D02*
X92870057Y-81261904D01*
X92870057Y-81261904D02*
X92965295Y-81214285D01*
X92965295Y-81214285D02*
X93060533Y-81214285D01*
X93060533Y-81214285D02*
X93203390Y-81261904D01*
X93203390Y-81261904D02*
X93774819Y-81833332D01*
X93774819Y-81833332D02*
X93774819Y-81214285D01*
X89607200Y-119483332D02*
X89654819Y-119340475D01*
X89654819Y-119340475D02*
X89654819Y-119102380D01*
X89654819Y-119102380D02*
X89607200Y-119007142D01*
X89607200Y-119007142D02*
X89559580Y-118959523D01*
X89559580Y-118959523D02*
X89464342Y-118911904D01*
X89464342Y-118911904D02*
X89369104Y-118911904D01*
X89369104Y-118911904D02*
X89273866Y-118959523D01*
X89273866Y-118959523D02*
X89226247Y-119007142D01*
X89226247Y-119007142D02*
X89178628Y-119102380D01*
X89178628Y-119102380D02*
X89131009Y-119292856D01*
X89131009Y-119292856D02*
X89083390Y-119388094D01*
X89083390Y-119388094D02*
X89035771Y-119435713D01*
X89035771Y-119435713D02*
X88940533Y-119483332D01*
X88940533Y-119483332D02*
X88845295Y-119483332D01*
X88845295Y-119483332D02*
X88750057Y-119435713D01*
X88750057Y-119435713D02*
X88702438Y-119388094D01*
X88702438Y-119388094D02*
X88654819Y-119292856D01*
X88654819Y-119292856D02*
X88654819Y-119054761D01*
X88654819Y-119054761D02*
X88702438Y-118911904D01*
X88654819Y-118578570D02*
X89654819Y-118340475D01*
X89654819Y-118340475D02*
X88940533Y-118149999D01*
X88940533Y-118149999D02*
X89654819Y-117959523D01*
X89654819Y-117959523D02*
X88654819Y-117721428D01*
X88750057Y-117388094D02*
X88702438Y-117340475D01*
X88702438Y-117340475D02*
X88654819Y-117245237D01*
X88654819Y-117245237D02*
X88654819Y-117007142D01*
X88654819Y-117007142D02*
X88702438Y-116911904D01*
X88702438Y-116911904D02*
X88750057Y-116864285D01*
X88750057Y-116864285D02*
X88845295Y-116816666D01*
X88845295Y-116816666D02*
X88940533Y-116816666D01*
X88940533Y-116816666D02*
X89083390Y-116864285D01*
X89083390Y-116864285D02*
X89654819Y-117435713D01*
X89654819Y-117435713D02*
X89654819Y-116816666D01*
X110666666Y-134324819D02*
X110666666Y-135039104D01*
X110666666Y-135039104D02*
X110619047Y-135181961D01*
X110619047Y-135181961D02*
X110523809Y-135277200D01*
X110523809Y-135277200D02*
X110380952Y-135324819D01*
X110380952Y-135324819D02*
X110285714Y-135324819D01*
X111190476Y-135324819D02*
X111380952Y-135324819D01*
X111380952Y-135324819D02*
X111476190Y-135277200D01*
X111476190Y-135277200D02*
X111523809Y-135229580D01*
X111523809Y-135229580D02*
X111619047Y-135086723D01*
X111619047Y-135086723D02*
X111666666Y-134896247D01*
X111666666Y-134896247D02*
X111666666Y-134515295D01*
X111666666Y-134515295D02*
X111619047Y-134420057D01*
X111619047Y-134420057D02*
X111571428Y-134372438D01*
X111571428Y-134372438D02*
X111476190Y-134324819D01*
X111476190Y-134324819D02*
X111285714Y-134324819D01*
X111285714Y-134324819D02*
X111190476Y-134372438D01*
X111190476Y-134372438D02*
X111142857Y-134420057D01*
X111142857Y-134420057D02*
X111095238Y-134515295D01*
X111095238Y-134515295D02*
X111095238Y-134753390D01*
X111095238Y-134753390D02*
X111142857Y-134848628D01*
X111142857Y-134848628D02*
X111190476Y-134896247D01*
X111190476Y-134896247D02*
X111285714Y-134943866D01*
X111285714Y-134943866D02*
X111476190Y-134943866D01*
X111476190Y-134943866D02*
X111571428Y-134896247D01*
X111571428Y-134896247D02*
X111619047Y-134848628D01*
X111619047Y-134848628D02*
X111666666Y-134753390D01*
D13*
X114033181Y-132598585D02*
X113890324Y-132550966D01*
X113890324Y-132550966D02*
X113842705Y-132503347D01*
X113842705Y-132503347D02*
X113795086Y-132408109D01*
X113795086Y-132408109D02*
X113795086Y-132265252D01*
X113795086Y-132265252D02*
X113842705Y-132170014D01*
X113842705Y-132170014D02*
X113890324Y-132122395D01*
X113890324Y-132122395D02*
X113985562Y-132074775D01*
X113985562Y-132074775D02*
X114366514Y-132074775D01*
X114366514Y-132074775D02*
X114366514Y-133074775D01*
X114366514Y-133074775D02*
X114033181Y-133074775D01*
X114033181Y-133074775D02*
X113937943Y-133027156D01*
X113937943Y-133027156D02*
X113890324Y-132979537D01*
X113890324Y-132979537D02*
X113842705Y-132884299D01*
X113842705Y-132884299D02*
X113842705Y-132789061D01*
X113842705Y-132789061D02*
X113890324Y-132693823D01*
X113890324Y-132693823D02*
X113937943Y-132646204D01*
X113937943Y-132646204D02*
X114033181Y-132598585D01*
X114033181Y-132598585D02*
X114366514Y-132598585D01*
X113366514Y-132455728D02*
X112604610Y-132455728D01*
X114023573Y-130196491D02*
X113880716Y-130148872D01*
X113880716Y-130148872D02*
X113833097Y-130101253D01*
X113833097Y-130101253D02*
X113785478Y-130006015D01*
X113785478Y-130006015D02*
X113785478Y-129863158D01*
X113785478Y-129863158D02*
X113833097Y-129767920D01*
X113833097Y-129767920D02*
X113880716Y-129720301D01*
X113880716Y-129720301D02*
X113975954Y-129672681D01*
X113975954Y-129672681D02*
X114356906Y-129672681D01*
X114356906Y-129672681D02*
X114356906Y-130672681D01*
X114356906Y-130672681D02*
X114023573Y-130672681D01*
X114023573Y-130672681D02*
X113928335Y-130625062D01*
X113928335Y-130625062D02*
X113880716Y-130577443D01*
X113880716Y-130577443D02*
X113833097Y-130482205D01*
X113833097Y-130482205D02*
X113833097Y-130386967D01*
X113833097Y-130386967D02*
X113880716Y-130291729D01*
X113880716Y-130291729D02*
X113928335Y-130244110D01*
X113928335Y-130244110D02*
X114023573Y-130196491D01*
X114023573Y-130196491D02*
X114356906Y-130196491D01*
X113356906Y-130053634D02*
X112595002Y-130053634D01*
X112975954Y-129672681D02*
X112975954Y-130434586D01*
D12*
X95104819Y-72166666D02*
X94628628Y-72499999D01*
X95104819Y-72738094D02*
X94104819Y-72738094D01*
X94104819Y-72738094D02*
X94104819Y-72357142D01*
X94104819Y-72357142D02*
X94152438Y-72261904D01*
X94152438Y-72261904D02*
X94200057Y-72214285D01*
X94200057Y-72214285D02*
X94295295Y-72166666D01*
X94295295Y-72166666D02*
X94438152Y-72166666D01*
X94438152Y-72166666D02*
X94533390Y-72214285D01*
X94533390Y-72214285D02*
X94581009Y-72261904D01*
X94581009Y-72261904D02*
X94628628Y-72357142D01*
X94628628Y-72357142D02*
X94628628Y-72738094D01*
X95104819Y-71214285D02*
X95104819Y-71785713D01*
X95104819Y-71499999D02*
X94104819Y-71499999D01*
X94104819Y-71499999D02*
X94247676Y-71595237D01*
X94247676Y-71595237D02*
X94342914Y-71690475D01*
X94342914Y-71690475D02*
X94390533Y-71785713D01*
X84666666Y-51254819D02*
X84666666Y-51969104D01*
X84666666Y-51969104D02*
X84619047Y-52111961D01*
X84619047Y-52111961D02*
X84523809Y-52207200D01*
X84523809Y-52207200D02*
X84380952Y-52254819D01*
X84380952Y-52254819D02*
X84285714Y-52254819D01*
X85047619Y-51254819D02*
X85666666Y-51254819D01*
X85666666Y-51254819D02*
X85333333Y-51635771D01*
X85333333Y-51635771D02*
X85476190Y-51635771D01*
X85476190Y-51635771D02*
X85571428Y-51683390D01*
X85571428Y-51683390D02*
X85619047Y-51731009D01*
X85619047Y-51731009D02*
X85666666Y-51826247D01*
X85666666Y-51826247D02*
X85666666Y-52064342D01*
X85666666Y-52064342D02*
X85619047Y-52159580D01*
X85619047Y-52159580D02*
X85571428Y-52207200D01*
X85571428Y-52207200D02*
X85476190Y-52254819D01*
X85476190Y-52254819D02*
X85190476Y-52254819D01*
X85190476Y-52254819D02*
X85095238Y-52207200D01*
X85095238Y-52207200D02*
X85047619Y-52159580D01*
X88833333Y-61709580D02*
X88785714Y-61757200D01*
X88785714Y-61757200D02*
X88642857Y-61804819D01*
X88642857Y-61804819D02*
X88547619Y-61804819D01*
X88547619Y-61804819D02*
X88404762Y-61757200D01*
X88404762Y-61757200D02*
X88309524Y-61661961D01*
X88309524Y-61661961D02*
X88261905Y-61566723D01*
X88261905Y-61566723D02*
X88214286Y-61376247D01*
X88214286Y-61376247D02*
X88214286Y-61233390D01*
X88214286Y-61233390D02*
X88261905Y-61042914D01*
X88261905Y-61042914D02*
X88309524Y-60947676D01*
X88309524Y-60947676D02*
X88404762Y-60852438D01*
X88404762Y-60852438D02*
X88547619Y-60804819D01*
X88547619Y-60804819D02*
X88642857Y-60804819D01*
X88642857Y-60804819D02*
X88785714Y-60852438D01*
X88785714Y-60852438D02*
X88833333Y-60900057D01*
X89166667Y-60804819D02*
X89785714Y-60804819D01*
X89785714Y-60804819D02*
X89452381Y-61185771D01*
X89452381Y-61185771D02*
X89595238Y-61185771D01*
X89595238Y-61185771D02*
X89690476Y-61233390D01*
X89690476Y-61233390D02*
X89738095Y-61281009D01*
X89738095Y-61281009D02*
X89785714Y-61376247D01*
X89785714Y-61376247D02*
X89785714Y-61614342D01*
X89785714Y-61614342D02*
X89738095Y-61709580D01*
X89738095Y-61709580D02*
X89690476Y-61757200D01*
X89690476Y-61757200D02*
X89595238Y-61804819D01*
X89595238Y-61804819D02*
X89309524Y-61804819D01*
X89309524Y-61804819D02*
X89214286Y-61757200D01*
X89214286Y-61757200D02*
X89166667Y-61709580D01*
X139666666Y-51254819D02*
X139666666Y-51969104D01*
X139666666Y-51969104D02*
X139619047Y-52111961D01*
X139619047Y-52111961D02*
X139523809Y-52207200D01*
X139523809Y-52207200D02*
X139380952Y-52254819D01*
X139380952Y-52254819D02*
X139285714Y-52254819D01*
X140571428Y-51588152D02*
X140571428Y-52254819D01*
X140333333Y-51207200D02*
X140095238Y-51921485D01*
X140095238Y-51921485D02*
X140714285Y-51921485D01*
X139666666Y-131254819D02*
X139666666Y-131969104D01*
X139666666Y-131969104D02*
X139619047Y-132111961D01*
X139619047Y-132111961D02*
X139523809Y-132207200D01*
X139523809Y-132207200D02*
X139380952Y-132254819D01*
X139380952Y-132254819D02*
X139285714Y-132254819D01*
X140571428Y-131254819D02*
X140380952Y-131254819D01*
X140380952Y-131254819D02*
X140285714Y-131302438D01*
X140285714Y-131302438D02*
X140238095Y-131350057D01*
X140238095Y-131350057D02*
X140142857Y-131492914D01*
X140142857Y-131492914D02*
X140095238Y-131683390D01*
X140095238Y-131683390D02*
X140095238Y-132064342D01*
X140095238Y-132064342D02*
X140142857Y-132159580D01*
X140142857Y-132159580D02*
X140190476Y-132207200D01*
X140190476Y-132207200D02*
X140285714Y-132254819D01*
X140285714Y-132254819D02*
X140476190Y-132254819D01*
X140476190Y-132254819D02*
X140571428Y-132207200D01*
X140571428Y-132207200D02*
X140619047Y-132159580D01*
X140619047Y-132159580D02*
X140666666Y-132064342D01*
X140666666Y-132064342D02*
X140666666Y-131826247D01*
X140666666Y-131826247D02*
X140619047Y-131731009D01*
X140619047Y-131731009D02*
X140571428Y-131683390D01*
X140571428Y-131683390D02*
X140476190Y-131635771D01*
X140476190Y-131635771D02*
X140285714Y-131635771D01*
X140285714Y-131635771D02*
X140190476Y-131683390D01*
X140190476Y-131683390D02*
X140142857Y-131731009D01*
X140142857Y-131731009D02*
X140095238Y-131826247D01*
X88504819Y-73238094D02*
X87504819Y-73238094D01*
X87504819Y-73238094D02*
X87504819Y-72999999D01*
X87504819Y-72999999D02*
X87552438Y-72857142D01*
X87552438Y-72857142D02*
X87647676Y-72761904D01*
X87647676Y-72761904D02*
X87742914Y-72714285D01*
X87742914Y-72714285D02*
X87933390Y-72666666D01*
X87933390Y-72666666D02*
X88076247Y-72666666D01*
X88076247Y-72666666D02*
X88266723Y-72714285D01*
X88266723Y-72714285D02*
X88361961Y-72761904D01*
X88361961Y-72761904D02*
X88457200Y-72857142D01*
X88457200Y-72857142D02*
X88504819Y-72999999D01*
X88504819Y-72999999D02*
X88504819Y-73238094D01*
X88504819Y-71714285D02*
X88504819Y-72285713D01*
X88504819Y-71999999D02*
X87504819Y-71999999D01*
X87504819Y-71999999D02*
X87647676Y-72095237D01*
X87647676Y-72095237D02*
X87742914Y-72190475D01*
X87742914Y-72190475D02*
X87790533Y-72285713D01*
X84666666Y-131254819D02*
X84666666Y-131969104D01*
X84666666Y-131969104D02*
X84619047Y-132111961D01*
X84619047Y-132111961D02*
X84523809Y-132207200D01*
X84523809Y-132207200D02*
X84380952Y-132254819D01*
X84380952Y-132254819D02*
X84285714Y-132254819D01*
X85619047Y-131254819D02*
X85142857Y-131254819D01*
X85142857Y-131254819D02*
X85095238Y-131731009D01*
X85095238Y-131731009D02*
X85142857Y-131683390D01*
X85142857Y-131683390D02*
X85238095Y-131635771D01*
X85238095Y-131635771D02*
X85476190Y-131635771D01*
X85476190Y-131635771D02*
X85571428Y-131683390D01*
X85571428Y-131683390D02*
X85619047Y-131731009D01*
X85619047Y-131731009D02*
X85666666Y-131826247D01*
X85666666Y-131826247D02*
X85666666Y-132064342D01*
X85666666Y-132064342D02*
X85619047Y-132159580D01*
X85619047Y-132159580D02*
X85571428Y-132207200D01*
X85571428Y-132207200D02*
X85476190Y-132254819D01*
X85476190Y-132254819D02*
X85238095Y-132254819D01*
X85238095Y-132254819D02*
X85142857Y-132207200D01*
X85142857Y-132207200D02*
X85095238Y-132159580D01*
X88833333Y-78104819D02*
X88500000Y-77628628D01*
X88261905Y-78104819D02*
X88261905Y-77104819D01*
X88261905Y-77104819D02*
X88642857Y-77104819D01*
X88642857Y-77104819D02*
X88738095Y-77152438D01*
X88738095Y-77152438D02*
X88785714Y-77200057D01*
X88785714Y-77200057D02*
X88833333Y-77295295D01*
X88833333Y-77295295D02*
X88833333Y-77438152D01*
X88833333Y-77438152D02*
X88785714Y-77533390D01*
X88785714Y-77533390D02*
X88738095Y-77581009D01*
X88738095Y-77581009D02*
X88642857Y-77628628D01*
X88642857Y-77628628D02*
X88261905Y-77628628D01*
X89214286Y-77200057D02*
X89261905Y-77152438D01*
X89261905Y-77152438D02*
X89357143Y-77104819D01*
X89357143Y-77104819D02*
X89595238Y-77104819D01*
X89595238Y-77104819D02*
X89690476Y-77152438D01*
X89690476Y-77152438D02*
X89738095Y-77200057D01*
X89738095Y-77200057D02*
X89785714Y-77295295D01*
X89785714Y-77295295D02*
X89785714Y-77390533D01*
X89785714Y-77390533D02*
X89738095Y-77533390D01*
X89738095Y-77533390D02*
X89166667Y-78104819D01*
X89166667Y-78104819D02*
X89785714Y-78104819D01*
X86950057Y-82405238D02*
X86902438Y-82500476D01*
X86902438Y-82500476D02*
X86807200Y-82595714D01*
X86807200Y-82595714D02*
X86664342Y-82738571D01*
X86664342Y-82738571D02*
X86616723Y-82833809D01*
X86616723Y-82833809D02*
X86616723Y-82929047D01*
X86854819Y-82881428D02*
X86807200Y-82976666D01*
X86807200Y-82976666D02*
X86711961Y-83071904D01*
X86711961Y-83071904D02*
X86521485Y-83119523D01*
X86521485Y-83119523D02*
X86188152Y-83119523D01*
X86188152Y-83119523D02*
X85997676Y-83071904D01*
X85997676Y-83071904D02*
X85902438Y-82976666D01*
X85902438Y-82976666D02*
X85854819Y-82881428D01*
X85854819Y-82881428D02*
X85854819Y-82690952D01*
X85854819Y-82690952D02*
X85902438Y-82595714D01*
X85902438Y-82595714D02*
X85997676Y-82500476D01*
X85997676Y-82500476D02*
X86188152Y-82452857D01*
X86188152Y-82452857D02*
X86521485Y-82452857D01*
X86521485Y-82452857D02*
X86711961Y-82500476D01*
X86711961Y-82500476D02*
X86807200Y-82595714D01*
X86807200Y-82595714D02*
X86854819Y-82690952D01*
X86854819Y-82690952D02*
X86854819Y-82881428D01*
X86854819Y-81500476D02*
X86854819Y-82071904D01*
X86854819Y-81786190D02*
X85854819Y-81786190D01*
X85854819Y-81786190D02*
X85997676Y-81881428D01*
X85997676Y-81881428D02*
X86092914Y-81976666D01*
X86092914Y-81976666D02*
X86140533Y-82071904D01*
X91354819Y-68761904D02*
X92164342Y-68761904D01*
X92164342Y-68761904D02*
X92259580Y-68714285D01*
X92259580Y-68714285D02*
X92307200Y-68666666D01*
X92307200Y-68666666D02*
X92354819Y-68571428D01*
X92354819Y-68571428D02*
X92354819Y-68380952D01*
X92354819Y-68380952D02*
X92307200Y-68285714D01*
X92307200Y-68285714D02*
X92259580Y-68238095D01*
X92259580Y-68238095D02*
X92164342Y-68190476D01*
X92164342Y-68190476D02*
X91354819Y-68190476D01*
X91450057Y-67761904D02*
X91402438Y-67714285D01*
X91402438Y-67714285D02*
X91354819Y-67619047D01*
X91354819Y-67619047D02*
X91354819Y-67380952D01*
X91354819Y-67380952D02*
X91402438Y-67285714D01*
X91402438Y-67285714D02*
X91450057Y-67238095D01*
X91450057Y-67238095D02*
X91545295Y-67190476D01*
X91545295Y-67190476D02*
X91640533Y-67190476D01*
X91640533Y-67190476D02*
X91783390Y-67238095D01*
X91783390Y-67238095D02*
X92354819Y-67809523D01*
X92354819Y-67809523D02*
X92354819Y-67190476D01*
X95666666Y-65584819D02*
X95666666Y-66299104D01*
X95666666Y-66299104D02*
X95619047Y-66441961D01*
X95619047Y-66441961D02*
X95523809Y-66537200D01*
X95523809Y-66537200D02*
X95380952Y-66584819D01*
X95380952Y-66584819D02*
X95285714Y-66584819D01*
X96095238Y-65680057D02*
X96142857Y-65632438D01*
X96142857Y-65632438D02*
X96238095Y-65584819D01*
X96238095Y-65584819D02*
X96476190Y-65584819D01*
X96476190Y-65584819D02*
X96571428Y-65632438D01*
X96571428Y-65632438D02*
X96619047Y-65680057D01*
X96619047Y-65680057D02*
X96666666Y-65775295D01*
X96666666Y-65775295D02*
X96666666Y-65870533D01*
X96666666Y-65870533D02*
X96619047Y-66013390D01*
X96619047Y-66013390D02*
X96047619Y-66584819D01*
X96047619Y-66584819D02*
X96666666Y-66584819D01*
X107057200Y-119483332D02*
X107104819Y-119340475D01*
X107104819Y-119340475D02*
X107104819Y-119102380D01*
X107104819Y-119102380D02*
X107057200Y-119007142D01*
X107057200Y-119007142D02*
X107009580Y-118959523D01*
X107009580Y-118959523D02*
X106914342Y-118911904D01*
X106914342Y-118911904D02*
X106819104Y-118911904D01*
X106819104Y-118911904D02*
X106723866Y-118959523D01*
X106723866Y-118959523D02*
X106676247Y-119007142D01*
X106676247Y-119007142D02*
X106628628Y-119102380D01*
X106628628Y-119102380D02*
X106581009Y-119292856D01*
X106581009Y-119292856D02*
X106533390Y-119388094D01*
X106533390Y-119388094D02*
X106485771Y-119435713D01*
X106485771Y-119435713D02*
X106390533Y-119483332D01*
X106390533Y-119483332D02*
X106295295Y-119483332D01*
X106295295Y-119483332D02*
X106200057Y-119435713D01*
X106200057Y-119435713D02*
X106152438Y-119388094D01*
X106152438Y-119388094D02*
X106104819Y-119292856D01*
X106104819Y-119292856D02*
X106104819Y-119054761D01*
X106104819Y-119054761D02*
X106152438Y-118911904D01*
X106104819Y-118578570D02*
X107104819Y-118340475D01*
X107104819Y-118340475D02*
X106390533Y-118149999D01*
X106390533Y-118149999D02*
X107104819Y-117959523D01*
X107104819Y-117959523D02*
X106104819Y-117721428D01*
X106104819Y-117435713D02*
X106104819Y-116816666D01*
X106104819Y-116816666D02*
X106485771Y-117149999D01*
X106485771Y-117149999D02*
X106485771Y-117007142D01*
X106485771Y-117007142D02*
X106533390Y-116911904D01*
X106533390Y-116911904D02*
X106581009Y-116864285D01*
X106581009Y-116864285D02*
X106676247Y-116816666D01*
X106676247Y-116816666D02*
X106914342Y-116816666D01*
X106914342Y-116816666D02*
X107009580Y-116864285D01*
X107009580Y-116864285D02*
X107057200Y-116911904D01*
X107057200Y-116911904D02*
X107104819Y-117007142D01*
X107104819Y-117007142D02*
X107104819Y-117292856D01*
X107104819Y-117292856D02*
X107057200Y-117388094D01*
X107057200Y-117388094D02*
X107009580Y-117435713D01*
D14*
%TO.C,J1*%
X107370000Y-60830000D02*
X107370000Y-59500000D01*
X108700000Y-60830000D02*
X107370000Y-60830000D01*
X109970000Y-58170000D02*
X117650000Y-58170000D01*
X109970000Y-60830000D02*
X109970000Y-58170000D01*
X109970000Y-60830000D02*
X117650000Y-60830000D01*
X117650000Y-60830000D02*
X117650000Y-58170000D01*
%TO.C,SW1*%
X140100000Y-64800000D02*
X142400000Y-64800000D01*
X140100000Y-66000000D02*
X140100000Y-64800000D01*
X140100000Y-67800000D02*
X140100000Y-68500000D01*
X140100000Y-70300000D02*
X140100000Y-71000000D01*
X140100000Y-74000000D02*
X140100000Y-72800000D01*
X142400000Y-74000000D02*
X140100000Y-74000000D01*
%TO.C,J8*%
X133670000Y-60810000D02*
X133670000Y-55670000D01*
X136330000Y-55670000D02*
X133670000Y-55670000D01*
X136330000Y-60810000D02*
X133670000Y-60810000D01*
X136330000Y-60810000D02*
X136330000Y-55670000D01*
X136330000Y-62080000D02*
X136330000Y-63410000D01*
X136330000Y-63410000D02*
X135000000Y-63410000D01*
%TO.C,SW4*%
X123350000Y-113550000D02*
X124900000Y-111950000D01*
X123350000Y-122750000D02*
X123350000Y-113550000D01*
X124900000Y-124350000D02*
X123350000Y-122750000D01*
X126050000Y-111950000D02*
X124900000Y-111950000D01*
X126050000Y-124350000D02*
X124900000Y-124350000D01*
X127950000Y-111950000D02*
X131050000Y-111950000D01*
X127950000Y-124350000D02*
X131050000Y-124350000D01*
X132950000Y-111950000D02*
X134100000Y-111950000D01*
X132950000Y-124350000D02*
X134100000Y-124350000D01*
X134100000Y-124350000D02*
X135650000Y-122750000D01*
X135650000Y-113550000D02*
X134100000Y-111950000D01*
X135650000Y-122750000D02*
X135650000Y-113550000D01*
%TO.C,C2*%
X94265000Y-82261252D02*
X94265000Y-81738748D01*
X95735000Y-82261252D02*
X95735000Y-81738748D01*
%TO.C,SW2*%
X90350000Y-113550000D02*
X91900000Y-111950000D01*
X90350000Y-122750000D02*
X90350000Y-113550000D01*
X91900000Y-124350000D02*
X90350000Y-122750000D01*
X93050000Y-111950000D02*
X91900000Y-111950000D01*
X93050000Y-124350000D02*
X91900000Y-124350000D01*
X94950000Y-111950000D02*
X98050000Y-111950000D01*
X94950000Y-124350000D02*
X98050000Y-124350000D01*
X99950000Y-111950000D02*
X101100000Y-111950000D01*
X99950000Y-124350000D02*
X101100000Y-124350000D01*
X101100000Y-124350000D02*
X102650000Y-122750000D01*
X102650000Y-113550000D02*
X101100000Y-111950000D01*
X102650000Y-122750000D02*
X102650000Y-113550000D01*
%TO.C,J9*%
X109670000Y-131270000D02*
X109670000Y-128670000D01*
X112330000Y-128670000D02*
X109670000Y-128670000D01*
X112330000Y-131270000D02*
X109670000Y-131270000D01*
X112330000Y-131270000D02*
X112330000Y-128670000D01*
X112330000Y-132540000D02*
X112330000Y-133870000D01*
X112330000Y-133870000D02*
X111000000Y-133870000D01*
%TO.C,R1*%
X92265000Y-71772936D02*
X92265000Y-72227064D01*
X93735000Y-71772936D02*
X93735000Y-72227064D01*
%TO.C,C3*%
X88772936Y-62265000D02*
X89227064Y-62265000D01*
X88772936Y-63735000D02*
X89227064Y-63735000D01*
D13*
%TO.C,D1*%
X87050000Y-71465000D02*
G75*
G02*
X86950000Y-71465000I-50000J0D01*
G01*
X86950000Y-71465000D02*
G75*
G02*
X87050000Y-71465000I50000J0D01*
G01*
D14*
%TO.C,R2*%
X89227064Y-75265000D02*
X88772936Y-75265000D01*
X89227064Y-76735000D02*
X88772936Y-76735000D01*
%TO.C,Q1*%
X87460000Y-81350000D02*
X87460000Y-83200000D01*
X87460000Y-81350000D02*
X88350000Y-81350000D01*
X89690000Y-81365000D02*
X90580000Y-81365000D01*
X90580000Y-81365000D02*
X90580000Y-83215000D01*
X87450000Y-83590000D02*
X87120000Y-83830000D01*
X87120000Y-83350000D01*
X87450000Y-83590000D01*
G36*
X87450000Y-83590000D02*
G01*
X87120000Y-83830000D01*
X87120000Y-83350000D01*
X87450000Y-83590000D01*
G37*
%TO.C,U2*%
X87390000Y-67100000D02*
X87390000Y-68900000D01*
X90610000Y-68100000D02*
X90610000Y-67300000D01*
X90610000Y-68100000D02*
X90610000Y-68900000D01*
X90890000Y-67040000D02*
X90560000Y-66800000D01*
X90890000Y-66560000D01*
X90890000Y-67040000D01*
G36*
X90890000Y-67040000D02*
G01*
X90560000Y-66800000D01*
X90890000Y-66560000D01*
X90890000Y-67040000D01*
G37*
%TO.C,J2*%
X94670000Y-62530000D02*
X94670000Y-54850000D01*
X97330000Y-54850000D02*
X94670000Y-54850000D01*
X97330000Y-62530000D02*
X94670000Y-62530000D01*
X97330000Y-62530000D02*
X97330000Y-54850000D01*
X97330000Y-63800000D02*
X97330000Y-65130000D01*
X97330000Y-65130000D02*
X96000000Y-65130000D01*
%TO.C,SW3*%
X107800000Y-113550000D02*
X109350000Y-111950000D01*
X107800000Y-122750000D02*
X107800000Y-113550000D01*
X109350000Y-124350000D02*
X107800000Y-122750000D01*
X110500000Y-111950000D02*
X109350000Y-111950000D01*
X110500000Y-124350000D02*
X109350000Y-124350000D01*
X112400000Y-111950000D02*
X115500000Y-111950000D01*
X112400000Y-124350000D02*
X115500000Y-124350000D01*
X117400000Y-111950000D02*
X118550000Y-111950000D01*
X117400000Y-124350000D02*
X118550000Y-124350000D01*
X118550000Y-124350000D02*
X120100000Y-122750000D01*
X120100000Y-113550000D02*
X118550000Y-111950000D01*
X120100000Y-122750000D02*
X120100000Y-113550000D01*
%TD*%
M02*
