%TF.GenerationSoftware,KiCad,Pcbnew,8.0.5*%
%TF.CreationDate,2024-10-31T02:19:14+01:00*%
%TF.ProjectId,trinket,7472696e-6b65-4742-9e6b-696361645f70,rev?*%
%TF.SameCoordinates,Original*%
%TF.FileFunction,Soldermask,Top*%
%TF.FilePolarity,Negative*%
%FSLAX46Y46*%
G04 Gerber Fmt 4.6, Leading zero omitted, Abs format (unit mm)*
G04 Created by KiCad (PCBNEW 8.0.5) date 2024-10-31 02:19:14*
%MOMM*%
%LPD*%
G01*
G04 APERTURE LIST*
G04 Aperture macros list*
%AMRoundRect*
0 Rectangle with rounded corners*
0 $1 Rounding radius*
0 $2 $3 $4 $5 $6 $7 $8 $9 X,Y pos of 4 corners*
0 Add a 4 corners polygon primitive as box body*
4,1,4,$2,$3,$4,$5,$6,$7,$8,$9,$2,$3,0*
0 Add four circle primitives for the rounded corners*
1,1,$1+$1,$2,$3*
1,1,$1+$1,$4,$5*
1,1,$1+$1,$6,$7*
1,1,$1+$1,$8,$9*
0 Add four rect primitives between the rounded corners*
20,1,$1+$1,$2,$3,$4,$5,0*
20,1,$1+$1,$4,$5,$6,$7,0*
20,1,$1+$1,$6,$7,$8,$9,0*
20,1,$1+$1,$8,$9,$2,$3,0*%
G04 Aperture macros list end*
%ADD10R,1.700000X1.700000*%
%ADD11O,1.700000X1.700000*%
%ADD12C,0.900000*%
%ADD13RoundRect,0.250000X1.000000X-0.375000X1.000000X0.375000X-1.000000X0.375000X-1.000000X-0.375000X0*%
%ADD14C,2.000000*%
%ADD15R,1.500000X2.000000*%
%ADD16RoundRect,0.250000X0.475000X-0.337500X0.475000X0.337500X-0.475000X0.337500X-0.475000X-0.337500X0*%
%ADD17RoundRect,0.250000X-0.450000X0.350000X-0.450000X-0.350000X0.450000X-0.350000X0.450000X0.350000X0*%
%ADD18C,4.400000*%
%ADD19RoundRect,0.250000X-0.350000X-0.450000X0.350000X-0.450000X0.350000X0.450000X-0.350000X0.450000X0*%
%ADD20RoundRect,0.100000X-0.100000X0.217500X-0.100000X-0.217500X0.100000X-0.217500X0.100000X0.217500X0*%
%ADD21RoundRect,0.250000X0.350000X0.450000X-0.350000X0.450000X-0.350000X-0.450000X0.350000X-0.450000X0*%
%ADD22RoundRect,0.162500X0.162500X-0.447500X0.162500X0.447500X-0.162500X0.447500X-0.162500X-0.447500X0*%
%ADD23RoundRect,0.162500X-0.162500X0.617500X-0.162500X-0.617500X0.162500X-0.617500X0.162500X0.617500X0*%
G04 APERTURE END LIST*
D10*
%TO.C,J1*%
X108700000Y-59500000D03*
D11*
X111240000Y-59500000D03*
X113780000Y-59500000D03*
X116320000Y-59500000D03*
%TD*%
D12*
%TO.C,SW1*%
X142000000Y-72800000D03*
X142000000Y-66000000D03*
D13*
X139250000Y-71900000D03*
X139250000Y-69400000D03*
X139250000Y-66900000D03*
%TD*%
D10*
%TO.C,J8*%
X135000000Y-62080000D03*
D11*
X135000000Y-59540000D03*
X135000000Y-57000000D03*
%TD*%
D14*
%TO.C,SW4*%
X125000000Y-118150000D03*
X134000000Y-118150000D03*
D15*
X127000000Y-125300000D03*
X127000000Y-111000000D03*
X132000000Y-125300000D03*
X132000000Y-111000000D03*
%TD*%
D16*
%TO.C,C2*%
X95000000Y-83037500D03*
X95000000Y-80962500D03*
%TD*%
D14*
%TO.C,SW2*%
X92000000Y-118150000D03*
X101000000Y-118150000D03*
D15*
X94000000Y-125300000D03*
X94000000Y-111000000D03*
X99000000Y-125300000D03*
X99000000Y-111000000D03*
%TD*%
D10*
%TO.C,J9*%
X111000000Y-132540000D03*
D11*
X111000000Y-130000000D03*
%TD*%
D17*
%TO.C,R1*%
X93000000Y-71000000D03*
X93000000Y-73000000D03*
%TD*%
D18*
%TO.C,J3*%
X85000000Y-55000000D03*
%TD*%
D19*
%TO.C,C3*%
X88000000Y-63000000D03*
X90000000Y-63000000D03*
%TD*%
D18*
%TO.C,J4*%
X140000000Y-55000000D03*
%TD*%
%TO.C,J6*%
X140000000Y-135000000D03*
%TD*%
D20*
%TO.C,D1*%
X87000000Y-72092500D03*
X87000000Y-72907500D03*
%TD*%
D18*
%TO.C,J5*%
X85000000Y-135000000D03*
%TD*%
D21*
%TO.C,R2*%
X90000000Y-76000000D03*
X88000000Y-76000000D03*
%TD*%
D22*
%TO.C,Q1*%
X88050000Y-83620000D03*
X89950000Y-83620000D03*
X89000000Y-81000000D03*
%TD*%
D23*
%TO.C,U2*%
X89950000Y-66650000D03*
X89000000Y-66650000D03*
X88050000Y-66650000D03*
X88050000Y-69350000D03*
X89950000Y-69350000D03*
%TD*%
D10*
%TO.C,J2*%
X96000000Y-63800000D03*
D11*
X96000000Y-61260000D03*
X96000000Y-58720000D03*
X96000000Y-56180000D03*
%TD*%
D14*
%TO.C,SW3*%
X109450000Y-118150000D03*
X118450000Y-118150000D03*
D15*
X111450000Y-125300000D03*
X111450000Y-111000000D03*
X116450000Y-125300000D03*
X116450000Y-111000000D03*
%TD*%
D11*
%TO.C,U1*%
X121780000Y-51900000D03*
X121780000Y-54440000D03*
D10*
X121780000Y-56980000D03*
D11*
X121780000Y-59520000D03*
X121780000Y-62060000D03*
X121780000Y-64600000D03*
X121780000Y-67140000D03*
D10*
X121780000Y-69680000D03*
D11*
X121780000Y-72220000D03*
X121780000Y-74760000D03*
X121780000Y-77300000D03*
X121780000Y-79840000D03*
D10*
X121780000Y-82380000D03*
D11*
X121780000Y-84920000D03*
X121780000Y-87460000D03*
X121780000Y-90000000D03*
X121780000Y-92540000D03*
D10*
X121780000Y-95080000D03*
D11*
X121780000Y-97620000D03*
X121780000Y-100160000D03*
X104000000Y-100160000D03*
X104000000Y-97620000D03*
D10*
X104000000Y-95080000D03*
D11*
X104000000Y-92540000D03*
X104000000Y-90000000D03*
X104000000Y-87460000D03*
X104000000Y-84920000D03*
D10*
X104000000Y-82380000D03*
D11*
X104000000Y-79840000D03*
X104000000Y-77300000D03*
X104000000Y-74760000D03*
X104000000Y-72220000D03*
D10*
X104000000Y-69680000D03*
D11*
X104000000Y-67140000D03*
X104000000Y-64600000D03*
X104000000Y-62060000D03*
X104000000Y-59520000D03*
D10*
X104000000Y-56980000D03*
D11*
X104000000Y-54440000D03*
X104000000Y-51900000D03*
%TD*%
M02*
