M48
; DRILL file {KiCad 8.0.5} date 2024-10-31T02:19:12+0100
; FORMAT={-:-/ absolute / inch / decimal}
; #@! TF.CreationDate,2024-10-31T02:19:12+01:00
; #@! TF.GenerationSoftware,Kicad,Pcbnew,8.0.5
; #@! TF.FileFunction,Plated,1,2,PTH
FMAT,2
INCH
; #@! TA.AperFunction,Plated,PTH,ViaDrill
T1C0.0118
; #@! TA.AperFunction,Plated,PTH,ComponentDrill
T2C0.0394
; #@! TA.AperFunction,Plated,PTH,ComponentDrill
T3C0.0402
; #@! TA.AperFunction,Plated,PTH,ComponentDrill
T4C0.0866
%
G90
G05
T1
X3.4449Y-3.1299
X5.5512Y-2.6378
T2
X3.7795Y-2.2118
X3.7795Y-2.3118
X3.7795Y-2.4118
X3.7795Y-2.5118
X4.2795Y-2.3425
X4.3701Y-5.1181
X4.3701Y-5.2181
X4.3795Y-2.3425
X4.4795Y-2.3425
X4.5795Y-2.3425
X5.315Y-2.2441
X5.315Y-2.3441
X5.315Y-2.4441
T3
X4.0945Y-2.0433
X4.0945Y-2.1433
X4.0945Y-2.2433
X4.0945Y-2.3433
X4.0945Y-2.4433
X4.0945Y-2.5433
X4.0945Y-2.6433
X4.0945Y-2.7433
X4.0945Y-2.8433
X4.0945Y-2.9433
X4.0945Y-3.0433
X4.0945Y-3.1433
X4.0945Y-3.2433
X4.0945Y-3.3433
X4.0945Y-3.4433
X4.0945Y-3.5433
X4.0945Y-3.6433
X4.0945Y-3.7433
X4.0945Y-3.8433
X4.0945Y-3.9433
X4.7945Y-2.0433
X4.7945Y-2.1433
X4.7945Y-2.2433
X4.7945Y-2.3433
X4.7945Y-2.4433
X4.7945Y-2.5433
X4.7945Y-2.6433
X4.7945Y-2.7433
X4.7945Y-2.8433
X4.7945Y-2.9433
X4.7945Y-3.0433
X4.7945Y-3.1433
X4.7945Y-3.2433
X4.7945Y-3.3433
X4.7945Y-3.4433
X4.7945Y-3.5433
X4.7945Y-3.6433
X4.7945Y-3.7433
X4.7945Y-3.8433
X4.7945Y-3.9433
T4
X3.3465Y-2.1654
X3.3465Y-5.315
X5.5118Y-2.1654
X5.5118Y-5.315
M30
