%TF.GenerationSoftware,KiCad,Pcbnew,8.0.5*%
%TF.CreationDate,2024-10-31T02:19:14+01:00*%
%TF.ProjectId,trinket,7472696e-6b65-4742-9e6b-696361645f70,rev?*%
%TF.SameCoordinates,Original*%
%TF.FileFunction,Legend,Bot*%
%TF.FilePolarity,Positive*%
%FSLAX46Y46*%
G04 Gerber Fmt 4.6, Leading zero omitted, Abs format (unit mm)*
G04 Created by KiCad (PCBNEW 8.0.5) date 2024-10-31 02:19:14*
%MOMM*%
%LPD*%
G01*
G04 APERTURE LIST*
%ADD10C,0.150000*%
%ADD11C,0.100000*%
%ADD12C,0.120000*%
G04 APERTURE END LIST*
D10*
X119554819Y-131166666D02*
X120269104Y-131166666D01*
X120269104Y-131166666D02*
X120411961Y-131119047D01*
X120411961Y-131119047D02*
X120507200Y-131023809D01*
X120507200Y-131023809D02*
X120554819Y-130880952D01*
X120554819Y-130880952D02*
X120554819Y-130785714D01*
X119554819Y-131547619D02*
X119554819Y-132214285D01*
X119554819Y-132214285D02*
X120554819Y-131785714D01*
D11*
X117901390Y-136073552D02*
X117853771Y-135930695D01*
X117853771Y-135930695D02*
X117806152Y-135883076D01*
X117806152Y-135883076D02*
X117710914Y-135835457D01*
X117710914Y-135835457D02*
X117568057Y-135835457D01*
X117568057Y-135835457D02*
X117472819Y-135883076D01*
X117472819Y-135883076D02*
X117425200Y-135930695D01*
X117425200Y-135930695D02*
X117377580Y-136025933D01*
X117377580Y-136025933D02*
X117377580Y-136406885D01*
X117377580Y-136406885D02*
X118377580Y-136406885D01*
X118377580Y-136406885D02*
X118377580Y-136073552D01*
X118377580Y-136073552D02*
X118329961Y-135978314D01*
X118329961Y-135978314D02*
X118282342Y-135930695D01*
X118282342Y-135930695D02*
X118187104Y-135883076D01*
X118187104Y-135883076D02*
X118091866Y-135883076D01*
X118091866Y-135883076D02*
X117996628Y-135930695D01*
X117996628Y-135930695D02*
X117949009Y-135978314D01*
X117949009Y-135978314D02*
X117901390Y-136073552D01*
X117901390Y-136073552D02*
X117901390Y-136406885D01*
X117758533Y-135406885D02*
X117758533Y-134644981D01*
X115247715Y-127953410D02*
X115200096Y-127810553D01*
X115200096Y-127810553D02*
X115152477Y-127762934D01*
X115152477Y-127762934D02*
X115057239Y-127715315D01*
X115057239Y-127715315D02*
X114914382Y-127715315D01*
X114914382Y-127715315D02*
X114819144Y-127762934D01*
X114819144Y-127762934D02*
X114771525Y-127810553D01*
X114771525Y-127810553D02*
X114723905Y-127905791D01*
X114723905Y-127905791D02*
X114723905Y-128286743D01*
X114723905Y-128286743D02*
X115723905Y-128286743D01*
X115723905Y-128286743D02*
X115723905Y-127953410D01*
X115723905Y-127953410D02*
X115676286Y-127858172D01*
X115676286Y-127858172D02*
X115628667Y-127810553D01*
X115628667Y-127810553D02*
X115533429Y-127762934D01*
X115533429Y-127762934D02*
X115438191Y-127762934D01*
X115438191Y-127762934D02*
X115342953Y-127810553D01*
X115342953Y-127810553D02*
X115295334Y-127858172D01*
X115295334Y-127858172D02*
X115247715Y-127953410D01*
X115247715Y-127953410D02*
X115247715Y-128286743D01*
X115104858Y-127286743D02*
X115104858Y-126524839D01*
X114723905Y-126905791D02*
X115485810Y-126905791D01*
D10*
X113651904Y-75484819D02*
X113651904Y-76294342D01*
X113651904Y-76294342D02*
X113604285Y-76389580D01*
X113604285Y-76389580D02*
X113556666Y-76437200D01*
X113556666Y-76437200D02*
X113461428Y-76484819D01*
X113461428Y-76484819D02*
X113270952Y-76484819D01*
X113270952Y-76484819D02*
X113175714Y-76437200D01*
X113175714Y-76437200D02*
X113128095Y-76389580D01*
X113128095Y-76389580D02*
X113080476Y-76294342D01*
X113080476Y-76294342D02*
X113080476Y-75484819D01*
X112080476Y-76484819D02*
X112651904Y-76484819D01*
X112366190Y-76484819D02*
X112366190Y-75484819D01*
X112366190Y-75484819D02*
X112461428Y-75627676D01*
X112461428Y-75627676D02*
X112556666Y-75722914D01*
X112556666Y-75722914D02*
X112651904Y-75770533D01*
X126476627Y-54551494D02*
X126557439Y-54578431D01*
X126557439Y-54578431D02*
X126638251Y-54659243D01*
X126638251Y-54659243D02*
X126692126Y-54766993D01*
X126692126Y-54766993D02*
X126692126Y-54874742D01*
X126692126Y-54874742D02*
X126665189Y-54955555D01*
X126665189Y-54955555D02*
X126584376Y-55090242D01*
X126584376Y-55090242D02*
X126503564Y-55171054D01*
X126503564Y-55171054D02*
X126368877Y-55251866D01*
X126368877Y-55251866D02*
X126288065Y-55278803D01*
X126288065Y-55278803D02*
X126180315Y-55278803D01*
X126180315Y-55278803D02*
X126072566Y-55224929D01*
X126072566Y-55224929D02*
X126018691Y-55171054D01*
X126018691Y-55171054D02*
X125964816Y-55063304D01*
X125964816Y-55063304D02*
X125964816Y-55009429D01*
X125964816Y-55009429D02*
X126153378Y-54820868D01*
X126153378Y-54820868D02*
X126261128Y-54928617D01*
X125668505Y-54820868D02*
X126234190Y-54255182D01*
X126234190Y-54255182D02*
X126018691Y-54039683D01*
X126018691Y-54039683D02*
X125937879Y-54012746D01*
X125937879Y-54012746D02*
X125884004Y-54012746D01*
X125884004Y-54012746D02*
X125803192Y-54039683D01*
X125803192Y-54039683D02*
X125722380Y-54120495D01*
X125722380Y-54120495D02*
X125695442Y-54201307D01*
X125695442Y-54201307D02*
X125695442Y-54255182D01*
X125695442Y-54255182D02*
X125722380Y-54335994D01*
X125722380Y-54335994D02*
X125937879Y-54551494D01*
X124806508Y-53958871D02*
X125129757Y-54282120D01*
X124968132Y-54120495D02*
X125533818Y-53554810D01*
X125533818Y-53554810D02*
X125506880Y-53689497D01*
X125506880Y-53689497D02*
X125506880Y-53797246D01*
X125506880Y-53797246D02*
X125533818Y-53878059D01*
X126403564Y-69828431D02*
X126484376Y-69855368D01*
X126484376Y-69855368D02*
X126565188Y-69936180D01*
X126565188Y-69936180D02*
X126619063Y-70043930D01*
X126619063Y-70043930D02*
X126619063Y-70151680D01*
X126619063Y-70151680D02*
X126592126Y-70232492D01*
X126592126Y-70232492D02*
X126511314Y-70367179D01*
X126511314Y-70367179D02*
X126430501Y-70447991D01*
X126430501Y-70447991D02*
X126295814Y-70528803D01*
X126295814Y-70528803D02*
X126215002Y-70555741D01*
X126215002Y-70555741D02*
X126107253Y-70555741D01*
X126107253Y-70555741D02*
X125999503Y-70501866D01*
X125999503Y-70501866D02*
X125945628Y-70447991D01*
X125945628Y-70447991D02*
X125891753Y-70340241D01*
X125891753Y-70340241D02*
X125891753Y-70286367D01*
X125891753Y-70286367D02*
X126080315Y-70097805D01*
X126080315Y-70097805D02*
X126188065Y-70205554D01*
X125595442Y-70097805D02*
X126161127Y-69532119D01*
X126161127Y-69532119D02*
X125272193Y-69774556D01*
X125272193Y-69774556D02*
X125837879Y-69208871D01*
X125002819Y-69505182D02*
X125568505Y-68939497D01*
X125568505Y-68939497D02*
X125433818Y-68804810D01*
X125433818Y-68804810D02*
X125326068Y-68750935D01*
X125326068Y-68750935D02*
X125218319Y-68750935D01*
X125218319Y-68750935D02*
X125137506Y-68777872D01*
X125137506Y-68777872D02*
X125002819Y-68858685D01*
X125002819Y-68858685D02*
X124922007Y-68939497D01*
X124922007Y-68939497D02*
X124841195Y-69074184D01*
X124841195Y-69074184D02*
X124814258Y-69154996D01*
X124814258Y-69154996D02*
X124814258Y-69262746D01*
X124814258Y-69262746D02*
X124868132Y-69370495D01*
X124868132Y-69370495D02*
X125002819Y-69505182D01*
X126946001Y-98010868D02*
X127026814Y-98037805D01*
X127026814Y-98037805D02*
X127107626Y-98118618D01*
X127107626Y-98118618D02*
X127161501Y-98226367D01*
X127161501Y-98226367D02*
X127161501Y-98334117D01*
X127161501Y-98334117D02*
X127134563Y-98414929D01*
X127134563Y-98414929D02*
X127053751Y-98549616D01*
X127053751Y-98549616D02*
X126972939Y-98630428D01*
X126972939Y-98630428D02*
X126838252Y-98711241D01*
X126838252Y-98711241D02*
X126757439Y-98738178D01*
X126757439Y-98738178D02*
X126649690Y-98738178D01*
X126649690Y-98738178D02*
X126541940Y-98684303D01*
X126541940Y-98684303D02*
X126488065Y-98630428D01*
X126488065Y-98630428D02*
X126434191Y-98522679D01*
X126434191Y-98522679D02*
X126434191Y-98468804D01*
X126434191Y-98468804D02*
X126622752Y-98280242D01*
X126622752Y-98280242D02*
X126730502Y-98387992D01*
X126137879Y-98280242D02*
X126703565Y-97714557D01*
X126703565Y-97714557D02*
X126488065Y-97499057D01*
X126488065Y-97499057D02*
X126407253Y-97472120D01*
X126407253Y-97472120D02*
X126353378Y-97472120D01*
X126353378Y-97472120D02*
X126272566Y-97499057D01*
X126272566Y-97499057D02*
X126191754Y-97579870D01*
X126191754Y-97579870D02*
X126164817Y-97660682D01*
X126164817Y-97660682D02*
X126164817Y-97714557D01*
X126164817Y-97714557D02*
X126191754Y-97795369D01*
X126191754Y-97795369D02*
X126407253Y-98010868D01*
X125275882Y-97418245D02*
X125599131Y-97741494D01*
X125437507Y-97579870D02*
X126003192Y-97014184D01*
X126003192Y-97014184D02*
X125976255Y-97148871D01*
X125976255Y-97148871D02*
X125976255Y-97256621D01*
X125976255Y-97256621D02*
X126003192Y-97337433D01*
X125168133Y-96556248D02*
X124791009Y-96933372D01*
X125518319Y-96475436D02*
X125248945Y-97014184D01*
X125248945Y-97014184D02*
X124898759Y-96663998D01*
X126403564Y-95228431D02*
X126484376Y-95255368D01*
X126484376Y-95255368D02*
X126565188Y-95336180D01*
X126565188Y-95336180D02*
X126619063Y-95443930D01*
X126619063Y-95443930D02*
X126619063Y-95551680D01*
X126619063Y-95551680D02*
X126592126Y-95632492D01*
X126592126Y-95632492D02*
X126511314Y-95767179D01*
X126511314Y-95767179D02*
X126430501Y-95847991D01*
X126430501Y-95847991D02*
X126295814Y-95928803D01*
X126295814Y-95928803D02*
X126215002Y-95955741D01*
X126215002Y-95955741D02*
X126107253Y-95955741D01*
X126107253Y-95955741D02*
X125999503Y-95901866D01*
X125999503Y-95901866D02*
X125945628Y-95847991D01*
X125945628Y-95847991D02*
X125891753Y-95740241D01*
X125891753Y-95740241D02*
X125891753Y-95686367D01*
X125891753Y-95686367D02*
X126080315Y-95497805D01*
X126080315Y-95497805D02*
X126188065Y-95605554D01*
X125595442Y-95497805D02*
X126161127Y-94932119D01*
X126161127Y-94932119D02*
X125272193Y-95174556D01*
X125272193Y-95174556D02*
X125837879Y-94608871D01*
X125002819Y-94905182D02*
X125568505Y-94339497D01*
X125568505Y-94339497D02*
X125433818Y-94204810D01*
X125433818Y-94204810D02*
X125326068Y-94150935D01*
X125326068Y-94150935D02*
X125218319Y-94150935D01*
X125218319Y-94150935D02*
X125137506Y-94177872D01*
X125137506Y-94177872D02*
X125002819Y-94258685D01*
X125002819Y-94258685D02*
X124922007Y-94339497D01*
X124922007Y-94339497D02*
X124841195Y-94474184D01*
X124841195Y-94474184D02*
X124814258Y-94554996D01*
X124814258Y-94554996D02*
X124814258Y-94662746D01*
X124814258Y-94662746D02*
X124868132Y-94770495D01*
X124868132Y-94770495D02*
X125002819Y-94905182D01*
X100803564Y-82528431D02*
X100884376Y-82555368D01*
X100884376Y-82555368D02*
X100965188Y-82636180D01*
X100965188Y-82636180D02*
X101019063Y-82743930D01*
X101019063Y-82743930D02*
X101019063Y-82851680D01*
X101019063Y-82851680D02*
X100992126Y-82932492D01*
X100992126Y-82932492D02*
X100911314Y-83067179D01*
X100911314Y-83067179D02*
X100830501Y-83147991D01*
X100830501Y-83147991D02*
X100695814Y-83228803D01*
X100695814Y-83228803D02*
X100615002Y-83255741D01*
X100615002Y-83255741D02*
X100507253Y-83255741D01*
X100507253Y-83255741D02*
X100399503Y-83201866D01*
X100399503Y-83201866D02*
X100345628Y-83147991D01*
X100345628Y-83147991D02*
X100291753Y-83040241D01*
X100291753Y-83040241D02*
X100291753Y-82986367D01*
X100291753Y-82986367D02*
X100480315Y-82797805D01*
X100480315Y-82797805D02*
X100588065Y-82905554D01*
X99995442Y-82797805D02*
X100561127Y-82232119D01*
X100561127Y-82232119D02*
X99672193Y-82474556D01*
X99672193Y-82474556D02*
X100237879Y-81908871D01*
X99402819Y-82205182D02*
X99968505Y-81639497D01*
X99968505Y-81639497D02*
X99833818Y-81504810D01*
X99833818Y-81504810D02*
X99726068Y-81450935D01*
X99726068Y-81450935D02*
X99618319Y-81450935D01*
X99618319Y-81450935D02*
X99537506Y-81477872D01*
X99537506Y-81477872D02*
X99402819Y-81558685D01*
X99402819Y-81558685D02*
X99322007Y-81639497D01*
X99322007Y-81639497D02*
X99241195Y-81774184D01*
X99241195Y-81774184D02*
X99214258Y-81854996D01*
X99214258Y-81854996D02*
X99214258Y-81962746D01*
X99214258Y-81962746D02*
X99268132Y-82070495D01*
X99268132Y-82070495D02*
X99402819Y-82205182D01*
X126376627Y-72341494D02*
X126457439Y-72368431D01*
X126457439Y-72368431D02*
X126538251Y-72449243D01*
X126538251Y-72449243D02*
X126592126Y-72556993D01*
X126592126Y-72556993D02*
X126592126Y-72664742D01*
X126592126Y-72664742D02*
X126565189Y-72745555D01*
X126565189Y-72745555D02*
X126484376Y-72880242D01*
X126484376Y-72880242D02*
X126403564Y-72961054D01*
X126403564Y-72961054D02*
X126268877Y-73041866D01*
X126268877Y-73041866D02*
X126188065Y-73068803D01*
X126188065Y-73068803D02*
X126080315Y-73068803D01*
X126080315Y-73068803D02*
X125972566Y-73014929D01*
X125972566Y-73014929D02*
X125918691Y-72961054D01*
X125918691Y-72961054D02*
X125864816Y-72853304D01*
X125864816Y-72853304D02*
X125864816Y-72799429D01*
X125864816Y-72799429D02*
X126053378Y-72610868D01*
X126053378Y-72610868D02*
X126161128Y-72718617D01*
X125568505Y-72610868D02*
X126134190Y-72045182D01*
X126134190Y-72045182D02*
X125918691Y-71829683D01*
X125918691Y-71829683D02*
X125837879Y-71802746D01*
X125837879Y-71802746D02*
X125784004Y-71802746D01*
X125784004Y-71802746D02*
X125703192Y-71829683D01*
X125703192Y-71829683D02*
X125622380Y-71910495D01*
X125622380Y-71910495D02*
X125595442Y-71991307D01*
X125595442Y-71991307D02*
X125595442Y-72045182D01*
X125595442Y-72045182D02*
X125622380Y-72125994D01*
X125622380Y-72125994D02*
X125837879Y-72341494D01*
X125326068Y-71237060D02*
X125433818Y-71344810D01*
X125433818Y-71344810D02*
X125460755Y-71425622D01*
X125460755Y-71425622D02*
X125460755Y-71479497D01*
X125460755Y-71479497D02*
X125433818Y-71614184D01*
X125433818Y-71614184D02*
X125353006Y-71748871D01*
X125353006Y-71748871D02*
X125137506Y-71964370D01*
X125137506Y-71964370D02*
X125056694Y-71991307D01*
X125056694Y-71991307D02*
X125002819Y-71991307D01*
X125002819Y-71991307D02*
X124922007Y-71964370D01*
X124922007Y-71964370D02*
X124814258Y-71856620D01*
X124814258Y-71856620D02*
X124787320Y-71775808D01*
X124787320Y-71775808D02*
X124787320Y-71721933D01*
X124787320Y-71721933D02*
X124814258Y-71641121D01*
X124814258Y-71641121D02*
X124948945Y-71506434D01*
X124948945Y-71506434D02*
X125029757Y-71479497D01*
X125029757Y-71479497D02*
X125083632Y-71479497D01*
X125083632Y-71479497D02*
X125164444Y-71506434D01*
X125164444Y-71506434D02*
X125272193Y-71614184D01*
X125272193Y-71614184D02*
X125299131Y-71694996D01*
X125299131Y-71694996D02*
X125299131Y-71748871D01*
X125299131Y-71748871D02*
X125272193Y-71829683D01*
X100792001Y-80230868D02*
X100872814Y-80257805D01*
X100872814Y-80257805D02*
X100953626Y-80338618D01*
X100953626Y-80338618D02*
X101007501Y-80446367D01*
X101007501Y-80446367D02*
X101007501Y-80554117D01*
X101007501Y-80554117D02*
X100980563Y-80634929D01*
X100980563Y-80634929D02*
X100899751Y-80769616D01*
X100899751Y-80769616D02*
X100818939Y-80850428D01*
X100818939Y-80850428D02*
X100684252Y-80931241D01*
X100684252Y-80931241D02*
X100603439Y-80958178D01*
X100603439Y-80958178D02*
X100495690Y-80958178D01*
X100495690Y-80958178D02*
X100387940Y-80904303D01*
X100387940Y-80904303D02*
X100334065Y-80850428D01*
X100334065Y-80850428D02*
X100280191Y-80742679D01*
X100280191Y-80742679D02*
X100280191Y-80688804D01*
X100280191Y-80688804D02*
X100468752Y-80500242D01*
X100468752Y-80500242D02*
X100576502Y-80607992D01*
X99983879Y-80500242D02*
X100549565Y-79934557D01*
X100549565Y-79934557D02*
X100334065Y-79719057D01*
X100334065Y-79719057D02*
X100253253Y-79692120D01*
X100253253Y-79692120D02*
X100199378Y-79692120D01*
X100199378Y-79692120D02*
X100118566Y-79719057D01*
X100118566Y-79719057D02*
X100037754Y-79799870D01*
X100037754Y-79799870D02*
X100010817Y-79880682D01*
X100010817Y-79880682D02*
X100010817Y-79934557D01*
X100010817Y-79934557D02*
X100037754Y-80015369D01*
X100037754Y-80015369D02*
X100253253Y-80230868D01*
X99956942Y-79449683D02*
X99956942Y-79395809D01*
X99956942Y-79395809D02*
X99930004Y-79314996D01*
X99930004Y-79314996D02*
X99795317Y-79180309D01*
X99795317Y-79180309D02*
X99714505Y-79153372D01*
X99714505Y-79153372D02*
X99660630Y-79153372D01*
X99660630Y-79153372D02*
X99579818Y-79180309D01*
X99579818Y-79180309D02*
X99525943Y-79234184D01*
X99525943Y-79234184D02*
X99472069Y-79341934D01*
X99472069Y-79341934D02*
X99472069Y-79988431D01*
X99472069Y-79988431D02*
X99121882Y-79638245D01*
X99418194Y-78910935D02*
X99418194Y-78857060D01*
X99418194Y-78857060D02*
X99391256Y-78776248D01*
X99391256Y-78776248D02*
X99256569Y-78641561D01*
X99256569Y-78641561D02*
X99175757Y-78614624D01*
X99175757Y-78614624D02*
X99121882Y-78614624D01*
X99121882Y-78614624D02*
X99041070Y-78641561D01*
X99041070Y-78641561D02*
X98987195Y-78695436D01*
X98987195Y-78695436D02*
X98933320Y-78803186D01*
X98933320Y-78803186D02*
X98933320Y-79449683D01*
X98933320Y-79449683D02*
X98583134Y-79099497D01*
X126900001Y-100550868D02*
X126980814Y-100577805D01*
X126980814Y-100577805D02*
X127061626Y-100658618D01*
X127061626Y-100658618D02*
X127115501Y-100766367D01*
X127115501Y-100766367D02*
X127115501Y-100874117D01*
X127115501Y-100874117D02*
X127088563Y-100954929D01*
X127088563Y-100954929D02*
X127007751Y-101089616D01*
X127007751Y-101089616D02*
X126926939Y-101170428D01*
X126926939Y-101170428D02*
X126792252Y-101251241D01*
X126792252Y-101251241D02*
X126711439Y-101278178D01*
X126711439Y-101278178D02*
X126603690Y-101278178D01*
X126603690Y-101278178D02*
X126495940Y-101224303D01*
X126495940Y-101224303D02*
X126442065Y-101170428D01*
X126442065Y-101170428D02*
X126388191Y-101062679D01*
X126388191Y-101062679D02*
X126388191Y-101008804D01*
X126388191Y-101008804D02*
X126576752Y-100820242D01*
X126576752Y-100820242D02*
X126684502Y-100927992D01*
X126091879Y-100820242D02*
X126657565Y-100254557D01*
X126657565Y-100254557D02*
X126442065Y-100039057D01*
X126442065Y-100039057D02*
X126361253Y-100012120D01*
X126361253Y-100012120D02*
X126307378Y-100012120D01*
X126307378Y-100012120D02*
X126226566Y-100039057D01*
X126226566Y-100039057D02*
X126145754Y-100119870D01*
X126145754Y-100119870D02*
X126118817Y-100200682D01*
X126118817Y-100200682D02*
X126118817Y-100254557D01*
X126118817Y-100254557D02*
X126145754Y-100335369D01*
X126145754Y-100335369D02*
X126361253Y-100550868D01*
X125229882Y-99958245D02*
X125553131Y-100281494D01*
X125391507Y-100119870D02*
X125957192Y-99554184D01*
X125957192Y-99554184D02*
X125930255Y-99688871D01*
X125930255Y-99688871D02*
X125930255Y-99796621D01*
X125930255Y-99796621D02*
X125957192Y-99877433D01*
X125283757Y-98880749D02*
X125553131Y-99150123D01*
X125553131Y-99150123D02*
X125310694Y-99446434D01*
X125310694Y-99446434D02*
X125310694Y-99392560D01*
X125310694Y-99392560D02*
X125283757Y-99311747D01*
X125283757Y-99311747D02*
X125149070Y-99177060D01*
X125149070Y-99177060D02*
X125068258Y-99150123D01*
X125068258Y-99150123D02*
X125014383Y-99150123D01*
X125014383Y-99150123D02*
X124933571Y-99177060D01*
X124933571Y-99177060D02*
X124798884Y-99311747D01*
X124798884Y-99311747D02*
X124771946Y-99392560D01*
X124771946Y-99392560D02*
X124771946Y-99446434D01*
X124771946Y-99446434D02*
X124798884Y-99527247D01*
X124798884Y-99527247D02*
X124933571Y-99661934D01*
X124933571Y-99661934D02*
X125014383Y-99688871D01*
X125014383Y-99688871D02*
X125068258Y-99688871D01*
X100792001Y-72620868D02*
X100872814Y-72647805D01*
X100872814Y-72647805D02*
X100953626Y-72728618D01*
X100953626Y-72728618D02*
X101007501Y-72836367D01*
X101007501Y-72836367D02*
X101007501Y-72944117D01*
X101007501Y-72944117D02*
X100980563Y-73024929D01*
X100980563Y-73024929D02*
X100899751Y-73159616D01*
X100899751Y-73159616D02*
X100818939Y-73240428D01*
X100818939Y-73240428D02*
X100684252Y-73321241D01*
X100684252Y-73321241D02*
X100603439Y-73348178D01*
X100603439Y-73348178D02*
X100495690Y-73348178D01*
X100495690Y-73348178D02*
X100387940Y-73294303D01*
X100387940Y-73294303D02*
X100334065Y-73240428D01*
X100334065Y-73240428D02*
X100280191Y-73132679D01*
X100280191Y-73132679D02*
X100280191Y-73078804D01*
X100280191Y-73078804D02*
X100468752Y-72890242D01*
X100468752Y-72890242D02*
X100576502Y-72997992D01*
X99983879Y-72890242D02*
X100549565Y-72324557D01*
X100549565Y-72324557D02*
X100334065Y-72109057D01*
X100334065Y-72109057D02*
X100253253Y-72082120D01*
X100253253Y-72082120D02*
X100199378Y-72082120D01*
X100199378Y-72082120D02*
X100118566Y-72109057D01*
X100118566Y-72109057D02*
X100037754Y-72189870D01*
X100037754Y-72189870D02*
X100010817Y-72270682D01*
X100010817Y-72270682D02*
X100010817Y-72324557D01*
X100010817Y-72324557D02*
X100037754Y-72405369D01*
X100037754Y-72405369D02*
X100253253Y-72620868D01*
X99956942Y-71839683D02*
X99956942Y-71785809D01*
X99956942Y-71785809D02*
X99930004Y-71704996D01*
X99930004Y-71704996D02*
X99795317Y-71570309D01*
X99795317Y-71570309D02*
X99714505Y-71543372D01*
X99714505Y-71543372D02*
X99660630Y-71543372D01*
X99660630Y-71543372D02*
X99579818Y-71570309D01*
X99579818Y-71570309D02*
X99525943Y-71624184D01*
X99525943Y-71624184D02*
X99472069Y-71731934D01*
X99472069Y-71731934D02*
X99472069Y-72378431D01*
X99472069Y-72378431D02*
X99121882Y-72028245D01*
X99499006Y-71273998D02*
X99121882Y-70896874D01*
X99121882Y-70896874D02*
X98798633Y-71704996D01*
X126376627Y-64721494D02*
X126457439Y-64748431D01*
X126457439Y-64748431D02*
X126538251Y-64829243D01*
X126538251Y-64829243D02*
X126592126Y-64936993D01*
X126592126Y-64936993D02*
X126592126Y-65044742D01*
X126592126Y-65044742D02*
X126565189Y-65125555D01*
X126565189Y-65125555D02*
X126484376Y-65260242D01*
X126484376Y-65260242D02*
X126403564Y-65341054D01*
X126403564Y-65341054D02*
X126268877Y-65421866D01*
X126268877Y-65421866D02*
X126188065Y-65448803D01*
X126188065Y-65448803D02*
X126080315Y-65448803D01*
X126080315Y-65448803D02*
X125972566Y-65394929D01*
X125972566Y-65394929D02*
X125918691Y-65341054D01*
X125918691Y-65341054D02*
X125864816Y-65233304D01*
X125864816Y-65233304D02*
X125864816Y-65179429D01*
X125864816Y-65179429D02*
X126053378Y-64990868D01*
X126053378Y-64990868D02*
X126161128Y-65098617D01*
X125568505Y-64990868D02*
X126134190Y-64425182D01*
X126134190Y-64425182D02*
X125918691Y-64209683D01*
X125918691Y-64209683D02*
X125837879Y-64182746D01*
X125837879Y-64182746D02*
X125784004Y-64182746D01*
X125784004Y-64182746D02*
X125703192Y-64209683D01*
X125703192Y-64209683D02*
X125622380Y-64290495D01*
X125622380Y-64290495D02*
X125595442Y-64371307D01*
X125595442Y-64371307D02*
X125595442Y-64425182D01*
X125595442Y-64425182D02*
X125622380Y-64505994D01*
X125622380Y-64505994D02*
X125837879Y-64721494D01*
X125137506Y-63805622D02*
X124760383Y-64182746D01*
X125487693Y-63724810D02*
X125218319Y-64263558D01*
X125218319Y-64263558D02*
X124868132Y-63913372D01*
X100792001Y-67276868D02*
X100872814Y-67303805D01*
X100872814Y-67303805D02*
X100953626Y-67384618D01*
X100953626Y-67384618D02*
X101007501Y-67492367D01*
X101007501Y-67492367D02*
X101007501Y-67600117D01*
X101007501Y-67600117D02*
X100980563Y-67680929D01*
X100980563Y-67680929D02*
X100899751Y-67815616D01*
X100899751Y-67815616D02*
X100818939Y-67896428D01*
X100818939Y-67896428D02*
X100684252Y-67977241D01*
X100684252Y-67977241D02*
X100603439Y-68004178D01*
X100603439Y-68004178D02*
X100495690Y-68004178D01*
X100495690Y-68004178D02*
X100387940Y-67950303D01*
X100387940Y-67950303D02*
X100334065Y-67896428D01*
X100334065Y-67896428D02*
X100280191Y-67788679D01*
X100280191Y-67788679D02*
X100280191Y-67734804D01*
X100280191Y-67734804D02*
X100468752Y-67546242D01*
X100468752Y-67546242D02*
X100576502Y-67653992D01*
X99983879Y-67546242D02*
X100549565Y-66980557D01*
X100549565Y-66980557D02*
X100334065Y-66765057D01*
X100334065Y-66765057D02*
X100253253Y-66738120D01*
X100253253Y-66738120D02*
X100199378Y-66738120D01*
X100199378Y-66738120D02*
X100118566Y-66765057D01*
X100118566Y-66765057D02*
X100037754Y-66845870D01*
X100037754Y-66845870D02*
X100010817Y-66926682D01*
X100010817Y-66926682D02*
X100010817Y-66980557D01*
X100010817Y-66980557D02*
X100037754Y-67061369D01*
X100037754Y-67061369D02*
X100253253Y-67276868D01*
X99956942Y-66495683D02*
X99956942Y-66441809D01*
X99956942Y-66441809D02*
X99930004Y-66360996D01*
X99930004Y-66360996D02*
X99795317Y-66226309D01*
X99795317Y-66226309D02*
X99714505Y-66199372D01*
X99714505Y-66199372D02*
X99660630Y-66199372D01*
X99660630Y-66199372D02*
X99579818Y-66226309D01*
X99579818Y-66226309D02*
X99525943Y-66280184D01*
X99525943Y-66280184D02*
X99472069Y-66387934D01*
X99472069Y-66387934D02*
X99472069Y-67034431D01*
X99472069Y-67034431D02*
X99121882Y-66684245D01*
X99121882Y-66037747D02*
X99202694Y-66064685D01*
X99202694Y-66064685D02*
X99256569Y-66064685D01*
X99256569Y-66064685D02*
X99337381Y-66037747D01*
X99337381Y-66037747D02*
X99364319Y-66010810D01*
X99364319Y-66010810D02*
X99391256Y-65929998D01*
X99391256Y-65929998D02*
X99391256Y-65876123D01*
X99391256Y-65876123D02*
X99364319Y-65795311D01*
X99364319Y-65795311D02*
X99256569Y-65687561D01*
X99256569Y-65687561D02*
X99175757Y-65660624D01*
X99175757Y-65660624D02*
X99121882Y-65660624D01*
X99121882Y-65660624D02*
X99041070Y-65687561D01*
X99041070Y-65687561D02*
X99014133Y-65714499D01*
X99014133Y-65714499D02*
X98987195Y-65795311D01*
X98987195Y-65795311D02*
X98987195Y-65849186D01*
X98987195Y-65849186D02*
X99014133Y-65929998D01*
X99014133Y-65929998D02*
X99121882Y-66037747D01*
X99121882Y-66037747D02*
X99148820Y-66118560D01*
X99148820Y-66118560D02*
X99148820Y-66172434D01*
X99148820Y-66172434D02*
X99121882Y-66253247D01*
X99121882Y-66253247D02*
X99014133Y-66360996D01*
X99014133Y-66360996D02*
X98933320Y-66387934D01*
X98933320Y-66387934D02*
X98879446Y-66387934D01*
X98879446Y-66387934D02*
X98798633Y-66360996D01*
X98798633Y-66360996D02*
X98690884Y-66253247D01*
X98690884Y-66253247D02*
X98663946Y-66172434D01*
X98663946Y-66172434D02*
X98663946Y-66118560D01*
X98663946Y-66118560D02*
X98690884Y-66037747D01*
X98690884Y-66037747D02*
X98798633Y-65929998D01*
X98798633Y-65929998D02*
X98879446Y-65903060D01*
X98879446Y-65903060D02*
X98933320Y-65903060D01*
X98933320Y-65903060D02*
X99014133Y-65929998D01*
X100969250Y-55100242D02*
X100215003Y-55477366D01*
X100215003Y-55477366D02*
X100592126Y-54723118D01*
X99891754Y-55100242D02*
X99784004Y-55046367D01*
X99784004Y-55046367D02*
X99649317Y-54911680D01*
X99649317Y-54911680D02*
X99622380Y-54830868D01*
X99622380Y-54830868D02*
X99622380Y-54776993D01*
X99622380Y-54776993D02*
X99649317Y-54696181D01*
X99649317Y-54696181D02*
X99703192Y-54642306D01*
X99703192Y-54642306D02*
X99784004Y-54615369D01*
X99784004Y-54615369D02*
X99837879Y-54615369D01*
X99837879Y-54615369D02*
X99918691Y-54642306D01*
X99918691Y-54642306D02*
X100053378Y-54723118D01*
X100053378Y-54723118D02*
X100134191Y-54750056D01*
X100134191Y-54750056D02*
X100188065Y-54750056D01*
X100188065Y-54750056D02*
X100268878Y-54723118D01*
X100268878Y-54723118D02*
X100322752Y-54669244D01*
X100322752Y-54669244D02*
X100349690Y-54588431D01*
X100349690Y-54588431D02*
X100349690Y-54534557D01*
X100349690Y-54534557D02*
X100322752Y-54453744D01*
X100322752Y-54453744D02*
X100188065Y-54319057D01*
X100188065Y-54319057D02*
X100080316Y-54265183D01*
X99460755Y-54184370D02*
X99191381Y-54453744D01*
X99945629Y-54076621D02*
X99460755Y-54184370D01*
X99460755Y-54184370D02*
X99568505Y-53699497D01*
X98868133Y-54076621D02*
X98760383Y-54022746D01*
X98760383Y-54022746D02*
X98625696Y-53888059D01*
X98625696Y-53888059D02*
X98598759Y-53807247D01*
X98598759Y-53807247D02*
X98598759Y-53753372D01*
X98598759Y-53753372D02*
X98625696Y-53672560D01*
X98625696Y-53672560D02*
X98679571Y-53618685D01*
X98679571Y-53618685D02*
X98760383Y-53591748D01*
X98760383Y-53591748D02*
X98814258Y-53591748D01*
X98814258Y-53591748D02*
X98895070Y-53618685D01*
X98895070Y-53618685D02*
X99029757Y-53699497D01*
X99029757Y-53699497D02*
X99110569Y-53726435D01*
X99110569Y-53726435D02*
X99164444Y-53726435D01*
X99164444Y-53726435D02*
X99245256Y-53699497D01*
X99245256Y-53699497D02*
X99299131Y-53645622D01*
X99299131Y-53645622D02*
X99326069Y-53564810D01*
X99326069Y-53564810D02*
X99326069Y-53510935D01*
X99326069Y-53510935D02*
X99299131Y-53430123D01*
X99299131Y-53430123D02*
X99164444Y-53295436D01*
X99164444Y-53295436D02*
X99056695Y-53241561D01*
X100967592Y-59988584D02*
X100617406Y-59638398D01*
X100617406Y-59638398D02*
X100590468Y-60042459D01*
X100590468Y-60042459D02*
X100509656Y-59961646D01*
X100509656Y-59961646D02*
X100428844Y-59934709D01*
X100428844Y-59934709D02*
X100374969Y-59934709D01*
X100374969Y-59934709D02*
X100294157Y-59961646D01*
X100294157Y-59961646D02*
X100159470Y-60096333D01*
X100159470Y-60096333D02*
X100132532Y-60177146D01*
X100132532Y-60177146D02*
X100132532Y-60231020D01*
X100132532Y-60231020D02*
X100159470Y-60311833D01*
X100159470Y-60311833D02*
X100321094Y-60473457D01*
X100321094Y-60473457D02*
X100401906Y-60500394D01*
X100401906Y-60500394D02*
X100455781Y-60500394D01*
X100455781Y-59476773D02*
X99701534Y-59853897D01*
X99701534Y-59853897D02*
X100078657Y-59099649D01*
X99943971Y-58964963D02*
X99593784Y-58614776D01*
X99593784Y-58614776D02*
X99566847Y-59018837D01*
X99566847Y-59018837D02*
X99486035Y-58938025D01*
X99486035Y-58938025D02*
X99405223Y-58911088D01*
X99405223Y-58911088D02*
X99351348Y-58911088D01*
X99351348Y-58911088D02*
X99270535Y-58938025D01*
X99270535Y-58938025D02*
X99135848Y-59072712D01*
X99135848Y-59072712D02*
X99108911Y-59153524D01*
X99108911Y-59153524D02*
X99108911Y-59207399D01*
X99108911Y-59207399D02*
X99135848Y-59288211D01*
X99135848Y-59288211D02*
X99297473Y-59449836D01*
X99297473Y-59449836D02*
X99378285Y-59476773D01*
X99378285Y-59476773D02*
X99432160Y-59476773D01*
X98866474Y-59126587D02*
X98435476Y-58695588D01*
X98650975Y-58210715D02*
X98462413Y-58022153D01*
X98085290Y-58237652D02*
X98354664Y-58507026D01*
X98354664Y-58507026D02*
X98920349Y-57941341D01*
X98920349Y-57941341D02*
X98650975Y-57671967D01*
X97842853Y-57995215D02*
X98408538Y-57429530D01*
X98408538Y-57429530D02*
X97519604Y-57671967D01*
X97519604Y-57671967D02*
X98085289Y-57106281D01*
X126276627Y-74851494D02*
X126357439Y-74878431D01*
X126357439Y-74878431D02*
X126438251Y-74959243D01*
X126438251Y-74959243D02*
X126492126Y-75066993D01*
X126492126Y-75066993D02*
X126492126Y-75174742D01*
X126492126Y-75174742D02*
X126465189Y-75255555D01*
X126465189Y-75255555D02*
X126384376Y-75390242D01*
X126384376Y-75390242D02*
X126303564Y-75471054D01*
X126303564Y-75471054D02*
X126168877Y-75551866D01*
X126168877Y-75551866D02*
X126088065Y-75578803D01*
X126088065Y-75578803D02*
X125980315Y-75578803D01*
X125980315Y-75578803D02*
X125872566Y-75524929D01*
X125872566Y-75524929D02*
X125818691Y-75471054D01*
X125818691Y-75471054D02*
X125764816Y-75363304D01*
X125764816Y-75363304D02*
X125764816Y-75309429D01*
X125764816Y-75309429D02*
X125953378Y-75120868D01*
X125953378Y-75120868D02*
X126061128Y-75228617D01*
X125468505Y-75120868D02*
X126034190Y-74555182D01*
X126034190Y-74555182D02*
X125818691Y-74339683D01*
X125818691Y-74339683D02*
X125737879Y-74312746D01*
X125737879Y-74312746D02*
X125684004Y-74312746D01*
X125684004Y-74312746D02*
X125603192Y-74339683D01*
X125603192Y-74339683D02*
X125522380Y-74420495D01*
X125522380Y-74420495D02*
X125495442Y-74501307D01*
X125495442Y-74501307D02*
X125495442Y-74555182D01*
X125495442Y-74555182D02*
X125522380Y-74635994D01*
X125522380Y-74635994D02*
X125737879Y-74851494D01*
X125522380Y-74043372D02*
X125145256Y-73666248D01*
X125145256Y-73666248D02*
X124822007Y-74474370D01*
X100792001Y-85320868D02*
X100872814Y-85347805D01*
X100872814Y-85347805D02*
X100953626Y-85428618D01*
X100953626Y-85428618D02*
X101007501Y-85536367D01*
X101007501Y-85536367D02*
X101007501Y-85644117D01*
X101007501Y-85644117D02*
X100980563Y-85724929D01*
X100980563Y-85724929D02*
X100899751Y-85859616D01*
X100899751Y-85859616D02*
X100818939Y-85940428D01*
X100818939Y-85940428D02*
X100684252Y-86021241D01*
X100684252Y-86021241D02*
X100603439Y-86048178D01*
X100603439Y-86048178D02*
X100495690Y-86048178D01*
X100495690Y-86048178D02*
X100387940Y-85994303D01*
X100387940Y-85994303D02*
X100334065Y-85940428D01*
X100334065Y-85940428D02*
X100280191Y-85832679D01*
X100280191Y-85832679D02*
X100280191Y-85778804D01*
X100280191Y-85778804D02*
X100468752Y-85590242D01*
X100468752Y-85590242D02*
X100576502Y-85697992D01*
X99983879Y-85590242D02*
X100549565Y-85024557D01*
X100549565Y-85024557D02*
X100334065Y-84809057D01*
X100334065Y-84809057D02*
X100253253Y-84782120D01*
X100253253Y-84782120D02*
X100199378Y-84782120D01*
X100199378Y-84782120D02*
X100118566Y-84809057D01*
X100118566Y-84809057D02*
X100037754Y-84889870D01*
X100037754Y-84889870D02*
X100010817Y-84970682D01*
X100010817Y-84970682D02*
X100010817Y-85024557D01*
X100010817Y-85024557D02*
X100037754Y-85105369D01*
X100037754Y-85105369D02*
X100253253Y-85320868D01*
X99956942Y-84539683D02*
X99956942Y-84485809D01*
X99956942Y-84485809D02*
X99930004Y-84404996D01*
X99930004Y-84404996D02*
X99795317Y-84270309D01*
X99795317Y-84270309D02*
X99714505Y-84243372D01*
X99714505Y-84243372D02*
X99660630Y-84243372D01*
X99660630Y-84243372D02*
X99579818Y-84270309D01*
X99579818Y-84270309D02*
X99525943Y-84324184D01*
X99525943Y-84324184D02*
X99472069Y-84431934D01*
X99472069Y-84431934D02*
X99472069Y-85078431D01*
X99472069Y-85078431D02*
X99121882Y-84728245D01*
X98583134Y-84189497D02*
X98906383Y-84512746D01*
X98744759Y-84351121D02*
X99310444Y-83785436D01*
X99310444Y-83785436D02*
X99283507Y-83920123D01*
X99283507Y-83920123D02*
X99283507Y-84027873D01*
X99283507Y-84027873D02*
X99310444Y-84108685D01*
X100738126Y-70771240D02*
X100468752Y-70501866D01*
X100630376Y-70986739D02*
X101007500Y-70232492D01*
X101007500Y-70232492D02*
X100253253Y-70609615D01*
X100307128Y-69585994D02*
X100387940Y-69612932D01*
X100387940Y-69612932D02*
X100468752Y-69693744D01*
X100468752Y-69693744D02*
X100522627Y-69801494D01*
X100522627Y-69801494D02*
X100522627Y-69909243D01*
X100522627Y-69909243D02*
X100495689Y-69990055D01*
X100495689Y-69990055D02*
X100414877Y-70124742D01*
X100414877Y-70124742D02*
X100334065Y-70205555D01*
X100334065Y-70205555D02*
X100199378Y-70286367D01*
X100199378Y-70286367D02*
X100118566Y-70313304D01*
X100118566Y-70313304D02*
X100010816Y-70313304D01*
X100010816Y-70313304D02*
X99903067Y-70259429D01*
X99903067Y-70259429D02*
X99849192Y-70205555D01*
X99849192Y-70205555D02*
X99795317Y-70097805D01*
X99795317Y-70097805D02*
X99795317Y-70043930D01*
X99795317Y-70043930D02*
X99983879Y-69855368D01*
X99983879Y-69855368D02*
X100091628Y-69963118D01*
X99499006Y-69855368D02*
X100064691Y-69289683D01*
X100064691Y-69289683D02*
X99175757Y-69532120D01*
X99175757Y-69532120D02*
X99741442Y-68966434D01*
X98906383Y-69262746D02*
X99472068Y-68697060D01*
X99472068Y-68697060D02*
X99337381Y-68562373D01*
X99337381Y-68562373D02*
X99229632Y-68508498D01*
X99229632Y-68508498D02*
X99121882Y-68508498D01*
X99121882Y-68508498D02*
X99041070Y-68535436D01*
X99041070Y-68535436D02*
X98906383Y-68616248D01*
X98906383Y-68616248D02*
X98825571Y-68697060D01*
X98825571Y-68697060D02*
X98744758Y-68831747D01*
X98744758Y-68831747D02*
X98717821Y-68912560D01*
X98717821Y-68912560D02*
X98717821Y-69020309D01*
X98717821Y-69020309D02*
X98771696Y-69128059D01*
X98771696Y-69128059D02*
X98906383Y-69262746D01*
X100792001Y-100550868D02*
X100872814Y-100577805D01*
X100872814Y-100577805D02*
X100953626Y-100658618D01*
X100953626Y-100658618D02*
X101007501Y-100766367D01*
X101007501Y-100766367D02*
X101007501Y-100874117D01*
X101007501Y-100874117D02*
X100980563Y-100954929D01*
X100980563Y-100954929D02*
X100899751Y-101089616D01*
X100899751Y-101089616D02*
X100818939Y-101170428D01*
X100818939Y-101170428D02*
X100684252Y-101251241D01*
X100684252Y-101251241D02*
X100603439Y-101278178D01*
X100603439Y-101278178D02*
X100495690Y-101278178D01*
X100495690Y-101278178D02*
X100387940Y-101224303D01*
X100387940Y-101224303D02*
X100334065Y-101170428D01*
X100334065Y-101170428D02*
X100280191Y-101062679D01*
X100280191Y-101062679D02*
X100280191Y-101008804D01*
X100280191Y-101008804D02*
X100468752Y-100820242D01*
X100468752Y-100820242D02*
X100576502Y-100927992D01*
X99983879Y-100820242D02*
X100549565Y-100254557D01*
X100549565Y-100254557D02*
X100334065Y-100039057D01*
X100334065Y-100039057D02*
X100253253Y-100012120D01*
X100253253Y-100012120D02*
X100199378Y-100012120D01*
X100199378Y-100012120D02*
X100118566Y-100039057D01*
X100118566Y-100039057D02*
X100037754Y-100119870D01*
X100037754Y-100119870D02*
X100010817Y-100200682D01*
X100010817Y-100200682D02*
X100010817Y-100254557D01*
X100010817Y-100254557D02*
X100037754Y-100335369D01*
X100037754Y-100335369D02*
X100253253Y-100550868D01*
X99121882Y-99958245D02*
X99445131Y-100281494D01*
X99283507Y-100119870D02*
X99849192Y-99554184D01*
X99849192Y-99554184D02*
X99822255Y-99688871D01*
X99822255Y-99688871D02*
X99822255Y-99796621D01*
X99822255Y-99796621D02*
X99849192Y-99877433D01*
X99202694Y-98907686D02*
X99310444Y-99015436D01*
X99310444Y-99015436D02*
X99337381Y-99096248D01*
X99337381Y-99096248D02*
X99337381Y-99150123D01*
X99337381Y-99150123D02*
X99310444Y-99284810D01*
X99310444Y-99284810D02*
X99229632Y-99419497D01*
X99229632Y-99419497D02*
X99014133Y-99634996D01*
X99014133Y-99634996D02*
X98933320Y-99661934D01*
X98933320Y-99661934D02*
X98879446Y-99661934D01*
X98879446Y-99661934D02*
X98798633Y-99634996D01*
X98798633Y-99634996D02*
X98690884Y-99527247D01*
X98690884Y-99527247D02*
X98663946Y-99446434D01*
X98663946Y-99446434D02*
X98663946Y-99392560D01*
X98663946Y-99392560D02*
X98690884Y-99311747D01*
X98690884Y-99311747D02*
X98825571Y-99177060D01*
X98825571Y-99177060D02*
X98906383Y-99150123D01*
X98906383Y-99150123D02*
X98960258Y-99150123D01*
X98960258Y-99150123D02*
X99041070Y-99177060D01*
X99041070Y-99177060D02*
X99148820Y-99284810D01*
X99148820Y-99284810D02*
X99175757Y-99365622D01*
X99175757Y-99365622D02*
X99175757Y-99419497D01*
X99175757Y-99419497D02*
X99148820Y-99500309D01*
X126376627Y-67261494D02*
X126457439Y-67288431D01*
X126457439Y-67288431D02*
X126538251Y-67369243D01*
X126538251Y-67369243D02*
X126592126Y-67476993D01*
X126592126Y-67476993D02*
X126592126Y-67584742D01*
X126592126Y-67584742D02*
X126565189Y-67665555D01*
X126565189Y-67665555D02*
X126484376Y-67800242D01*
X126484376Y-67800242D02*
X126403564Y-67881054D01*
X126403564Y-67881054D02*
X126268877Y-67961866D01*
X126268877Y-67961866D02*
X126188065Y-67988803D01*
X126188065Y-67988803D02*
X126080315Y-67988803D01*
X126080315Y-67988803D02*
X125972566Y-67934929D01*
X125972566Y-67934929D02*
X125918691Y-67881054D01*
X125918691Y-67881054D02*
X125864816Y-67773304D01*
X125864816Y-67773304D02*
X125864816Y-67719429D01*
X125864816Y-67719429D02*
X126053378Y-67530868D01*
X126053378Y-67530868D02*
X126161128Y-67638617D01*
X125568505Y-67530868D02*
X126134190Y-66965182D01*
X126134190Y-66965182D02*
X125918691Y-66749683D01*
X125918691Y-66749683D02*
X125837879Y-66722746D01*
X125837879Y-66722746D02*
X125784004Y-66722746D01*
X125784004Y-66722746D02*
X125703192Y-66749683D01*
X125703192Y-66749683D02*
X125622380Y-66830495D01*
X125622380Y-66830495D02*
X125595442Y-66911307D01*
X125595442Y-66911307D02*
X125595442Y-66965182D01*
X125595442Y-66965182D02*
X125622380Y-67045994D01*
X125622380Y-67045994D02*
X125837879Y-67261494D01*
X125299131Y-66130123D02*
X125568505Y-66399497D01*
X125568505Y-66399497D02*
X125326068Y-66695808D01*
X125326068Y-66695808D02*
X125326068Y-66641933D01*
X125326068Y-66641933D02*
X125299131Y-66561121D01*
X125299131Y-66561121D02*
X125164444Y-66426434D01*
X125164444Y-66426434D02*
X125083632Y-66399497D01*
X125083632Y-66399497D02*
X125029757Y-66399497D01*
X125029757Y-66399497D02*
X124948945Y-66426434D01*
X124948945Y-66426434D02*
X124814258Y-66561121D01*
X124814258Y-66561121D02*
X124787320Y-66641933D01*
X124787320Y-66641933D02*
X124787320Y-66695808D01*
X124787320Y-66695808D02*
X124814258Y-66776620D01*
X124814258Y-66776620D02*
X124948945Y-66911307D01*
X124948945Y-66911307D02*
X125029757Y-66938245D01*
X125029757Y-66938245D02*
X125083632Y-66938245D01*
X100792001Y-87850868D02*
X100872814Y-87877805D01*
X100872814Y-87877805D02*
X100953626Y-87958618D01*
X100953626Y-87958618D02*
X101007501Y-88066367D01*
X101007501Y-88066367D02*
X101007501Y-88174117D01*
X101007501Y-88174117D02*
X100980563Y-88254929D01*
X100980563Y-88254929D02*
X100899751Y-88389616D01*
X100899751Y-88389616D02*
X100818939Y-88470428D01*
X100818939Y-88470428D02*
X100684252Y-88551241D01*
X100684252Y-88551241D02*
X100603439Y-88578178D01*
X100603439Y-88578178D02*
X100495690Y-88578178D01*
X100495690Y-88578178D02*
X100387940Y-88524303D01*
X100387940Y-88524303D02*
X100334065Y-88470428D01*
X100334065Y-88470428D02*
X100280191Y-88362679D01*
X100280191Y-88362679D02*
X100280191Y-88308804D01*
X100280191Y-88308804D02*
X100468752Y-88120242D01*
X100468752Y-88120242D02*
X100576502Y-88227992D01*
X99983879Y-88120242D02*
X100549565Y-87554557D01*
X100549565Y-87554557D02*
X100334065Y-87339057D01*
X100334065Y-87339057D02*
X100253253Y-87312120D01*
X100253253Y-87312120D02*
X100199378Y-87312120D01*
X100199378Y-87312120D02*
X100118566Y-87339057D01*
X100118566Y-87339057D02*
X100037754Y-87419870D01*
X100037754Y-87419870D02*
X100010817Y-87500682D01*
X100010817Y-87500682D02*
X100010817Y-87554557D01*
X100010817Y-87554557D02*
X100037754Y-87635369D01*
X100037754Y-87635369D02*
X100253253Y-87850868D01*
X99956942Y-87069683D02*
X99956942Y-87015809D01*
X99956942Y-87015809D02*
X99930004Y-86934996D01*
X99930004Y-86934996D02*
X99795317Y-86800309D01*
X99795317Y-86800309D02*
X99714505Y-86773372D01*
X99714505Y-86773372D02*
X99660630Y-86773372D01*
X99660630Y-86773372D02*
X99579818Y-86800309D01*
X99579818Y-86800309D02*
X99525943Y-86854184D01*
X99525943Y-86854184D02*
X99472069Y-86961934D01*
X99472069Y-86961934D02*
X99472069Y-87608431D01*
X99472069Y-87608431D02*
X99121882Y-87258245D01*
X99337381Y-86342373D02*
X99283507Y-86288499D01*
X99283507Y-86288499D02*
X99202694Y-86261561D01*
X99202694Y-86261561D02*
X99148820Y-86261561D01*
X99148820Y-86261561D02*
X99068007Y-86288499D01*
X99068007Y-86288499D02*
X98933320Y-86369311D01*
X98933320Y-86369311D02*
X98798633Y-86503998D01*
X98798633Y-86503998D02*
X98717821Y-86638685D01*
X98717821Y-86638685D02*
X98690884Y-86719497D01*
X98690884Y-86719497D02*
X98690884Y-86773372D01*
X98690884Y-86773372D02*
X98717821Y-86854184D01*
X98717821Y-86854184D02*
X98771696Y-86908059D01*
X98771696Y-86908059D02*
X98852508Y-86934996D01*
X98852508Y-86934996D02*
X98906383Y-86934996D01*
X98906383Y-86934996D02*
X98987195Y-86908059D01*
X98987195Y-86908059D02*
X99121882Y-86827247D01*
X99121882Y-86827247D02*
X99256569Y-86692560D01*
X99256569Y-86692560D02*
X99337381Y-86557873D01*
X99337381Y-86557873D02*
X99364319Y-86477060D01*
X99364319Y-86477060D02*
X99364319Y-86423186D01*
X99364319Y-86423186D02*
X99337381Y-86342373D01*
X126476627Y-59641494D02*
X126557439Y-59668431D01*
X126557439Y-59668431D02*
X126638251Y-59749243D01*
X126638251Y-59749243D02*
X126692126Y-59856993D01*
X126692126Y-59856993D02*
X126692126Y-59964742D01*
X126692126Y-59964742D02*
X126665189Y-60045555D01*
X126665189Y-60045555D02*
X126584376Y-60180242D01*
X126584376Y-60180242D02*
X126503564Y-60261054D01*
X126503564Y-60261054D02*
X126368877Y-60341866D01*
X126368877Y-60341866D02*
X126288065Y-60368803D01*
X126288065Y-60368803D02*
X126180315Y-60368803D01*
X126180315Y-60368803D02*
X126072566Y-60314929D01*
X126072566Y-60314929D02*
X126018691Y-60261054D01*
X126018691Y-60261054D02*
X125964816Y-60153304D01*
X125964816Y-60153304D02*
X125964816Y-60099429D01*
X125964816Y-60099429D02*
X126153378Y-59910868D01*
X126153378Y-59910868D02*
X126261128Y-60018617D01*
X125668505Y-59910868D02*
X126234190Y-59345182D01*
X126234190Y-59345182D02*
X126018691Y-59129683D01*
X126018691Y-59129683D02*
X125937879Y-59102746D01*
X125937879Y-59102746D02*
X125884004Y-59102746D01*
X125884004Y-59102746D02*
X125803192Y-59129683D01*
X125803192Y-59129683D02*
X125722380Y-59210495D01*
X125722380Y-59210495D02*
X125695442Y-59291307D01*
X125695442Y-59291307D02*
X125695442Y-59345182D01*
X125695442Y-59345182D02*
X125722380Y-59425994D01*
X125722380Y-59425994D02*
X125937879Y-59641494D01*
X125641567Y-58860309D02*
X125641567Y-58806434D01*
X125641567Y-58806434D02*
X125614630Y-58725622D01*
X125614630Y-58725622D02*
X125479943Y-58590935D01*
X125479943Y-58590935D02*
X125399131Y-58563998D01*
X125399131Y-58563998D02*
X125345256Y-58563998D01*
X125345256Y-58563998D02*
X125264444Y-58590935D01*
X125264444Y-58590935D02*
X125210569Y-58644810D01*
X125210569Y-58644810D02*
X125156694Y-58752559D01*
X125156694Y-58752559D02*
X125156694Y-59399057D01*
X125156694Y-59399057D02*
X124806508Y-59048871D01*
X100999876Y-62520868D02*
X100649690Y-62170682D01*
X100649690Y-62170682D02*
X100622752Y-62574743D01*
X100622752Y-62574743D02*
X100541940Y-62493931D01*
X100541940Y-62493931D02*
X100461128Y-62466993D01*
X100461128Y-62466993D02*
X100407253Y-62466993D01*
X100407253Y-62466993D02*
X100326441Y-62493931D01*
X100326441Y-62493931D02*
X100191754Y-62628618D01*
X100191754Y-62628618D02*
X100164817Y-62709430D01*
X100164817Y-62709430D02*
X100164817Y-62763305D01*
X100164817Y-62763305D02*
X100191754Y-62844117D01*
X100191754Y-62844117D02*
X100353378Y-63005741D01*
X100353378Y-63005741D02*
X100434191Y-63032679D01*
X100434191Y-63032679D02*
X100488065Y-63032679D01*
X100488065Y-62009057D02*
X99733818Y-62386181D01*
X99733818Y-62386181D02*
X100110942Y-61631934D01*
X99976255Y-61497247D02*
X99626069Y-61147061D01*
X99626069Y-61147061D02*
X99599131Y-61551122D01*
X99599131Y-61551122D02*
X99518319Y-61470309D01*
X99518319Y-61470309D02*
X99437507Y-61443372D01*
X99437507Y-61443372D02*
X99383632Y-61443372D01*
X99383632Y-61443372D02*
X99302820Y-61470309D01*
X99302820Y-61470309D02*
X99168133Y-61604996D01*
X99168133Y-61604996D02*
X99141195Y-61685809D01*
X99141195Y-61685809D02*
X99141195Y-61739683D01*
X99141195Y-61739683D02*
X99168133Y-61820496D01*
X99168133Y-61820496D02*
X99329757Y-61982120D01*
X99329757Y-61982120D02*
X99410569Y-62009057D01*
X99410569Y-62009057D02*
X99464444Y-62009057D01*
X100803564Y-57128431D02*
X100884376Y-57155368D01*
X100884376Y-57155368D02*
X100965188Y-57236180D01*
X100965188Y-57236180D02*
X101019063Y-57343930D01*
X101019063Y-57343930D02*
X101019063Y-57451680D01*
X101019063Y-57451680D02*
X100992126Y-57532492D01*
X100992126Y-57532492D02*
X100911314Y-57667179D01*
X100911314Y-57667179D02*
X100830501Y-57747991D01*
X100830501Y-57747991D02*
X100695814Y-57828803D01*
X100695814Y-57828803D02*
X100615002Y-57855741D01*
X100615002Y-57855741D02*
X100507253Y-57855741D01*
X100507253Y-57855741D02*
X100399503Y-57801866D01*
X100399503Y-57801866D02*
X100345628Y-57747991D01*
X100345628Y-57747991D02*
X100291753Y-57640241D01*
X100291753Y-57640241D02*
X100291753Y-57586367D01*
X100291753Y-57586367D02*
X100480315Y-57397805D01*
X100480315Y-57397805D02*
X100588065Y-57505554D01*
X99995442Y-57397805D02*
X100561127Y-56832119D01*
X100561127Y-56832119D02*
X99672193Y-57074556D01*
X99672193Y-57074556D02*
X100237879Y-56508871D01*
X99402819Y-56805182D02*
X99968505Y-56239497D01*
X99968505Y-56239497D02*
X99833818Y-56104810D01*
X99833818Y-56104810D02*
X99726068Y-56050935D01*
X99726068Y-56050935D02*
X99618319Y-56050935D01*
X99618319Y-56050935D02*
X99537506Y-56077872D01*
X99537506Y-56077872D02*
X99402819Y-56158685D01*
X99402819Y-56158685D02*
X99322007Y-56239497D01*
X99322007Y-56239497D02*
X99241195Y-56374184D01*
X99241195Y-56374184D02*
X99214258Y-56454996D01*
X99214258Y-56454996D02*
X99214258Y-56562746D01*
X99214258Y-56562746D02*
X99268132Y-56670495D01*
X99268132Y-56670495D02*
X99402819Y-56805182D01*
X100734935Y-65564049D02*
X100465561Y-65294675D01*
X100627186Y-65779549D02*
X101004309Y-65025301D01*
X101004309Y-65025301D02*
X100250062Y-65402425D01*
X100061500Y-65213863D02*
X100627186Y-64648178D01*
X100627186Y-64648178D02*
X100492499Y-64513491D01*
X100492499Y-64513491D02*
X100384749Y-64459616D01*
X100384749Y-64459616D02*
X100277000Y-64459616D01*
X100277000Y-64459616D02*
X100196187Y-64486553D01*
X100196187Y-64486553D02*
X100061500Y-64567366D01*
X100061500Y-64567366D02*
X99980688Y-64648178D01*
X99980688Y-64648178D02*
X99899876Y-64782865D01*
X99899876Y-64782865D02*
X99872939Y-64863677D01*
X99872939Y-64863677D02*
X99872939Y-64971427D01*
X99872939Y-64971427D02*
X99926813Y-65079176D01*
X99926813Y-65079176D02*
X100061500Y-65213863D01*
X99226441Y-64271054D02*
X99226441Y-64324929D01*
X99226441Y-64324929D02*
X99280316Y-64432679D01*
X99280316Y-64432679D02*
X99334191Y-64486553D01*
X99334191Y-64486553D02*
X99441940Y-64540428D01*
X99441940Y-64540428D02*
X99549690Y-64540428D01*
X99549690Y-64540428D02*
X99630502Y-64513491D01*
X99630502Y-64513491D02*
X99765189Y-64432679D01*
X99765189Y-64432679D02*
X99846001Y-64351866D01*
X99846001Y-64351866D02*
X99926813Y-64217179D01*
X99926813Y-64217179D02*
X99953751Y-64136367D01*
X99953751Y-64136367D02*
X99953751Y-64028618D01*
X99953751Y-64028618D02*
X99899876Y-63920868D01*
X99899876Y-63920868D02*
X99846001Y-63866993D01*
X99846001Y-63866993D02*
X99738252Y-63813118D01*
X99738252Y-63813118D02*
X99684377Y-63813118D01*
X99010942Y-64271054D02*
X98579943Y-63840056D01*
X99145629Y-63166621D02*
X98391381Y-63543744D01*
X98391381Y-63543744D02*
X98768505Y-62789497D01*
X97691009Y-62843372D02*
X98148945Y-62762560D01*
X98014258Y-63166621D02*
X98579943Y-62600935D01*
X98579943Y-62600935D02*
X98364444Y-62385436D01*
X98364444Y-62385436D02*
X98283632Y-62358499D01*
X98283632Y-62358499D02*
X98229757Y-62358499D01*
X98229757Y-62358499D02*
X98148945Y-62385436D01*
X98148945Y-62385436D02*
X98068133Y-62466248D01*
X98068133Y-62466248D02*
X98041195Y-62547061D01*
X98041195Y-62547061D02*
X98041195Y-62600935D01*
X98041195Y-62600935D02*
X98068133Y-62681748D01*
X98068133Y-62681748D02*
X98283632Y-62897247D01*
X97744884Y-62304624D02*
X97556322Y-62116062D01*
X97179199Y-62331561D02*
X97448573Y-62600935D01*
X97448573Y-62600935D02*
X98014258Y-62035250D01*
X98014258Y-62035250D02*
X97744884Y-61765876D01*
X97044511Y-61604251D02*
X97233073Y-61792813D01*
X96936762Y-62089125D02*
X97502447Y-61523439D01*
X97502447Y-61523439D02*
X97233073Y-61254065D01*
X126376627Y-79961494D02*
X126457439Y-79988431D01*
X126457439Y-79988431D02*
X126538251Y-80069243D01*
X126538251Y-80069243D02*
X126592126Y-80176993D01*
X126592126Y-80176993D02*
X126592126Y-80284742D01*
X126592126Y-80284742D02*
X126565189Y-80365555D01*
X126565189Y-80365555D02*
X126484376Y-80500242D01*
X126484376Y-80500242D02*
X126403564Y-80581054D01*
X126403564Y-80581054D02*
X126268877Y-80661866D01*
X126268877Y-80661866D02*
X126188065Y-80688803D01*
X126188065Y-80688803D02*
X126080315Y-80688803D01*
X126080315Y-80688803D02*
X125972566Y-80634929D01*
X125972566Y-80634929D02*
X125918691Y-80581054D01*
X125918691Y-80581054D02*
X125864816Y-80473304D01*
X125864816Y-80473304D02*
X125864816Y-80419429D01*
X125864816Y-80419429D02*
X126053378Y-80230868D01*
X126053378Y-80230868D02*
X126161128Y-80338617D01*
X125568505Y-80230868D02*
X126134190Y-79665182D01*
X126134190Y-79665182D02*
X125918691Y-79449683D01*
X125918691Y-79449683D02*
X125837879Y-79422746D01*
X125837879Y-79422746D02*
X125784004Y-79422746D01*
X125784004Y-79422746D02*
X125703192Y-79449683D01*
X125703192Y-79449683D02*
X125622380Y-79530495D01*
X125622380Y-79530495D02*
X125595442Y-79611307D01*
X125595442Y-79611307D02*
X125595442Y-79665182D01*
X125595442Y-79665182D02*
X125622380Y-79745994D01*
X125622380Y-79745994D02*
X125837879Y-79961494D01*
X124975882Y-79638245D02*
X124868132Y-79530495D01*
X124868132Y-79530495D02*
X124841195Y-79449683D01*
X124841195Y-79449683D02*
X124841195Y-79395808D01*
X124841195Y-79395808D02*
X124868132Y-79261121D01*
X124868132Y-79261121D02*
X124948945Y-79126434D01*
X124948945Y-79126434D02*
X125164444Y-78910935D01*
X125164444Y-78910935D02*
X125245256Y-78883998D01*
X125245256Y-78883998D02*
X125299131Y-78883998D01*
X125299131Y-78883998D02*
X125379943Y-78910935D01*
X125379943Y-78910935D02*
X125487693Y-79018685D01*
X125487693Y-79018685D02*
X125514630Y-79099497D01*
X125514630Y-79099497D02*
X125514630Y-79153372D01*
X125514630Y-79153372D02*
X125487693Y-79234184D01*
X125487693Y-79234184D02*
X125353006Y-79368871D01*
X125353006Y-79368871D02*
X125272193Y-79395808D01*
X125272193Y-79395808D02*
X125218319Y-79395808D01*
X125218319Y-79395808D02*
X125137506Y-79368871D01*
X125137506Y-79368871D02*
X125029757Y-79261121D01*
X125029757Y-79261121D02*
X125002819Y-79180309D01*
X125002819Y-79180309D02*
X125002819Y-79126434D01*
X125002819Y-79126434D02*
X125029757Y-79045622D01*
X100803564Y-95228431D02*
X100884376Y-95255368D01*
X100884376Y-95255368D02*
X100965188Y-95336180D01*
X100965188Y-95336180D02*
X101019063Y-95443930D01*
X101019063Y-95443930D02*
X101019063Y-95551680D01*
X101019063Y-95551680D02*
X100992126Y-95632492D01*
X100992126Y-95632492D02*
X100911314Y-95767179D01*
X100911314Y-95767179D02*
X100830501Y-95847991D01*
X100830501Y-95847991D02*
X100695814Y-95928803D01*
X100695814Y-95928803D02*
X100615002Y-95955741D01*
X100615002Y-95955741D02*
X100507253Y-95955741D01*
X100507253Y-95955741D02*
X100399503Y-95901866D01*
X100399503Y-95901866D02*
X100345628Y-95847991D01*
X100345628Y-95847991D02*
X100291753Y-95740241D01*
X100291753Y-95740241D02*
X100291753Y-95686367D01*
X100291753Y-95686367D02*
X100480315Y-95497805D01*
X100480315Y-95497805D02*
X100588065Y-95605554D01*
X99995442Y-95497805D02*
X100561127Y-94932119D01*
X100561127Y-94932119D02*
X99672193Y-95174556D01*
X99672193Y-95174556D02*
X100237879Y-94608871D01*
X99402819Y-94905182D02*
X99968505Y-94339497D01*
X99968505Y-94339497D02*
X99833818Y-94204810D01*
X99833818Y-94204810D02*
X99726068Y-94150935D01*
X99726068Y-94150935D02*
X99618319Y-94150935D01*
X99618319Y-94150935D02*
X99537506Y-94177872D01*
X99537506Y-94177872D02*
X99402819Y-94258685D01*
X99402819Y-94258685D02*
X99322007Y-94339497D01*
X99322007Y-94339497D02*
X99241195Y-94474184D01*
X99241195Y-94474184D02*
X99214258Y-94554996D01*
X99214258Y-94554996D02*
X99214258Y-94662746D01*
X99214258Y-94662746D02*
X99268132Y-94770495D01*
X99268132Y-94770495D02*
X99402819Y-94905182D01*
X100792001Y-92930868D02*
X100872814Y-92957805D01*
X100872814Y-92957805D02*
X100953626Y-93038618D01*
X100953626Y-93038618D02*
X101007501Y-93146367D01*
X101007501Y-93146367D02*
X101007501Y-93254117D01*
X101007501Y-93254117D02*
X100980563Y-93334929D01*
X100980563Y-93334929D02*
X100899751Y-93469616D01*
X100899751Y-93469616D02*
X100818939Y-93550428D01*
X100818939Y-93550428D02*
X100684252Y-93631241D01*
X100684252Y-93631241D02*
X100603439Y-93658178D01*
X100603439Y-93658178D02*
X100495690Y-93658178D01*
X100495690Y-93658178D02*
X100387940Y-93604303D01*
X100387940Y-93604303D02*
X100334065Y-93550428D01*
X100334065Y-93550428D02*
X100280191Y-93442679D01*
X100280191Y-93442679D02*
X100280191Y-93388804D01*
X100280191Y-93388804D02*
X100468752Y-93200242D01*
X100468752Y-93200242D02*
X100576502Y-93307992D01*
X99983879Y-93200242D02*
X100549565Y-92634557D01*
X100549565Y-92634557D02*
X100334065Y-92419057D01*
X100334065Y-92419057D02*
X100253253Y-92392120D01*
X100253253Y-92392120D02*
X100199378Y-92392120D01*
X100199378Y-92392120D02*
X100118566Y-92419057D01*
X100118566Y-92419057D02*
X100037754Y-92499870D01*
X100037754Y-92499870D02*
X100010817Y-92580682D01*
X100010817Y-92580682D02*
X100010817Y-92634557D01*
X100010817Y-92634557D02*
X100037754Y-92715369D01*
X100037754Y-92715369D02*
X100253253Y-92930868D01*
X99121882Y-92338245D02*
X99445131Y-92661494D01*
X99283507Y-92499870D02*
X99849192Y-91934184D01*
X99849192Y-91934184D02*
X99822255Y-92068871D01*
X99822255Y-92068871D02*
X99822255Y-92176621D01*
X99822255Y-92176621D02*
X99849192Y-92257433D01*
X99121882Y-91691747D02*
X99202694Y-91718685D01*
X99202694Y-91718685D02*
X99256569Y-91718685D01*
X99256569Y-91718685D02*
X99337381Y-91691747D01*
X99337381Y-91691747D02*
X99364319Y-91664810D01*
X99364319Y-91664810D02*
X99391256Y-91583998D01*
X99391256Y-91583998D02*
X99391256Y-91530123D01*
X99391256Y-91530123D02*
X99364319Y-91449311D01*
X99364319Y-91449311D02*
X99256569Y-91341561D01*
X99256569Y-91341561D02*
X99175757Y-91314624D01*
X99175757Y-91314624D02*
X99121882Y-91314624D01*
X99121882Y-91314624D02*
X99041070Y-91341561D01*
X99041070Y-91341561D02*
X99014133Y-91368499D01*
X99014133Y-91368499D02*
X98987195Y-91449311D01*
X98987195Y-91449311D02*
X98987195Y-91503186D01*
X98987195Y-91503186D02*
X99014133Y-91583998D01*
X99014133Y-91583998D02*
X99121882Y-91691747D01*
X99121882Y-91691747D02*
X99148820Y-91772560D01*
X99148820Y-91772560D02*
X99148820Y-91826434D01*
X99148820Y-91826434D02*
X99121882Y-91907247D01*
X99121882Y-91907247D02*
X99014133Y-92014996D01*
X99014133Y-92014996D02*
X98933320Y-92041934D01*
X98933320Y-92041934D02*
X98879446Y-92041934D01*
X98879446Y-92041934D02*
X98798633Y-92014996D01*
X98798633Y-92014996D02*
X98690884Y-91907247D01*
X98690884Y-91907247D02*
X98663946Y-91826434D01*
X98663946Y-91826434D02*
X98663946Y-91772560D01*
X98663946Y-91772560D02*
X98690884Y-91691747D01*
X98690884Y-91691747D02*
X98798633Y-91583998D01*
X98798633Y-91583998D02*
X98879446Y-91557060D01*
X98879446Y-91557060D02*
X98933320Y-91557060D01*
X98933320Y-91557060D02*
X99014133Y-91583998D01*
X126376627Y-52021494D02*
X126457439Y-52048431D01*
X126457439Y-52048431D02*
X126538251Y-52129243D01*
X126538251Y-52129243D02*
X126592126Y-52236993D01*
X126592126Y-52236993D02*
X126592126Y-52344742D01*
X126592126Y-52344742D02*
X126565189Y-52425555D01*
X126565189Y-52425555D02*
X126484376Y-52560242D01*
X126484376Y-52560242D02*
X126403564Y-52641054D01*
X126403564Y-52641054D02*
X126268877Y-52721866D01*
X126268877Y-52721866D02*
X126188065Y-52748803D01*
X126188065Y-52748803D02*
X126080315Y-52748803D01*
X126080315Y-52748803D02*
X125972566Y-52694929D01*
X125972566Y-52694929D02*
X125918691Y-52641054D01*
X125918691Y-52641054D02*
X125864816Y-52533304D01*
X125864816Y-52533304D02*
X125864816Y-52479429D01*
X125864816Y-52479429D02*
X126053378Y-52290868D01*
X126053378Y-52290868D02*
X126161128Y-52398617D01*
X125568505Y-52290868D02*
X126134190Y-51725182D01*
X126134190Y-51725182D02*
X125918691Y-51509683D01*
X125918691Y-51509683D02*
X125837879Y-51482746D01*
X125837879Y-51482746D02*
X125784004Y-51482746D01*
X125784004Y-51482746D02*
X125703192Y-51509683D01*
X125703192Y-51509683D02*
X125622380Y-51590495D01*
X125622380Y-51590495D02*
X125595442Y-51671307D01*
X125595442Y-51671307D02*
X125595442Y-51725182D01*
X125595442Y-51725182D02*
X125622380Y-51805994D01*
X125622380Y-51805994D02*
X125837879Y-52021494D01*
X125460755Y-51051747D02*
X125406880Y-50997872D01*
X125406880Y-50997872D02*
X125326068Y-50970935D01*
X125326068Y-50970935D02*
X125272193Y-50970935D01*
X125272193Y-50970935D02*
X125191381Y-50997872D01*
X125191381Y-50997872D02*
X125056694Y-51078685D01*
X125056694Y-51078685D02*
X124922007Y-51213372D01*
X124922007Y-51213372D02*
X124841195Y-51348059D01*
X124841195Y-51348059D02*
X124814258Y-51428871D01*
X124814258Y-51428871D02*
X124814258Y-51482746D01*
X124814258Y-51482746D02*
X124841195Y-51563558D01*
X124841195Y-51563558D02*
X124895070Y-51617433D01*
X124895070Y-51617433D02*
X124975882Y-51644370D01*
X124975882Y-51644370D02*
X125029757Y-51644370D01*
X125029757Y-51644370D02*
X125110569Y-51617433D01*
X125110569Y-51617433D02*
X125245256Y-51536620D01*
X125245256Y-51536620D02*
X125379943Y-51401933D01*
X125379943Y-51401933D02*
X125460755Y-51267246D01*
X125460755Y-51267246D02*
X125487693Y-51186434D01*
X125487693Y-51186434D02*
X125487693Y-51132559D01*
X125487693Y-51132559D02*
X125460755Y-51051747D01*
X126376627Y-77421494D02*
X126457439Y-77448431D01*
X126457439Y-77448431D02*
X126538251Y-77529243D01*
X126538251Y-77529243D02*
X126592126Y-77636993D01*
X126592126Y-77636993D02*
X126592126Y-77744742D01*
X126592126Y-77744742D02*
X126565189Y-77825555D01*
X126565189Y-77825555D02*
X126484376Y-77960242D01*
X126484376Y-77960242D02*
X126403564Y-78041054D01*
X126403564Y-78041054D02*
X126268877Y-78121866D01*
X126268877Y-78121866D02*
X126188065Y-78148803D01*
X126188065Y-78148803D02*
X126080315Y-78148803D01*
X126080315Y-78148803D02*
X125972566Y-78094929D01*
X125972566Y-78094929D02*
X125918691Y-78041054D01*
X125918691Y-78041054D02*
X125864816Y-77933304D01*
X125864816Y-77933304D02*
X125864816Y-77879429D01*
X125864816Y-77879429D02*
X126053378Y-77690868D01*
X126053378Y-77690868D02*
X126161128Y-77798617D01*
X125568505Y-77690868D02*
X126134190Y-77125182D01*
X126134190Y-77125182D02*
X125918691Y-76909683D01*
X125918691Y-76909683D02*
X125837879Y-76882746D01*
X125837879Y-76882746D02*
X125784004Y-76882746D01*
X125784004Y-76882746D02*
X125703192Y-76909683D01*
X125703192Y-76909683D02*
X125622380Y-76990495D01*
X125622380Y-76990495D02*
X125595442Y-77071307D01*
X125595442Y-77071307D02*
X125595442Y-77125182D01*
X125595442Y-77125182D02*
X125622380Y-77205994D01*
X125622380Y-77205994D02*
X125837879Y-77421494D01*
X125245256Y-76721121D02*
X125326068Y-76748059D01*
X125326068Y-76748059D02*
X125379943Y-76748059D01*
X125379943Y-76748059D02*
X125460755Y-76721121D01*
X125460755Y-76721121D02*
X125487693Y-76694184D01*
X125487693Y-76694184D02*
X125514630Y-76613372D01*
X125514630Y-76613372D02*
X125514630Y-76559497D01*
X125514630Y-76559497D02*
X125487693Y-76478685D01*
X125487693Y-76478685D02*
X125379943Y-76370935D01*
X125379943Y-76370935D02*
X125299131Y-76343998D01*
X125299131Y-76343998D02*
X125245256Y-76343998D01*
X125245256Y-76343998D02*
X125164444Y-76370935D01*
X125164444Y-76370935D02*
X125137506Y-76397872D01*
X125137506Y-76397872D02*
X125110569Y-76478685D01*
X125110569Y-76478685D02*
X125110569Y-76532559D01*
X125110569Y-76532559D02*
X125137506Y-76613372D01*
X125137506Y-76613372D02*
X125245256Y-76721121D01*
X125245256Y-76721121D02*
X125272193Y-76801933D01*
X125272193Y-76801933D02*
X125272193Y-76855808D01*
X125272193Y-76855808D02*
X125245256Y-76936620D01*
X125245256Y-76936620D02*
X125137506Y-77044370D01*
X125137506Y-77044370D02*
X125056694Y-77071307D01*
X125056694Y-77071307D02*
X125002819Y-77071307D01*
X125002819Y-77071307D02*
X124922007Y-77044370D01*
X124922007Y-77044370D02*
X124814258Y-76936620D01*
X124814258Y-76936620D02*
X124787320Y-76855808D01*
X124787320Y-76855808D02*
X124787320Y-76801933D01*
X124787320Y-76801933D02*
X124814258Y-76721121D01*
X124814258Y-76721121D02*
X124922007Y-76613372D01*
X124922007Y-76613372D02*
X125002819Y-76586434D01*
X125002819Y-76586434D02*
X125056694Y-76586434D01*
X125056694Y-76586434D02*
X125137506Y-76613372D01*
X127046001Y-87850868D02*
X127126814Y-87877805D01*
X127126814Y-87877805D02*
X127207626Y-87958618D01*
X127207626Y-87958618D02*
X127261501Y-88066367D01*
X127261501Y-88066367D02*
X127261501Y-88174117D01*
X127261501Y-88174117D02*
X127234563Y-88254929D01*
X127234563Y-88254929D02*
X127153751Y-88389616D01*
X127153751Y-88389616D02*
X127072939Y-88470428D01*
X127072939Y-88470428D02*
X126938252Y-88551241D01*
X126938252Y-88551241D02*
X126857439Y-88578178D01*
X126857439Y-88578178D02*
X126749690Y-88578178D01*
X126749690Y-88578178D02*
X126641940Y-88524303D01*
X126641940Y-88524303D02*
X126588065Y-88470428D01*
X126588065Y-88470428D02*
X126534191Y-88362679D01*
X126534191Y-88362679D02*
X126534191Y-88308804D01*
X126534191Y-88308804D02*
X126722752Y-88120242D01*
X126722752Y-88120242D02*
X126830502Y-88227992D01*
X126237879Y-88120242D02*
X126803565Y-87554557D01*
X126803565Y-87554557D02*
X126588065Y-87339057D01*
X126588065Y-87339057D02*
X126507253Y-87312120D01*
X126507253Y-87312120D02*
X126453378Y-87312120D01*
X126453378Y-87312120D02*
X126372566Y-87339057D01*
X126372566Y-87339057D02*
X126291754Y-87419870D01*
X126291754Y-87419870D02*
X126264817Y-87500682D01*
X126264817Y-87500682D02*
X126264817Y-87554557D01*
X126264817Y-87554557D02*
X126291754Y-87635369D01*
X126291754Y-87635369D02*
X126507253Y-87850868D01*
X125375882Y-87258245D02*
X125699131Y-87581494D01*
X125537507Y-87419870D02*
X126103192Y-86854184D01*
X126103192Y-86854184D02*
X126076255Y-86988871D01*
X126076255Y-86988871D02*
X126076255Y-87096621D01*
X126076255Y-87096621D02*
X126103192Y-87177433D01*
X124837134Y-86719497D02*
X125160383Y-87042746D01*
X124998759Y-86881121D02*
X125564444Y-86315436D01*
X125564444Y-86315436D02*
X125537507Y-86450123D01*
X125537507Y-86450123D02*
X125537507Y-86557873D01*
X125537507Y-86557873D02*
X125564444Y-86638685D01*
X100051348Y-77973710D02*
X100509283Y-77892898D01*
X100374596Y-78296959D02*
X100940282Y-77731274D01*
X100940282Y-77731274D02*
X100724783Y-77515775D01*
X100724783Y-77515775D02*
X100643970Y-77488837D01*
X100643970Y-77488837D02*
X100590096Y-77488837D01*
X100590096Y-77488837D02*
X100509283Y-77515775D01*
X100509283Y-77515775D02*
X100428471Y-77596587D01*
X100428471Y-77596587D02*
X100401534Y-77677399D01*
X100401534Y-77677399D02*
X100401534Y-77731274D01*
X100401534Y-77731274D02*
X100428471Y-77812086D01*
X100428471Y-77812086D02*
X100643970Y-78027585D01*
X100374596Y-77165588D02*
X99916661Y-77623524D01*
X99916661Y-77623524D02*
X99835848Y-77650462D01*
X99835848Y-77650462D02*
X99781974Y-77650462D01*
X99781974Y-77650462D02*
X99701161Y-77623524D01*
X99701161Y-77623524D02*
X99593412Y-77515775D01*
X99593412Y-77515775D02*
X99566474Y-77434962D01*
X99566474Y-77434962D02*
X99566474Y-77381088D01*
X99566474Y-77381088D02*
X99593412Y-77300275D01*
X99593412Y-77300275D02*
X100051348Y-76842340D01*
X99216288Y-77138651D02*
X99781974Y-76572966D01*
X99781974Y-76572966D02*
X98893040Y-76815402D01*
X98893040Y-76815402D02*
X99458725Y-76249717D01*
X127046001Y-90390868D02*
X127126814Y-90417805D01*
X127126814Y-90417805D02*
X127207626Y-90498618D01*
X127207626Y-90498618D02*
X127261501Y-90606367D01*
X127261501Y-90606367D02*
X127261501Y-90714117D01*
X127261501Y-90714117D02*
X127234563Y-90794929D01*
X127234563Y-90794929D02*
X127153751Y-90929616D01*
X127153751Y-90929616D02*
X127072939Y-91010428D01*
X127072939Y-91010428D02*
X126938252Y-91091241D01*
X126938252Y-91091241D02*
X126857439Y-91118178D01*
X126857439Y-91118178D02*
X126749690Y-91118178D01*
X126749690Y-91118178D02*
X126641940Y-91064303D01*
X126641940Y-91064303D02*
X126588065Y-91010428D01*
X126588065Y-91010428D02*
X126534191Y-90902679D01*
X126534191Y-90902679D02*
X126534191Y-90848804D01*
X126534191Y-90848804D02*
X126722752Y-90660242D01*
X126722752Y-90660242D02*
X126830502Y-90767992D01*
X126237879Y-90660242D02*
X126803565Y-90094557D01*
X126803565Y-90094557D02*
X126588065Y-89879057D01*
X126588065Y-89879057D02*
X126507253Y-89852120D01*
X126507253Y-89852120D02*
X126453378Y-89852120D01*
X126453378Y-89852120D02*
X126372566Y-89879057D01*
X126372566Y-89879057D02*
X126291754Y-89959870D01*
X126291754Y-89959870D02*
X126264817Y-90040682D01*
X126264817Y-90040682D02*
X126264817Y-90094557D01*
X126264817Y-90094557D02*
X126291754Y-90175369D01*
X126291754Y-90175369D02*
X126507253Y-90390868D01*
X125375882Y-89798245D02*
X125699131Y-90121494D01*
X125537507Y-89959870D02*
X126103192Y-89394184D01*
X126103192Y-89394184D02*
X126076255Y-89528871D01*
X126076255Y-89528871D02*
X126076255Y-89636621D01*
X126076255Y-89636621D02*
X126103192Y-89717433D01*
X125672194Y-89070935D02*
X125672194Y-89017060D01*
X125672194Y-89017060D02*
X125645256Y-88936248D01*
X125645256Y-88936248D02*
X125510569Y-88801561D01*
X125510569Y-88801561D02*
X125429757Y-88774624D01*
X125429757Y-88774624D02*
X125375882Y-88774624D01*
X125375882Y-88774624D02*
X125295070Y-88801561D01*
X125295070Y-88801561D02*
X125241195Y-88855436D01*
X125241195Y-88855436D02*
X125187320Y-88963186D01*
X125187320Y-88963186D02*
X125187320Y-89609683D01*
X125187320Y-89609683D02*
X124837134Y-89259497D01*
X126403564Y-82528431D02*
X126484376Y-82555368D01*
X126484376Y-82555368D02*
X126565188Y-82636180D01*
X126565188Y-82636180D02*
X126619063Y-82743930D01*
X126619063Y-82743930D02*
X126619063Y-82851680D01*
X126619063Y-82851680D02*
X126592126Y-82932492D01*
X126592126Y-82932492D02*
X126511314Y-83067179D01*
X126511314Y-83067179D02*
X126430501Y-83147991D01*
X126430501Y-83147991D02*
X126295814Y-83228803D01*
X126295814Y-83228803D02*
X126215002Y-83255741D01*
X126215002Y-83255741D02*
X126107253Y-83255741D01*
X126107253Y-83255741D02*
X125999503Y-83201866D01*
X125999503Y-83201866D02*
X125945628Y-83147991D01*
X125945628Y-83147991D02*
X125891753Y-83040241D01*
X125891753Y-83040241D02*
X125891753Y-82986367D01*
X125891753Y-82986367D02*
X126080315Y-82797805D01*
X126080315Y-82797805D02*
X126188065Y-82905554D01*
X125595442Y-82797805D02*
X126161127Y-82232119D01*
X126161127Y-82232119D02*
X125272193Y-82474556D01*
X125272193Y-82474556D02*
X125837879Y-81908871D01*
X125002819Y-82205182D02*
X125568505Y-81639497D01*
X125568505Y-81639497D02*
X125433818Y-81504810D01*
X125433818Y-81504810D02*
X125326068Y-81450935D01*
X125326068Y-81450935D02*
X125218319Y-81450935D01*
X125218319Y-81450935D02*
X125137506Y-81477872D01*
X125137506Y-81477872D02*
X125002819Y-81558685D01*
X125002819Y-81558685D02*
X124922007Y-81639497D01*
X124922007Y-81639497D02*
X124841195Y-81774184D01*
X124841195Y-81774184D02*
X124814258Y-81854996D01*
X124814258Y-81854996D02*
X124814258Y-81962746D01*
X124814258Y-81962746D02*
X124868132Y-82070495D01*
X124868132Y-82070495D02*
X125002819Y-82205182D01*
X126900001Y-92930868D02*
X126980814Y-92957805D01*
X126980814Y-92957805D02*
X127061626Y-93038618D01*
X127061626Y-93038618D02*
X127115501Y-93146367D01*
X127115501Y-93146367D02*
X127115501Y-93254117D01*
X127115501Y-93254117D02*
X127088563Y-93334929D01*
X127088563Y-93334929D02*
X127007751Y-93469616D01*
X127007751Y-93469616D02*
X126926939Y-93550428D01*
X126926939Y-93550428D02*
X126792252Y-93631241D01*
X126792252Y-93631241D02*
X126711439Y-93658178D01*
X126711439Y-93658178D02*
X126603690Y-93658178D01*
X126603690Y-93658178D02*
X126495940Y-93604303D01*
X126495940Y-93604303D02*
X126442065Y-93550428D01*
X126442065Y-93550428D02*
X126388191Y-93442679D01*
X126388191Y-93442679D02*
X126388191Y-93388804D01*
X126388191Y-93388804D02*
X126576752Y-93200242D01*
X126576752Y-93200242D02*
X126684502Y-93307992D01*
X126091879Y-93200242D02*
X126657565Y-92634557D01*
X126657565Y-92634557D02*
X126442065Y-92419057D01*
X126442065Y-92419057D02*
X126361253Y-92392120D01*
X126361253Y-92392120D02*
X126307378Y-92392120D01*
X126307378Y-92392120D02*
X126226566Y-92419057D01*
X126226566Y-92419057D02*
X126145754Y-92499870D01*
X126145754Y-92499870D02*
X126118817Y-92580682D01*
X126118817Y-92580682D02*
X126118817Y-92634557D01*
X126118817Y-92634557D02*
X126145754Y-92715369D01*
X126145754Y-92715369D02*
X126361253Y-92930868D01*
X125229882Y-92338245D02*
X125553131Y-92661494D01*
X125391507Y-92499870D02*
X125957192Y-91934184D01*
X125957192Y-91934184D02*
X125930255Y-92068871D01*
X125930255Y-92068871D02*
X125930255Y-92176621D01*
X125930255Y-92176621D02*
X125957192Y-92257433D01*
X125607006Y-91583998D02*
X125256820Y-91233812D01*
X125256820Y-91233812D02*
X125229882Y-91637873D01*
X125229882Y-91637873D02*
X125149070Y-91557060D01*
X125149070Y-91557060D02*
X125068258Y-91530123D01*
X125068258Y-91530123D02*
X125014383Y-91530123D01*
X125014383Y-91530123D02*
X124933571Y-91557060D01*
X124933571Y-91557060D02*
X124798884Y-91691747D01*
X124798884Y-91691747D02*
X124771946Y-91772560D01*
X124771946Y-91772560D02*
X124771946Y-91826434D01*
X124771946Y-91826434D02*
X124798884Y-91907247D01*
X124798884Y-91907247D02*
X124960508Y-92068871D01*
X124960508Y-92068871D02*
X125041320Y-92095808D01*
X125041320Y-92095808D02*
X125095195Y-92095808D01*
X100792001Y-75150868D02*
X100872814Y-75177805D01*
X100872814Y-75177805D02*
X100953626Y-75258618D01*
X100953626Y-75258618D02*
X101007501Y-75366367D01*
X101007501Y-75366367D02*
X101007501Y-75474117D01*
X101007501Y-75474117D02*
X100980563Y-75554929D01*
X100980563Y-75554929D02*
X100899751Y-75689616D01*
X100899751Y-75689616D02*
X100818939Y-75770428D01*
X100818939Y-75770428D02*
X100684252Y-75851241D01*
X100684252Y-75851241D02*
X100603439Y-75878178D01*
X100603439Y-75878178D02*
X100495690Y-75878178D01*
X100495690Y-75878178D02*
X100387940Y-75824303D01*
X100387940Y-75824303D02*
X100334065Y-75770428D01*
X100334065Y-75770428D02*
X100280191Y-75662679D01*
X100280191Y-75662679D02*
X100280191Y-75608804D01*
X100280191Y-75608804D02*
X100468752Y-75420242D01*
X100468752Y-75420242D02*
X100576502Y-75527992D01*
X99983879Y-75420242D02*
X100549565Y-74854557D01*
X100549565Y-74854557D02*
X100334065Y-74639057D01*
X100334065Y-74639057D02*
X100253253Y-74612120D01*
X100253253Y-74612120D02*
X100199378Y-74612120D01*
X100199378Y-74612120D02*
X100118566Y-74639057D01*
X100118566Y-74639057D02*
X100037754Y-74719870D01*
X100037754Y-74719870D02*
X100010817Y-74800682D01*
X100010817Y-74800682D02*
X100010817Y-74854557D01*
X100010817Y-74854557D02*
X100037754Y-74935369D01*
X100037754Y-74935369D02*
X100253253Y-75150868D01*
X99956942Y-74369683D02*
X99956942Y-74315809D01*
X99956942Y-74315809D02*
X99930004Y-74234996D01*
X99930004Y-74234996D02*
X99795317Y-74100309D01*
X99795317Y-74100309D02*
X99714505Y-74073372D01*
X99714505Y-74073372D02*
X99660630Y-74073372D01*
X99660630Y-74073372D02*
X99579818Y-74100309D01*
X99579818Y-74100309D02*
X99525943Y-74154184D01*
X99525943Y-74154184D02*
X99472069Y-74261934D01*
X99472069Y-74261934D02*
X99472069Y-74908431D01*
X99472069Y-74908431D02*
X99121882Y-74558245D01*
X99202694Y-73507686D02*
X99310444Y-73615436D01*
X99310444Y-73615436D02*
X99337381Y-73696248D01*
X99337381Y-73696248D02*
X99337381Y-73750123D01*
X99337381Y-73750123D02*
X99310444Y-73884810D01*
X99310444Y-73884810D02*
X99229632Y-74019497D01*
X99229632Y-74019497D02*
X99014133Y-74234996D01*
X99014133Y-74234996D02*
X98933320Y-74261934D01*
X98933320Y-74261934D02*
X98879446Y-74261934D01*
X98879446Y-74261934D02*
X98798633Y-74234996D01*
X98798633Y-74234996D02*
X98690884Y-74127247D01*
X98690884Y-74127247D02*
X98663946Y-74046434D01*
X98663946Y-74046434D02*
X98663946Y-73992560D01*
X98663946Y-73992560D02*
X98690884Y-73911747D01*
X98690884Y-73911747D02*
X98825571Y-73777060D01*
X98825571Y-73777060D02*
X98906383Y-73750123D01*
X98906383Y-73750123D02*
X98960258Y-73750123D01*
X98960258Y-73750123D02*
X99041070Y-73777060D01*
X99041070Y-73777060D02*
X99148820Y-73884810D01*
X99148820Y-73884810D02*
X99175757Y-73965622D01*
X99175757Y-73965622D02*
X99175757Y-74019497D01*
X99175757Y-74019497D02*
X99148820Y-74100309D01*
X126403564Y-57128431D02*
X126484376Y-57155368D01*
X126484376Y-57155368D02*
X126565188Y-57236180D01*
X126565188Y-57236180D02*
X126619063Y-57343930D01*
X126619063Y-57343930D02*
X126619063Y-57451680D01*
X126619063Y-57451680D02*
X126592126Y-57532492D01*
X126592126Y-57532492D02*
X126511314Y-57667179D01*
X126511314Y-57667179D02*
X126430501Y-57747991D01*
X126430501Y-57747991D02*
X126295814Y-57828803D01*
X126295814Y-57828803D02*
X126215002Y-57855741D01*
X126215002Y-57855741D02*
X126107253Y-57855741D01*
X126107253Y-57855741D02*
X125999503Y-57801866D01*
X125999503Y-57801866D02*
X125945628Y-57747991D01*
X125945628Y-57747991D02*
X125891753Y-57640241D01*
X125891753Y-57640241D02*
X125891753Y-57586367D01*
X125891753Y-57586367D02*
X126080315Y-57397805D01*
X126080315Y-57397805D02*
X126188065Y-57505554D01*
X125595442Y-57397805D02*
X126161127Y-56832119D01*
X126161127Y-56832119D02*
X125272193Y-57074556D01*
X125272193Y-57074556D02*
X125837879Y-56508871D01*
X125002819Y-56805182D02*
X125568505Y-56239497D01*
X125568505Y-56239497D02*
X125433818Y-56104810D01*
X125433818Y-56104810D02*
X125326068Y-56050935D01*
X125326068Y-56050935D02*
X125218319Y-56050935D01*
X125218319Y-56050935D02*
X125137506Y-56077872D01*
X125137506Y-56077872D02*
X125002819Y-56158685D01*
X125002819Y-56158685D02*
X124922007Y-56239497D01*
X124922007Y-56239497D02*
X124841195Y-56374184D01*
X124841195Y-56374184D02*
X124814258Y-56454996D01*
X124814258Y-56454996D02*
X124814258Y-56562746D01*
X124814258Y-56562746D02*
X124868132Y-56670495D01*
X124868132Y-56670495D02*
X125002819Y-56805182D01*
X126900001Y-85310868D02*
X126980814Y-85337805D01*
X126980814Y-85337805D02*
X127061626Y-85418618D01*
X127061626Y-85418618D02*
X127115501Y-85526367D01*
X127115501Y-85526367D02*
X127115501Y-85634117D01*
X127115501Y-85634117D02*
X127088563Y-85714929D01*
X127088563Y-85714929D02*
X127007751Y-85849616D01*
X127007751Y-85849616D02*
X126926939Y-85930428D01*
X126926939Y-85930428D02*
X126792252Y-86011241D01*
X126792252Y-86011241D02*
X126711439Y-86038178D01*
X126711439Y-86038178D02*
X126603690Y-86038178D01*
X126603690Y-86038178D02*
X126495940Y-85984303D01*
X126495940Y-85984303D02*
X126442065Y-85930428D01*
X126442065Y-85930428D02*
X126388191Y-85822679D01*
X126388191Y-85822679D02*
X126388191Y-85768804D01*
X126388191Y-85768804D02*
X126576752Y-85580242D01*
X126576752Y-85580242D02*
X126684502Y-85687992D01*
X126091879Y-85580242D02*
X126657565Y-85014557D01*
X126657565Y-85014557D02*
X126442065Y-84799057D01*
X126442065Y-84799057D02*
X126361253Y-84772120D01*
X126361253Y-84772120D02*
X126307378Y-84772120D01*
X126307378Y-84772120D02*
X126226566Y-84799057D01*
X126226566Y-84799057D02*
X126145754Y-84879870D01*
X126145754Y-84879870D02*
X126118817Y-84960682D01*
X126118817Y-84960682D02*
X126118817Y-85014557D01*
X126118817Y-85014557D02*
X126145754Y-85095369D01*
X126145754Y-85095369D02*
X126361253Y-85310868D01*
X125229882Y-84718245D02*
X125553131Y-85041494D01*
X125391507Y-84879870D02*
X125957192Y-84314184D01*
X125957192Y-84314184D02*
X125930255Y-84448871D01*
X125930255Y-84448871D02*
X125930255Y-84556621D01*
X125930255Y-84556621D02*
X125957192Y-84637433D01*
X125445381Y-83802373D02*
X125391507Y-83748499D01*
X125391507Y-83748499D02*
X125310694Y-83721561D01*
X125310694Y-83721561D02*
X125256820Y-83721561D01*
X125256820Y-83721561D02*
X125176007Y-83748499D01*
X125176007Y-83748499D02*
X125041320Y-83829311D01*
X125041320Y-83829311D02*
X124906633Y-83963998D01*
X124906633Y-83963998D02*
X124825821Y-84098685D01*
X124825821Y-84098685D02*
X124798884Y-84179497D01*
X124798884Y-84179497D02*
X124798884Y-84233372D01*
X124798884Y-84233372D02*
X124825821Y-84314184D01*
X124825821Y-84314184D02*
X124879696Y-84368059D01*
X124879696Y-84368059D02*
X124960508Y-84394996D01*
X124960508Y-84394996D02*
X125014383Y-84394996D01*
X125014383Y-84394996D02*
X125095195Y-84368059D01*
X125095195Y-84368059D02*
X125229882Y-84287247D01*
X125229882Y-84287247D02*
X125364569Y-84152560D01*
X125364569Y-84152560D02*
X125445381Y-84017873D01*
X125445381Y-84017873D02*
X125472319Y-83937060D01*
X125472319Y-83937060D02*
X125472319Y-83883186D01*
X125472319Y-83883186D02*
X125445381Y-83802373D01*
X126376627Y-62181494D02*
X126457439Y-62208431D01*
X126457439Y-62208431D02*
X126538251Y-62289243D01*
X126538251Y-62289243D02*
X126592126Y-62396993D01*
X126592126Y-62396993D02*
X126592126Y-62504742D01*
X126592126Y-62504742D02*
X126565189Y-62585555D01*
X126565189Y-62585555D02*
X126484376Y-62720242D01*
X126484376Y-62720242D02*
X126403564Y-62801054D01*
X126403564Y-62801054D02*
X126268877Y-62881866D01*
X126268877Y-62881866D02*
X126188065Y-62908803D01*
X126188065Y-62908803D02*
X126080315Y-62908803D01*
X126080315Y-62908803D02*
X125972566Y-62854929D01*
X125972566Y-62854929D02*
X125918691Y-62801054D01*
X125918691Y-62801054D02*
X125864816Y-62693304D01*
X125864816Y-62693304D02*
X125864816Y-62639429D01*
X125864816Y-62639429D02*
X126053378Y-62450868D01*
X126053378Y-62450868D02*
X126161128Y-62558617D01*
X125568505Y-62450868D02*
X126134190Y-61885182D01*
X126134190Y-61885182D02*
X125918691Y-61669683D01*
X125918691Y-61669683D02*
X125837879Y-61642746D01*
X125837879Y-61642746D02*
X125784004Y-61642746D01*
X125784004Y-61642746D02*
X125703192Y-61669683D01*
X125703192Y-61669683D02*
X125622380Y-61750495D01*
X125622380Y-61750495D02*
X125595442Y-61831307D01*
X125595442Y-61831307D02*
X125595442Y-61885182D01*
X125595442Y-61885182D02*
X125622380Y-61965994D01*
X125622380Y-61965994D02*
X125837879Y-62181494D01*
X125622380Y-61373372D02*
X125272193Y-61023185D01*
X125272193Y-61023185D02*
X125245256Y-61427246D01*
X125245256Y-61427246D02*
X125164444Y-61346434D01*
X125164444Y-61346434D02*
X125083632Y-61319497D01*
X125083632Y-61319497D02*
X125029757Y-61319497D01*
X125029757Y-61319497D02*
X124948945Y-61346434D01*
X124948945Y-61346434D02*
X124814258Y-61481121D01*
X124814258Y-61481121D02*
X124787320Y-61561933D01*
X124787320Y-61561933D02*
X124787320Y-61615808D01*
X124787320Y-61615808D02*
X124814258Y-61696620D01*
X124814258Y-61696620D02*
X124975882Y-61858245D01*
X124975882Y-61858245D02*
X125056694Y-61885182D01*
X125056694Y-61885182D02*
X125110569Y-61885182D01*
X100792001Y-98010868D02*
X100872814Y-98037805D01*
X100872814Y-98037805D02*
X100953626Y-98118618D01*
X100953626Y-98118618D02*
X101007501Y-98226367D01*
X101007501Y-98226367D02*
X101007501Y-98334117D01*
X101007501Y-98334117D02*
X100980563Y-98414929D01*
X100980563Y-98414929D02*
X100899751Y-98549616D01*
X100899751Y-98549616D02*
X100818939Y-98630428D01*
X100818939Y-98630428D02*
X100684252Y-98711241D01*
X100684252Y-98711241D02*
X100603439Y-98738178D01*
X100603439Y-98738178D02*
X100495690Y-98738178D01*
X100495690Y-98738178D02*
X100387940Y-98684303D01*
X100387940Y-98684303D02*
X100334065Y-98630428D01*
X100334065Y-98630428D02*
X100280191Y-98522679D01*
X100280191Y-98522679D02*
X100280191Y-98468804D01*
X100280191Y-98468804D02*
X100468752Y-98280242D01*
X100468752Y-98280242D02*
X100576502Y-98387992D01*
X99983879Y-98280242D02*
X100549565Y-97714557D01*
X100549565Y-97714557D02*
X100334065Y-97499057D01*
X100334065Y-97499057D02*
X100253253Y-97472120D01*
X100253253Y-97472120D02*
X100199378Y-97472120D01*
X100199378Y-97472120D02*
X100118566Y-97499057D01*
X100118566Y-97499057D02*
X100037754Y-97579870D01*
X100037754Y-97579870D02*
X100010817Y-97660682D01*
X100010817Y-97660682D02*
X100010817Y-97714557D01*
X100010817Y-97714557D02*
X100037754Y-97795369D01*
X100037754Y-97795369D02*
X100253253Y-98010868D01*
X99121882Y-97418245D02*
X99445131Y-97741494D01*
X99283507Y-97579870D02*
X99849192Y-97014184D01*
X99849192Y-97014184D02*
X99822255Y-97148871D01*
X99822255Y-97148871D02*
X99822255Y-97256621D01*
X99822255Y-97256621D02*
X99849192Y-97337433D01*
X99499006Y-96663998D02*
X99121882Y-96286874D01*
X99121882Y-96286874D02*
X98798633Y-97094996D01*
X100936593Y-52557585D02*
X100182346Y-52934709D01*
X100182346Y-52934709D02*
X100559470Y-52180462D01*
X99912972Y-52072712D02*
X99805223Y-52018838D01*
X99805223Y-52018838D02*
X99751348Y-52018838D01*
X99751348Y-52018838D02*
X99670536Y-52045775D01*
X99670536Y-52045775D02*
X99589723Y-52126587D01*
X99589723Y-52126587D02*
X99562786Y-52207399D01*
X99562786Y-52207399D02*
X99562786Y-52261274D01*
X99562786Y-52261274D02*
X99589723Y-52342086D01*
X99589723Y-52342086D02*
X99805223Y-52557586D01*
X99805223Y-52557586D02*
X100370908Y-51991900D01*
X100370908Y-51991900D02*
X100182346Y-51803338D01*
X100182346Y-51803338D02*
X100101534Y-51776401D01*
X100101534Y-51776401D02*
X100047659Y-51776401D01*
X100047659Y-51776401D02*
X99966847Y-51803338D01*
X99966847Y-51803338D02*
X99912972Y-51857213D01*
X99912972Y-51857213D02*
X99886035Y-51938025D01*
X99886035Y-51938025D02*
X99886035Y-51991900D01*
X99886035Y-51991900D02*
X99912972Y-52072712D01*
X99912972Y-52072712D02*
X100101534Y-52261274D01*
X99805223Y-51426215D02*
X99347287Y-51884151D01*
X99347287Y-51884151D02*
X99266475Y-51911088D01*
X99266475Y-51911088D02*
X99212600Y-51911088D01*
X99212600Y-51911088D02*
X99131788Y-51884151D01*
X99131788Y-51884151D02*
X99024038Y-51776401D01*
X99024038Y-51776401D02*
X98997101Y-51695589D01*
X98997101Y-51695589D02*
X98997101Y-51641714D01*
X98997101Y-51641714D02*
X99024038Y-51560902D01*
X99024038Y-51560902D02*
X99481974Y-51102966D01*
X98700789Y-51399277D02*
X98593040Y-51345403D01*
X98593040Y-51345403D02*
X98458353Y-51210716D01*
X98458353Y-51210716D02*
X98431415Y-51129903D01*
X98431415Y-51129903D02*
X98431415Y-51076029D01*
X98431415Y-51076029D02*
X98458353Y-50995216D01*
X98458353Y-50995216D02*
X98512228Y-50941342D01*
X98512228Y-50941342D02*
X98593040Y-50914404D01*
X98593040Y-50914404D02*
X98646915Y-50914404D01*
X98646915Y-50914404D02*
X98727727Y-50941342D01*
X98727727Y-50941342D02*
X98862414Y-51022154D01*
X98862414Y-51022154D02*
X98943226Y-51049091D01*
X98943226Y-51049091D02*
X98997101Y-51049091D01*
X98997101Y-51049091D02*
X99077913Y-51022154D01*
X99077913Y-51022154D02*
X99131788Y-50968279D01*
X99131788Y-50968279D02*
X99158725Y-50887467D01*
X99158725Y-50887467D02*
X99158725Y-50833592D01*
X99158725Y-50833592D02*
X99131788Y-50752780D01*
X99131788Y-50752780D02*
X98997101Y-50618093D01*
X98997101Y-50618093D02*
X98889351Y-50564218D01*
X100792001Y-90390868D02*
X100872814Y-90417805D01*
X100872814Y-90417805D02*
X100953626Y-90498618D01*
X100953626Y-90498618D02*
X101007501Y-90606367D01*
X101007501Y-90606367D02*
X101007501Y-90714117D01*
X101007501Y-90714117D02*
X100980563Y-90794929D01*
X100980563Y-90794929D02*
X100899751Y-90929616D01*
X100899751Y-90929616D02*
X100818939Y-91010428D01*
X100818939Y-91010428D02*
X100684252Y-91091241D01*
X100684252Y-91091241D02*
X100603439Y-91118178D01*
X100603439Y-91118178D02*
X100495690Y-91118178D01*
X100495690Y-91118178D02*
X100387940Y-91064303D01*
X100387940Y-91064303D02*
X100334065Y-91010428D01*
X100334065Y-91010428D02*
X100280191Y-90902679D01*
X100280191Y-90902679D02*
X100280191Y-90848804D01*
X100280191Y-90848804D02*
X100468752Y-90660242D01*
X100468752Y-90660242D02*
X100576502Y-90767992D01*
X99983879Y-90660242D02*
X100549565Y-90094557D01*
X100549565Y-90094557D02*
X100334065Y-89879057D01*
X100334065Y-89879057D02*
X100253253Y-89852120D01*
X100253253Y-89852120D02*
X100199378Y-89852120D01*
X100199378Y-89852120D02*
X100118566Y-89879057D01*
X100118566Y-89879057D02*
X100037754Y-89959870D01*
X100037754Y-89959870D02*
X100010817Y-90040682D01*
X100010817Y-90040682D02*
X100010817Y-90094557D01*
X100010817Y-90094557D02*
X100037754Y-90175369D01*
X100037754Y-90175369D02*
X100253253Y-90390868D01*
X99121882Y-89798245D02*
X99445131Y-90121494D01*
X99283507Y-89959870D02*
X99849192Y-89394184D01*
X99849192Y-89394184D02*
X99822255Y-89528871D01*
X99822255Y-89528871D02*
X99822255Y-89636621D01*
X99822255Y-89636621D02*
X99849192Y-89717433D01*
X98852508Y-89528871D02*
X98744759Y-89421121D01*
X98744759Y-89421121D02*
X98717821Y-89340309D01*
X98717821Y-89340309D02*
X98717821Y-89286434D01*
X98717821Y-89286434D02*
X98744759Y-89151747D01*
X98744759Y-89151747D02*
X98825571Y-89017060D01*
X98825571Y-89017060D02*
X99041070Y-88801561D01*
X99041070Y-88801561D02*
X99121882Y-88774624D01*
X99121882Y-88774624D02*
X99175757Y-88774624D01*
X99175757Y-88774624D02*
X99256569Y-88801561D01*
X99256569Y-88801561D02*
X99364319Y-88909311D01*
X99364319Y-88909311D02*
X99391256Y-88990123D01*
X99391256Y-88990123D02*
X99391256Y-89043998D01*
X99391256Y-89043998D02*
X99364319Y-89124810D01*
X99364319Y-89124810D02*
X99229632Y-89259497D01*
X99229632Y-89259497D02*
X99148820Y-89286434D01*
X99148820Y-89286434D02*
X99094945Y-89286434D01*
X99094945Y-89286434D02*
X99014133Y-89259497D01*
X99014133Y-89259497D02*
X98906383Y-89151747D01*
X98906383Y-89151747D02*
X98879446Y-89070935D01*
X98879446Y-89070935D02*
X98879446Y-89017060D01*
X98879446Y-89017060D02*
X98906383Y-88936248D01*
D12*
%TO.C,J7*%
X113900000Y-130170000D02*
X113900000Y-132830000D01*
X113900000Y-130170000D02*
X114470000Y-130170000D01*
X113900000Y-132830000D02*
X117010000Y-132830000D01*
X115990000Y-130170000D02*
X119100000Y-130170000D01*
X118530000Y-132830000D02*
X119100000Y-132830000D01*
X118530000Y-134350000D02*
X118530000Y-132830000D01*
X119100000Y-130170000D02*
X119100000Y-132830000D01*
%TO.C,U1*%
X102390000Y-50530000D02*
X123390000Y-50530000D01*
X102390000Y-50830000D02*
X102390000Y-50530000D01*
X102390000Y-53330000D02*
X102390000Y-52930000D01*
X102390000Y-55930000D02*
X102390000Y-55530000D01*
X102390000Y-58430000D02*
X102390000Y-58030000D01*
X102390000Y-61030000D02*
X102390000Y-60630000D01*
X102390000Y-63530000D02*
X102390000Y-63130000D01*
X102390000Y-66030000D02*
X102390000Y-65630000D01*
X102390000Y-68630000D02*
X102390000Y-68230000D01*
X102390000Y-71130000D02*
X102390000Y-70730000D01*
X102390000Y-73730000D02*
X102390000Y-73330000D01*
X102390000Y-76230000D02*
X102390000Y-75830000D01*
X102390000Y-78730000D02*
X102390000Y-78330000D01*
X102390000Y-81330000D02*
X102390000Y-80930000D01*
X102390000Y-83830000D02*
X102390000Y-83430000D01*
X102390000Y-86430000D02*
X102390000Y-86030000D01*
X102390000Y-88930000D02*
X102390000Y-88530000D01*
X102390000Y-91530000D02*
X102390000Y-91130000D01*
X102390000Y-94030000D02*
X102390000Y-93630000D01*
X102390000Y-96530000D02*
X102390000Y-96130000D01*
X102390000Y-99130000D02*
X102390000Y-98730000D01*
X109190000Y-101530000D02*
X102390000Y-101530000D01*
X111390000Y-101530000D02*
X111790000Y-101530000D01*
X113990000Y-101530000D02*
X114390000Y-101530000D01*
X120383000Y-50530000D02*
X120383000Y-53197000D01*
X120383000Y-53197000D02*
X123390000Y-53197000D01*
X123390000Y-50830000D02*
X123390000Y-50530000D01*
X123390000Y-53330000D02*
X123390000Y-52930000D01*
X123390000Y-55930000D02*
X123390000Y-55530000D01*
X123390000Y-58430000D02*
X123390000Y-58030000D01*
X123390000Y-61030000D02*
X123390000Y-60630000D01*
X123390000Y-63530000D02*
X123390000Y-63130000D01*
X123390000Y-66030000D02*
X123390000Y-65630000D01*
X123390000Y-68630000D02*
X123390000Y-68230000D01*
X123390000Y-71130000D02*
X123390000Y-70730000D01*
X123390000Y-73730000D02*
X123390000Y-73330000D01*
X123390000Y-76230000D02*
X123390000Y-75830000D01*
X123390000Y-78730000D02*
X123390000Y-78330000D01*
X123390000Y-81330000D02*
X123390000Y-80930000D01*
X123390000Y-83830000D02*
X123390000Y-83430000D01*
X123390000Y-86430000D02*
X123390000Y-86030000D01*
X123390000Y-88930000D02*
X123390000Y-88530000D01*
X123390000Y-91530000D02*
X123390000Y-91130000D01*
X123390000Y-94030000D02*
X123390000Y-93630000D01*
X123390000Y-96530000D02*
X123390000Y-96130000D01*
X123390000Y-99130000D02*
X123390000Y-98730000D01*
X123390000Y-101530000D02*
X116590000Y-101530000D01*
%TD*%
M02*
